<?xml version="1.0" encoding="UTF-8"?>
<svg id="Layer_2" data-name="Layer 2" xmlns="http://www.w3.org/2000/svg" xmlns:xlink="http://www.w3.org/1999/xlink" viewBox="0 0 1689.25 856.55">
  <defs>
    <style>
      .cls-1 {
        fill: #fff8e9;
        opacity: .17;
      }

      .cls-2 {
        mask: url(#mask);
      }

      .cls-3 {
        fill: url(#linear-gradient);
      }
    </style>
    <linearGradient id="linear-gradient" x1="1003.7" y1="225.28" x2="599.28" y2="825.79" gradientTransform="translate(1764.31 811.51) rotate(180)" gradientUnits="userSpaceOnUse">
      <stop offset=".12" stop-color="#000"/>
      <stop offset=".18" stop-color="#222"/>
      <stop offset=".31" stop-color="#797979"/>
      <stop offset=".49" stop-color="#fff"/>
      <stop offset=".71" stop-color="#555"/>
      <stop offset=".83" stop-color="#000"/>
    </linearGradient>
    <mask id="mask" x="-164.99" y="-84.04" width="2094.29" height="979.59" maskUnits="userSpaceOnUse">
      <rect class="cls-3" x="-164.99" y="-84.04" width="2094.29" height="979.59" transform="translate(1764.31 811.51) rotate(-180)"/>
    </mask>
  </defs>
  <g id="front_page" data-name="front page">
    <g class="cls-2">
      <path class="cls-1" d="M290.69,5.78s319.14-16.37,277.57,92.57c-43.99,115.29-58.8,138.47,109.07,106.63,167.34-31.74,121.61,122.79,225.99,84.94,66.22-24.02,198.25,73.79,50.53,83.56-156.01,10.32-376.52,54.44-314.73,101.64,103.15,78.8,610.12,50.64,534.31,157.74-75.8,107.09,129.74,38.67,307.54,89.78,177.8,51.1,208.29,133.93,208.29,133.93,0,0-155.84-182.75-402.58-116.88-246.74,65.87-231,16.64-187.34-26.45,43.66-43.09-41.41-13.67-24.09-38.46,17.32-24.8,90.55-91.81-20.83-100.8-111.38-9-427.24,48.18-492.8-7.28-65.56-55.47,182.87-13.56-38.19-121.88-31.75-15.56,35.06-85.74,194.66-70.44,145.22,13.93,261.53-19.17,237.79-39.57-46.78-40.19-143.57,23.59-232.84,7.5-89.27-16.09,32.96-79.59-50.61-88-83.57-8.42-231.28,60.02-220.69-25.82,10.6-85.83,166.49-155.87,70.17-169.26-119.59-16.63-263.97,66.2-263.97,66.2,0,0,20.72-50.44,102.61-72.02,96.56-25.45-38.39-30.41-196.68,8.2C5.57,100.18,0,41.34,0,41.34c0,0,42.98,52.28,145.67-.55C213.92,5.68,227.85-9.15,290.69,5.78Z"/>
    </g>
  </g>
</svg>