<?xml version="1.0" encoding="UTF-8"?>
<svg id="Layer_2" data-name="Layer 2" xmlns="http://www.w3.org/2000/svg" viewBox="0 0 1833.94 1231.38">
  <defs>
    <style>
      .cls-1 {
        opacity: .07;
      }

      .cls-2, .cls-3 {
        fill: #fff8e9;
      }

      .cls-3 {
        opacity: .58;
        stroke: #fff8e9;
        stroke-miterlimit: 10;
        stroke-width: 2px;
      }
    </style>
  </defs>
  <g id="sinking_thoughts" data-name="sinking thoughts">
    <g>
      <g class="cls-1">
        <line class="cls-3" x1="1317.98" y1="271.16" x2="1317.98" y2="1147.12"/>
        <path class="cls-2" d="M1334.06,702.48h-.02c-.2-.22-3.71-4.01-7.4-5.12-1.6-.48-3.31,.27-4.77,1.3,.94-1.4,1.59-3.01,1.14-4.52-1.11-3.7-4.9-7.21-5.12-7.4v-.02s0,0,0,0c0,0-.01,0-.01,0v.02c-.22,.2-4.01,3.71-5.12,7.4-.47,1.57,.24,3.24,1.24,4.68-1.44-1-3.11-1.72-4.68-1.25-3.7,1.11-7.21,4.9-7.4,5.12h-.02s0,0,0,0c0,0,0,.01,0,.01h.02c.2,.22,3.71,4.01,7.4,5.12,1.57,.47,3.24-.24,4.68-1.24-.86,1.35-1.42,2.87-.99,4.29,1.11,3.7,4.9,7.21,5.12,7.4v.02s0,0,0,0c0,0,.01,0,.01,0v-.02c.22-.2,4.01-3.71,5.12-7.4,.43-1.44-.14-2.98-1.02-4.33,1.37,.89,2.93,1.49,4.39,1.06,3.7-1.11,7.21-4.9,7.4-5.12h.02s0,0,0,0c0,0,0-.01,0-.01Z"/>
        <path class="cls-2" d="M1334.06,974.03h-.02c-.2-.22-3.71-4.01-7.4-5.12-1.6-.48-3.31,.27-4.77,1.3,.94-1.4,1.59-3.01,1.14-4.52-1.11-3.7-4.9-7.21-5.12-7.4v-.02s0,0,0,0c0,0-.01,0-.01,0v.02c-.22,.2-4.01,3.71-5.12,7.4-.47,1.57,.24,3.24,1.24,4.68-1.44-1-3.11-1.72-4.68-1.25-3.7,1.11-7.21,4.9-7.4,5.12h-.02s0,0,0,0c0,0,0,.01,0,.01h.02c.2,.22,3.71,4.01,7.4,5.12,1.57,.47,3.24-.24,4.68-1.24-.86,1.35-1.42,2.87-.99,4.29,1.11,3.7,4.9,7.21,5.12,7.4v.02s0,0,0,0c0,0,.01,0,.01,0v-.02c.22-.2,4.01-3.71,5.12-7.4,.43-1.44-.14-2.98-1.02-4.33,1.37,.89,2.93,1.49,4.39,1.06,3.7-1.11,7.21-4.9,7.4-5.12h.02s0,0,0,0c0,0,0-.01,0-.01Z"/>
        <path class="cls-2" d="M1334.03,387.65h-.02c-.2-.22-3.7-4-7.39-5.11-1.59-.48-3.3,.27-4.76,1.3,.94-1.4,1.59-3,1.14-4.51-1.11-3.69-4.89-7.19-5.11-7.39v-.02s0,0,0,0c0,0-.01,0-.01,0v.02c-.22,.2-4,3.7-5.11,7.39-.47,1.56,.24,3.24,1.24,4.67-1.43-1-3.1-1.71-4.67-1.24-3.69,1.11-7.19,4.89-7.39,5.11h-.02s0,0,0,0c0,0,0,.01,0,.01h.02c.2,.22,3.7,4,7.39,5.11,1.56,.47,3.24-.24,4.67-1.24-.86,1.34-1.42,2.86-.99,4.28,1.11,3.69,4.89,7.19,5.11,7.39v.02s0,0,0,0c0,0,.01,0,.01,0v-.02c.22-.2,4-3.7,5.11-7.39,.43-1.44-.14-2.97-1.02-4.32,1.37,.89,2.92,1.49,4.38,1.05,3.69-1.11,7.19-4.89,7.39-5.11h.02s0,0,0,0c0,0,0-.01,0-.01Z"/>
        <path class="cls-2" d="M1315.89,1121.55s-8.92,23.48-7.18,35.5c1.75,12.03,16.1,9.51,18.43,0,2.33-9.51-7.95-37.06-7.95-37.06,0,0-1.5-6.11-3.3,1.55Z"/>
        <circle class="cls-2" cx="1317.98" cy="778.44" r="4.64"/>
        <circle class="cls-2" cx="1317.98" cy="831.26" r="4.64"/>
        <circle class="cls-2" cx="1317.98" cy="424.71" r="4.64"/>
        <circle class="cls-2" cx="1317.98" cy="662.77" r="4.64"/>
        <circle class="cls-2" cx="1317.98" cy="804.85" r="7.42"/>
        <circle class="cls-2" cx="1317.98" cy="1089.15" r="4.71"/>
        <circle class="cls-2" cx="1317.98" cy="1057.47" r="8.04"/>
        <path class="cls-2" d="M1328.23,546.69c-6.77,1.63-8.37,3.23-10,10-.06,.25-.42,.25-.48,0-1.63-6.77-3.23-8.37-10-10-.25-.06-.25-.42,0-.48,6.77-1.63,8.37-3.23,10-10,.06-.25,.42-.25,.48,0,1.63,6.77,3.23,8.37,10,10,.25,.06,.25,.42,0,.48Z"/>
        <path class="cls-2" d="M1325.08,926.22c-4.69,1.13-5.8,2.24-6.93,6.93-.04,.18-.29,.18-.33,0-1.13-4.69-2.24-5.8-6.93-6.93-.18-.04-.18-.29,0-.33,4.69-1.13,5.8-2.24,6.93-6.93,.04-.18,.29-.18,.33,0,1.13,4.69,2.24,5.8,6.93,6.93,.18,.04,.18,.29,0,.33Z"/>
      </g>
      <g class="cls-1">
        <line class="cls-3" x1="1817.86" y1="327.61" x2="1817.86" y2="1203.57"/>
        <path class="cls-2" d="M1833.94,758.93h-.02c-.2-.22-3.71-4.01-7.4-5.12-1.6-.48-3.31,.27-4.77,1.3,.94-1.4,1.59-3.01,1.14-4.52-1.11-3.7-4.9-7.21-5.12-7.4v-.02s0,0,0,0c0,0-.01,0-.01,0v.02c-.22,.2-4.01,3.71-5.12,7.4-.47,1.57,.24,3.24,1.24,4.68-1.44-1-3.11-1.72-4.68-1.25-3.7,1.11-7.21,4.9-7.4,5.12h-.02s0,0,0,0c0,0,0,.01,0,.01h.02c.2,.22,3.71,4.01,7.4,5.12,1.57,.47,3.24-.24,4.68-1.24-.86,1.35-1.42,2.87-.99,4.29,1.11,3.7,4.9,7.21,5.12,7.4v.02s0,0,0,0c0,0,.01,0,.01,0v-.02c.22-.2,4.01-3.71,5.12-7.4,.43-1.44-.14-2.98-1.02-4.33,1.37,.89,2.93,1.49,4.39,1.06,3.7-1.11,7.21-4.9,7.4-5.12h.02s0,0,0,0c0,0,0-.01,0-.01Z"/>
        <path class="cls-2" d="M1833.94,1030.48h-.02c-.2-.22-3.71-4.01-7.4-5.12-1.6-.48-3.31,.27-4.77,1.3,.94-1.4,1.59-3.01,1.14-4.52-1.11-3.7-4.9-7.21-5.12-7.4v-.02s0,0,0,0c0,0-.01,0-.01,0v.02c-.22,.2-4.01,3.71-5.12,7.4-.47,1.57,.24,3.24,1.24,4.68-1.44-1-3.11-1.72-4.68-1.25-3.7,1.11-7.21,4.9-7.4,5.12h-.02s0,0,0,0c0,0,0,.01,0,.01h.02c.2,.22,3.71,4.01,7.4,5.12,1.57,.47,3.24-.24,4.68-1.24-.86,1.35-1.42,2.87-.99,4.29,1.11,3.7,4.9,7.21,5.12,7.4v.02s0,0,0,0c0,0,.01,0,.01,0v-.02c.22-.2,4.01-3.71,5.12-7.4,.43-1.44-.14-2.98-1.02-4.33,1.37,.89,2.93,1.49,4.39,1.06,3.7-1.11,7.21-4.9,7.4-5.12h.02s0,0,0,0c0,0,0-.01,0-.01Z"/>
        <path class="cls-2" d="M1833.9,444.1h-.02c-.2-.22-3.7-4-7.39-5.11-1.59-.48-3.3,.27-4.76,1.3,.94-1.4,1.59-3,1.14-4.51-1.11-3.69-4.89-7.19-5.11-7.39v-.02s0,0,0,0c0,0-.01,0-.01,0v.02c-.22,.2-4,3.7-5.11,7.39-.47,1.56,.24,3.24,1.24,4.67-1.43-1-3.1-1.71-4.67-1.24-3.69,1.11-7.19,4.89-7.39,5.11h-.02s0,0,0,0c0,0,0,.01,0,.01h.02c.2,.22,3.7,4,7.39,5.11,1.56,.47,3.24-.24,4.67-1.24-.86,1.34-1.42,2.86-.99,4.28,1.11,3.69,4.89,7.19,5.11,7.39v.02s0,0,0,0c0,0,.01,0,.01,0v-.02c.22-.2,4-3.7,5.11-7.39,.43-1.44-.14-2.97-1.02-4.32,1.37,.89,2.92,1.49,4.38,1.05,3.69-1.11,7.19-4.89,7.39-5.11h.02s0,0,0,0c0,0,0-.01,0-.01Z"/>
        <path class="cls-2" d="M1815.76,1178s-8.92,23.48-7.18,35.5,16.1,9.51,18.43,0c2.33-9.51-7.95-37.06-7.95-37.06,0,0-1.5-6.11-3.3,1.55Z"/>
        <circle class="cls-2" cx="1817.86" cy="834.9" r="4.64"/>
        <circle class="cls-2" cx="1817.86" cy="887.71" r="4.64"/>
        <circle class="cls-2" cx="1817.86" cy="481.16" r="4.64"/>
        <circle class="cls-2" cx="1817.86" cy="719.22" r="4.64"/>
        <circle class="cls-2" cx="1817.86" cy="861.3" r="7.42"/>
        <circle class="cls-2" cx="1817.86" cy="1145.61" r="4.71"/>
        <circle class="cls-2" cx="1817.86" cy="1113.92" r="8.04"/>
        <path class="cls-2" d="M1828.1,603.14c-6.77,1.63-8.37,3.23-10,10-.06,.25-.42,.25-.48,0-1.63-6.77-3.23-8.37-10-10-.25-.06-.25-.42,0-.48,6.77-1.63,8.37-3.23,10-10,.06-.25,.42-.25,.48,0,1.63,6.77,3.23,8.37,10,10,.25,.06,.25,.42,0,.48Z"/>
        <path class="cls-2" d="M1824.95,982.67c-4.69,1.13-5.8,2.24-6.93,6.93-.04,.18-.29,.18-.33,0-1.13-4.69-2.24-5.8-6.93-6.93-.18-.04-.18-.29,0-.33,4.69-1.13,5.8-2.24,6.93-6.93,.04-.18,.29-.18,.33,0,1.13,4.69,2.24,5.8,6.93,6.93,.18,.04,.18,.29,0,.33Z"/>
      </g>
      <g class="cls-1">
        <line class="cls-3" x1="1567.92" y1="240.66" x2="1567.92" y2="1116.63"/>
        <path class="cls-2" d="M1584,671.98h-.02c-.2-.22-3.71-4.01-7.4-5.12-1.6-.48-3.31,.27-4.77,1.3,.94-1.4,1.59-3.01,1.14-4.52-1.11-3.7-4.9-7.21-5.12-7.4v-.02s0,0,0,0c0,0-.01,0-.01,0v.02c-.22,.2-4.01,3.71-5.12,7.4-.47,1.57,.24,3.24,1.24,4.68-1.44-1-3.11-1.72-4.68-1.25-3.7,1.11-7.21,4.9-7.4,5.12h-.02s0,0,0,0c0,0,0,.01,0,.01h.02c.2,.22,3.71,4.01,7.4,5.12,1.57,.47,3.24-.24,4.68-1.24-.86,1.35-1.42,2.87-.99,4.29,1.11,3.7,4.9,7.21,5.12,7.4v.02s0,0,0,0c0,0,.01,0,.01,0v-.02c.22-.2,4.01-3.71,5.12-7.4,.43-1.44-.14-2.98-1.02-4.33,1.37,.89,2.93,1.49,4.39,1.06,3.7-1.11,7.21-4.9,7.4-5.12h.02s0,0,0,0c0,0,0-.01,0-.01Z"/>
        <path class="cls-2" d="M1584,943.53h-.02c-.2-.22-3.71-4.01-7.4-5.12-1.6-.48-3.31,.27-4.77,1.3,.94-1.4,1.59-3.01,1.14-4.52-1.11-3.7-4.9-7.21-5.12-7.4v-.02s0,0,0,0c0,0-.01,0-.01,0v.02c-.22,.2-4.01,3.71-5.12,7.4-.47,1.57,.24,3.24,1.24,4.68-1.44-1-3.11-1.72-4.68-1.25-3.7,1.11-7.21,4.9-7.4,5.12h-.02s0,0,0,0c0,0,0,.01,0,.01h.02c.2,.22,3.71,4.01,7.4,5.12,1.57,.47,3.24-.24,4.68-1.24-.86,1.35-1.42,2.87-.99,4.29,1.11,3.7,4.9,7.21,5.12,7.4v.02s0,0,0,0c0,0,.01,0,.01,0v-.02c.22-.2,4.01-3.71,5.12-7.4,.43-1.44-.14-2.98-1.02-4.33,1.37,.89,2.93,1.49,4.39,1.06,3.7-1.11,7.21-4.9,7.4-5.12h.02s0,0,0,0c0,0,0-.01,0-.01Z"/>
        <path class="cls-2" d="M1583.97,357.15h-.02c-.2-.22-3.7-4-7.39-5.11-1.59-.48-3.3,.27-4.76,1.3,.94-1.4,1.59-3,1.14-4.51-1.11-3.69-4.89-7.19-5.11-7.39v-.02s0,0,0,0c0,0-.01,0-.01,0v.02c-.22,.2-4,3.7-5.11,7.39-.47,1.56,.24,3.24,1.24,4.67-1.43-1-3.1-1.71-4.67-1.24-3.69,1.11-7.19,4.89-7.39,5.11h-.02s0,0,0,0c0,0,0,.01,0,.01h.02c.2,.22,3.7,4,7.39,5.11,1.56,.47,3.24-.24,4.67-1.24-.86,1.34-1.42,2.86-.99,4.28,1.11,3.69,4.89,7.19,5.11,7.39v.02s0,0,0,0c0,0,.01,0,.01,0v-.02c.22-.2,4-3.7,5.11-7.39,.43-1.44-.14-2.97-1.02-4.32,1.37,.89,2.92,1.49,4.38,1.05,3.69-1.11,7.19-4.89,7.39-5.11h.02s0,0,0,0c0,0,0-.01,0-.01Z"/>
        <path class="cls-2" d="M1565.82,1091.05s-8.92,23.48-7.18,35.5c1.75,12.03,16.1,9.51,18.43,0,2.33-9.51-7.95-37.06-7.95-37.06,0,0-1.5-6.11-3.3,1.55Z"/>
        <circle class="cls-2" cx="1567.92" cy="747.95" r="4.64"/>
        <circle class="cls-2" cx="1567.92" cy="800.76" r="4.64"/>
        <circle class="cls-2" cx="1567.92" cy="394.21" r="4.64"/>
        <circle class="cls-2" cx="1567.92" cy="632.27" r="4.64"/>
        <circle class="cls-2" cx="1567.92" cy="774.36" r="7.42"/>
        <circle class="cls-2" cx="1567.92" cy="1058.66" r="4.71"/>
        <circle class="cls-2" cx="1567.92" cy="1026.97" r="8.04"/>
        <path class="cls-2" d="M1578.16,516.19c-6.77,1.63-8.37,3.23-10,10-.06,.25-.42,.25-.48,0-1.63-6.77-3.23-8.37-10-10-.25-.06-.25-.42,0-.48,6.77-1.63,8.37-3.23,10-10,.06-.25,.42-.25,.48,0,1.63,6.77,3.23,8.37,10,10,.25,.06,.25,.42,0,.48Z"/>
        <path class="cls-2" d="M1575.02,895.72c-4.69,1.13-5.8,2.24-6.93,6.93-.04,.18-.29,.18-.33,0-1.13-4.69-2.24-5.8-6.93-6.93-.18-.04-.18-.29,0-.33,4.69-1.13,5.8-2.24,6.93-6.93,.04-.18,.29-.18,.33,0,1.13,4.69,2.24,5.8,6.93,6.93,.18,.04,.18,.29,0,.33Z"/>
      </g>
      <g class="cls-1">
        <line class="cls-3" x1="984.05" y1="337.38" x2="984.05" y2="1213.34"/>
        <path class="cls-2" d="M1000.13,768.7h-.02c-.2-.22-3.71-4.01-7.4-5.12-1.6-.48-3.31,.27-4.77,1.3,.94-1.4,1.59-3.01,1.14-4.52-1.11-3.7-4.9-7.21-5.12-7.4v-.02s0,0,0,0c0,0-.01,0-.01,0v.02c-.22,.2-4.01,3.71-5.12,7.4-.47,1.57,.24,3.24,1.24,4.68-1.44-1-3.11-1.72-4.68-1.25-3.7,1.11-7.21,4.9-7.4,5.12h-.02s0,0,0,0c0,0,0,.01,0,.01h.02c.2,.22,3.71,4.01,7.4,5.12,1.57,.47,3.24-.24,4.68-1.24-.86,1.35-1.42,2.87-.99,4.29,1.11,3.7,4.9,7.21,5.12,7.4v.02s0,0,0,0c0,0,.01,0,.01,0v-.02c.22-.2,4.01-3.71,5.12-7.4,.43-1.44-.14-2.98-1.02-4.33,1.37,.89,2.93,1.49,4.39,1.06,3.7-1.11,7.21-4.9,7.4-5.12h.02s0,0,0,0c0,0,0-.01,0-.01Z"/>
        <path class="cls-2" d="M1000.13,1040.25h-.02c-.2-.22-3.71-4.01-7.4-5.12-1.6-.48-3.31,.27-4.77,1.3,.94-1.4,1.59-3.01,1.14-4.52-1.11-3.7-4.9-7.21-5.12-7.4v-.02s0,0,0,0c0,0-.01,0-.01,0v.02c-.22,.2-4.01,3.71-5.12,7.4-.47,1.57,.24,3.24,1.24,4.68-1.44-1-3.11-1.72-4.68-1.25-3.7,1.11-7.21,4.9-7.4,5.12h-.02s0,0,0,0c0,0,0,.01,0,.01h.02c.2,.22,3.71,4.01,7.4,5.12,1.57,.47,3.24-.24,4.68-1.24-.86,1.35-1.42,2.87-.99,4.29,1.11,3.7,4.9,7.21,5.12,7.4v.02s0,0,0,0c0,0,.01,0,.01,0v-.02c.22-.2,4.01-3.71,5.12-7.4,.43-1.44-.14-2.98-1.02-4.33,1.37,.89,2.93,1.49,4.39,1.06,3.7-1.11,7.21-4.9,7.4-5.12h.02s0,0,0,0c0,0,0-.01,0-.01Z"/>
        <path class="cls-2" d="M1000.09,453.87h-.02c-.2-.22-3.7-4-7.39-5.11-1.59-.48-3.3,.27-4.76,1.3,.94-1.4,1.59-3,1.14-4.51-1.11-3.69-4.89-7.19-5.11-7.39v-.02s0,0,0,0c0,0-.01,0-.01,0v.02c-.22,.2-4,3.7-5.11,7.39-.47,1.56,.24,3.24,1.24,4.67-1.43-1-3.1-1.71-4.67-1.24-3.69,1.11-7.19,4.89-7.39,5.11h-.02s0,0,0,0c0,0,0,.01,0,.01h.02c.2,.22,3.7,4,7.39,5.11,1.56,.47,3.24-.24,4.67-1.24-.86,1.34-1.42,2.86-.99,4.28,1.11,3.69,4.89,7.19,5.11,7.39v.02s0,0,0,0c0,0,.01,0,.01,0v-.02c.22-.2,4-3.7,5.11-7.39,.43-1.44-.14-2.97-1.02-4.32,1.37,.89,2.92,1.49,4.38,1.05,3.69-1.11,7.19-4.89,7.39-5.11h.02s0,0,0,0c0,0,0-.01,0-.01Z"/>
        <path class="cls-2" d="M981.95,1187.77s-8.92,23.48-7.18,35.5c1.75,12.03,16.1,9.51,18.43,0,2.33-9.51-7.95-37.06-7.95-37.06,0,0-1.5-6.11-3.3,1.55Z"/>
        <circle class="cls-2" cx="984.05" cy="844.66" r="4.64"/>
        <circle class="cls-2" cx="984.05" cy="897.48" r="4.64"/>
        <circle class="cls-2" cx="984.05" cy="490.93" r="4.64"/>
        <circle class="cls-2" cx="984.05" cy="728.99" r="4.64"/>
        <circle class="cls-2" cx="984.05" cy="871.07" r="7.42"/>
        <circle class="cls-2" cx="984.05" cy="1155.37" r="4.71"/>
        <circle class="cls-2" cx="984.05" cy="1123.68" r="8.04"/>
        <path class="cls-2" d="M994.29,612.9c-6.77,1.63-8.37,3.23-10,10-.06,.25-.42,.25-.48,0-1.63-6.77-3.23-8.37-10-10-.25-.06-.25-.42,0-.48,6.77-1.63,8.37-3.23,10-10,.06-.25,.42-.25,.48,0,1.63,6.77,3.23,8.37,10,10,.25,.06,.25,.42,0,.48Z"/>
        <path class="cls-2" d="M991.14,992.44c-4.69,1.13-5.8,2.24-6.93,6.93-.04,.18-.29,.18-.33,0-1.13-4.69-2.24-5.8-6.93-6.93-.18-.04-.18-.29,0-.33,4.69-1.13,5.8-2.24,6.93-6.93,.04-.18,.29-.18,.33,0,1.13,4.69,2.24,5.8,6.93,6.93,.18,.04,.18,.29,0,.33Z"/>
      </g>
      <g class="cls-1">
        <line class="cls-3" x1="1400.95" y1="324.99" x2="1400.95" y2="898.54"/>
        <path class="cls-2" d="M1399.61,880.33s-5.69,14.98-4.58,22.66c1.11,7.68,10.28,6.07,11.76,0,1.49-6.07-5.08-23.65-5.08-23.65,0,0-.96-3.9-2.1,.99Z"/>
        <path class="cls-2" d="M1399.79,507.73s-4.96,13.06-3.99,19.74,8.96,5.29,10.25,0c1.29-5.29-4.42-20.61-4.42-20.61,0,0-.84-3.4-1.83,.86Z"/>
        <path class="cls-2" d="M1409.83,799.91c-5.87,1.41-7.26,2.8-8.67,8.67-.05,.22-.37,.22-.42,0-1.41-5.87-2.8-7.26-8.67-8.67-.22-.05-.22-.37,0-.42,5.87-1.41,7.26-2.8,8.67-8.67,.05-.22,.37-.22,.42,0,1.41,5.87,2.8,7.26,8.67,8.67,.22,.05,.22,.37,0,.42Z"/>
        <path class="cls-2" d="M1409.83,458.45c-5.87,1.41-7.26,2.8-8.67,8.67-.05,.22-.37,.22-.42,0-1.41-5.87-2.8-7.26-8.67-8.67-.22-.05-.22-.37,0-.42,5.87-1.41,7.26-2.8,8.67-8.67,.05-.22,.37-.22,.42,0,1.41,5.87,2.8,7.26,8.67,8.67,.22,.05,.22,.37,0,.42Z"/>
        <circle class="cls-2" cx="1400.95" cy="654.81" r="4.93"/>
        <circle class="cls-2" cx="1400.95" cy="392.03" r="4.93"/>
        <circle class="cls-2" cx="1400.95" cy="413" r="2.82"/>
        <circle class="cls-2" cx="1400.95" cy="638.09" r="2.82"/>
        <circle class="cls-2" cx="1400.95" cy="669.92" r="2.82"/>
        <circle class="cls-2" cx="1400.95" cy="840.42" r="2.82"/>
        <circle class="cls-2" cx="1400.95" cy="849.19" r="2.82"/>
        <circle class="cls-2" cx="1400.95" cy="857.96" r="2.82"/>
        <path class="cls-2" d="M1413.88,747.36h-.02c-.16-.17-2.98-3.22-5.95-4.11-1.28-.39-2.66,.22-3.83,1.05,.76-1.13,1.28-2.42,.92-3.63-.89-2.97-3.94-5.79-4.11-5.95v-.02s0,0,0,0c0,0,0,0,0,0v.02c-.17,.16-3.22,2.98-4.11,5.95-.38,1.26,.19,2.61,1,3.76-1.16-.8-2.5-1.38-3.76-1-2.97,.89-5.79,3.94-5.95,4.11h-.02s0,0,0,0c0,0,0,0,0,0h.02c.16,.17,2.98,3.22,5.95,4.11,1.26,.38,2.61-.19,3.76-1-.69,1.08-1.14,2.3-.8,3.45,.89,2.97,3.94,5.79,4.11,5.95v.02s0,0,0,0c0,0,0,0,0,0v-.02c.17-.16,3.22-2.98,4.11-5.95,.35-1.16-.12-2.39-.82-3.48,1.1,.72,2.35,1.2,3.53,.85,2.97-.89,5.79-3.94,5.95-4.11h.02s0,0,0,0c0,0,0,0,0,0Z"/>
        <path class="cls-2" d="M1418.06,567.49h-.02c-.21-.23-3.94-4.27-7.88-5.45-1.7-.51-3.52,.29-5.07,1.39,1-1.49,1.69-3.2,1.21-4.81-1.18-3.93-5.22-7.67-5.45-7.88v-.02s0,0-.01,.01c0,0-.01-.01-.01-.01v.02c-.23,.21-4.27,3.94-5.45,7.88-.5,1.67,.26,3.45,1.32,4.98-1.53-1.06-3.31-1.83-4.98-1.33-3.93,1.18-7.67,5.22-7.88,5.45h-.02s0,0,.01,.01c0,0-.01,.01-.01,.01h.02c.21,.23,3.94,4.27,7.88,5.45,1.67,.5,3.45-.26,4.98-1.32-.91,1.43-1.51,3.05-1.05,4.57,1.18,3.93,5.22,7.67,5.45,7.88v.02s0,0,.01-.01c0,0,.01,.01,.01,.01v-.02c.23-.21,4.27-3.94,5.45-7.88,.46-1.53-.15-3.17-1.08-4.61,1.46,.95,3.12,1.59,4.67,1.12,3.93-1.18,7.67-5.22,7.88-5.45h.02s0,0-.01-.01c0,0,.01-.01,.01-.01Z"/>
      </g>
      <g class="cls-1">
        <line class="cls-3" x1="1650.89" y1="250.67" x2="1650.89" y2="824.22"/>
        <path class="cls-2" d="M1649.55,806.02s-5.69,14.98-4.58,22.66c1.11,7.68,10.28,6.07,11.76,0s-5.08-23.65-5.08-23.65c0,0-.96-3.9-2.1,.99Z"/>
        <path class="cls-2" d="M1649.72,433.42s-4.96,13.06-3.99,19.74c.97,6.69,8.96,5.29,10.25,0s-4.42-20.61-4.42-20.61c0,0-.84-3.4-1.83,.86Z"/>
        <path class="cls-2" d="M1659.77,725.59c-5.87,1.41-7.26,2.8-8.67,8.67-.05,.22-.37,.22-.42,0-1.41-5.87-2.8-7.26-8.67-8.67-.22-.05-.22-.37,0-.42,5.87-1.41,7.26-2.8,8.67-8.67,.05-.22,.37-.22,.42,0,1.41,5.87,2.8,7.26,8.67,8.67,.22,.05,.22,.37,0,.42Z"/>
        <path class="cls-2" d="M1659.77,384.13c-5.87,1.41-7.26,2.8-8.67,8.67-.05,.22-.37,.22-.42,0-1.41-5.87-2.8-7.26-8.67-8.67-.22-.05-.22-.37,0-.42,5.87-1.41,7.26-2.8,8.67-8.67,.05-.22,.37-.22,.42,0,1.41,5.87,2.8,7.26,8.67,8.67,.22,.05,.22,.37,0,.42Z"/>
        <circle class="cls-2" cx="1650.89" cy="580.49" r="4.93"/>
        <circle class="cls-2" cx="1650.89" cy="317.71" r="4.93"/>
        <circle class="cls-2" cx="1650.89" cy="338.68" r="2.82"/>
        <circle class="cls-2" cx="1650.89" cy="563.77" r="2.82"/>
        <circle class="cls-2" cx="1650.89" cy="595.6" r="2.82"/>
        <circle class="cls-2" cx="1650.89" cy="766.1" r="2.82"/>
        <circle class="cls-2" cx="1650.89" cy="774.87" r="2.82"/>
        <circle class="cls-2" cx="1650.89" cy="783.64" r="2.82"/>
        <path class="cls-2" d="M1663.81,673.04h-.02c-.16-.17-2.98-3.22-5.95-4.11-1.28-.39-2.66,.22-3.83,1.05,.76-1.13,1.28-2.42,.92-3.63-.89-2.97-3.94-5.79-4.11-5.95v-.02s0,0,0,0c0,0,0,0,0,0v.02c-.17,.16-3.22,2.98-4.11,5.95-.38,1.26,.19,2.61,1,3.76-1.16-.8-2.5-1.38-3.76-1-2.97,.89-5.79,3.94-5.95,4.11h-.02s0,0,0,0c0,0,0,0,0,0h.02c.16,.17,2.98,3.22,5.95,4.11,1.26,.38,2.61-.19,3.76-1-.69,1.08-1.14,2.3-.8,3.45,.89,2.97,3.94,5.79,4.11,5.95v.02s0,0,0,0c0,0,0,0,0,0v-.02c.17-.16,3.22-2.98,4.11-5.95,.35-1.16-.12-2.39-.82-3.48,1.1,.72,2.35,1.2,3.53,.85,2.97-.89,5.79-3.94,5.95-4.11h.02s0,0,0,0c0,0,0,0,0,0Z"/>
        <path class="cls-2" d="M1668,493.18h-.02c-.21-.23-3.94-4.27-7.88-5.45-1.7-.51-3.52,.29-5.07,1.39,1-1.49,1.69-3.2,1.21-4.81-1.18-3.93-5.22-7.67-5.45-7.88v-.02s0,0-.01,.01c0,0-.01-.01-.01-.01v.02c-.23,.21-4.27,3.94-5.45,7.88-.5,1.67,.26,3.45,1.32,4.98-1.53-1.06-3.31-1.83-4.98-1.33-3.93,1.18-7.67,5.22-7.88,5.45h-.02s0,0,.01,.01c0,0-.01,.01-.01,.01h.02c.21,.23,3.94,4.27,7.88,5.45,1.67,.5,3.45-.26,4.98-1.32-.91,1.43-1.51,3.05-1.05,4.57,1.18,3.93,5.22,7.67,5.45,7.88v.02s0,0,.01-.01c0,0,.01,.01,.01,.01v-.02c.23-.21,4.27-3.94,5.45-7.88,.46-1.53-.15-3.17-1.08-4.61,1.46,.95,3.12,1.59,4.67,1.12,3.93-1.18,7.67-5.22,7.88-5.45h.02s0,0-.01-.01c0,0,.01-.01,.01-.01Z"/>
      </g>
      <g class="cls-1">
        <line class="cls-3" x1="1151.01" y1="250.67" x2="1151.01" y2="824.22"/>
        <path class="cls-2" d="M1149.68,806.02s-5.69,14.98-4.58,22.66c1.11,7.68,10.28,6.07,11.76,0,1.49-6.07-5.08-23.65-5.08-23.65,0,0-.96-3.9-2.1,.99Z"/>
        <path class="cls-2" d="M1149.85,433.42s-4.96,13.06-3.99,19.74c.97,6.69,8.96,5.29,10.25,0,1.29-5.29-4.42-20.61-4.42-20.61,0,0-.84-3.4-1.83,.86Z"/>
        <path class="cls-2" d="M1159.9,725.59c-5.87,1.41-7.26,2.8-8.67,8.67-.05,.22-.37,.22-.42,0-1.41-5.87-2.8-7.26-8.67-8.67-.22-.05-.22-.37,0-.42,5.87-1.41,7.26-2.8,8.67-8.67,.05-.22,.37-.22,.42,0,1.41,5.87,2.8,7.26,8.67,8.67,.22,.05,.22,.37,0,.42Z"/>
        <path class="cls-2" d="M1159.9,384.13c-5.87,1.41-7.26,2.8-8.67,8.67-.05,.22-.37,.22-.42,0-1.41-5.87-2.8-7.26-8.67-8.67-.22-.05-.22-.37,0-.42,5.87-1.41,7.26-2.8,8.67-8.67,.05-.22,.37-.22,.42,0,1.41,5.87,2.8,7.26,8.67,8.67,.22,.05,.22,.37,0,.42Z"/>
        <circle class="cls-2" cx="1151.01" cy="580.49" r="4.93"/>
        <circle class="cls-2" cx="1151.01" cy="317.71" r="4.93"/>
        <circle class="cls-2" cx="1151.01" cy="338.68" r="2.82"/>
        <circle class="cls-2" cx="1151.01" cy="563.77" r="2.82"/>
        <circle class="cls-2" cx="1151.01" cy="595.6" r="2.82"/>
        <circle class="cls-2" cx="1151.01" cy="766.1" r="2.82"/>
        <circle class="cls-2" cx="1151.01" cy="774.87" r="2.82"/>
        <circle class="cls-2" cx="1151.01" cy="783.64" r="2.82"/>
        <path class="cls-2" d="M1163.94,673.04h-.02c-.16-.17-2.98-3.22-5.95-4.11-1.28-.39-2.66,.22-3.83,1.05,.76-1.13,1.28-2.42,.92-3.63-.89-2.97-3.94-5.79-4.11-5.95v-.02s0,0,0,0c0,0,0,0,0,0v.02c-.17,.16-3.22,2.98-4.11,5.95-.38,1.26,.19,2.61,1,3.76-1.16-.8-2.5-1.38-3.76-1-2.97,.89-5.79,3.94-5.95,4.11h-.02s0,0,0,0c0,0,0,0,0,0h.02c.16,.17,2.98,3.22,5.95,4.11,1.26,.38,2.61-.19,3.76-1-.69,1.08-1.14,2.3-.8,3.45,.89,2.97,3.94,5.79,4.11,5.95v.02s0,0,0,0c0,0,0,0,0,0v-.02c.17-.16,3.22-2.98,4.11-5.95,.35-1.16-.12-2.39-.82-3.48,1.1,.72,2.35,1.2,3.53,.85,2.97-.89,5.79-3.94,5.95-4.11h.02s0,0,0,0c0,0,0,0,0,0Z"/>
        <path class="cls-2" d="M1168.13,493.18h-.02c-.21-.23-3.94-4.27-7.88-5.45-1.7-.51-3.52,.29-5.07,1.39,1-1.49,1.69-3.2,1.21-4.81-1.18-3.93-5.22-7.67-5.45-7.88v-.02s0,0-.01,.01c0,0-.01-.01-.01-.01v.02c-.23,.21-4.27,3.94-5.45,7.88-.5,1.67,.26,3.45,1.32,4.98-1.53-1.06-3.31-1.83-4.98-1.33-3.93,1.18-7.67,5.22-7.88,5.45h-.02s0,0,.01,.01c0,0-.01,.01-.01,.01h.02c.21,.23,3.94,4.27,7.88,5.45,1.67,.5,3.45-.26,4.98-1.32-.91,1.43-1.51,3.05-1.05,4.57,1.18,3.93,5.22,7.67,5.45,7.88v.02s0,0,.01-.01c0,0,.01,.01,.01,.01v-.02c.23-.21,4.27-3.94,5.45-7.88,.46-1.53-.15-3.17-1.08-4.61,1.46,.95,3.12,1.59,4.67,1.12,3.93-1.18,7.67-5.22,7.88-5.45h.02s0,0-.01-.01c0,0,.01-.01,.01-.01Z"/>
      </g>
      <g class="cls-1">
        <line class="cls-3" x1="1484.95" y1="325.36" x2="1484.95" y2="1007.04"/>
        <path class="cls-2" d="M1483.61,987.94s-5.69,14.98-4.58,22.66c1.11,7.68,10.28,6.07,11.76,0,1.49-6.07-5.08-23.65-5.08-23.65,0,0-.96-3.9-2.1,.99Z"/>
        <path class="cls-2" d="M1483.79,714.4s-4.96,13.06-3.99,19.74c.97,6.69,8.96,5.29,10.25,0,1.29-5.29-4.42-20.61-4.42-20.61,0,0-.84-3.4-1.83,.86Z"/>
        <path class="cls-2" d="M1493.83,833.63c-5.87,1.41-7.26,2.8-8.67,8.67-.05,.22-.37,.22-.42,0-1.41-5.87-2.8-7.26-8.67-8.67-.22-.05-.22-.37,0-.42,5.87-1.41,7.26-2.8,8.67-8.67,.05-.22,.37-.22,.42,0,1.41,5.87,2.8,7.26,8.67,8.67,.22,.05,.22,.37,0,.42Z"/>
        <path class="cls-2" d="M1493.83,578.31c-5.87,1.41-7.26,2.8-8.67,8.67-.05,.22-.37,.22-.42,0-1.41-5.87-2.8-7.26-8.67-8.67-.22-.05-.22-.37,0-.42,5.87-1.41,7.26-2.8,8.67-8.67,.05-.22,.37-.22,.42,0,1.41,5.87,2.8,7.26,8.67,8.67,.22,.05,.22,.37,0,.42Z"/>
        <circle class="cls-2" cx="1484.95" cy="648.28" r="4.93"/>
        <circle class="cls-2" cx="1484.95" cy="415.84" r="4.93"/>
        <circle class="cls-2" cx="1484.95" cy="444.56" r="2.82"/>
        <circle class="cls-2" cx="1484.95" cy="387.12" r="2.82"/>
        <circle class="cls-2" cx="1484.95" cy="688.4" r="2.82"/>
        <circle class="cls-2" cx="1484.95" cy="937.59" r="2.82"/>
        <circle class="cls-2" cx="1484.95" cy="670.01" r="2.82"/>
        <path class="cls-2" d="M1497.88,876.09h-.02c-.16-.17-2.98-3.22-5.95-4.11-1.28-.39-2.66,.22-3.83,1.05,.76-1.13,1.28-2.42,.92-3.63-.89-2.97-3.94-5.79-4.11-5.95v-.02s0,0,0,0c0,0,0,0,0,0v.02c-.17,.16-3.22,2.98-4.11,5.95-.38,1.26,.19,2.61,1,3.76-1.16-.8-2.5-1.38-3.76-1-2.97,.89-5.79,3.94-5.95,4.11h-.02s0,0,0,0c0,0,0,0,0,0h.02c.16,.17,2.98,3.22,5.95,4.11,1.26,.38,2.61-.19,3.76-1-.69,1.08-1.14,2.3-.8,3.45,.89,2.97,3.94,5.79,4.11,5.95v.02s0,0,0,0c0,0,0,0,0,0v-.02c.17-.16,3.22-2.98,4.11-5.95,.35-1.16-.12-2.39-.82-3.48,1.1,.72,2.35,1.2,3.53,.85,2.97-.89,5.79-3.94,5.95-4.11h.02s0,0,0,0c0,0,0,0,0,0Z"/>
        <path class="cls-2" d="M1502.06,513.73h-.02c-.21-.23-3.94-4.27-7.88-5.45-1.7-.51-3.52,.29-5.07,1.39,1-1.49,1.69-3.2,1.21-4.81-1.18-3.93-5.22-7.67-5.45-7.88v-.02s0,0-.01,.01c0,0-.01-.01-.01-.01v.02c-.23,.21-4.27,3.94-5.45,7.88-.5,1.67,.26,3.45,1.32,4.98-1.53-1.06-3.31-1.83-4.98-1.33-3.93,1.18-7.67,5.22-7.88,5.45h-.02s0,0,.01,.01c0,0-.01,.01-.01,.01h.02c.21,.23,3.94,4.27,7.88,5.45,1.67,.5,3.45-.26,4.98-1.32-.91,1.43-1.51,3.05-1.05,4.57,1.18,3.93,5.22,7.67,5.45,7.88v.02s0,0,.01-.01c0,0,.01,.01,.01,.01v-.02c.23-.21,4.27-3.94,5.45-7.88,.46-1.53-.15-3.17-1.08-4.61,1.46,.95,3.12,1.59,4.67,1.12,3.93-1.18,7.67-5.22,7.88-5.45h.02s0,0-.01-.01c0,0,.01-.01,.01-.01Z"/>
      </g>
      <g class="cls-1">
        <line class="cls-3" x1="1235.01" y1="339.53" x2="1235.01" y2="1021.2"/>
        <path class="cls-2" d="M1233.68,1002.1s-5.69,14.98-4.58,22.66c1.11,7.68,10.28,6.07,11.76,0,1.49-6.07-5.08-23.65-5.08-23.65,0,0-.96-3.9-2.1,.99Z"/>
        <path class="cls-2" d="M1233.85,728.56s-4.96,13.06-3.99,19.74c.97,6.69,8.96,5.29,10.25,0,1.29-5.29-4.42-20.61-4.42-20.61,0,0-.84-3.4-1.83,.86Z"/>
        <path class="cls-2" d="M1243.9,847.79c-5.87,1.41-7.26,2.8-8.67,8.67-.05,.22-.37,.22-.42,0-1.41-5.87-2.8-7.26-8.67-8.67-.22-.05-.22-.37,0-.42,5.87-1.41,7.26-2.8,8.67-8.67,.05-.22,.37-.22,.42,0,1.41,5.87,2.8,7.26,8.67,8.67,.22,.05,.22,.37,0,.42Z"/>
        <path class="cls-2" d="M1243.9,592.48c-5.87,1.41-7.26,2.8-8.67,8.67-.05,.22-.37,.22-.42,0-1.41-5.87-2.8-7.26-8.67-8.67-.22-.05-.22-.37,0-.42,5.87-1.41,7.26-2.8,8.67-8.67,.05-.22,.37-.22,.42,0,1.41,5.87,2.8,7.26,8.67,8.67,.22,.05,.22,.37,0,.42Z"/>
        <circle class="cls-2" cx="1235.01" cy="662.45" r="4.93"/>
        <circle class="cls-2" cx="1235.01" cy="430.01" r="4.93"/>
        <circle class="cls-2" cx="1235.01" cy="458.73" r="2.82"/>
        <circle class="cls-2" cx="1235.01" cy="401.29" r="2.82"/>
        <circle class="cls-2" cx="1235.01" cy="702.56" r="2.82"/>
        <circle class="cls-2" cx="1235.01" cy="951.76" r="2.82"/>
        <circle class="cls-2" cx="1235.01" cy="684.18" r="2.82"/>
        <path class="cls-2" d="M1247.94,890.26h-.02c-.16-.17-2.98-3.22-5.95-4.11-1.28-.39-2.66,.22-3.83,1.05,.76-1.13,1.28-2.42,.92-3.63-.89-2.97-3.94-5.79-4.11-5.95v-.02s0,0,0,0c0,0,0,0,0,0v.02c-.17,.16-3.22,2.98-4.11,5.95-.38,1.26,.19,2.61,1,3.76-1.16-.8-2.5-1.38-3.76-1-2.97,.89-5.79,3.94-5.95,4.11h-.02s0,0,0,0c0,0,0,0,0,0h.02c.16,.17,2.98,3.22,5.95,4.11,1.26,.38,2.61-.19,3.76-1-.69,1.08-1.14,2.3-.8,3.45,.89,2.97,3.94,5.79,4.11,5.95v.02s0,0,0,0c0,0,0,0,0,0v-.02c.17-.16,3.22-2.98,4.11-5.95,.35-1.16-.12-2.39-.82-3.48,1.1,.72,2.35,1.2,3.53,.85,2.97-.89,5.79-3.94,5.95-4.11h.02s0,0,0,0c0,0,0,0,0,0Z"/>
        <path class="cls-2" d="M1252.13,527.9h-.02c-.21-.23-3.94-4.27-7.88-5.45-1.7-.51-3.52,.29-5.07,1.39,1-1.49,1.69-3.2,1.21-4.81-1.18-3.93-5.22-7.67-5.45-7.88v-.02s0,0-.01,.01c0,0-.01-.01-.01-.01v.02c-.23,.21-4.27,3.94-5.45,7.88-.5,1.67,.26,3.45,1.32,4.98-1.53-1.06-3.31-1.83-4.98-1.33-3.93,1.18-7.67,5.22-7.88,5.45h-.02s0,0,.01,.01c0,0-.01,.01-.01,.01h.02c.21,.23,3.94,4.27,7.88,5.45,1.67,.5,3.45-.26,4.98-1.32-.91,1.43-1.51,3.05-1.05,4.57,1.18,3.93,5.22,7.67,5.45,7.88v.02s0,0,.01-.01c0,0,.01,.01,.01,.01v-.02c.23-.21,4.27-3.94,5.45-7.88,.46-1.53-.15-3.17-1.08-4.61,1.46,.95,3.12,1.59,4.67,1.12,3.93-1.18,7.67-5.22,7.88-5.45h.02s0,0-.01-.01c0,0,.01-.01,.01-.01Z"/>
      </g>
      <g class="cls-1">
        <line class="cls-3" x1="1067.01" y1="282.84" x2="1067.01" y2="964.51"/>
        <path class="cls-2" d="M1065.68,945.41s-5.69,14.98-4.58,22.66c1.11,7.68,10.28,6.07,11.76,0,1.49-6.07-5.08-23.65-5.08-23.65,0,0-.96-3.9-2.1,.99Z"/>
        <path class="cls-2" d="M1065.85,671.88s-4.96,13.06-3.99,19.74c.97,6.69,8.96,5.29,10.25,0,1.29-5.29-4.42-20.61-4.42-20.61,0,0-.84-3.4-1.83,.86Z"/>
        <path class="cls-2" d="M1075.9,791.11c-5.87,1.41-7.26,2.8-8.67,8.67-.05,.22-.37,.22-.42,0-1.41-5.87-2.8-7.26-8.67-8.67-.22-.05-.22-.37,0-.42,5.87-1.41,7.26-2.8,8.67-8.67,.05-.22,.37-.22,.42,0,1.41,5.87,2.8,7.26,8.67,8.67,.22,.05,.22,.37,0,.42Z"/>
        <path class="cls-2" d="M1075.9,535.79c-5.87,1.41-7.26,2.8-8.67,8.67-.05,.22-.37,.22-.42,0-1.41-5.87-2.8-7.26-8.67-8.67-.22-.05-.22-.37,0-.42,5.87-1.41,7.26-2.8,8.67-8.67,.05-.22,.37-.22,.42,0,1.41,5.87,2.8,7.26,8.67,8.67,.22,.05,.22,.37,0,.42Z"/>
        <circle class="cls-2" cx="1067.01" cy="605.76" r="4.93"/>
        <circle class="cls-2" cx="1067.01" cy="373.32" r="4.93"/>
        <circle class="cls-2" cx="1067.01" cy="402.04" r="2.82"/>
        <circle class="cls-2" cx="1067.01" cy="344.6" r="2.82"/>
        <circle class="cls-2" cx="1067.01" cy="645.88" r="2.82"/>
        <circle class="cls-2" cx="1067.01" cy="895.07" r="2.82"/>
        <circle class="cls-2" cx="1067.01" cy="627.49" r="2.82"/>
        <path class="cls-2" d="M1079.94,833.57h-.02c-.16-.17-2.98-3.22-5.95-4.11-1.28-.39-2.66,.22-3.83,1.05,.76-1.13,1.28-2.42,.92-3.63-.89-2.97-3.94-5.79-4.11-5.95v-.02s0,0,0,0c0,0,0,0,0,0v.02c-.17,.16-3.22,2.98-4.11,5.95-.38,1.26,.19,2.61,1,3.76-1.16-.8-2.5-1.38-3.76-1-2.97,.89-5.79,3.94-5.95,4.11h-.02s0,0,0,0c0,0,0,0,0,0h.02c.16,.17,2.98,3.22,5.95,4.11,1.26,.38,2.61-.19,3.76-1-.69,1.08-1.14,2.3-.8,3.45,.89,2.97,3.94,5.79,4.11,5.95v.02s0,0,0,0c0,0,0,0,0,0v-.02c.17-.16,3.22-2.98,4.11-5.95,.35-1.16-.12-2.39-.82-3.48,1.1,.72,2.35,1.2,3.53,.85,2.97-.89,5.79-3.94,5.95-4.11h.02s0,0,0,0c0,0,0,0,0,0Z"/>
        <path class="cls-2" d="M1084.13,471.21h-.02c-.21-.23-3.94-4.27-7.88-5.45-1.7-.51-3.52,.29-5.07,1.39,1-1.49,1.69-3.2,1.21-4.81-1.18-3.93-5.22-7.67-5.45-7.88v-.02s0,0-.01,.01c0,0-.01-.01-.01-.01v.02c-.23,.21-4.27,3.94-5.45,7.88-.5,1.67,.26,3.45,1.32,4.98-1.53-1.06-3.31-1.83-4.98-1.33-3.93,1.18-7.67,5.22-7.88,5.45h-.02s0,0,.01,.01c0,0-.01,.01-.01,.01h.02c.21,.23,3.94,4.27,7.88,5.45,1.67,.5,3.45-.26,4.98-1.32-.91,1.43-1.51,3.05-1.05,4.57,1.18,3.93,5.22,7.67,5.45,7.88v.02s0,0,.01-.01c0,0,.01,.01,.01,.01v-.02c.23-.21,4.27-3.94,5.45-7.88,.46-1.53-.15-3.17-1.08-4.61,1.46,.95,3.12,1.59,4.67,1.12,3.93-1.18,7.67-5.22,7.88-5.45h.02s0,0-.01-.01c0,0,.01-.01,.01-.01Z"/>
      </g>
      <g class="cls-1">
        <line class="cls-3" x1="1734.89" y1="318.42" x2="1734.89" y2="1000.09"/>
        <path class="cls-2" d="M1733.55,980.99s-5.69,14.98-4.58,22.66c1.11,7.68,10.28,6.07,11.76,0s-5.08-23.65-5.08-23.65c0,0-.96-3.9-2.1,.99Z"/>
        <path class="cls-2" d="M1733.72,707.45s-4.96,13.06-3.99,19.74,8.96,5.29,10.25,0c1.29-5.29-4.42-20.61-4.42-20.61,0,0-.84-3.4-1.83,.86Z"/>
        <path class="cls-2" d="M1743.77,826.68c-5.87,1.41-7.26,2.8-8.67,8.67-.05,.22-.37,.22-.42,0-1.41-5.87-2.8-7.26-8.67-8.67-.22-.05-.22-.37,0-.42,5.87-1.41,7.26-2.8,8.67-8.67,.05-.22,.37-.22,.42,0,1.41,5.87,2.8,7.26,8.67,8.67,.22,.05,.22,.37,0,.42Z"/>
        <path class="cls-2" d="M1743.77,571.37c-5.87,1.41-7.26,2.8-8.67,8.67-.05,.22-.37,.22-.42,0-1.41-5.87-2.8-7.26-8.67-8.67-.22-.05-.22-.37,0-.42,5.87-1.41,7.26-2.8,8.67-8.67,.05-.22,.37-.22,.42,0,1.41,5.87,2.8,7.26,8.67,8.67,.22,.05,.22,.37,0,.42Z"/>
        <circle class="cls-2" cx="1734.89" cy="641.34" r="4.93"/>
        <circle class="cls-2" cx="1734.89" cy="408.9" r="4.93"/>
        <circle class="cls-2" cx="1734.89" cy="437.62" r="2.82"/>
        <circle class="cls-2" cx="1734.89" cy="380.18" r="2.82"/>
        <circle class="cls-2" cx="1734.89" cy="681.45" r="2.82"/>
        <circle class="cls-2" cx="1734.89" cy="930.64" r="2.82"/>
        <circle class="cls-2" cx="1734.89" cy="663.07" r="2.82"/>
        <path class="cls-2" d="M1747.81,869.15h-.02c-.16-.17-2.98-3.22-5.95-4.11-1.28-.39-2.66,.22-3.83,1.05,.76-1.13,1.28-2.42,.92-3.63-.89-2.97-3.94-5.79-4.11-5.95v-.02s0,0,0,0c0,0,0,0,0,0v.02c-.17,.16-3.22,2.98-4.11,5.95-.38,1.26,.19,2.61,1,3.76-1.16-.8-2.5-1.38-3.76-1-2.97,.89-5.79,3.94-5.95,4.11h-.02s0,0,0,0c0,0,0,0,0,0h.02c.16,.17,2.98,3.22,5.95,4.11,1.26,.38,2.61-.19,3.76-1-.69,1.08-1.14,2.3-.8,3.45,.89,2.97,3.94,5.79,4.11,5.95v.02s0,0,0,0c0,0,0,0,0,0v-.02c.17-.16,3.22-2.98,4.11-5.95,.35-1.16-.12-2.39-.82-3.48,1.1,.72,2.35,1.2,3.53,.85,2.97-.89,5.79-3.94,5.95-4.11h.02s0,0,0,0c0,0,0,0,0,0Z"/>
        <path class="cls-2" d="M1752,506.79h-.02c-.21-.23-3.94-4.27-7.88-5.45-1.7-.51-3.52,.29-5.07,1.39,1-1.49,1.69-3.2,1.21-4.81-1.18-3.93-5.22-7.67-5.45-7.88v-.02s0,0-.01,.01c0,0-.01-.01-.01-.01v.02c-.23,.21-4.27,3.94-5.45,7.88-.5,1.67,.26,3.45,1.32,4.98-1.53-1.06-3.31-1.83-4.98-1.33-3.93,1.18-7.67,5.22-7.88,5.45h-.02s0,0,.01,.01c0,0-.01,.01-.01,.01h.02c.21,.23,3.94,4.27,7.88,5.45,1.67,.5,3.45-.26,4.98-1.32-.91,1.43-1.51,3.05-1.05,4.57,1.18,3.93,5.22,7.67,5.45,7.88v.02s0,0,.01-.01c0,0,.01,.01,.01,.01v-.02c.23-.21,4.27-3.94,5.45-7.88,.46-1.53-.15-3.17-1.08-4.61,1.46,.95,3.12,1.59,4.67,1.12,3.93-1.18,7.67-5.22,7.88-5.45h.02s0,0-.01-.01c0,0,.01-.01,.01-.01Z"/>
      </g>
    </g>
    <g>
      <g class="cls-1">
        <line class="cls-3" x1="350.02" y1="30.5" x2="350.02" y2="906.46"/>
        <path class="cls-2" d="M366.1,461.82h-.02c-.2-.22-3.71-4.01-7.4-5.12-1.6-.48-3.31,.27-4.77,1.3,.94-1.4,1.59-3.01,1.14-4.52-1.11-3.7-4.9-7.21-5.12-7.4v-.02s0,0,0,0c0,0-.01,0-.01,0v.02c-.22,.2-4.01,3.71-5.12,7.4-.47,1.57,.24,3.24,1.24,4.68-1.44-1-3.11-1.72-4.68-1.25-3.7,1.11-7.21,4.9-7.4,5.12h-.02s0,0,0,0c0,0,0,.01,0,.01h.02c.2,.22,3.71,4.01,7.4,5.12,1.57,.47,3.24-.24,4.68-1.24-.86,1.35-1.42,2.87-.99,4.29,1.11,3.7,4.9,7.21,5.12,7.4v.02s0,0,0,0c0,0,.01,0,.01,0v-.02c.22-.2,4.01-3.71,5.12-7.4,.43-1.44-.14-2.98-1.02-4.33,1.37,.89,2.93,1.49,4.39,1.06,3.7-1.11,7.21-4.9,7.4-5.12h.02s0,0,0,0c0,0,0-.01,0-.01Z"/>
        <path class="cls-2" d="M366.1,733.37h-.02c-.2-.22-3.71-4.01-7.4-5.12-1.6-.48-3.31,.27-4.77,1.3,.94-1.4,1.59-3.01,1.14-4.52-1.11-3.7-4.9-7.21-5.12-7.4v-.02s0,0,0,0c0,0-.01,0-.01,0v.02c-.22,.2-4.01,3.71-5.12,7.4-.47,1.57,.24,3.24,1.24,4.68-1.44-1-3.11-1.72-4.68-1.25-3.7,1.11-7.21,4.9-7.4,5.12h-.02s0,0,0,0c0,0,0,.01,0,.01h.02c.2,.22,3.71,4.01,7.4,5.12,1.57,.47,3.24-.24,4.68-1.24-.86,1.35-1.42,2.87-.99,4.29,1.11,3.7,4.9,7.21,5.12,7.4v.02s0,0,0,0c0,0,.01,0,.01,0v-.02c.22-.2,4.01-3.71,5.12-7.4,.43-1.44-.14-2.98-1.02-4.33,1.37,.89,2.93,1.49,4.39,1.06,3.7-1.11,7.21-4.9,7.4-5.12h.02s0,0,0,0c0,0,0-.01,0-.01Z"/>
        <path class="cls-2" d="M366.07,146.99h-.02c-.2-.22-3.7-4-7.39-5.11-1.59-.48-3.3,.27-4.76,1.3,.94-1.4,1.59-3,1.14-4.51-1.11-3.69-4.89-7.19-5.11-7.39v-.02s0,0,0,0c0,0-.01,0-.01,0v.02c-.22,.2-4,3.7-5.11,7.39-.47,1.56,.24,3.24,1.24,4.67-1.43-1-3.1-1.71-4.67-1.24-3.69,1.11-7.19,4.89-7.39,5.11h-.02s0,0,0,0c0,0,0,.01,0,.01h.02c.2,.22,3.7,4,7.39,5.11,1.56,.47,3.24-.24,4.67-1.24-.86,1.34-1.42,2.86-.99,4.28,1.11,3.69,4.89,7.19,5.11,7.39v.02s0,0,0,0c0,0,.01,0,.01,0v-.02c.22-.2,4-3.7,5.11-7.39,.43-1.44-.14-2.97-1.02-4.32,1.37,.89,2.92,1.49,4.38,1.05,3.69-1.11,7.19-4.89,7.39-5.11h.02s0,0,0,0c0,0,0-.01,0-.01Z"/>
        <path class="cls-2" d="M347.92,880.89s-8.92,23.48-7.18,35.5c1.75,12.03,16.1,9.51,18.43,0,2.33-9.51-7.95-37.06-7.95-37.06,0,0-1.5-6.11-3.3,1.55Z"/>
        <circle class="cls-2" cx="350.02" cy="537.78" r="4.64"/>
        <circle class="cls-2" cx="350.02" cy="590.6" r="4.64"/>
        <circle class="cls-2" cx="350.02" cy="184.05" r="4.64"/>
        <circle class="cls-2" cx="350.02" cy="422.1" r="4.64"/>
        <circle class="cls-2" cx="350.02" cy="564.19" r="7.42"/>
        <circle class="cls-2" cx="350.02" cy="848.49" r="4.71"/>
        <circle class="cls-2" cx="350.02" cy="816.8" r="8.04"/>
        <path class="cls-2" d="M360.26,306.02c-6.77,1.63-8.37,3.23-10,10-.06,.25-.42,.25-.48,0-1.63-6.77-3.23-8.37-10-10-.25-.06-.25-.42,0-.48,6.77-1.63,8.37-3.23,10-10,.06-.25,.42-.25,.48,0,1.63,6.77,3.23,8.37,10,10,.25,.06,.25,.42,0,.48Z"/>
        <path class="cls-2" d="M357.12,685.56c-4.69,1.13-5.8,2.24-6.93,6.93-.04,.18-.29,.18-.33,0-1.13-4.69-2.24-5.8-6.93-6.93-.18-.04-.18-.29,0-.33,4.69-1.13,5.8-2.24,6.93-6.93,.04-.18,.29-.18,.33,0,1.13,4.69,2.24,5.8,6.93,6.93,.18,.04,.18,.29,0,.33Z"/>
      </g>
      <g class="cls-1">
        <line class="cls-3" x1="849.89" y1="86.95" x2="849.89" y2="962.91"/>
        <path class="cls-2" d="M865.98,518.27h-.02c-.2-.22-3.71-4.01-7.4-5.12-1.6-.48-3.31,.27-4.77,1.3,.94-1.4,1.59-3.01,1.14-4.52-1.11-3.7-4.9-7.21-5.12-7.4v-.02s0,0,0,0c0,0-.01,0-.01,0v.02c-.22,.2-4.01,3.71-5.12,7.4-.47,1.57,.24,3.24,1.24,4.68-1.44-1-3.11-1.72-4.68-1.25-3.7,1.11-7.21,4.9-7.4,5.12h-.02s0,0,0,0c0,0,0,.01,0,.01h.02c.2,.22,3.71,4.01,7.4,5.12,1.57,.47,3.24-.24,4.68-1.24-.86,1.35-1.42,2.87-.99,4.29,1.11,3.7,4.9,7.21,5.12,7.4v.02s0,0,0,0c0,0,.01,0,.01,0v-.02c.22-.2,4.01-3.71,5.12-7.4,.43-1.44-.14-2.98-1.02-4.33,1.37,.89,2.93,1.49,4.39,1.06,3.7-1.11,7.21-4.9,7.4-5.12h.02s0,0,0,0c0,0,0-.01,0-.01Z"/>
        <path class="cls-2" d="M865.98,789.82h-.02c-.2-.22-3.71-4.01-7.4-5.12-1.6-.48-3.31,.27-4.77,1.3,.94-1.4,1.59-3.01,1.14-4.52-1.11-3.7-4.9-7.21-5.12-7.4v-.02s0,0,0,0c0,0-.01,0-.01,0v.02c-.22,.2-4.01,3.71-5.12,7.4-.47,1.57,.24,3.24,1.24,4.68-1.44-1-3.11-1.72-4.68-1.25-3.7,1.11-7.21,4.9-7.4,5.12h-.02s0,0,0,0c0,0,0,.01,0,.01h.02c.2,.22,3.71,4.01,7.4,5.12,1.57,.47,3.24-.24,4.68-1.24-.86,1.35-1.42,2.87-.99,4.29,1.11,3.7,4.9,7.21,5.12,7.4v.02s0,0,0,0c0,0,.01,0,.01,0v-.02c.22-.2,4.01-3.71,5.12-7.4,.43-1.44-.14-2.98-1.02-4.33,1.37,.89,2.93,1.49,4.39,1.06,3.7-1.11,7.21-4.9,7.4-5.12h.02s0,0,0,0c0,0,0-.01,0-.01Z"/>
        <path class="cls-2" d="M865.94,203.44h-.02c-.2-.22-3.7-4-7.39-5.11-1.59-.48-3.3,.27-4.76,1.3,.94-1.4,1.59-3,1.14-4.51-1.11-3.69-4.89-7.19-5.11-7.39v-.02s0,0,0,0c0,0-.01,0-.01,0v.02c-.22,.2-4,3.7-5.11,7.39-.47,1.56,.24,3.24,1.24,4.67-1.43-1-3.1-1.71-4.67-1.24-3.69,1.11-7.19,4.89-7.39,5.11h-.02s0,0,0,0c0,0,0,.01,0,.01h.02c.2,.22,3.7,4,7.39,5.11,1.56,.47,3.24-.24,4.67-1.24-.86,1.34-1.42,2.86-.99,4.28,1.11,3.69,4.89,7.19,5.11,7.39v.02s0,0,0,0c0,0,.01,0,.01,0v-.02c.22-.2,4-3.7,5.11-7.39,.43-1.44-.14-2.97-1.02-4.32,1.37,.89,2.92,1.49,4.38,1.05,3.69-1.11,7.19-4.89,7.39-5.11h.02s0,0,0,0c0,0,0-.01,0-.01Z"/>
        <path class="cls-2" d="M847.8,937.34s-8.92,23.48-7.18,35.5c1.75,12.03,16.1,9.51,18.43,0,2.33-9.51-7.95-37.06-7.95-37.06,0,0-1.5-6.11-3.3,1.55Z"/>
        <circle class="cls-2" cx="849.89" cy="594.24" r="4.64"/>
        <circle class="cls-2" cx="849.89" cy="647.05" r="4.64"/>
        <circle class="cls-2" cx="849.89" cy="240.5" r="4.64"/>
        <circle class="cls-2" cx="849.89" cy="478.56" r="4.64"/>
        <circle class="cls-2" cx="849.89" cy="620.64" r="7.42"/>
        <circle class="cls-2" cx="849.89" cy="904.95" r="4.71"/>
        <circle class="cls-2" cx="849.89" cy="873.26" r="8.04"/>
        <path class="cls-2" d="M860.14,362.48c-6.77,1.63-8.37,3.23-10,10-.06,.25-.42,.25-.48,0-1.63-6.77-3.23-8.37-10-10-.25-.06-.25-.42,0-.48,6.77-1.63,8.37-3.23,10-10,.06-.25,.42-.25,.48,0,1.63,6.77,3.23,8.37,10,10,.25,.06,.25,.42,0,.48Z"/>
        <path class="cls-2" d="M856.99,742.01c-4.69,1.13-5.8,2.24-6.93,6.93-.04,.18-.29,.18-.33,0-1.13-4.69-2.24-5.8-6.93-6.93-.18-.04-.18-.29,0-.33,4.69-1.13,5.8-2.24,6.93-6.93,.04-.18,.29-.18,.33,0,1.13,4.69,2.24,5.8,6.93,6.93,.18,.04,.18,.29,0,.33Z"/>
      </g>
      <g class="cls-1">
        <line class="cls-3" x1="599.96" x2="599.96" y2="875.96"/>
        <path class="cls-2" d="M616.04,431.32h-.02c-.2-.22-3.71-4.01-7.4-5.12-1.6-.48-3.31,.27-4.77,1.3,.94-1.4,1.59-3.01,1.14-4.52-1.11-3.7-4.9-7.21-5.12-7.4v-.02s0,0,0,0c0,0-.01,0-.01,0v.02c-.22,.2-4.01,3.71-5.12,7.4-.47,1.57,.24,3.24,1.24,4.68-1.44-1-3.11-1.72-4.68-1.25-3.7,1.11-7.21,4.9-7.4,5.12h-.02s0,0,0,0c0,0,0,.01,0,.01h.02c.2,.22,3.71,4.01,7.4,5.12,1.57,.47,3.24-.24,4.68-1.24-.86,1.35-1.42,2.87-.99,4.29,1.11,3.7,4.9,7.21,5.12,7.4v.02s0,0,0,0c0,0,.01,0,.01,0v-.02c.22-.2,4.01-3.71,5.12-7.4,.43-1.44-.14-2.98-1.02-4.33,1.37,.89,2.93,1.49,4.39,1.06,3.7-1.11,7.21-4.9,7.4-5.12h.02s0,0,0,0c0,0,0-.01,0-.01Z"/>
        <path class="cls-2" d="M616.04,702.87h-.02c-.2-.22-3.71-4.01-7.4-5.12-1.6-.48-3.31,.27-4.77,1.3,.94-1.4,1.59-3.01,1.14-4.52-1.11-3.7-4.9-7.21-5.12-7.4v-.02s0,0,0,0c0,0-.01,0-.01,0v.02c-.22,.2-4.01,3.71-5.12,7.4-.47,1.57,.24,3.24,1.24,4.68-1.44-1-3.11-1.72-4.68-1.25-3.7,1.11-7.21,4.9-7.4,5.12h-.02s0,0,0,0c0,0,0,.01,0,.01h.02c.2,.22,3.71,4.01,7.4,5.12,1.57,.47,3.24-.24,4.68-1.24-.86,1.35-1.42,2.87-.99,4.29,1.11,3.7,4.9,7.21,5.12,7.4v.02s0,0,0,0c0,0,.01,0,.01,0v-.02c.22-.2,4.01-3.71,5.12-7.4,.43-1.44-.14-2.98-1.02-4.33,1.37,.89,2.93,1.49,4.39,1.06,3.7-1.11,7.21-4.9,7.4-5.12h.02s0,0,0,0c0,0,0-.01,0-.01Z"/>
        <path class="cls-2" d="M616,116.49h-.02c-.2-.22-3.7-4-7.39-5.11-1.59-.48-3.3,.27-4.76,1.3,.94-1.4,1.59-3,1.14-4.51-1.11-3.69-4.89-7.19-5.11-7.39v-.02s0,0,0,0c0,0-.01,0-.01,0v.02c-.22,.2-4,3.7-5.11,7.39-.47,1.56,.24,3.24,1.24,4.67-1.43-1-3.1-1.71-4.67-1.24-3.69,1.11-7.19,4.89-7.39,5.11h-.02s0,0,0,0c0,0,0,.01,0,.01h.02c.2,.22,3.7,4,7.39,5.11,1.56,.47,3.24-.24,4.67-1.24-.86,1.34-1.42,2.86-.99,4.28,1.11,3.69,4.89,7.19,5.11,7.39v.02s0,0,0,0c0,0,.01,0,.01,0v-.02c.22-.2,4-3.7,5.11-7.39,.43-1.44-.14-2.97-1.02-4.32,1.37,.89,2.92,1.49,4.38,1.05,3.69-1.11,7.19-4.89,7.39-5.11h.02s0,0,0,0c0,0,0-.01,0-.01Z"/>
        <path class="cls-2" d="M597.86,850.39s-8.92,23.48-7.18,35.5,16.1,9.51,18.43,0c2.33-9.51-7.95-37.06-7.95-37.06,0,0-1.5-6.11-3.3,1.55Z"/>
        <circle class="cls-2" cx="599.96" cy="507.29" r="4.64"/>
        <circle class="cls-2" cx="599.96" cy="560.1" r="4.64"/>
        <circle class="cls-2" cx="599.96" cy="153.55" r="4.64"/>
        <circle class="cls-2" cx="599.96" cy="391.61" r="4.64"/>
        <circle class="cls-2" cx="599.96" cy="533.69" r="7.42"/>
        <circle class="cls-2" cx="599.96" cy="818" r="4.71"/>
        <circle class="cls-2" cx="599.96" cy="786.31" r="8.04"/>
        <path class="cls-2" d="M610.2,275.53c-6.77,1.63-8.37,3.23-10,10-.06,.25-.42,.25-.48,0-1.63-6.77-3.23-8.37-10-10-.25-.06-.25-.42,0-.48,6.77-1.63,8.37-3.23,10-10,.06-.25,.42-.25,.48,0,1.63,6.77,3.23,8.37,10,10,.25,.06,.25,.42,0,.48Z"/>
        <path class="cls-2" d="M607.05,655.06c-4.69,1.13-5.8,2.24-6.93,6.93-.04,.18-.29,.18-.33,0-1.13-4.69-2.24-5.8-6.93-6.93-.18-.04-.18-.29,0-.33,4.69-1.13,5.8-2.24,6.93-6.93,.04-.18,.29-.18,.33,0,1.13,4.69,2.24,5.8,6.93,6.93,.18,.04,.18,.29,0,.33Z"/>
      </g>
      <g class="cls-1">
        <line class="cls-3" x1="16.08" y1="96.72" x2="16.08" y2="972.68"/>
        <path class="cls-2" d="M32.16,528.04h-.02c-.2-.22-3.71-4.01-7.4-5.12-1.6-.48-3.31,.27-4.77,1.3,.94-1.4,1.59-3.01,1.14-4.52-1.11-3.7-4.9-7.21-5.12-7.4v-.02s0,0,0,0c0,0-.01,0-.01,0v.02c-.22,.2-4.01,3.71-5.12,7.4-.47,1.57,.24,3.24,1.24,4.68-1.44-1-3.11-1.72-4.68-1.25-3.7,1.11-7.21,4.9-7.4,5.12h-.02s0,0,0,0c0,0,0,.01,0,.01H.02c.2,.22,3.71,4.01,7.4,5.12,1.57,.47,3.24-.24,4.68-1.24-.86,1.35-1.42,2.87-.99,4.29,1.11,3.7,4.9,7.21,5.12,7.4v.02s0,0,0,0c0,0,.01,0,.01,0v-.02c.22-.2,4.01-3.71,5.12-7.4,.43-1.44-.14-2.98-1.02-4.33,1.37,.89,2.93,1.49,4.39,1.06,3.7-1.11,7.21-4.9,7.4-5.12h.02s0,0,0,0c0,0,0-.01,0-.01Z"/>
        <path class="cls-2" d="M32.16,799.59h-.02c-.2-.22-3.71-4.01-7.4-5.12-1.6-.48-3.31,.27-4.77,1.3,.94-1.4,1.59-3.01,1.14-4.52-1.11-3.7-4.9-7.21-5.12-7.4v-.02s0,0,0,0c0,0-.01,0-.01,0v.02c-.22,.2-4.01,3.71-5.12,7.4-.47,1.57,.24,3.24,1.24,4.68-1.44-1-3.11-1.72-4.68-1.25-3.7,1.11-7.21,4.9-7.4,5.12h-.02s0,0,0,0c0,0,0,.01,0,.01H.02c.2,.22,3.71,4.01,7.4,5.12,1.57,.47,3.24-.24,4.68-1.24-.86,1.35-1.42,2.87-.99,4.29,1.11,3.7,4.9,7.21,5.12,7.4v.02s0,0,0,0c0,0,.01,0,.01,0v-.02c.22-.2,4.01-3.71,5.12-7.4,.43-1.44-.14-2.98-1.02-4.33,1.37,.89,2.93,1.49,4.39,1.06,3.7-1.11,7.21-4.9,7.4-5.12h.02s0,0,0,0c0,0,0-.01,0-.01Z"/>
        <path class="cls-2" d="M32.13,213.21h-.02c-.2-.22-3.7-4-7.39-5.11-1.59-.48-3.3,.27-4.76,1.3,.94-1.4,1.59-3,1.14-4.51-1.11-3.69-4.89-7.19-5.11-7.39v-.02s0,0,0,0c0,0-.01,0-.01,0v.02c-.22,.2-4,3.7-5.11,7.39-.47,1.56,.24,3.24,1.24,4.67-1.43-1-3.1-1.71-4.67-1.24-3.69,1.11-7.19,4.89-7.39,5.11h-.02s0,0,0,0c0,0,0,.01,0,.01h.02c.2,.22,3.7,4,7.39,5.11,1.56,.47,3.24-.24,4.67-1.24-.86,1.34-1.42,2.86-.99,4.28,1.11,3.69,4.89,7.19,5.11,7.39v.02s0,0,0,0c0,0,.01,0,.01,0v-.02c.22-.2,4-3.7,5.11-7.39,.43-1.44-.14-2.97-1.02-4.32,1.37,.89,2.92,1.49,4.38,1.05,3.69-1.11,7.19-4.89,7.39-5.11h.02s0,0,0,0c0,0,0-.01,0-.01Z"/>
        <path class="cls-2" d="M13.99,947.11s-8.92,23.48-7.18,35.5c1.75,12.03,16.1,9.51,18.43,0,2.33-9.51-7.95-37.06-7.95-37.06,0,0-1.5-6.11-3.3,1.55Z"/>
        <circle class="cls-2" cx="16.08" cy="604" r="4.64"/>
        <circle class="cls-2" cx="16.08" cy="656.82" r="4.64"/>
        <circle class="cls-2" cx="16.08" cy="250.27" r="4.64"/>
        <circle class="cls-2" cx="16.08" cy="488.32" r="4.64"/>
        <circle class="cls-2" cx="16.08" cy="630.41" r="7.42"/>
        <circle class="cls-2" cx="16.08" cy="914.71" r="4.71"/>
        <circle class="cls-2" cx="16.08" cy="883.02" r="8.04"/>
        <path class="cls-2" d="M26.33,372.24c-6.77,1.63-8.37,3.23-10,10-.06,.25-.42,.25-.48,0-1.63-6.77-3.23-8.37-10-10-.25-.06-.25-.42,0-.48,6.77-1.63,8.37-3.23,10-10,.06-.25,.42-.25,.48,0,1.63,6.77,3.23,8.37,10,10,.25,.06,.25,.42,0,.48Z"/>
        <path class="cls-2" d="M23.18,751.78c-4.69,1.13-5.8,2.24-6.93,6.93-.04,.18-.29,.18-.33,0-1.13-4.69-2.24-5.8-6.93-6.93-.18-.04-.18-.29,0-.33,4.69-1.13,5.8-2.24,6.93-6.93,.04-.18,.29-.18,.33,0,1.13,4.69,2.24,5.8,6.93,6.93,.18,.04,.18,.29,0,.33Z"/>
      </g>
      <g class="cls-1">
        <line class="cls-3" x1="432.99" y1="84.33" x2="432.99" y2="657.88"/>
        <path class="cls-2" d="M431.65,639.67s-5.69,14.98-4.58,22.66c1.11,7.68,10.28,6.07,11.76,0,1.49-6.07-5.08-23.65-5.08-23.65,0,0-.96-3.9-2.1,.99Z"/>
        <path class="cls-2" d="M431.82,267.07s-4.96,13.06-3.99,19.74c.97,6.69,8.96,5.29,10.25,0,1.29-5.29-4.42-20.61-4.42-20.61,0,0-.84-3.4-1.83,.86Z"/>
        <path class="cls-2" d="M441.87,559.25c-5.87,1.41-7.26,2.8-8.67,8.67-.05,.22-.37,.22-.42,0-1.41-5.87-2.8-7.26-8.67-8.67-.22-.05-.22-.37,0-.42,5.87-1.41,7.26-2.8,8.67-8.67,.05-.22,.37-.22,.42,0,1.41,5.87,2.8,7.26,8.67,8.67,.22,.05,.22,.37,0,.42Z"/>
        <path class="cls-2" d="M441.87,217.78c-5.87,1.41-7.26,2.8-8.67,8.67-.05,.22-.37,.22-.42,0-1.41-5.87-2.8-7.26-8.67-8.67-.22-.05-.22-.37,0-.42,5.87-1.41,7.26-2.8,8.67-8.67,.05-.22,.37-.22,.42,0,1.41,5.87,2.8,7.26,8.67,8.67,.22,.05,.22,.37,0,.42Z"/>
        <circle class="cls-2" cx="432.99" cy="414.15" r="4.93"/>
        <circle class="cls-2" cx="432.99" cy="151.36" r="4.93"/>
        <circle class="cls-2" cx="432.99" cy="172.34" r="2.82"/>
        <circle class="cls-2" cx="432.99" cy="397.42" r="2.82"/>
        <circle class="cls-2" cx="432.99" cy="429.26" r="2.82"/>
        <circle class="cls-2" cx="432.99" cy="599.75" r="2.82"/>
        <circle class="cls-2" cx="432.99" cy="608.53" r="2.82"/>
        <circle class="cls-2" cx="432.99" cy="617.3" r="2.82"/>
        <path class="cls-2" d="M445.91,506.69h-.02c-.16-.17-2.98-3.22-5.95-4.11-1.28-.39-2.66,.22-3.83,1.05,.76-1.13,1.28-2.42,.92-3.63-.89-2.97-3.94-5.79-4.11-5.95v-.02s0,0,0,0c0,0,0,0,0,0v.02c-.17,.16-3.22,2.98-4.11,5.95-.38,1.26,.19,2.61,1,3.76-1.16-.8-2.5-1.38-3.76-1-2.97,.89-5.79,3.94-5.95,4.11h-.02s0,0,0,0c0,0,0,0,0,0h.02c.16,.17,2.98,3.22,5.95,4.11,1.26,.38,2.61-.19,3.76-1-.69,1.08-1.14,2.3-.8,3.45,.89,2.97,3.94,5.79,4.11,5.95v.02s0,0,0,0c0,0,0,0,0,0v-.02c.17-.16,3.22-2.98,4.11-5.95,.35-1.16-.12-2.39-.82-3.48,1.1,.72,2.35,1.2,3.53,.85,2.97-.89,5.79-3.94,5.95-4.11h.02s0,0,0,0c0,0,0,0,0,0Z"/>
        <path class="cls-2" d="M450.1,326.83h-.02c-.21-.23-3.94-4.27-7.88-5.45-1.7-.51-3.52,.29-5.07,1.39,1-1.49,1.69-3.2,1.21-4.81-1.18-3.93-5.22-7.67-5.45-7.88v-.02s0,0-.01,.01c0,0-.01-.01-.01-.01v.02c-.23,.21-4.27,3.94-5.45,7.88-.5,1.67,.26,3.45,1.32,4.98-1.53-1.06-3.31-1.83-4.98-1.33-3.93,1.18-7.67,5.22-7.88,5.45h-.02s0,0,.01,.01c0,0-.01,.01-.01,.01h.02c.21,.23,3.94,4.27,7.88,5.45,1.67,.5,3.45-.26,4.98-1.32-.91,1.43-1.51,3.05-1.05,4.57,1.18,3.93,5.22,7.67,5.45,7.88v.02s0,0,.01-.01c0,0,.01,.01,.01,.01v-.02c.23-.21,4.27-3.94,5.45-7.88,.46-1.53-.15-3.17-1.08-4.61,1.46,.95,3.12,1.59,4.67,1.12,3.93-1.18,7.67-5.22,7.88-5.45h.02s0,0-.01-.01c0,0,.01-.01,.01-.01Z"/>
      </g>
      <g class="cls-1">
        <line class="cls-3" x1="682.92" y1="10.01" x2="682.92" y2="583.56"/>
        <path class="cls-2" d="M681.59,565.36s-5.69,14.98-4.58,22.66c1.11,7.68,10.28,6.07,11.76,0s-5.08-23.65-5.08-23.65c0,0-.96-3.9-2.1,.99Z"/>
        <path class="cls-2" d="M681.76,192.75s-4.96,13.06-3.99,19.74c.97,6.69,8.96,5.29,10.25,0s-4.42-20.61-4.42-20.61c0,0-.84-3.4-1.83,.86Z"/>
        <path class="cls-2" d="M691.81,484.93c-5.87,1.41-7.26,2.8-8.67,8.67-.05,.22-.37,.22-.42,0-1.41-5.87-2.8-7.26-8.67-8.67-.22-.05-.22-.37,0-.42,5.87-1.41,7.26-2.8,8.67-8.67,.05-.22,.37-.22,.42,0,1.41,5.87,2.8,7.26,8.67,8.67,.22,.05,.22,.37,0,.42Z"/>
        <path class="cls-2" d="M691.81,143.47c-5.87,1.41-7.26,2.8-8.67,8.67-.05,.22-.37,.22-.42,0-1.41-5.87-2.8-7.26-8.67-8.67-.22-.05-.22-.37,0-.42,5.87-1.41,7.26-2.8,8.67-8.67,.05-.22,.37-.22,.42,0,1.41,5.87,2.8,7.26,8.67,8.67,.22,.05,.22,.37,0,.42Z"/>
        <circle class="cls-2" cx="682.92" cy="339.83" r="4.93"/>
        <circle class="cls-2" cx="682.92" cy="77.05" r="4.93"/>
        <circle class="cls-2" cx="682.92" cy="98.02" r="2.82"/>
        <circle class="cls-2" cx="682.92" cy="323.11" r="2.82"/>
        <circle class="cls-2" cx="682.92" cy="354.94" r="2.82"/>
        <circle class="cls-2" cx="682.92" cy="525.44" r="2.82"/>
        <circle class="cls-2" cx="682.92" cy="534.21" r="2.82"/>
        <circle class="cls-2" cx="682.92" cy="542.98" r="2.82"/>
        <path class="cls-2" d="M695.85,432.38h-.02c-.16-.17-2.98-3.22-5.95-4.11-1.28-.39-2.66,.22-3.83,1.05,.76-1.13,1.28-2.42,.92-3.63-.89-2.97-3.94-5.79-4.11-5.95v-.02s0,0,0,0c0,0,0,0,0,0v.02c-.17,.16-3.22,2.98-4.11,5.95-.38,1.26,.19,2.61,1,3.76-1.16-.8-2.5-1.38-3.76-1-2.97,.89-5.79,3.94-5.95,4.11h-.02s0,0,0,0c0,0,0,0,0,0h.02c.16,.17,2.98,3.22,5.95,4.11,1.26,.38,2.61-.19,3.76-1-.69,1.08-1.14,2.3-.8,3.45,.89,2.97,3.94,5.79,4.11,5.95v.02s0,0,0,0c0,0,0,0,0,0v-.02c.17-.16,3.22-2.98,4.11-5.95,.35-1.16-.12-2.39-.82-3.48,1.1,.72,2.35,1.2,3.53,.85,2.97-.89,5.79-3.94,5.95-4.11h.02s0,0,0,0c0,0,0,0,0,0Z"/>
        <path class="cls-2" d="M700.04,252.52h-.02c-.21-.23-3.94-4.27-7.88-5.45-1.7-.51-3.52,.29-5.07,1.39,1-1.49,1.69-3.2,1.21-4.81-1.18-3.93-5.22-7.67-5.45-7.88v-.02s0,0-.01,.01c0,0-.01-.01-.01-.01v.02c-.23,.21-4.27,3.94-5.45,7.88-.5,1.67,.26,3.45,1.32,4.98-1.53-1.06-3.31-1.83-4.98-1.33-3.93,1.18-7.67,5.22-7.88,5.45h-.02s0,0,.01,.01c0,0-.01,.01-.01,.01h.02c.21,.23,3.94,4.27,7.88,5.45,1.67,.5,3.45-.26,4.98-1.32-.91,1.43-1.51,3.05-1.05,4.57,1.18,3.93,5.22,7.67,5.45,7.88v.02s0,0,.01-.01c0,0,.01,.01,.01,.01v-.02c.23-.21,4.27-3.94,5.45-7.88,.46-1.53-.15-3.17-1.08-4.61,1.46,.95,3.12,1.59,4.67,1.12,3.93-1.18,7.67-5.22,7.88-5.45h.02s0,0-.01-.01c0,0,.01-.01,.01-.01Z"/>
      </g>
      <g class="cls-1">
        <line class="cls-3" x1="183.05" y1="10.01" x2="183.05" y2="583.56"/>
        <path class="cls-2" d="M181.71,565.36s-5.69,14.98-4.58,22.66c1.11,7.68,10.28,6.07,11.76,0s-5.08-23.65-5.08-23.65c0,0-.96-3.9-2.1,.99Z"/>
        <path class="cls-2" d="M181.89,192.75s-4.96,13.06-3.99,19.74c.97,6.69,8.96,5.29,10.25,0,1.29-5.29-4.42-20.61-4.42-20.61,0,0-.84-3.4-1.83,.86Z"/>
        <path class="cls-2" d="M191.93,484.93c-5.87,1.41-7.26,2.8-8.67,8.67-.05,.22-.37,.22-.42,0-1.41-5.87-2.8-7.26-8.67-8.67-.22-.05-.22-.37,0-.42,5.87-1.41,7.26-2.8,8.67-8.67,.05-.22,.37-.22,.42,0,1.41,5.87,2.8,7.26,8.67,8.67,.22,.05,.22,.37,0,.42Z"/>
        <path class="cls-2" d="M191.93,143.47c-5.87,1.41-7.26,2.8-8.67,8.67-.05,.22-.37,.22-.42,0-1.41-5.87-2.8-7.26-8.67-8.67-.22-.05-.22-.37,0-.42,5.87-1.41,7.26-2.8,8.67-8.67,.05-.22,.37-.22,.42,0,1.41,5.87,2.8,7.26,8.67,8.67,.22,.05,.22,.37,0,.42Z"/>
        <circle class="cls-2" cx="183.05" cy="339.83" r="4.93"/>
        <circle class="cls-2" cx="183.05" cy="77.05" r="4.93"/>
        <circle class="cls-2" cx="183.05" cy="98.02" r="2.82"/>
        <circle class="cls-2" cx="183.05" cy="323.11" r="2.82"/>
        <circle class="cls-2" cx="183.05" cy="354.94" r="2.82"/>
        <circle class="cls-2" cx="183.05" cy="525.44" r="2.82"/>
        <circle class="cls-2" cx="183.05" cy="534.21" r="2.82"/>
        <circle class="cls-2" cx="183.05" cy="542.98" r="2.82"/>
        <path class="cls-2" d="M195.98,432.38h-.02c-.16-.17-2.98-3.22-5.95-4.11-1.28-.39-2.66,.22-3.83,1.05,.76-1.13,1.28-2.42,.92-3.63-.89-2.97-3.94-5.79-4.11-5.95v-.02s0,0,0,0c0,0,0,0,0,0v.02c-.17,.16-3.22,2.98-4.11,5.95-.38,1.26,.19,2.61,1,3.76-1.16-.8-2.5-1.38-3.76-1-2.97,.89-5.79,3.94-5.95,4.11h-.02s0,0,0,0c0,0,0,0,0,0h.02c.16,.17,2.98,3.22,5.95,4.11,1.26,.38,2.61-.19,3.76-1-.69,1.08-1.14,2.3-.8,3.45,.89,2.97,3.94,5.79,4.11,5.95v.02s0,0,0,0c0,0,0,0,0,0v-.02c.17-.16,3.22-2.98,4.11-5.95,.35-1.16-.12-2.39-.82-3.48,1.1,.72,2.35,1.2,3.53,.85,2.97-.89,5.79-3.94,5.95-4.11h.02s0,0,0,0c0,0,0,0,0,0Z"/>
        <path class="cls-2" d="M200.16,252.52h-.02c-.21-.23-3.94-4.27-7.88-5.45-1.7-.51-3.52,.29-5.07,1.39,1-1.49,1.69-3.2,1.21-4.81-1.18-3.93-5.22-7.67-5.45-7.88v-.02s0,0-.01,.01c0,0-.01-.01-.01-.01v.02c-.23,.21-4.27,3.94-5.45,7.88-.5,1.67,.26,3.45,1.32,4.98-1.53-1.06-3.31-1.83-4.98-1.33-3.93,1.18-7.67,5.22-7.88,5.45h-.02s0,0,.01,.01c0,0-.01,.01-.01,.01h.02c.21,.23,3.94,4.27,7.88,5.45,1.67,.5,3.45-.26,4.98-1.32-.91,1.43-1.51,3.05-1.05,4.57,1.18,3.93,5.22,7.67,5.45,7.88v.02s0,0,.01-.01c0,0,.01,.01,.01,.01v-.02c.23-.21,4.27-3.94,5.45-7.88,.46-1.53-.15-3.17-1.08-4.61,1.46,.95,3.12,1.59,4.67,1.12,3.93-1.18,7.67-5.22,7.88-5.45h.02s0,0-.01-.01c0,0,.01-.01,.01-.01Z"/>
      </g>
      <g class="cls-1">
        <line class="cls-3" x1="516.99" y1="84.7" x2="516.99" y2="766.37"/>
        <path class="cls-2" d="M515.65,747.27s-5.69,14.98-4.58,22.66c1.11,7.68,10.28,6.07,11.76,0,1.49-6.07-5.08-23.65-5.08-23.65,0,0-.96-3.9-2.1,.99Z"/>
        <path class="cls-2" d="M515.82,473.74s-4.96,13.06-3.99,19.74c.97,6.69,8.96,5.29,10.25,0,1.29-5.29-4.42-20.61-4.42-20.61,0,0-.84-3.4-1.83,.86Z"/>
        <path class="cls-2" d="M525.87,592.97c-5.87,1.41-7.26,2.8-8.67,8.67-.05,.22-.37,.22-.42,0-1.41-5.87-2.8-7.26-8.67-8.67-.22-.05-.22-.37,0-.42,5.87-1.41,7.26-2.8,8.67-8.67,.05-.22,.37-.22,.42,0,1.41,5.87,2.8,7.26,8.67,8.67,.22,.05,.22,.37,0,.42Z"/>
        <path class="cls-2" d="M525.87,337.65c-5.87,1.41-7.26,2.8-8.67,8.67-.05,.22-.37,.22-.42,0-1.41-5.87-2.8-7.26-8.67-8.67-.22-.05-.22-.37,0-.42,5.87-1.41,7.26-2.8,8.67-8.67,.05-.22,.37-.22,.42,0,1.41,5.87,2.8,7.26,8.67,8.67,.22,.05,.22,.37,0,.42Z"/>
        <circle class="cls-2" cx="516.99" cy="407.62" r="4.93"/>
        <circle class="cls-2" cx="516.99" cy="175.18" r="4.93"/>
        <circle class="cls-2" cx="516.99" cy="203.9" r="2.82"/>
        <circle class="cls-2" cx="516.99" cy="146.46" r="2.82"/>
        <circle class="cls-2" cx="516.99" cy="447.74" r="2.82"/>
        <circle class="cls-2" cx="516.99" cy="696.93" r="2.82"/>
        <circle class="cls-2" cx="516.99" cy="429.35" r="2.82"/>
        <path class="cls-2" d="M529.91,635.43h-.02c-.16-.17-2.98-3.22-5.95-4.11-1.28-.39-2.66,.22-3.83,1.05,.76-1.13,1.28-2.42,.92-3.63-.89-2.97-3.94-5.79-4.11-5.95v-.02s0,0,0,0c0,0,0,0,0,0v.02c-.17,.16-3.22,2.98-4.11,5.95-.38,1.26,.19,2.61,1,3.76-1.16-.8-2.5-1.38-3.76-1-2.97,.89-5.79,3.94-5.95,4.11h-.02s0,0,0,0c0,0,0,0,0,0h.02c.16,.17,2.98,3.22,5.95,4.11,1.26,.38,2.61-.19,3.76-1-.69,1.08-1.14,2.3-.8,3.45,.89,2.97,3.94,5.79,4.11,5.95v.02s0,0,0,0c0,0,0,0,0,0v-.02c.17-.16,3.22-2.98,4.11-5.95,.35-1.16-.12-2.39-.82-3.48,1.1,.72,2.35,1.2,3.53,.85,2.97-.89,5.79-3.94,5.95-4.11h.02s0,0,0,0c0,0,0,0,0,0Z"/>
        <path class="cls-2" d="M534.1,273.07h-.02c-.21-.23-3.94-4.27-7.88-5.45-1.7-.51-3.52,.29-5.07,1.39,1-1.49,1.69-3.2,1.21-4.81-1.18-3.93-5.22-7.67-5.45-7.88v-.02s0,0-.01,.01c0,0-.01-.01-.01-.01v.02c-.23,.21-4.27,3.94-5.45,7.88-.5,1.67,.26,3.45,1.32,4.98-1.53-1.06-3.31-1.83-4.98-1.33-3.93,1.18-7.67,5.22-7.88,5.45h-.02s0,0,.01,.01c0,0-.01,.01-.01,.01h.02c.21,.23,3.94,4.27,7.88,5.45,1.67,.5,3.45-.26,4.98-1.32-.91,1.43-1.51,3.05-1.05,4.57,1.18,3.93,5.22,7.67,5.45,7.88v.02s0,0,.01-.01c0,0,.01,.01,.01,.01v-.02c.23-.21,4.27-3.94,5.45-7.88,.46-1.53-.15-3.17-1.08-4.61,1.46,.95,3.12,1.59,4.67,1.12,3.93-1.18,7.67-5.22,7.88-5.45h.02s0,0-.01-.01c0,0,.01-.01,.01-.01Z"/>
      </g>
      <g class="cls-1">
        <line class="cls-3" x1="267.05" y1="98.86" x2="267.05" y2="780.54"/>
        <path class="cls-2" d="M265.71,761.44s-5.69,14.98-4.58,22.66c1.11,7.68,10.28,6.07,11.76,0,1.49-6.07-5.08-23.65-5.08-23.65,0,0-.96-3.9-2.1,.99Z"/>
        <path class="cls-2" d="M265.89,487.9s-4.96,13.06-3.99,19.74,8.96,5.29,10.25,0c1.29-5.29-4.42-20.61-4.42-20.61,0,0-.84-3.4-1.83,.86Z"/>
        <path class="cls-2" d="M275.93,607.13c-5.87,1.41-7.26,2.8-8.67,8.67-.05,.22-.37,.22-.42,0-1.41-5.87-2.8-7.26-8.67-8.67-.22-.05-.22-.37,0-.42,5.87-1.41,7.26-2.8,8.67-8.67,.05-.22,.37-.22,.42,0,1.41,5.87,2.8,7.26,8.67,8.67,.22,.05,.22,.37,0,.42Z"/>
        <path class="cls-2" d="M275.93,351.81c-5.87,1.41-7.26,2.8-8.67,8.67-.05,.22-.37,.22-.42,0-1.41-5.87-2.8-7.26-8.67-8.67-.22-.05-.22-.37,0-.42,5.87-1.41,7.26-2.8,8.67-8.67,.05-.22,.37-.22,.42,0,1.41,5.87,2.8,7.26,8.67,8.67,.22,.05,.22,.37,0,.42Z"/>
        <circle class="cls-2" cx="267.05" cy="421.79" r="4.93"/>
        <circle class="cls-2" cx="267.05" cy="189.35" r="4.93"/>
        <circle class="cls-2" cx="267.05" cy="218.07" r="2.82"/>
        <circle class="cls-2" cx="267.05" cy="160.63" r="2.82"/>
        <circle class="cls-2" cx="267.05" cy="461.9" r="2.82"/>
        <circle class="cls-2" cx="267.05" cy="711.09" r="2.82"/>
        <circle class="cls-2" cx="267.05" cy="443.52" r="2.82"/>
        <path class="cls-2" d="M279.98,649.6h-.02c-.16-.17-2.98-3.22-5.95-4.11-1.28-.39-2.66,.22-3.83,1.05,.76-1.13,1.28-2.42,.92-3.63-.89-2.97-3.94-5.79-4.11-5.95v-.02s0,0,0,0c0,0,0,0,0,0v.02c-.17,.16-3.22,2.98-4.11,5.95-.38,1.26,.19,2.61,1,3.76-1.16-.8-2.5-1.38-3.76-1-2.97,.89-5.79,3.94-5.95,4.11h-.02s0,0,0,0c0,0,0,0,0,0h.02c.16,.17,2.98,3.22,5.95,4.11,1.26,.38,2.61-.19,3.76-1-.69,1.08-1.14,2.3-.8,3.45,.89,2.97,3.94,5.79,4.11,5.95v.02s0,0,0,0c0,0,0,0,0,0v-.02c.17-.16,3.22-2.98,4.11-5.95,.35-1.16-.12-2.39-.82-3.48,1.1,.72,2.35,1.2,3.53,.85,2.97-.89,5.79-3.94,5.95-4.11h.02s0,0,0,0c0,0,0,0,0,0Z"/>
        <path class="cls-2" d="M284.16,287.24h-.02c-.21-.23-3.94-4.27-7.88-5.45-1.7-.51-3.52,.29-5.07,1.39,1-1.49,1.69-3.2,1.21-4.81-1.18-3.93-5.22-7.67-5.45-7.88v-.02s0,0-.01,.01c0,0-.01-.01-.01-.01v.02c-.23,.21-4.27,3.94-5.45,7.88-.5,1.67,.26,3.45,1.32,4.98-1.53-1.06-3.31-1.83-4.98-1.33-3.93,1.18-7.67,5.22-7.88,5.45h-.02s0,0,.01,.01c0,0-.01,.01-.01,.01h.02c.21,.23,3.94,4.27,7.88,5.45,1.67,.5,3.45-.26,4.98-1.32-.91,1.43-1.51,3.05-1.05,4.57,1.18,3.93,5.22,7.67,5.45,7.88v.02s0,0,.01-.01c0,0,.01,.01,.01,.01v-.02c.23-.21,4.27-3.94,5.45-7.88,.46-1.53-.15-3.17-1.08-4.61,1.46,.95,3.12,1.59,4.67,1.12,3.93-1.18,7.67-5.22,7.88-5.45h.02s0,0-.01-.01c0,0,.01-.01,.01-.01Z"/>
      </g>
      <g class="cls-1">
        <line class="cls-3" x1="99.05" y1="42.18" x2="99.05" y2="723.85"/>
        <path class="cls-2" d="M97.71,704.75s-5.69,14.98-4.58,22.66c1.11,7.68,10.28,6.07,11.76,0,1.49-6.07-5.08-23.65-5.08-23.65,0,0-.96-3.9-2.1,.99Z"/>
        <path class="cls-2" d="M97.89,431.22s-4.96,13.06-3.99,19.74c.97,6.69,8.96,5.29,10.25,0,1.29-5.29-4.42-20.61-4.42-20.61,0,0-.84-3.4-1.83,.86Z"/>
        <path class="cls-2" d="M107.93,550.45c-5.87,1.41-7.26,2.8-8.67,8.67-.05,.22-.37,.22-.42,0-1.41-5.87-2.8-7.26-8.67-8.67-.22-.05-.22-.37,0-.42,5.87-1.41,7.26-2.8,8.67-8.67,.05-.22,.37-.22,.42,0,1.41,5.87,2.8,7.26,8.67,8.67,.22,.05,.22,.37,0,.42Z"/>
        <path class="cls-2" d="M107.93,295.13c-5.87,1.41-7.26,2.8-8.67,8.67-.05,.22-.37,.22-.42,0-1.41-5.87-2.8-7.26-8.67-8.67-.22-.05-.22-.37,0-.42,5.87-1.41,7.26-2.8,8.67-8.67,.05-.22,.37-.22,.42,0,1.41,5.87,2.8,7.26,8.67,8.67,.22,.05,.22,.37,0,.42Z"/>
        <circle class="cls-2" cx="99.05" cy="365.1" r="4.93"/>
        <circle class="cls-2" cx="99.05" cy="132.66" r="4.93"/>
        <circle class="cls-2" cx="99.05" cy="161.38" r="2.82"/>
        <circle class="cls-2" cx="99.05" cy="103.94" r="2.82"/>
        <circle class="cls-2" cx="99.05" cy="405.21" r="2.82"/>
        <circle class="cls-2" cx="99.05" cy="654.41" r="2.82"/>
        <circle class="cls-2" cx="99.05" cy="386.83" r="2.82"/>
        <path class="cls-2" d="M111.98,592.91h-.02c-.16-.17-2.98-3.22-5.95-4.11-1.28-.39-2.66,.22-3.83,1.05,.76-1.13,1.28-2.42,.92-3.63-.89-2.97-3.94-5.79-4.11-5.95v-.02s0,0,0,0c0,0,0,0,0,0v.02c-.17,.16-3.22,2.98-4.11,5.95-.38,1.26,.19,2.61,1,3.76-1.16-.8-2.5-1.38-3.76-1-2.97,.89-5.79,3.94-5.95,4.11h-.02s0,0,0,0c0,0,0,0,0,0h.02c.16,.17,2.98,3.22,5.95,4.11,1.26,.38,2.61-.19,3.76-1-.69,1.08-1.14,2.3-.8,3.45,.89,2.97,3.94,5.79,4.11,5.95v.02s0,0,0,0c0,0,0,0,0,0v-.02c.17-.16,3.22-2.98,4.11-5.95,.35-1.16-.12-2.39-.82-3.48,1.1,.72,2.35,1.2,3.53,.85,2.97-.89,5.79-3.94,5.95-4.11h.02s0,0,0,0c0,0,0,0,0,0Z"/>
        <path class="cls-2" d="M116.16,230.55h-.02c-.21-.23-3.94-4.27-7.88-5.45-1.7-.51-3.52,.29-5.07,1.39,1-1.49,1.69-3.2,1.21-4.81-1.18-3.93-5.22-7.67-5.45-7.88v-.02s0,0-.01,.01c0,0-.01-.01-.01-.01v.02c-.23,.21-4.27,3.94-5.45,7.88-.5,1.67,.26,3.45,1.32,4.98-1.53-1.06-3.31-1.83-4.98-1.33-3.93,1.18-7.67,5.22-7.88,5.45h-.02s0,0,.01,.01c0,0-.01,.01-.01,.01h.02c.21,.23,3.94,4.27,7.88,5.45,1.67,.5,3.45-.26,4.98-1.32-.91,1.43-1.51,3.05-1.05,4.57,1.18,3.93,5.22,7.67,5.45,7.88v.02s0,0,.01-.01c0,0,.01,.01,.01,.01v-.02c.23-.21,4.27-3.94,5.45-7.88,.46-1.53-.15-3.17-1.08-4.61,1.46,.95,3.12,1.59,4.67,1.12,3.93-1.18,7.67-5.22,7.88-5.45h.02s0,0-.01-.01c0,0,.01-.01,.01-.01Z"/>
      </g>
      <g class="cls-1">
        <line class="cls-3" x1="766.92" y1="77.75" x2="766.92" y2="759.43"/>
        <path class="cls-2" d="M765.59,740.33s-5.69,14.98-4.58,22.66c1.11,7.68,10.28,6.07,11.76,0,1.49-6.07-5.08-23.65-5.08-23.65,0,0-.96-3.9-2.1,.99Z"/>
        <path class="cls-2" d="M765.76,466.79s-4.96,13.06-3.99,19.74,8.96,5.29,10.25,0c1.29-5.29-4.42-20.61-4.42-20.61,0,0-.84-3.4-1.83,.86Z"/>
        <path class="cls-2" d="M775.81,586.02c-5.87,1.41-7.26,2.8-8.67,8.67-.05,.22-.37,.22-.42,0-1.41-5.87-2.8-7.26-8.67-8.67-.22-.05-.22-.37,0-.42,5.87-1.41,7.26-2.8,8.67-8.67,.05-.22,.37-.22,.42,0,1.41,5.87,2.8,7.26,8.67,8.67,.22,.05,.22,.37,0,.42Z"/>
        <path class="cls-2" d="M775.81,330.7c-5.87,1.41-7.26,2.8-8.67,8.67-.05,.22-.37,.22-.42,0-1.41-5.87-2.8-7.26-8.67-8.67-.22-.05-.22-.37,0-.42,5.87-1.41,7.26-2.8,8.67-8.67,.05-.22,.37-.22,.42,0,1.41,5.87,2.8,7.26,8.67,8.67,.22,.05,.22,.37,0,.42Z"/>
        <circle class="cls-2" cx="766.92" cy="400.68" r="4.93"/>
        <circle class="cls-2" cx="766.92" cy="168.24" r="4.93"/>
        <circle class="cls-2" cx="766.92" cy="196.95" r="2.82"/>
        <circle class="cls-2" cx="766.92" cy="139.52" r="2.82"/>
        <circle class="cls-2" cx="766.92" cy="440.79" r="2.82"/>
        <circle class="cls-2" cx="766.92" cy="689.98" r="2.82"/>
        <circle class="cls-2" cx="766.92" cy="422.41" r="2.82"/>
        <path class="cls-2" d="M779.85,628.49h-.02c-.16-.17-2.98-3.22-5.95-4.11-1.28-.39-2.66,.22-3.83,1.05,.76-1.13,1.28-2.42,.92-3.63-.89-2.97-3.94-5.79-4.11-5.95v-.02s0,0,0,0c0,0,0,0,0,0v.02c-.17,.16-3.22,2.98-4.11,5.95-.38,1.26,.19,2.61,1,3.76-1.16-.8-2.5-1.38-3.76-1-2.97,.89-5.79,3.94-5.95,4.11h-.02s0,0,0,0c0,0,0,0,0,0h.02c.16,.17,2.98,3.22,5.95,4.11,1.26,.38,2.61-.19,3.76-1-.69,1.08-1.14,2.3-.8,3.45,.89,2.97,3.94,5.79,4.11,5.95v.02s0,0,0,0c0,0,0,0,0,0v-.02c.17-.16,3.22-2.98,4.11-5.95,.35-1.16-.12-2.39-.82-3.48,1.1,.72,2.35,1.2,3.53,.85,2.97-.89,5.79-3.94,5.95-4.11h.02s0,0,0,0c0,0,0,0,0,0Z"/>
        <path class="cls-2" d="M784.04,266.13h-.02c-.21-.23-3.94-4.27-7.88-5.45-1.7-.51-3.52,.29-5.07,1.39,1-1.49,1.69-3.2,1.21-4.81-1.18-3.93-5.22-7.67-5.45-7.88v-.02s0,0-.01,.01c0,0-.01-.01-.01-.01v.02c-.23,.21-4.27,3.94-5.45,7.88-.5,1.67,.26,3.45,1.32,4.98-1.53-1.06-3.31-1.83-4.98-1.33-3.93,1.18-7.67,5.22-7.88,5.45h-.02s0,0,.01,.01c0,0-.01,.01-.01,.01h.02c.21,.23,3.94,4.27,7.88,5.45,1.67,.5,3.45-.26,4.98-1.32-.91,1.43-1.51,3.05-1.05,4.57,1.18,3.93,5.22,7.67,5.45,7.88v.02s0,0,.01-.01c0,0,.01,.01,.01,.01v-.02c.23-.21,4.27-3.94,5.45-7.88,.46-1.53-.15-3.17-1.08-4.61,1.46,.95,3.12,1.59,4.67,1.12,3.93-1.18,7.67-5.22,7.88-5.45h.02s0,0-.01-.01c0,0,.01-.01,.01-.01Z"/>
      </g>
    </g>
  </g>
</svg>