<?xml version="1.0" encoding="UTF-8"?>
<svg id="Layer_2" data-name="Layer 2" xmlns="http://www.w3.org/2000/svg" viewBox="0 0 1865.72 1055.06">
  <defs>
    <style>
      .cls-1 {
        opacity: .07;
      }

      .cls-2, .cls-3 {
        fill: #fff8e9;
      }

      .cls-3 {
        opacity: .58;
        stroke: #fff8e9;
        stroke-miterlimit: 10;
        stroke-width: 2px;
      }
    </style>
  </defs>
  <g id="front_page" data-name="front page">
    <g>
      <g class="cls-1">
        <line class="cls-3" x1="350.02" y1="94.85" x2="350.02" y2="970.81"/>
        <path class="cls-2" d="M366.1,526.17h-.02c-.2-.22-3.71-4.01-7.4-5.12-1.6-.48-3.31,.27-4.77,1.3,.94-1.4,1.59-3.01,1.14-4.52-1.11-3.7-4.9-7.21-5.12-7.4v-.02s0,0,0,0c0,0-.01,0-.01,0v.02c-.22,.2-4.01,3.71-5.12,7.4-.47,1.57,.24,3.24,1.24,4.68-1.44-1-3.11-1.72-4.68-1.25-3.7,1.11-7.21,4.9-7.4,5.12h-.02s0,0,0,0c0,0,0,.01,0,.01h.02c.2,.22,3.71,4.01,7.4,5.12,1.57,.47,3.24-.24,4.68-1.24-.86,1.35-1.42,2.87-.99,4.29,1.11,3.7,4.9,7.21,5.12,7.4v.02s0,0,0,0c0,0,.01,0,.01,0v-.02c.22-.2,4.01-3.71,5.12-7.4,.43-1.44-.14-2.98-1.02-4.33,1.37,.89,2.93,1.49,4.39,1.06,3.7-1.11,7.21-4.9,7.4-5.12h.02s0,0,0,0c0,0,0-.01,0-.01Z"/>
        <path class="cls-2" d="M366.1,797.72h-.02c-.2-.22-3.71-4.01-7.4-5.12-1.6-.48-3.31,.27-4.77,1.3,.94-1.4,1.59-3.01,1.14-4.52-1.11-3.7-4.9-7.21-5.12-7.4v-.02s0,0,0,0c0,0-.01,0-.01,0v.02c-.22,.2-4.01,3.71-5.12,7.4-.47,1.57,.24,3.24,1.24,4.68-1.44-1-3.11-1.72-4.68-1.25-3.7,1.11-7.21,4.9-7.4,5.12h-.02s0,0,0,0c0,0,0,.01,0,.01h.02c.2,.22,3.71,4.01,7.4,5.12,1.57,.47,3.24-.24,4.68-1.24-.86,1.35-1.42,2.87-.99,4.29,1.11,3.7,4.9,7.21,5.12,7.4v.02s0,0,0,0c0,0,.01,0,.01,0v-.02c.22-.2,4.01-3.71,5.12-7.4,.43-1.44-.14-2.98-1.02-4.33,1.37,.89,2.93,1.49,4.39,1.06,3.7-1.11,7.21-4.9,7.4-5.12h.02s0,0,0,0c0,0,0-.01,0-.01Z"/>
        <path class="cls-2" d="M366.07,211.34h-.02c-.2-.22-3.7-4-7.39-5.11-1.59-.48-3.3,.27-4.76,1.3,.94-1.4,1.59-3,1.14-4.51-1.11-3.69-4.89-7.19-5.11-7.39v-.02s0,0,0,0c0,0-.01,0-.01,0v.02c-.22,.2-4,3.7-5.11,7.39-.47,1.56,.24,3.24,1.24,4.67-1.43-1-3.1-1.71-4.67-1.24-3.69,1.11-7.19,4.89-7.39,5.11h-.02s0,0,0,0c0,0,0,.01,0,.01h.02c.2,.22,3.7,4,7.39,5.11,1.56,.47,3.24-.24,4.67-1.24-.86,1.34-1.42,2.86-.99,4.28,1.11,3.69,4.89,7.19,5.11,7.39v.02s0,0,0,0c0,0,.01,0,.01,0v-.02c.22-.2,4-3.7,5.11-7.39,.43-1.44-.14-2.97-1.02-4.32,1.37,.89,2.92,1.49,4.38,1.05,3.69-1.11,7.19-4.89,7.39-5.11h.02s0,0,0,0c0,0,0-.01,0-.01Z"/>
        <path class="cls-2" d="M347.92,945.24s-8.92,23.48-7.18,35.5c1.75,12.03,16.1,9.51,18.43,0,2.33-9.51-7.95-37.06-7.95-37.06,0,0-1.5-6.11-3.3,1.55Z"/>
        <circle class="cls-2" cx="350.02" cy="602.13" r="4.64"/>
        <circle class="cls-2" cx="350.02" cy="654.95" r="4.64"/>
        <circle class="cls-2" cx="350.02" cy="248.4" r="4.64"/>
        <circle class="cls-2" cx="350.02" cy="486.45" r="4.64"/>
        <circle class="cls-2" cx="350.02" cy="628.54" r="7.42"/>
        <circle class="cls-2" cx="350.02" cy="912.84" r="4.71"/>
        <circle class="cls-2" cx="350.02" cy="881.15" r="8.04"/>
        <path class="cls-2" d="M360.26,370.37c-6.77,1.63-8.37,3.23-10,10-.06,.25-.42,.25-.48,0-1.63-6.77-3.23-8.37-10-10-.25-.06-.25-.42,0-.48,6.77-1.63,8.37-3.23,10-10,.06-.25,.42-.25,.48,0,1.63,6.77,3.23,8.37,10,10,.25,.06,.25,.42,0,.48Z"/>
        <path class="cls-2" d="M357.12,749.91c-4.69,1.13-5.8,2.24-6.93,6.93-.04,.18-.29,.18-.33,0-1.13-4.69-2.24-5.8-6.93-6.93-.18-.04-.18-.29,0-.33,4.69-1.13,5.8-2.24,6.93-6.93,.04-.18,.29-.18,.33,0,1.13,4.69,2.24,5.8,6.93,6.93,.18,.04,.18,.29,0,.33Z"/>
      </g>
      <g class="cls-1">
        <line class="cls-3" x1="1349.77" x2="1349.77" y2="875.96"/>
        <path class="cls-2" d="M1365.85,431.32h-.02c-.2-.22-3.71-4.01-7.4-5.12-1.6-.48-3.31,.27-4.77,1.3,.94-1.4,1.59-3.01,1.14-4.52-1.11-3.7-4.9-7.21-5.12-7.4v-.02s0,0,0,0c0,0-.01,0-.01,0v.02c-.22,.2-4.01,3.71-5.12,7.4-.47,1.57,.24,3.24,1.24,4.68-1.44-1-3.11-1.72-4.68-1.25-3.7,1.11-7.21,4.9-7.4,5.12h-.02s0,0,0,0c0,0,0,.01,0,.01h.02c.2,.22,3.71,4.01,7.4,5.12,1.57,.47,3.24-.24,4.68-1.24-.86,1.35-1.42,2.87-.99,4.29,1.11,3.7,4.9,7.21,5.12,7.4v.02s0,0,0,0c0,0,.01,0,.01,0v-.02c.22-.2,4.01-3.71,5.12-7.4,.43-1.44-.14-2.98-1.02-4.33,1.37,.89,2.93,1.49,4.39,1.06,3.7-1.11,7.21-4.9,7.4-5.12h.02s0,0,0,0c0,0,0-.01,0-.01Z"/>
        <path class="cls-2" d="M1365.85,702.87h-.02c-.2-.22-3.71-4.01-7.4-5.12-1.6-.48-3.31,.27-4.77,1.3,.94-1.4,1.59-3.01,1.14-4.52-1.11-3.7-4.9-7.21-5.12-7.4v-.02s0,0,0,0c0,0-.01,0-.01,0v.02c-.22,.2-4.01,3.71-5.12,7.4-.47,1.57,.24,3.24,1.24,4.68-1.44-1-3.11-1.72-4.68-1.25-3.7,1.11-7.21,4.9-7.4,5.12h-.02s0,0,0,0c0,0,0,.01,0,.01h.02c.2,.22,3.71,4.01,7.4,5.12,1.57,.47,3.24-.24,4.68-1.24-.86,1.35-1.42,2.87-.99,4.29,1.11,3.7,4.9,7.21,5.12,7.4v.02s0,0,0,0c0,0,.01,0,.01,0v-.02c.22-.2,4.01-3.71,5.12-7.4,.43-1.44-.14-2.98-1.02-4.33,1.37,.89,2.93,1.49,4.39,1.06,3.7-1.11,7.21-4.9,7.4-5.12h.02s0,0,0,0c0,0,0-.01,0-.01Z"/>
        <path class="cls-2" d="M1365.81,116.49h-.02c-.2-.22-3.7-4-7.39-5.11-1.59-.48-3.3,.27-4.76,1.3,.94-1.4,1.59-3,1.14-4.51-1.11-3.69-4.89-7.19-5.11-7.39v-.02s0,0,0,0c0,0-.01,0-.01,0v.02c-.22,.2-4,3.7-5.11,7.39-.47,1.56,.24,3.24,1.24,4.67-1.43-1-3.1-1.71-4.67-1.24-3.69,1.11-7.19,4.89-7.39,5.11h-.02s0,0,0,0c0,0,0,.01,0,.01h.02c.2,.22,3.7,4,7.39,5.11,1.56,.47,3.24-.24,4.67-1.24-.86,1.34-1.42,2.86-.99,4.28,1.11,3.69,4.89,7.19,5.11,7.39v.02s0,0,0,0c0,0,.01,0,.01,0v-.02c.22-.2,4-3.7,5.11-7.39,.43-1.44-.14-2.97-1.02-4.32,1.37,.89,2.92,1.49,4.38,1.05,3.69-1.11,7.19-4.89,7.39-5.11h.02s0,0,0,0c0,0,0-.01,0-.01Z"/>
        <path class="cls-2" d="M1347.67,850.39s-8.92,23.48-7.18,35.5c1.75,12.03,16.1,9.51,18.43,0,2.33-9.51-7.95-37.06-7.95-37.06,0,0-1.5-6.11-3.3,1.55Z"/>
        <circle class="cls-2" cx="1349.77" cy="507.29" r="4.64"/>
        <circle class="cls-2" cx="1349.77" cy="560.1" r="4.64"/>
        <circle class="cls-2" cx="1349.77" cy="153.55" r="4.64"/>
        <circle class="cls-2" cx="1349.77" cy="391.61" r="4.64"/>
        <circle class="cls-2" cx="1349.77" cy="533.69" r="7.42"/>
        <circle class="cls-2" cx="1349.77" cy="818" r="4.71"/>
        <circle class="cls-2" cx="1349.77" cy="786.31" r="8.04"/>
        <path class="cls-2" d="M1360.01,275.53c-6.77,1.63-8.37,3.23-10,10-.06,.25-.42,.25-.48,0-1.63-6.77-3.23-8.37-10-10-.25-.06-.25-.42,0-.48,6.77-1.63,8.37-3.23,10-10,.06-.25,.42-.25,.48,0,1.63,6.77,3.23,8.37,10,10,.25,.06,.25,.42,0,.48Z"/>
        <path class="cls-2" d="M1356.87,655.06c-4.69,1.13-5.8,2.24-6.93,6.93-.04,.18-.29,.18-.33,0-1.13-4.69-2.24-5.8-6.93-6.93-.18-.04-.18-.29,0-.33,4.69-1.13,5.8-2.24,6.93-6.93,.04-.18,.29-.18,.33,0,1.13,4.69,2.24,5.8,6.93,6.93,.18,.04,.18,.29,0,.33Z"/>
      </g>
      <g class="cls-1">
        <line class="cls-3" x1="849.89" y1="151.3" x2="849.89" y2="1027.26"/>
        <path class="cls-2" d="M865.98,582.62h-.02c-.2-.22-3.71-4.01-7.4-5.12-1.6-.48-3.31,.27-4.77,1.3,.94-1.4,1.59-3.01,1.14-4.52-1.11-3.7-4.9-7.21-5.12-7.4v-.02s0,0,0,0c0,0-.01,0-.01,0v.02c-.22,.2-4.01,3.71-5.12,7.4-.47,1.57,.24,3.24,1.24,4.68-1.44-1-3.11-1.72-4.68-1.25-3.7,1.11-7.21,4.9-7.4,5.12h-.02s0,0,0,0c0,0,0,.01,0,.01h.02c.2,.22,3.71,4.01,7.4,5.12,1.57,.47,3.24-.24,4.68-1.24-.86,1.35-1.42,2.87-.99,4.29,1.11,3.7,4.9,7.21,5.12,7.4v.02s0,0,0,0c0,0,.01,0,.01,0v-.02c.22-.2,4.01-3.71,5.12-7.4,.43-1.44-.14-2.98-1.02-4.33,1.37,.89,2.93,1.49,4.39,1.06,3.7-1.11,7.21-4.9,7.4-5.12h.02s0,0,0,0c0,0,0-.01,0-.01Z"/>
        <path class="cls-2" d="M865.98,854.17h-.02c-.2-.22-3.71-4.01-7.4-5.12-1.6-.48-3.31,.27-4.77,1.3,.94-1.4,1.59-3.01,1.14-4.52-1.11-3.7-4.9-7.21-5.12-7.4v-.02s0,0,0,0c0,0-.01,0-.01,0v.02c-.22,.2-4.01,3.71-5.12,7.4-.47,1.57,.24,3.24,1.24,4.68-1.44-1-3.11-1.72-4.68-1.25-3.7,1.11-7.21,4.9-7.4,5.12h-.02s0,0,0,0c0,0,0,.01,0,.01h.02c.2,.22,3.71,4.01,7.4,5.12,1.57,.47,3.24-.24,4.68-1.24-.86,1.35-1.42,2.87-.99,4.29,1.11,3.7,4.9,7.21,5.12,7.4v.02s0,0,0,0c0,0,.01,0,.01,0v-.02c.22-.2,4.01-3.71,5.12-7.4,.43-1.44-.14-2.98-1.02-4.33,1.37,.89,2.93,1.49,4.39,1.06,3.7-1.11,7.21-4.9,7.4-5.12h.02s0,0,0,0c0,0,0-.01,0-.01Z"/>
        <path class="cls-2" d="M865.94,267.79h-.02c-.2-.22-3.7-4-7.39-5.11-1.59-.48-3.3,.27-4.76,1.3,.94-1.4,1.59-3,1.14-4.51-1.11-3.69-4.89-7.19-5.11-7.39v-.02s0,0,0,0c0,0-.01,0-.01,0v.02c-.22,.2-4,3.7-5.11,7.39-.47,1.56,.24,3.24,1.24,4.67-1.43-1-3.1-1.71-4.67-1.24-3.69,1.11-7.19,4.89-7.39,5.11h-.02s0,0,0,0c0,0,0,.01,0,.01h.02c.2,.22,3.7,4,7.39,5.11,1.56,.47,3.24-.24,4.67-1.24-.86,1.34-1.42,2.86-.99,4.28,1.11,3.69,4.89,7.19,5.11,7.39v.02s0,0,0,0c0,0,.01,0,.01,0v-.02c.22-.2,4-3.7,5.11-7.39,.43-1.44-.14-2.97-1.02-4.32,1.37,.89,2.92,1.49,4.38,1.05,3.69-1.11,7.19-4.89,7.39-5.11h.02s0,0,0,0c0,0,0-.01,0-.01Z"/>
        <path class="cls-2" d="M847.8,1001.69s-8.92,23.48-7.18,35.5c1.75,12.03,16.1,9.51,18.43,0,2.33-9.51-7.95-37.06-7.95-37.06,0,0-1.5-6.11-3.3,1.55Z"/>
        <circle class="cls-2" cx="849.89" cy="658.58" r="4.64"/>
        <circle class="cls-2" cx="849.89" cy="711.4" r="4.64"/>
        <circle class="cls-2" cx="849.89" cy="304.85" r="4.64"/>
        <circle class="cls-2" cx="849.89" cy="542.9" r="4.64"/>
        <circle class="cls-2" cx="849.89" cy="684.99" r="7.42"/>
        <circle class="cls-2" cx="849.89" cy="969.29" r="4.71"/>
        <circle class="cls-2" cx="849.89" cy="937.6" r="8.04"/>
        <path class="cls-2" d="M860.14,426.82c-6.77,1.63-8.37,3.23-10,10-.06,.25-.42,.25-.48,0-1.63-6.77-3.23-8.37-10-10-.25-.06-.25-.42,0-.48,6.77-1.63,8.37-3.23,10-10,.06-.25,.42-.25,.48,0,1.63,6.77,3.23,8.37,10,10,.25,.06,.25,.42,0,.48Z"/>
        <path class="cls-2" d="M856.99,806.36c-4.69,1.13-5.8,2.24-6.93,6.93-.04,.18-.29,.18-.33,0-1.13-4.69-2.24-5.8-6.93-6.93-.18-.04-.18-.29,0-.33,4.69-1.13,5.8-2.24,6.93-6.93,.04-.18,.29-.18,.33,0,1.13,4.69,2.24,5.8,6.93,6.93,.18,.04,.18,.29,0,.33Z"/>
      </g>
      <g class="cls-1">
        <line class="cls-3" x1="1599.7" y1="100" x2="1599.7" y2="975.96"/>
        <path class="cls-2" d="M1615.79,531.32h-.02c-.2-.22-3.71-4.01-7.4-5.12-1.6-.48-3.31,.27-4.77,1.3,.94-1.4,1.59-3.01,1.14-4.52-1.11-3.7-4.9-7.21-5.12-7.4v-.02s0,0,0,0c0,0-.01,0-.01,0v.02c-.22,.2-4.01,3.71-5.12,7.4-.47,1.57,.24,3.24,1.24,4.68-1.44-1-3.11-1.72-4.68-1.25-3.7,1.11-7.21,4.9-7.4,5.12h-.02s0,0,0,0c0,0,0,.01,0,.01h.02c.2,.22,3.71,4.01,7.4,5.12,1.57,.47,3.24-.24,4.68-1.24-.86,1.35-1.42,2.87-.99,4.29,1.11,3.7,4.9,7.21,5.12,7.4v.02s0,0,0,0c0,0,.01,0,.01,0v-.02c.22-.2,4.01-3.71,5.12-7.4,.43-1.44-.14-2.98-1.02-4.33,1.37,.89,2.93,1.49,4.39,1.06,3.7-1.11,7.21-4.9,7.4-5.12h.02s0,0,0,0c0,0,0-.01,0-.01Z"/>
        <path class="cls-2" d="M1615.79,802.87h-.02c-.2-.22-3.71-4.01-7.4-5.12-1.6-.48-3.31,.27-4.77,1.3,.94-1.4,1.59-3.01,1.14-4.52-1.11-3.7-4.9-7.21-5.12-7.4v-.02s0,0,0,0c0,0-.01,0-.01,0v.02c-.22,.2-4.01,3.71-5.12,7.4-.47,1.57,.24,3.24,1.24,4.68-1.44-1-3.11-1.72-4.68-1.25-3.7,1.11-7.21,4.9-7.4,5.12h-.02s0,0,0,0c0,0,0,.01,0,.01h.02c.2,.22,3.71,4.01,7.4,5.12,1.57,.47,3.24-.24,4.68-1.24-.86,1.35-1.42,2.87-.99,4.29,1.11,3.7,4.9,7.21,5.12,7.4v.02s0,0,0,0c0,0,.01,0,.01,0v-.02c.22-.2,4.01-3.71,5.12-7.4,.43-1.44-.14-2.98-1.02-4.33,1.37,.89,2.93,1.49,4.39,1.06,3.7-1.11,7.21-4.9,7.4-5.12h.02s0,0,0,0c0,0,0-.01,0-.01Z"/>
        <path class="cls-2" d="M1615.75,216.49h-.02c-.2-.22-3.7-4-7.39-5.11-1.59-.48-3.3,.27-4.76,1.3,.94-1.4,1.59-3,1.14-4.51-1.11-3.69-4.89-7.19-5.11-7.39v-.02s0,0,0,0c0,0-.01,0-.01,0v.02c-.22,.2-4,3.7-5.11,7.39-.47,1.56,.24,3.24,1.24,4.67-1.43-1-3.1-1.71-4.67-1.24-3.69,1.11-7.19,4.89-7.39,5.11h-.02s0,0,0,0c0,0,0,.01,0,.01h.02c.2,.22,3.7,4,7.39,5.11,1.56,.47,3.24-.24,4.67-1.24-.86,1.34-1.42,2.86-.99,4.28,1.11,3.69,4.89,7.19,5.11,7.39v.02s0,0,0,0c0,0,.01,0,.01,0v-.02c.22-.2,4-3.7,5.11-7.39,.43-1.44-.14-2.97-1.02-4.32,1.37,.89,2.92,1.49,4.38,1.05,3.69-1.11,7.19-4.89,7.39-5.11h.02s0,0,0,0c0,0,0-.01,0-.01Z"/>
        <path class="cls-2" d="M1597.61,950.39s-8.92,23.48-7.18,35.5c1.75,12.03,16.1,9.51,18.43,0,2.33-9.51-7.95-37.06-7.95-37.06,0,0-1.5-6.11-3.3,1.55Z"/>
        <circle class="cls-2" cx="1599.7" cy="607.28" r="4.64"/>
        <circle class="cls-2" cx="1599.7" cy="660.1" r="4.64"/>
        <circle class="cls-2" cx="1599.7" cy="253.55" r="4.64"/>
        <circle class="cls-2" cx="1599.7" cy="491.6" r="4.64"/>
        <circle class="cls-2" cx="1599.7" cy="633.69" r="7.42"/>
        <circle class="cls-2" cx="1599.7" cy="917.99" r="4.71"/>
        <circle class="cls-2" cx="1599.7" cy="886.3" r="8.04"/>
        <path class="cls-2" d="M1609.95,375.52c-6.77,1.63-8.37,3.23-10,10-.06,.25-.42,.25-.48,0-1.63-6.77-3.23-8.37-10-10-.25-.06-.25-.42,0-.48,6.77-1.63,8.37-3.23,10-10,.06-.25,.42-.25,.48,0,1.63,6.77,3.23,8.37,10,10,.25,.06,.25,.42,0,.48Z"/>
        <path class="cls-2" d="M1606.8,755.06c-4.69,1.13-5.8,2.24-6.93,6.93-.04,.18-.29,.18-.33,0-1.13-4.69-2.24-5.8-6.93-6.93-.18-.04-.18-.29,0-.33,4.69-1.13,5.8-2.24,6.93-6.93,.04-.18,.29-.18,.33,0,1.13,4.69,2.24,5.8,6.93,6.93,.18,.04,.18,.29,0,.33Z"/>
      </g>
      <g class="cls-1">
        <line class="cls-3" x1="599.96" y1="64.35" x2="599.96" y2="940.31"/>
        <path class="cls-2" d="M616.04,495.67h-.02c-.2-.22-3.71-4.01-7.4-5.12-1.6-.48-3.31,.27-4.77,1.3,.94-1.4,1.59-3.01,1.14-4.52-1.11-3.7-4.9-7.21-5.12-7.4v-.02s0,0,0,0c0,0-.01,0-.01,0v.02c-.22,.2-4.01,3.71-5.12,7.4-.47,1.57,.24,3.24,1.24,4.68-1.44-1-3.11-1.72-4.68-1.25-3.7,1.11-7.21,4.9-7.4,5.12h-.02s0,0,0,0c0,0,0,.01,0,.01h.02c.2,.22,3.71,4.01,7.4,5.12,1.57,.47,3.24-.24,4.68-1.24-.86,1.35-1.42,2.87-.99,4.29,1.11,3.7,4.9,7.21,5.12,7.4v.02s0,0,0,0c0,0,.01,0,.01,0v-.02c.22-.2,4.01-3.71,5.12-7.4,.43-1.44-.14-2.98-1.02-4.33,1.37,.89,2.93,1.49,4.39,1.06,3.7-1.11,7.21-4.9,7.4-5.12h.02s0,0,0,0c0,0,0-.01,0-.01Z"/>
        <path class="cls-2" d="M616.04,767.22h-.02c-.2-.22-3.71-4.01-7.4-5.12-1.6-.48-3.31,.27-4.77,1.3,.94-1.4,1.59-3.01,1.14-4.52-1.11-3.7-4.9-7.21-5.12-7.4v-.02s0,0,0,0c0,0-.01,0-.01,0v.02c-.22,.2-4.01,3.71-5.12,7.4-.47,1.57,.24,3.24,1.24,4.68-1.44-1-3.11-1.72-4.68-1.25-3.7,1.11-7.21,4.9-7.4,5.12h-.02s0,0,0,0c0,0,0,.01,0,.01h.02c.2,.22,3.71,4.01,7.4,5.12,1.57,.47,3.24-.24,4.68-1.24-.86,1.35-1.42,2.87-.99,4.29,1.11,3.7,4.9,7.21,5.12,7.4v.02s0,0,0,0c0,0,.01,0,.01,0v-.02c.22-.2,4.01-3.71,5.12-7.4,.43-1.44-.14-2.98-1.02-4.33,1.37,.89,2.93,1.49,4.39,1.06,3.7-1.11,7.21-4.9,7.4-5.12h.02s0,0,0,0c0,0,0-.01,0-.01Z"/>
        <path class="cls-2" d="M616,180.84h-.02c-.2-.22-3.7-4-7.39-5.11-1.59-.48-3.3,.27-4.76,1.3,.94-1.4,1.59-3,1.14-4.51-1.11-3.69-4.89-7.19-5.11-7.39v-.02s0,0,0,0c0,0-.01,0-.01,0v.02c-.22,.2-4,3.7-5.11,7.39-.47,1.56,.24,3.24,1.24,4.67-1.43-1-3.1-1.71-4.67-1.24-3.69,1.11-7.19,4.89-7.39,5.11h-.02s0,0,0,0c0,0,0,.01,0,.01h.02c.2,.22,3.7,4,7.39,5.11,1.56,.47,3.24-.24,4.67-1.24-.86,1.34-1.42,2.86-.99,4.28,1.11,3.69,4.89,7.19,5.11,7.39v.02s0,0,0,0c0,0,.01,0,.01,0v-.02c.22-.2,4-3.7,5.11-7.39,.43-1.44-.14-2.97-1.02-4.32,1.37,.89,2.92,1.49,4.38,1.05,3.69-1.11,7.19-4.89,7.39-5.11h.02s0,0,0,0c0,0,0-.01,0-.01Z"/>
        <path class="cls-2" d="M597.86,914.74s-8.92,23.48-7.18,35.5c1.75,12.03,16.1,9.51,18.43,0,2.33-9.51-7.95-37.06-7.95-37.06,0,0-1.5-6.11-3.3,1.55Z"/>
        <circle class="cls-2" cx="599.96" cy="571.63" r="4.64"/>
        <circle class="cls-2" cx="599.96" cy="624.45" r="4.64"/>
        <circle class="cls-2" cx="599.96" cy="217.9" r="4.64"/>
        <circle class="cls-2" cx="599.96" cy="455.96" r="4.64"/>
        <circle class="cls-2" cx="599.96" cy="598.04" r="7.42"/>
        <circle class="cls-2" cx="599.96" cy="882.34" r="4.71"/>
        <circle class="cls-2" cx="599.96" cy="850.65" r="8.04"/>
        <path class="cls-2" d="M610.2,339.87c-6.77,1.63-8.37,3.23-10,10-.06,.25-.42,.25-.48,0-1.63-6.77-3.23-8.37-10-10-.25-.06-.25-.42,0-.48,6.77-1.63,8.37-3.23,10-10,.06-.25,.42-.25,.48,0,1.63,6.77,3.23,8.37,10,10,.25,.06,.25,.42,0,.48Z"/>
        <path class="cls-2" d="M607.05,719.41c-4.69,1.13-5.8,2.24-6.93,6.93-.04,.18-.29,.18-.33,0-1.13-4.69-2.24-5.8-6.93-6.93-.18-.04-.18-.29,0-.33,4.69-1.13,5.8-2.24,6.93-6.93,.04-.18,.29-.18,.33,0,1.13,4.69,2.24,5.8,6.93,6.93,.18,.04,.18,.29,0,.33Z"/>
      </g>
      <g class="cls-1">
        <line class="cls-3" x1="16.08" y1="161.06" x2="16.08" y2="1037.03"/>
        <path class="cls-2" d="M32.16,592.39h-.02c-.2-.22-3.71-4.01-7.4-5.12-1.6-.48-3.31,.27-4.77,1.3,.94-1.4,1.59-3.01,1.14-4.52-1.11-3.7-4.9-7.21-5.12-7.4v-.02s0,0,0,0c0,0-.01,0-.01,0v.02c-.22,.2-4.01,3.71-5.12,7.4-.47,1.57,.24,3.24,1.24,4.68-1.44-1-3.11-1.72-4.68-1.25-3.7,1.11-7.21,4.9-7.4,5.12h-.02s0,0,0,0c0,0,0,.01,0,.01H.02c.2,.22,3.71,4.01,7.4,5.12,1.57,.47,3.24-.24,4.68-1.24-.86,1.35-1.42,2.87-.99,4.29,1.11,3.7,4.9,7.21,5.12,7.4v.02s0,0,0,0c0,0,.01,0,.01,0v-.02c.22-.2,4.01-3.71,5.12-7.4,.43-1.44-.14-2.98-1.02-4.33,1.37,.89,2.93,1.49,4.39,1.06,3.7-1.11,7.21-4.9,7.4-5.12h.02s0,0,0,0c0,0,0-.01,0-.01Z"/>
        <path class="cls-2" d="M32.16,863.94h-.02c-.2-.22-3.71-4.01-7.4-5.12-1.6-.48-3.31,.27-4.77,1.3,.94-1.4,1.59-3.01,1.14-4.52-1.11-3.7-4.9-7.21-5.12-7.4v-.02s0,0,0,0c0,0-.01,0-.01,0v.02c-.22,.2-4.01,3.71-5.12,7.4-.47,1.57,.24,3.24,1.24,4.68-1.44-1-3.11-1.72-4.68-1.25-3.7,1.11-7.21,4.9-7.4,5.12h-.02s0,0,0,0c0,0,0,.01,0,.01H.02c.2,.22,3.71,4.01,7.4,5.12,1.57,.47,3.24-.24,4.68-1.24-.86,1.35-1.42,2.87-.99,4.29,1.11,3.7,4.9,7.21,5.12,7.4v.02s0,0,0,0c0,0,.01,0,.01,0v-.02c.22-.2,4.01-3.71,5.12-7.4,.43-1.44-.14-2.98-1.02-4.33,1.37,.89,2.93,1.49,4.39,1.06,3.7-1.11,7.21-4.9,7.4-5.12h.02s0,0,0,0c0,0,0-.01,0-.01Z"/>
        <path class="cls-2" d="M32.13,277.56h-.02c-.2-.22-3.7-4-7.39-5.11-1.59-.48-3.3,.27-4.76,1.3,.94-1.4,1.59-3,1.14-4.51-1.11-3.69-4.89-7.19-5.11-7.39v-.02s0,0,0,0c0,0-.01,0-.01,0v.02c-.22,.2-4,3.7-5.11,7.39-.47,1.56,.24,3.24,1.24,4.67-1.43-1-3.1-1.71-4.67-1.24-3.69,1.11-7.19,4.89-7.39,5.11h-.02s0,0,0,0c0,0,0,.01,0,.01h.02c.2,.22,3.7,4,7.39,5.11,1.56,.47,3.24-.24,4.67-1.24-.86,1.34-1.42,2.86-.99,4.28,1.11,3.69,4.89,7.19,5.11,7.39v.02s0,0,0,0c0,0,.01,0,.01,0v-.02c.22-.2,4-3.7,5.11-7.39,.43-1.44-.14-2.97-1.02-4.32,1.37,.89,2.92,1.49,4.38,1.05,3.69-1.11,7.19-4.89,7.39-5.11h.02s0,0,0,0c0,0,0-.01,0-.01Z"/>
        <path class="cls-2" d="M13.99,1011.45s-8.92,23.48-7.18,35.5c1.75,12.03,16.1,9.51,18.43,0,2.33-9.51-7.95-37.06-7.95-37.06,0,0-1.5-6.11-3.3,1.55Z"/>
        <circle class="cls-2" cx="16.08" cy="668.35" r="4.64"/>
        <circle class="cls-2" cx="16.08" cy="721.17" r="4.64"/>
        <circle class="cls-2" cx="16.08" cy="314.62" r="4.64"/>
        <circle class="cls-2" cx="16.08" cy="552.67" r="4.64"/>
        <circle class="cls-2" cx="16.08" cy="694.76" r="7.42"/>
        <circle class="cls-2" cx="16.08" cy="979.06" r="4.71"/>
        <circle class="cls-2" cx="16.08" cy="947.37" r="8.04"/>
        <path class="cls-2" d="M26.33,436.59c-6.77,1.63-8.37,3.23-10,10-.06,.25-.42,.25-.48,0-1.63-6.77-3.23-8.37-10-10-.25-.06-.25-.42,0-.48,6.77-1.63,8.37-3.23,10-10,.06-.25,.42-.25,.48,0,1.63,6.77,3.23,8.37,10,10,.25,.06,.25,.42,0,.48Z"/>
        <path class="cls-2" d="M23.18,816.13c-4.69,1.13-5.8,2.24-6.93,6.93-.04,.18-.29,.18-.33,0-1.13-4.69-2.24-5.8-6.93-6.93-.18-.04-.18-.29,0-.33,4.69-1.13,5.8-2.24,6.93-6.93,.04-.18,.29-.18,.33,0,1.13,4.69,2.24,5.8,6.93,6.93,.18,.04,.18,.29,0,.33Z"/>
      </g>
      <g class="cls-1">
        <line class="cls-3" x1="1849.64" y1="154.42" x2="1849.64" y2="1030.38"/>
        <path class="cls-2" d="M1865.72,585.74h-.02c-.2-.22-3.71-4.01-7.4-5.12-1.6-.48-3.31,.27-4.77,1.3,.94-1.4,1.59-3.01,1.14-4.52-1.11-3.7-4.9-7.21-5.12-7.4v-.02s0,0,0,0c0,0-.01,0-.01,0v.02c-.22,.2-4.01,3.71-5.12,7.4-.47,1.57,.24,3.24,1.24,4.68-1.44-1-3.11-1.72-4.68-1.25-3.7,1.11-7.21,4.9-7.4,5.12h-.02s0,0,0,0c0,0,0,.01,0,.01h.02c.2,.22,3.71,4.01,7.4,5.12,1.57,.47,3.24-.24,4.68-1.24-.86,1.35-1.42,2.87-.99,4.29,1.11,3.7,4.9,7.21,5.12,7.4v.02s0,0,0,0c0,0,.01,0,.01,0v-.02c.22-.2,4.01-3.71,5.12-7.4,.43-1.44-.14-2.98-1.02-4.33,1.37,.89,2.93,1.49,4.39,1.06,3.7-1.11,7.21-4.9,7.4-5.12h.02s0,0,0,0c0,0,0-.01,0-.01Z"/>
        <path class="cls-2" d="M1865.72,857.29h-.02c-.2-.22-3.71-4.01-7.4-5.12-1.6-.48-3.31,.27-4.77,1.3,.94-1.4,1.59-3.01,1.14-4.52-1.11-3.7-4.9-7.21-5.12-7.4v-.02s0,0,0,0c0,0-.01,0-.01,0v.02c-.22,.2-4.01,3.71-5.12,7.4-.47,1.57,.24,3.24,1.24,4.68-1.44-1-3.11-1.72-4.68-1.25-3.7,1.11-7.21,4.9-7.4,5.12h-.02s0,0,0,0c0,0,0,.01,0,.01h.02c.2,.22,3.71,4.01,7.4,5.12,1.57,.47,3.24-.24,4.68-1.24-.86,1.35-1.42,2.87-.99,4.29,1.11,3.7,4.9,7.21,5.12,7.4v.02s0,0,0,0c0,0,.01,0,.01,0v-.02c.22-.2,4.01-3.71,5.12-7.4,.43-1.44-.14-2.98-1.02-4.33,1.37,.89,2.93,1.49,4.39,1.06,3.7-1.11,7.21-4.9,7.4-5.12h.02s0,0,0,0c0,0,0-.01,0-.01Z"/>
        <path class="cls-2" d="M1865.69,270.91h-.02c-.2-.22-3.7-4-7.39-5.11-1.59-.48-3.3,.27-4.76,1.3,.94-1.4,1.59-3,1.14-4.51-1.11-3.69-4.89-7.19-5.11-7.39v-.02s0,0,0,0c0,0-.01,0-.01,0v.02c-.22,.2-4,3.7-5.11,7.39-.47,1.56,.24,3.24,1.24,4.67-1.43-1-3.1-1.71-4.67-1.24-3.69,1.11-7.19,4.89-7.39,5.11h-.02s0,0,0,0c0,0,0,.01,0,.01h.02c.2,.22,3.7,4,7.39,5.11,1.56,.47,3.24-.24,4.67-1.24-.86,1.34-1.42,2.86-.99,4.28,1.11,3.69,4.89,7.19,5.11,7.39v.02s0,0,0,0c0,0,.01,0,.01,0v-.02c.22-.2,4-3.7,5.11-7.39,.43-1.44-.14-2.97-1.02-4.32,1.37,.89,2.92,1.49,4.38,1.05,3.69-1.11,7.19-4.89,7.39-5.11h.02s0,0,0,0c0,0,0-.01,0-.01Z"/>
        <path class="cls-2" d="M1847.55,1004.81s-8.92,23.48-7.18,35.5c1.75,12.03,16.1,9.51,18.43,0,2.33-9.51-7.95-37.06-7.95-37.06,0,0-1.5-6.11-3.3,1.55Z"/>
        <circle class="cls-2" cx="1849.64" cy="661.71" r="4.64"/>
        <circle class="cls-2" cx="1849.64" cy="714.52" r="4.64"/>
        <circle class="cls-2" cx="1849.64" cy="307.97" r="4.64"/>
        <circle class="cls-2" cx="1849.64" cy="546.03" r="4.64"/>
        <circle class="cls-2" cx="1849.64" cy="688.11" r="7.42"/>
        <circle class="cls-2" cx="1849.64" cy="972.42" r="4.71"/>
        <circle class="cls-2" cx="1849.64" cy="940.73" r="8.04"/>
        <path class="cls-2" d="M1859.89,429.95c-6.77,1.63-8.37,3.23-10,10-.06,.25-.42,.25-.48,0-1.63-6.77-3.23-8.37-10-10-.25-.06-.25-.42,0-.48,6.77-1.63,8.37-3.23,10-10,.06-.25,.42-.25,.48,0,1.63,6.77,3.23,8.37,10,10,.25,.06,.25,.42,0,.48Z"/>
        <path class="cls-2" d="M1856.74,809.48c-4.69,1.13-5.8,2.24-6.93,6.93-.04,.18-.29,.18-.33,0-1.13-4.69-2.24-5.8-6.93-6.93-.18-.04-.18-.29,0-.33,4.69-1.13,5.8-2.24,6.93-6.93,.04-.18,.29-.18,.33,0,1.13,4.69,2.24,5.8,6.93,6.93,.18,.04,.18,.29,0,.33Z"/>
      </g>
      <g class="cls-1">
        <line class="cls-3" x1="1099.83" y1="83.98" x2="1099.83" y2="959.95"/>
        <path class="cls-2" d="M1115.91,515.31h-.02c-.2-.22-3.71-4.01-7.4-5.12-1.6-.48-3.31,.27-4.77,1.3,.94-1.4,1.59-3.01,1.14-4.52-1.11-3.7-4.9-7.21-5.12-7.4v-.02s0,0,0,0c0,0-.01,0-.01,0v.02c-.22,.2-4.01,3.71-5.12,7.4-.47,1.57,.24,3.24,1.24,4.68-1.44-1-3.11-1.72-4.68-1.25-3.7,1.11-7.21,4.9-7.4,5.12h-.02s0,0,0,0c0,0,0,.01,0,.01h.02c.2,.22,3.71,4.01,7.4,5.12,1.57,.47,3.24-.24,4.68-1.24-.86,1.35-1.42,2.87-.99,4.29,1.11,3.7,4.9,7.21,5.12,7.4v.02s0,0,0,0c0,0,.01,0,.01,0v-.02c.22-.2,4.01-3.71,5.12-7.4,.43-1.44-.14-2.98-1.02-4.33,1.37,.89,2.93,1.49,4.39,1.06,3.7-1.11,7.21-4.9,7.4-5.12h.02s0,0,0,0c0,0,0-.01,0-.01Z"/>
        <path class="cls-2" d="M1115.91,786.85h-.02c-.2-.22-3.71-4.01-7.4-5.12-1.6-.48-3.31,.27-4.77,1.3,.94-1.4,1.59-3.01,1.14-4.52-1.11-3.7-4.9-7.21-5.12-7.4v-.02s0,0,0,0c0,0-.01,0-.01,0v.02c-.22,.2-4.01,3.71-5.12,7.4-.47,1.57,.24,3.24,1.24,4.68-1.44-1-3.11-1.72-4.68-1.25-3.7,1.11-7.21,4.9-7.4,5.12h-.02s0,0,0,0c0,0,0,.01,0,.01h.02c.2,.22,3.71,4.01,7.4,5.12,1.57,.47,3.24-.24,4.68-1.24-.86,1.35-1.42,2.87-.99,4.29,1.11,3.7,4.9,7.21,5.12,7.4v.02s0,0,0,0c0,0,.01,0,.01,0v-.02c.22-.2,4.01-3.71,5.12-7.4,.43-1.44-.14-2.98-1.02-4.33,1.37,.89,2.93,1.49,4.39,1.06,3.7-1.11,7.21-4.9,7.4-5.12h.02s0,0,0,0c0,0,0-.01,0-.01Z"/>
        <path class="cls-2" d="M1115.88,200.47h-.02c-.2-.22-3.7-4-7.39-5.11-1.59-.48-3.3,.27-4.76,1.3,.94-1.4,1.59-3,1.14-4.51-1.11-3.69-4.89-7.19-5.11-7.39v-.02s0,0,0,0c0,0-.01,0-.01,0v.02c-.22,.2-4,3.7-5.11,7.39-.47,1.56,.24,3.24,1.24,4.67-1.43-1-3.1-1.71-4.67-1.24-3.69,1.11-7.19,4.89-7.39,5.11h-.02s0,0,0,0c0,0,0,.01,0,.01h.02c.2,.22,3.7,4,7.39,5.11,1.56,.47,3.24-.24,4.67-1.24-.86,1.34-1.42,2.86-.99,4.28,1.11,3.69,4.89,7.19,5.11,7.39v.02s0,0,0,0c0,0,.01,0,.01,0v-.02c.22-.2,4-3.7,5.11-7.39,.43-1.44-.14-2.97-1.02-4.32,1.37,.89,2.92,1.49,4.38,1.05,3.69-1.11,7.19-4.89,7.39-5.11h.02s0,0,0,0c0,0,0-.01,0-.01Z"/>
        <path class="cls-2" d="M1097.74,934.37s-8.92,23.48-7.18,35.5c1.75,12.03,16.1,9.51,18.43,0,2.33-9.51-7.95-37.06-7.95-37.06,0,0-1.5-6.11-3.3,1.55Z"/>
        <circle class="cls-2" cx="1099.83" cy="591.27" r="4.64"/>
        <circle class="cls-2" cx="1099.83" cy="644.08" r="4.64"/>
        <circle class="cls-2" cx="1099.83" cy="237.53" r="4.64"/>
        <circle class="cls-2" cx="1099.83" cy="475.59" r="4.64"/>
        <circle class="cls-2" cx="1099.83" cy="617.68" r="7.42"/>
        <circle class="cls-2" cx="1099.83" cy="901.98" r="4.71"/>
        <circle class="cls-2" cx="1099.83" cy="870.29" r="8.04"/>
        <path class="cls-2" d="M1110.07,359.51c-6.77,1.63-8.37,3.23-10,10-.06,.25-.42,.25-.48,0-1.63-6.77-3.23-8.37-10-10-.25-.06-.25-.42,0-.48,6.77-1.63,8.37-3.23,10-10,.06-.25,.42-.25,.48,0,1.63,6.77,3.23,8.37,10,10,.25,.06,.25,.42,0,.48Z"/>
        <path class="cls-2" d="M1106.93,739.05c-4.69,1.13-5.8,2.24-6.93,6.93-.04,.18-.29,.18-.33,0-1.13-4.69-2.24-5.8-6.93-6.93-.18-.04-.18-.29,0-.33,4.69-1.13,5.8-2.24,6.93-6.93,.04-.18,.29-.18,.33,0,1.13,4.69,2.24,5.8,6.93,6.93,.18,.04,.18,.29,0,.33Z"/>
      </g>
      <g class="cls-1">
        <line class="cls-3" x1="432.99" y1="148.68" x2="432.99" y2="722.22"/>
        <path class="cls-2" d="M431.65,704.02s-5.69,14.98-4.58,22.66c1.11,7.68,10.28,6.07,11.76,0,1.49-6.07-5.08-23.65-5.08-23.65,0,0-.96-3.9-2.1,.99Z"/>
        <path class="cls-2" d="M431.82,331.42s-4.96,13.06-3.99,19.74c.97,6.69,8.96,5.29,10.25,0,1.29-5.29-4.42-20.61-4.42-20.61,0,0-.84-3.4-1.83,.86Z"/>
        <path class="cls-2" d="M441.87,623.6c-5.87,1.41-7.26,2.8-8.67,8.67-.05,.22-.37,.22-.42,0-1.41-5.87-2.8-7.26-8.67-8.67-.22-.05-.22-.37,0-.42,5.87-1.41,7.26-2.8,8.67-8.67,.05-.22,.37-.22,.42,0,1.41,5.87,2.8,7.26,8.67,8.67,.22,.05,.22,.37,0,.42Z"/>
        <path class="cls-2" d="M441.87,282.13c-5.87,1.41-7.26,2.8-8.67,8.67-.05,.22-.37,.22-.42,0-1.41-5.87-2.8-7.26-8.67-8.67-.22-.05-.22-.37,0-.42,5.87-1.41,7.26-2.8,8.67-8.67,.05-.22,.37-.22,.42,0,1.41,5.87,2.8,7.26,8.67,8.67,.22,.05,.22,.37,0,.42Z"/>
        <circle class="cls-2" cx="432.99" cy="478.5" r="4.93"/>
        <circle class="cls-2" cx="432.99" cy="215.71" r="4.93"/>
        <circle class="cls-2" cx="432.99" cy="236.69" r="2.82"/>
        <circle class="cls-2" cx="432.99" cy="461.77" r="2.82"/>
        <circle class="cls-2" cx="432.99" cy="493.61" r="2.82"/>
        <circle class="cls-2" cx="432.99" cy="664.1" r="2.82"/>
        <circle class="cls-2" cx="432.99" cy="672.88" r="2.82"/>
        <circle class="cls-2" cx="432.99" cy="681.65" r="2.82"/>
        <path class="cls-2" d="M445.91,571.04h-.02c-.16-.17-2.98-3.22-5.95-4.11-1.28-.39-2.66,.22-3.83,1.05,.76-1.13,1.28-2.42,.92-3.63-.89-2.97-3.94-5.79-4.11-5.95v-.02s0,0,0,0c0,0,0,0,0,0v.02c-.17,.16-3.22,2.98-4.11,5.95-.38,1.26,.19,2.61,1,3.76-1.16-.8-2.5-1.38-3.76-1-2.97,.89-5.79,3.94-5.95,4.11h-.02s0,0,0,0c0,0,0,0,0,0h.02c.16,.17,2.98,3.22,5.95,4.11,1.26,.38,2.61-.19,3.76-1-.69,1.08-1.14,2.3-.8,3.45,.89,2.97,3.94,5.79,4.11,5.95v.02s0,0,0,0c0,0,0,0,0,0v-.02c.17-.16,3.22-2.98,4.11-5.95,.35-1.16-.12-2.39-.82-3.48,1.1,.72,2.35,1.2,3.53,.85,2.97-.89,5.79-3.94,5.95-4.11h.02s0,0,0,0c0,0,0,0,0,0Z"/>
        <path class="cls-2" d="M450.1,391.18h-.02c-.21-.23-3.94-4.27-7.88-5.45-1.7-.51-3.52,.29-5.07,1.39,1-1.49,1.69-3.2,1.21-4.81-1.18-3.93-5.22-7.67-5.45-7.88v-.02s0,0-.01,.01c0,0-.01-.01-.01-.01v.02c-.23,.21-4.27,3.94-5.45,7.88-.5,1.67,.26,3.45,1.32,4.98-1.53-1.06-3.31-1.83-4.98-1.33-3.93,1.18-7.67,5.22-7.88,5.45h-.02s0,0,.01,.01c0,0-.01,.01-.01,.01h.02c.21,.23,3.94,4.27,7.88,5.45,1.67,.5,3.45-.26,4.98-1.32-.91,1.43-1.51,3.05-1.05,4.57,1.18,3.93,5.22,7.67,5.45,7.88v.02s0,0,.01-.01c0,0,.01,.01,.01,.01v-.02c.23-.21,4.27-3.94,5.45-7.88,.46-1.53-.15-3.17-1.08-4.61,1.46,.95,3.12,1.59,4.67,1.12,3.93-1.18,7.67-5.22,7.88-5.45h.02s0,0-.01-.01c0,0,.01-.01,.01-.01Z"/>
      </g>
      <g class="cls-1">
        <line class="cls-3" x1="682.92" y1="74.36" x2="682.92" y2="647.91"/>
        <path class="cls-2" d="M681.59,629.7s-5.69,14.98-4.58,22.66c1.11,7.68,10.28,6.07,11.76,0,1.49-6.07-5.08-23.65-5.08-23.65,0,0-.96-3.9-2.1,.99Z"/>
        <path class="cls-2" d="M681.76,257.1s-4.96,13.06-3.99,19.74c.97,6.69,8.96,5.29,10.25,0s-4.42-20.61-4.42-20.61c0,0-.84-3.4-1.83,.86Z"/>
        <path class="cls-2" d="M691.81,549.28c-5.87,1.41-7.26,2.8-8.67,8.67-.05,.22-.37,.22-.42,0-1.41-5.87-2.8-7.26-8.67-8.67-.22-.05-.22-.37,0-.42,5.87-1.41,7.26-2.8,8.67-8.67,.05-.22,.37-.22,.42,0,1.41,5.87,2.8,7.26,8.67,8.67,.22,.05,.22,.37,0,.42Z"/>
        <path class="cls-2" d="M691.81,207.81c-5.87,1.41-7.26,2.8-8.67,8.67-.05,.22-.37,.22-.42,0-1.41-5.87-2.8-7.26-8.67-8.67-.22-.05-.22-.37,0-.42,5.87-1.41,7.26-2.8,8.67-8.67,.05-.22,.37-.22,.42,0,1.41,5.87,2.8,7.26,8.67,8.67,.22,.05,.22,.37,0,.42Z"/>
        <circle class="cls-2" cx="682.92" cy="404.18" r="4.93"/>
        <circle class="cls-2" cx="682.92" cy="141.39" r="4.93"/>
        <circle class="cls-2" cx="682.92" cy="162.37" r="2.82"/>
        <circle class="cls-2" cx="682.92" cy="387.45" r="2.82"/>
        <circle class="cls-2" cx="682.92" cy="419.29" r="2.82"/>
        <circle class="cls-2" cx="682.92" cy="589.78" r="2.82"/>
        <circle class="cls-2" cx="682.92" cy="598.56" r="2.82"/>
        <circle class="cls-2" cx="682.92" cy="607.33" r="2.82"/>
        <path class="cls-2" d="M695.85,496.72h-.02c-.16-.17-2.98-3.22-5.95-4.11-1.28-.39-2.66,.22-3.83,1.05,.76-1.13,1.28-2.42,.92-3.63-.89-2.97-3.94-5.79-4.11-5.95v-.02s0,0,0,0c0,0,0,0,0,0v.02c-.17,.16-3.22,2.98-4.11,5.95-.38,1.26,.19,2.61,1,3.76-1.16-.8-2.5-1.38-3.76-1-2.97,.89-5.79,3.94-5.95,4.11h-.02s0,0,0,0c0,0,0,0,0,0h.02c.16,.17,2.98,3.22,5.95,4.11,1.26,.38,2.61-.19,3.76-1-.69,1.08-1.14,2.3-.8,3.45,.89,2.97,3.94,5.79,4.11,5.95v.02s0,0,0,0c0,0,0,0,0,0v-.02c.17-.16,3.22-2.98,4.11-5.95,.35-1.16-.12-2.39-.82-3.48,1.1,.72,2.35,1.2,3.53,.85,2.97-.89,5.79-3.94,5.95-4.11h.02s0,0,0,0c0,0,0,0,0,0Z"/>
        <path class="cls-2" d="M700.04,316.86h-.02c-.21-.23-3.94-4.27-7.88-5.45-1.7-.51-3.52,.29-5.07,1.39,1-1.49,1.69-3.2,1.21-4.81-1.18-3.93-5.22-7.67-5.45-7.88v-.02s0,0-.01,.01c0,0-.01-.01-.01-.01v.02c-.23,.21-4.27,3.94-5.45,7.88-.5,1.67,.26,3.45,1.32,4.98-1.53-1.06-3.31-1.83-4.98-1.33-3.93,1.18-7.67,5.22-7.88,5.45h-.02s0,0,.01,.01c0,0-.01,.01-.01,.01h.02c.21,.23,3.94,4.27,7.88,5.45,1.67,.5,3.45-.26,4.98-1.32-.91,1.43-1.51,3.05-1.05,4.57,1.18,3.93,5.22,7.67,5.45,7.88v.02s0,0,.01-.01c0,0,.01,.01,.01,.01v-.02c.23-.21,4.27-3.94,5.45-7.88,.46-1.53-.15-3.17-1.08-4.61,1.46,.95,3.12,1.59,4.67,1.12,3.93-1.18,7.67-5.22,7.88-5.45h.02s0,0-.01-.01c0,0,.01-.01,.01-.01Z"/>
      </g>
      <g class="cls-1">
        <line class="cls-3" x1="183.05" y1="74.36" x2="183.05" y2="647.91"/>
        <path class="cls-2" d="M181.71,629.7s-5.69,14.98-4.58,22.66c1.11,7.68,10.28,6.07,11.76,0s-5.08-23.65-5.08-23.65c0,0-.96-3.9-2.1,.99Z"/>
        <path class="cls-2" d="M181.89,257.1s-4.96,13.06-3.99,19.74c.97,6.69,8.96,5.29,10.25,0,1.29-5.29-4.42-20.61-4.42-20.61,0,0-.84-3.4-1.83,.86Z"/>
        <path class="cls-2" d="M191.93,549.28c-5.87,1.41-7.26,2.8-8.67,8.67-.05,.22-.37,.22-.42,0-1.41-5.87-2.8-7.26-8.67-8.67-.22-.05-.22-.37,0-.42,5.87-1.41,7.26-2.8,8.67-8.67,.05-.22,.37-.22,.42,0,1.41,5.87,2.8,7.26,8.67,8.67,.22,.05,.22,.37,0,.42Z"/>
        <path class="cls-2" d="M191.93,207.81c-5.87,1.41-7.26,2.8-8.67,8.67-.05,.22-.37,.22-.42,0-1.41-5.87-2.8-7.26-8.67-8.67-.22-.05-.22-.37,0-.42,5.87-1.41,7.26-2.8,8.67-8.67,.05-.22,.37-.22,.42,0,1.41,5.87,2.8,7.26,8.67,8.67,.22,.05,.22,.37,0,.42Z"/>
        <circle class="cls-2" cx="183.05" cy="404.18" r="4.93"/>
        <circle class="cls-2" cx="183.05" cy="141.39" r="4.93"/>
        <circle class="cls-2" cx="183.05" cy="162.37" r="2.82"/>
        <circle class="cls-2" cx="183.05" cy="387.45" r="2.82"/>
        <circle class="cls-2" cx="183.05" cy="419.29" r="2.82"/>
        <circle class="cls-2" cx="183.05" cy="589.78" r="2.82"/>
        <circle class="cls-2" cx="183.05" cy="598.56" r="2.82"/>
        <circle class="cls-2" cx="183.05" cy="607.33" r="2.82"/>
        <path class="cls-2" d="M195.98,496.72h-.02c-.16-.17-2.98-3.22-5.95-4.11-1.28-.39-2.66,.22-3.83,1.05,.76-1.13,1.28-2.42,.92-3.63-.89-2.97-3.94-5.79-4.11-5.95v-.02s0,0,0,0c0,0,0,0,0,0v.02c-.17,.16-3.22,2.98-4.11,5.95-.38,1.26,.19,2.61,1,3.76-1.16-.8-2.5-1.38-3.76-1-2.97,.89-5.79,3.94-5.95,4.11h-.02s0,0,0,0c0,0,0,0,0,0h.02c.16,.17,2.98,3.22,5.95,4.11,1.26,.38,2.61-.19,3.76-1-.69,1.08-1.14,2.3-.8,3.45,.89,2.97,3.94,5.79,4.11,5.95v.02s0,0,0,0c0,0,0,0,0,0v-.02c.17-.16,3.22-2.98,4.11-5.95,.35-1.16-.12-2.39-.82-3.48,1.1,.72,2.35,1.2,3.53,.85,2.97-.89,5.79-3.94,5.95-4.11h.02s0,0,0,0c0,0,0,0,0,0Z"/>
        <path class="cls-2" d="M200.16,316.86h-.02c-.21-.23-3.94-4.27-7.88-5.45-1.7-.51-3.52,.29-5.07,1.39,1-1.49,1.69-3.2,1.21-4.81-1.18-3.93-5.22-7.67-5.45-7.88v-.02s0,0-.01,.01c0,0-.01-.01-.01-.01v.02c-.23,.21-4.27,3.94-5.45,7.88-.5,1.67,.26,3.45,1.32,4.98-1.53-1.06-3.31-1.83-4.98-1.33-3.93,1.18-7.67,5.22-7.88,5.45h-.02s0,0,.01,.01c0,0-.01,.01-.01,.01h.02c.21,.23,3.94,4.27,7.88,5.45,1.67,.5,3.45-.26,4.98-1.32-.91,1.43-1.51,3.05-1.05,4.57,1.18,3.93,5.22,7.67,5.45,7.88v.02s0,0,.01-.01c0,0,.01,.01,.01,.01v-.02c.23-.21,4.27-3.94,5.45-7.88,.46-1.53-.15-3.17-1.08-4.61,1.46,.95,3.12,1.59,4.67,1.12,3.93-1.18,7.67-5.22,7.88-5.45h.02s0,0-.01-.01c0,0,.01-.01,.01-.01Z"/>
      </g>
      <g class="cls-1">
        <line class="cls-3" x1="1766.67" y1="136.92" x2="1766.67" y2="710.47"/>
        <path class="cls-2" d="M1765.34,692.26s-5.69,14.98-4.58,22.66,10.28,6.07,11.76,0c1.49-6.07-5.08-23.65-5.08-23.65,0,0-.96-3.9-2.1,.99Z"/>
        <path class="cls-2" d="M1765.51,319.66s-4.96,13.06-3.99,19.74c.97,6.69,8.96,5.29,10.25,0s-4.42-20.61-4.42-20.61c0,0-.84-3.4-1.83,.86Z"/>
        <path class="cls-2" d="M1775.56,611.84c-5.87,1.41-7.26,2.8-8.67,8.67-.05,.22-.37,.22-.42,0-1.41-5.87-2.8-7.26-8.67-8.67-.22-.05-.22-.37,0-.42,5.87-1.41,7.26-2.8,8.67-8.67,.05-.22,.37-.22,.42,0,1.41,5.87,2.8,7.26,8.67,8.67,.22,.05,.22,.37,0,.42Z"/>
        <path class="cls-2" d="M1775.56,270.37c-5.87,1.41-7.26,2.8-8.67,8.67-.05,.22-.37,.22-.42,0-1.41-5.87-2.8-7.26-8.67-8.67-.22-.05-.22-.37,0-.42,5.87-1.41,7.26-2.8,8.67-8.67,.05-.22,.37-.22,.42,0,1.41,5.87,2.8,7.26,8.67,8.67,.22,.05,.22,.37,0,.42Z"/>
        <circle class="cls-2" cx="1766.67" cy="466.74" r="4.93"/>
        <circle class="cls-2" cx="1766.67" cy="203.95" r="4.93"/>
        <circle class="cls-2" cx="1766.67" cy="224.93" r="2.82"/>
        <circle class="cls-2" cx="1766.67" cy="450.01" r="2.82"/>
        <circle class="cls-2" cx="1766.67" cy="481.85" r="2.82"/>
        <circle class="cls-2" cx="1766.67" cy="652.34" r="2.82"/>
        <circle class="cls-2" cx="1766.67" cy="661.12" r="2.82"/>
        <circle class="cls-2" cx="1766.67" cy="669.89" r="2.82"/>
        <path class="cls-2" d="M1779.6,559.28h-.02c-.16-.17-2.98-3.22-5.95-4.11-1.28-.39-2.66,.22-3.83,1.05,.76-1.13,1.28-2.42,.92-3.63-.89-2.97-3.94-5.79-4.11-5.95v-.02s0,0,0,0c0,0,0,0,0,0v.02c-.17,.16-3.22,2.98-4.11,5.95-.38,1.26,.19,2.61,1,3.76-1.16-.8-2.5-1.38-3.76-1-2.97,.89-5.79,3.94-5.95,4.11h-.02s0,0,0,0c0,0,0,0,0,0h.02c.16,.17,2.98,3.22,5.95,4.11,1.26,.38,2.61-.19,3.76-1-.69,1.08-1.14,2.3-.8,3.45,.89,2.97,3.94,5.79,4.11,5.95v.02s0,0,0,0c0,0,0,0,0,0v-.02c.17-.16,3.22-2.98,4.11-5.95,.35-1.16-.12-2.39-.82-3.48,1.1,.72,2.35,1.2,3.53,.85,2.97-.89,5.79-3.94,5.95-4.11h.02s0,0,0,0c0,0,0,0,0,0Z"/>
        <path class="cls-2" d="M1783.79,379.42h-.02c-.21-.23-3.94-4.27-7.88-5.45-1.7-.51-3.52,.29-5.07,1.39,1-1.49,1.69-3.2,1.21-4.81-1.18-3.93-5.22-7.67-5.45-7.88v-.02s0,0-.01,.01c0,0-.01-.01-.01-.01v.02c-.23,.21-4.27,3.94-5.45,7.88-.5,1.67,.26,3.45,1.32,4.98-1.53-1.06-3.31-1.83-4.98-1.33-3.93,1.18-7.67,5.22-7.88,5.45h-.02s0,0,.01,.01c0,0-.01,.01-.01,.01h.02c.21,.23,3.94,4.27,7.88,5.45,1.67,.5,3.45-.26,4.98-1.32-.91,1.43-1.51,3.05-1.05,4.57,1.18,3.93,5.22,7.67,5.45,7.88v.02s0,0,.01-.01c0,0,.01,.01,.01,.01v-.02c.23-.21,4.27-3.94,5.45-7.88,.46-1.53-.15-3.17-1.08-4.61,1.46,.95,3.12,1.59,4.67,1.12,3.93-1.18,7.67-5.22,7.88-5.45h.02s0,0-.01-.01c0,0,.01-.01,.01-.01Z"/>
      </g>
      <g class="cls-1">
        <line class="cls-3" x1="1182.8" y1="131.32" x2="1182.8" y2="704.86"/>
        <path class="cls-2" d="M1181.46,686.66s-5.69,14.98-4.58,22.66c1.11,7.68,10.28,6.07,11.76,0s-5.08-23.65-5.08-23.65c0,0-.96-3.9-2.1,.99Z"/>
        <path class="cls-2" d="M1181.63,314.06s-4.96,13.06-3.99,19.74c.97,6.69,8.96,5.29,10.25,0,1.29-5.29-4.42-20.61-4.42-20.61,0,0-.84-3.4-1.83,.86Z"/>
        <path class="cls-2" d="M1191.68,606.24c-5.87,1.41-7.26,2.8-8.67,8.67-.05,.22-.37,.22-.42,0-1.41-5.87-2.8-7.26-8.67-8.67-.22-.05-.22-.37,0-.42,5.87-1.41,7.26-2.8,8.67-8.67,.05-.22,.37-.22,.42,0,1.41,5.87,2.8,7.26,8.67,8.67,.22,.05,.22,.37,0,.42Z"/>
        <path class="cls-2" d="M1191.68,264.77c-5.87,1.41-7.26,2.8-8.67,8.67-.05,.22-.37,.22-.42,0-1.41-5.87-2.8-7.26-8.67-8.67-.22-.05-.22-.37,0-.42,5.87-1.41,7.26-2.8,8.67-8.67,.05-.22,.37-.22,.42,0,1.41,5.87,2.8,7.26,8.67,8.67,.22,.05,.22,.37,0,.42Z"/>
        <circle class="cls-2" cx="1182.8" cy="461.13" r="4.93"/>
        <circle class="cls-2" cx="1182.8" cy="198.35" r="4.93"/>
        <circle class="cls-2" cx="1182.8" cy="219.32" r="2.82"/>
        <circle class="cls-2" cx="1182.8" cy="444.41" r="2.82"/>
        <circle class="cls-2" cx="1182.8" cy="476.24" r="2.82"/>
        <circle class="cls-2" cx="1182.8" cy="646.74" r="2.82"/>
        <circle class="cls-2" cx="1182.8" cy="655.51" r="2.82"/>
        <circle class="cls-2" cx="1182.8" cy="664.29" r="2.82"/>
        <path class="cls-2" d="M1195.73,553.68h-.02c-.16-.17-2.98-3.22-5.95-4.11-1.28-.39-2.66,.22-3.83,1.05,.76-1.13,1.28-2.42,.92-3.63-.89-2.97-3.94-5.79-4.11-5.95v-.02s0,0,0,0c0,0,0,0,0,0v.02c-.17,.16-3.22,2.98-4.11,5.95-.38,1.26,.19,2.61,1,3.76-1.16-.8-2.5-1.38-3.76-1-2.97,.89-5.79,3.94-5.95,4.11h-.02s0,0,0,0c0,0,0,0,0,0h.02c.16,.17,2.98,3.22,5.95,4.11,1.26,.38,2.61-.19,3.76-1-.69,1.08-1.14,2.3-.8,3.45,.89,2.97,3.94,5.79,4.11,5.95v.02s0,0,0,0c0,0,0,0,0,0v-.02c.17-.16,3.22-2.98,4.11-5.95,.35-1.16-.12-2.39-.82-3.48,1.1,.72,2.35,1.2,3.53,.85,2.97-.89,5.79-3.94,5.95-4.11h.02s0,0,0,0c0,0,0,0,0,0Z"/>
        <path class="cls-2" d="M1199.91,373.82h-.02c-.21-.23-3.94-4.27-7.88-5.45-1.7-.51-3.52,.29-5.07,1.39,1-1.49,1.69-3.2,1.21-4.81-1.18-3.93-5.22-7.67-5.45-7.88v-.02s0,0-.01,.01c0,0-.01-.01-.01-.01v.02c-.23,.21-4.27,3.94-5.45,7.88-.5,1.67,.26,3.45,1.32,4.98-1.53-1.06-3.31-1.83-4.98-1.33-3.93,1.18-7.67,5.22-7.88,5.45h-.02s0,0,.01,.01c0,0-.01,.01-.01,.01h.02c.21,.23,3.94,4.27,7.88,5.45,1.67,.5,3.45-.26,4.98-1.32-.91,1.43-1.51,3.05-1.05,4.57,1.18,3.93,5.22,7.67,5.45,7.88v.02s0,0,.01-.01c0,0,.01,.01,.01,.01v-.02c.23-.21,4.27-3.94,5.45-7.88,.46-1.53-.15-3.17-1.08-4.61,1.46,.95,3.12,1.59,4.67,1.12,3.93-1.18,7.67-5.22,7.88-5.45h.02s0,0-.01-.01c0,0,.01-.01,.01-.01Z"/>
      </g>
      <g class="cls-1">
        <line class="cls-3" x1="516.99" y1="149.05" x2="516.99" y2="830.72"/>
        <path class="cls-2" d="M515.65,811.62s-5.69,14.98-4.58,22.66c1.11,7.68,10.28,6.07,11.76,0,1.49-6.07-5.08-23.65-5.08-23.65,0,0-.96-3.9-2.1,.99Z"/>
        <path class="cls-2" d="M515.82,538.09s-4.96,13.06-3.99,19.74c.97,6.69,8.96,5.29,10.25,0,1.29-5.29-4.42-20.61-4.42-20.61,0,0-.84-3.4-1.83,.86Z"/>
        <path class="cls-2" d="M525.87,657.32c-5.87,1.41-7.26,2.8-8.67,8.67-.05,.22-.37,.22-.42,0-1.41-5.87-2.8-7.26-8.67-8.67-.22-.05-.22-.37,0-.42,5.87-1.41,7.26-2.8,8.67-8.67,.05-.22,.37-.22,.42,0,1.41,5.87,2.8,7.26,8.67,8.67,.22,.05,.22,.37,0,.42Z"/>
        <path class="cls-2" d="M525.87,402c-5.87,1.41-7.26,2.8-8.67,8.67-.05,.22-.37,.22-.42,0-1.41-5.87-2.8-7.26-8.67-8.67-.22-.05-.22-.37,0-.42,5.87-1.41,7.26-2.8,8.67-8.67,.05-.22,.37-.22,.42,0,1.41,5.87,2.8,7.26,8.67,8.67,.22,.05,.22,.37,0,.42Z"/>
        <circle class="cls-2" cx="516.99" cy="471.97" r="4.93"/>
        <circle class="cls-2" cx="516.99" cy="239.53" r="4.93"/>
        <circle class="cls-2" cx="516.99" cy="268.25" r="2.82"/>
        <circle class="cls-2" cx="516.99" cy="210.81" r="2.82"/>
        <circle class="cls-2" cx="516.99" cy="512.08" r="2.82"/>
        <circle class="cls-2" cx="516.99" cy="761.28" r="2.82"/>
        <circle class="cls-2" cx="516.99" cy="493.7" r="2.82"/>
        <path class="cls-2" d="M529.91,699.78h-.02c-.16-.17-2.98-3.22-5.95-4.11-1.28-.39-2.66,.22-3.83,1.05,.76-1.13,1.28-2.42,.92-3.63-.89-2.97-3.94-5.79-4.11-5.95v-.02s0,0,0,0c0,0,0,0,0,0v.02c-.17,.16-3.22,2.98-4.11,5.95-.38,1.26,.19,2.61,1,3.76-1.16-.8-2.5-1.38-3.76-1-2.97,.89-5.79,3.94-5.95,4.11h-.02s0,0,0,0c0,0,0,0,0,0h.02c.16,.17,2.98,3.22,5.95,4.11,1.26,.38,2.61-.19,3.76-1-.69,1.08-1.14,2.3-.8,3.45,.89,2.97,3.94,5.79,4.11,5.95v.02s0,0,0,0c0,0,0,0,0,0v-.02c.17-.16,3.22-2.98,4.11-5.95,.35-1.16-.12-2.39-.82-3.48,1.1,.72,2.35,1.2,3.53,.85,2.97-.89,5.79-3.94,5.95-4.11h.02s0,0,0,0c0,0,0,0,0,0Z"/>
        <path class="cls-2" d="M534.1,337.42h-.02c-.21-.23-3.94-4.27-7.88-5.45-1.7-.51-3.52,.29-5.07,1.39,1-1.49,1.69-3.2,1.21-4.81-1.18-3.93-5.22-7.67-5.45-7.88v-.02s0,0-.01,.01c0,0-.01-.01-.01-.01v.02c-.23,.21-4.27,3.94-5.45,7.88-.5,1.67,.26,3.45,1.32,4.98-1.53-1.06-3.31-1.83-4.98-1.33-3.93,1.18-7.67,5.22-7.88,5.45h-.02s0,0,.01,.01c0,0-.01,.01-.01,.01h.02c.21,.23,3.94,4.27,7.88,5.45,1.67,.5,3.45-.26,4.98-1.32-.91,1.43-1.51,3.05-1.05,4.57,1.18,3.93,5.22,7.67,5.45,7.88v.02s0,0,.01-.01c0,0,.01,.01,.01,.01v-.02c.23-.21,4.27-3.94,5.45-7.88,.46-1.53-.15-3.17-1.08-4.61,1.46,.95,3.12,1.59,4.67,1.12,3.93-1.18,7.67-5.22,7.88-5.45h.02s0,0-.01-.01c0,0,.01-.01,.01-.01Z"/>
      </g>
      <g class="cls-1">
        <line class="cls-3" x1="1266.8" y1="144.83" x2="1266.8" y2="826.51"/>
        <path class="cls-2" d="M1265.46,807.41s-5.69,14.98-4.58,22.66c1.11,7.68,10.28,6.07,11.76,0s-5.08-23.65-5.08-23.65c0,0-.96-3.9-2.1,.99Z"/>
        <path class="cls-2" d="M1265.63,533.87s-4.96,13.06-3.99,19.74c.97,6.69,8.96,5.29,10.25,0,1.29-5.29-4.42-20.61-4.42-20.61,0,0-.84-3.4-1.83,.86Z"/>
        <path class="cls-2" d="M1275.68,653.1c-5.87,1.41-7.26,2.8-8.67,8.67-.05,.22-.37,.22-.42,0-1.41-5.87-2.8-7.26-8.67-8.67-.22-.05-.22-.37,0-.42,5.87-1.41,7.26-2.8,8.67-8.67,.05-.22,.37-.22,.42,0,1.41,5.87,2.8,7.26,8.67,8.67,.22,.05,.22,.37,0,.42Z"/>
        <path class="cls-2" d="M1275.68,397.78c-5.87,1.41-7.26,2.8-8.67,8.67-.05,.22-.37,.22-.42,0-1.41-5.87-2.8-7.26-8.67-8.67-.22-.05-.22-.37,0-.42,5.87-1.41,7.26-2.8,8.67-8.67,.05-.22,.37-.22,.42,0,1.41,5.87,2.8,7.26,8.67,8.67,.22,.05,.22,.37,0,.42Z"/>
        <circle class="cls-2" cx="1266.8" cy="467.75" r="4.93"/>
        <circle class="cls-2" cx="1266.8" cy="235.31" r="4.93"/>
        <circle class="cls-2" cx="1266.8" cy="264.03" r="2.82"/>
        <circle class="cls-2" cx="1266.8" cy="206.59" r="2.82"/>
        <circle class="cls-2" cx="1266.8" cy="507.87" r="2.82"/>
        <circle class="cls-2" cx="1266.8" cy="757.06" r="2.82"/>
        <circle class="cls-2" cx="1266.8" cy="489.48" r="2.82"/>
        <path class="cls-2" d="M1279.73,695.56h-.02c-.16-.17-2.98-3.22-5.95-4.11-1.28-.39-2.66,.22-3.83,1.05,.76-1.13,1.28-2.42,.92-3.63-.89-2.97-3.94-5.79-4.11-5.95v-.02s0,0,0,0c0,0,0,0,0,0v.02c-.17,.16-3.22,2.98-4.11,5.95-.38,1.26,.19,2.61,1,3.76-1.16-.8-2.5-1.38-3.76-1-2.97,.89-5.79,3.94-5.95,4.11h-.02s0,0,0,0c0,0,0,0,0,0h.02c.16,.17,2.98,3.22,5.95,4.11,1.26,.38,2.61-.19,3.76-1-.69,1.08-1.14,2.3-.8,3.45,.89,2.97,3.94,5.79,4.11,5.95v.02s0,0,0,0c0,0,0,0,0,0v-.02c.17-.16,3.22-2.98,4.11-5.95,.35-1.16-.12-2.39-.82-3.48,1.1,.72,2.35,1.2,3.53,.85,2.97-.89,5.79-3.94,5.95-4.11h.02s0,0,0,0c0,0,0,0,0,0Z"/>
        <path class="cls-2" d="M1283.91,333.2h-.02c-.21-.23-3.94-4.27-7.88-5.45-1.7-.51-3.52,.29-5.07,1.39,1-1.49,1.69-3.2,1.21-4.81-1.18-3.93-5.22-7.67-5.45-7.88v-.02s0,0-.01,.01c0,0-.01-.01-.01-.01v.02c-.23,.21-4.27,3.94-5.45,7.88-.5,1.67,.26,3.45,1.32,4.98-1.53-1.06-3.31-1.83-4.98-1.33-3.93,1.18-7.67,5.22-7.88,5.45h-.02s0,0,.01,.01c0,0-.01,.01-.01,.01h.02c.21,.23,3.94,4.27,7.88,5.45,1.67,.5,3.45-.26,4.98-1.32-.91,1.43-1.51,3.05-1.05,4.57,1.18,3.93,5.22,7.67,5.45,7.88v.02s0,0,.01-.01c0,0,.01,.01,.01,.01v-.02c.23-.21,4.27-3.94,5.45-7.88,.46-1.53-.15-3.17-1.08-4.61,1.46,.95,3.12,1.59,4.67,1.12,3.93-1.18,7.67-5.22,7.88-5.45h.02s0,0-.01-.01c0,0,.01-.01,.01-.01Z"/>
      </g>
      <g class="cls-1">
        <line class="cls-3" x1="1516.74" y1="163.21" x2="1516.74" y2="844.89"/>
        <path class="cls-2" d="M1515.4,825.79s-5.69,14.98-4.58,22.66c1.11,7.68,10.28,6.07,11.76,0,1.49-6.07-5.08-23.65-5.08-23.65,0,0-.96-3.9-2.1,.99Z"/>
        <path class="cls-2" d="M1515.57,552.25s-4.96,13.06-3.99,19.74c.97,6.69,8.96,5.29,10.25,0,1.29-5.29-4.42-20.61-4.42-20.61,0,0-.84-3.4-1.83,.86Z"/>
        <path class="cls-2" d="M1525.62,671.48c-5.87,1.41-7.26,2.8-8.67,8.67-.05,.22-.37,.22-.42,0-1.41-5.87-2.8-7.26-8.67-8.67-.22-.05-.22-.37,0-.42,5.87-1.41,7.26-2.8,8.67-8.67,.05-.22,.37-.22,.42,0,1.41,5.87,2.8,7.26,8.67,8.67,.22,.05,.22,.37,0,.42Z"/>
        <path class="cls-2" d="M1525.62,416.16c-5.87,1.41-7.26,2.8-8.67,8.67-.05,.22-.37,.22-.42,0-1.41-5.87-2.8-7.26-8.67-8.67-.22-.05-.22-.37,0-.42,5.87-1.41,7.26-2.8,8.67-8.67,.05-.22,.37-.22,.42,0,1.41,5.87,2.8,7.26,8.67,8.67,.22,.05,.22,.37,0,.42Z"/>
        <circle class="cls-2" cx="1516.74" cy="486.13" r="4.93"/>
        <circle class="cls-2" cx="1516.74" cy="253.69" r="4.93"/>
        <circle class="cls-2" cx="1516.74" cy="282.41" r="2.82"/>
        <circle class="cls-2" cx="1516.74" cy="224.97" r="2.82"/>
        <circle class="cls-2" cx="1516.74" cy="526.25" r="2.82"/>
        <circle class="cls-2" cx="1516.74" cy="775.44" r="2.82"/>
        <circle class="cls-2" cx="1516.74" cy="507.87" r="2.82"/>
        <path class="cls-2" d="M1529.66,713.95h-.02c-.16-.17-2.98-3.22-5.95-4.11-1.28-.39-2.66,.22-3.83,1.05,.76-1.13,1.28-2.42,.92-3.63-.89-2.97-3.94-5.79-4.11-5.95v-.02s0,0,0,0c0,0,0,0,0,0v.02c-.17,.16-3.22,2.98-4.11,5.95-.38,1.26,.19,2.61,1,3.76-1.16-.8-2.5-1.38-3.76-1-2.97,.89-5.79,3.94-5.95,4.11h-.02s0,0,0,0c0,0,0,0,0,0h.02c.16,.17,2.98,3.22,5.95,4.11,1.26,.38,2.61-.19,3.76-1-.69,1.08-1.14,2.3-.8,3.45,.89,2.97,3.94,5.79,4.11,5.95v.02s0,0,0,0c0,0,0,0,0,0v-.02c.17-.16,3.22-2.98,4.11-5.95,.35-1.16-.12-2.39-.82-3.48,1.1,.72,2.35,1.2,3.53,.85,2.97-.89,5.79-3.94,5.95-4.11h.02s0,0,0,0c0,0,0,0,0,0Z"/>
        <path class="cls-2" d="M1533.85,351.59h-.02c-.21-.23-3.94-4.27-7.88-5.45-1.7-.51-3.52,.29-5.07,1.39,1-1.49,1.69-3.2,1.21-4.81-1.18-3.93-5.22-7.67-5.45-7.88v-.02s0,0-.01,.01c0,0-.01-.01-.01-.01v.02c-.23,.21-4.27,3.94-5.45,7.88-.5,1.67,.26,3.45,1.32,4.98-1.53-1.06-3.31-1.83-4.98-1.33-3.93,1.18-7.67,5.22-7.88,5.45h-.02s0,0,.01,.01c0,0-.01,.01-.01,.01h.02c.21,.23,3.94,4.27,7.88,5.45,1.67,.5,3.45-.26,4.98-1.32-.91,1.43-1.51,3.05-1.05,4.57,1.18,3.93,5.22,7.67,5.45,7.88v.02s0,0,.01-.01c0,0,.01,.01,.01,.01v-.02c.23-.21,4.27-3.94,5.45-7.88,.46-1.53-.15-3.17-1.08-4.61,1.46,.95,3.12,1.59,4.67,1.12,3.93-1.18,7.67-5.22,7.88-5.45h.02s0,0-.01-.01c0,0,.01-.01,.01-.01Z"/>
      </g>
      <g class="cls-1">
        <line class="cls-3" x1="267.05" y1="163.21" x2="267.05" y2="844.89"/>
        <path class="cls-2" d="M265.71,825.79s-5.69,14.98-4.58,22.66c1.11,7.68,10.28,6.07,11.76,0,1.49-6.07-5.08-23.65-5.08-23.65,0,0-.96-3.9-2.1,.99Z"/>
        <path class="cls-2" d="M265.89,552.25s-4.96,13.06-3.99,19.74,8.96,5.29,10.25,0c1.29-5.29-4.42-20.61-4.42-20.61,0,0-.84-3.4-1.83,.86Z"/>
        <path class="cls-2" d="M275.93,671.48c-5.87,1.41-7.26,2.8-8.67,8.67-.05,.22-.37,.22-.42,0-1.41-5.87-2.8-7.26-8.67-8.67-.22-.05-.22-.37,0-.42,5.87-1.41,7.26-2.8,8.67-8.67,.05-.22,.37-.22,.42,0,1.41,5.87,2.8,7.26,8.67,8.67,.22,.05,.22,.37,0,.42Z"/>
        <path class="cls-2" d="M275.93,416.16c-5.87,1.41-7.26,2.8-8.67,8.67-.05,.22-.37,.22-.42,0-1.41-5.87-2.8-7.26-8.67-8.67-.22-.05-.22-.37,0-.42,5.87-1.41,7.26-2.8,8.67-8.67,.05-.22,.37-.22,.42,0,1.41,5.87,2.8,7.26,8.67,8.67,.22,.05,.22,.37,0,.42Z"/>
        <circle class="cls-2" cx="267.05" cy="486.13" r="4.93"/>
        <circle class="cls-2" cx="267.05" cy="253.69" r="4.93"/>
        <circle class="cls-2" cx="267.05" cy="282.41" r="2.82"/>
        <circle class="cls-2" cx="267.05" cy="224.97" r="2.82"/>
        <circle class="cls-2" cx="267.05" cy="526.25" r="2.82"/>
        <circle class="cls-2" cx="267.05" cy="775.44" r="2.82"/>
        <circle class="cls-2" cx="267.05" cy="507.87" r="2.82"/>
        <path class="cls-2" d="M279.98,713.95h-.02c-.16-.17-2.98-3.22-5.95-4.11-1.28-.39-2.66,.22-3.83,1.05,.76-1.13,1.28-2.42,.92-3.63-.89-2.97-3.94-5.79-4.11-5.95v-.02s0,0,0,0c0,0,0,0,0,0v.02c-.17,.16-3.22,2.98-4.11,5.95-.38,1.26,.19,2.61,1,3.76-1.16-.8-2.5-1.38-3.76-1-2.97,.89-5.79,3.94-5.95,4.11h-.02s0,0,0,0c0,0,0,0,0,0h.02c.16,.17,2.98,3.22,5.95,4.11,1.26,.38,2.61-.19,3.76-1-.69,1.08-1.14,2.3-.8,3.45,.89,2.97,3.94,5.79,4.11,5.95v.02s0,0,0,0c0,0,0,0,0,0v-.02c.17-.16,3.22-2.98,4.11-5.95,.35-1.16-.12-2.39-.82-3.48,1.1,.72,2.35,1.2,3.53,.85,2.97-.89,5.79-3.94,5.95-4.11h.02s0,0,0,0c0,0,0,0,0,0Z"/>
        <path class="cls-2" d="M284.16,351.59h-.02c-.21-.23-3.94-4.27-7.88-5.45-1.7-.51-3.52,.29-5.07,1.39,1-1.49,1.69-3.2,1.21-4.81-1.18-3.93-5.22-7.67-5.45-7.88v-.02s0,0-.01,.01c0,0-.01-.01-.01-.01v.02c-.23,.21-4.27,3.94-5.45,7.88-.5,1.67,.26,3.45,1.32,4.98-1.53-1.06-3.31-1.83-4.98-1.33-3.93,1.18-7.67,5.22-7.88,5.45h-.02s0,0,.01,.01c0,0-.01,.01-.01,.01h.02c.21,.23,3.94,4.27,7.88,5.45,1.67,.5,3.45-.26,4.98-1.32-.91,1.43-1.51,3.05-1.05,4.57,1.18,3.93,5.22,7.67,5.45,7.88v.02s0,0,.01-.01c0,0,.01,.01,.01,.01v-.02c.23-.21,4.27-3.94,5.45-7.88,.46-1.53-.15-3.17-1.08-4.61,1.46,.95,3.12,1.59,4.67,1.12,3.93-1.18,7.67-5.22,7.88-5.45h.02s0,0-.01-.01c0,0,.01-.01,.01-.01Z"/>
      </g>
      <g class="cls-1">
        <line class="cls-3" x1="932.86" y1="106.52" x2="932.86" y2="788.2"/>
        <path class="cls-2" d="M931.52,769.1s-5.69,14.98-4.58,22.66c1.11,7.68,10.28,6.07,11.76,0s-5.08-23.65-5.08-23.65c0,0-.96-3.9-2.1,.99Z"/>
        <path class="cls-2" d="M931.7,495.56s-4.96,13.06-3.99,19.74c.97,6.69,8.96,5.29,10.25,0,1.29-5.29-4.42-20.61-4.42-20.61,0,0-.84-3.4-1.83,.86Z"/>
        <path class="cls-2" d="M941.74,614.79c-5.87,1.41-7.26,2.8-8.67,8.67-.05,.22-.37,.22-.42,0-1.41-5.87-2.8-7.26-8.67-8.67-.22-.05-.22-.37,0-.42,5.87-1.41,7.26-2.8,8.67-8.67,.05-.22,.37-.22,.42,0,1.41,5.87,2.8,7.26,8.67,8.67,.22,.05,.22,.37,0,.42Z"/>
        <path class="cls-2" d="M941.74,359.47c-5.87,1.41-7.26,2.8-8.67,8.67-.05,.22-.37,.22-.42,0-1.41-5.87-2.8-7.26-8.67-8.67-.22-.05-.22-.37,0-.42,5.87-1.41,7.26-2.8,8.67-8.67,.05-.22,.37-.22,.42,0,1.41,5.87,2.8,7.26,8.67,8.67,.22,.05,.22,.37,0,.42Z"/>
        <circle class="cls-2" cx="932.86" cy="429.45" r="4.93"/>
        <circle class="cls-2" cx="932.86" cy="197.01" r="4.93"/>
        <circle class="cls-2" cx="932.86" cy="225.73" r="2.82"/>
        <circle class="cls-2" cx="932.86" cy="168.29" r="2.82"/>
        <circle class="cls-2" cx="932.86" cy="469.56" r="2.82"/>
        <circle class="cls-2" cx="932.86" cy="718.75" r="2.82"/>
        <circle class="cls-2" cx="932.86" cy="451.18" r="2.82"/>
        <path class="cls-2" d="M945.79,657.26h-.02c-.16-.17-2.98-3.22-5.95-4.11-1.28-.39-2.66,.22-3.83,1.05,.76-1.13,1.28-2.42,.92-3.63-.89-2.97-3.94-5.79-4.11-5.95v-.02s0,0,0,0c0,0,0,0,0,0v.02c-.17,.16-3.22,2.98-4.11,5.95-.38,1.26,.19,2.61,1,3.76-1.16-.8-2.5-1.38-3.76-1-2.97,.89-5.79,3.94-5.95,4.11h-.02s0,0,0,0c0,0,0,0,0,0h.02c.16,.17,2.98,3.22,5.95,4.11,1.26,.38,2.61-.19,3.76-1-.69,1.08-1.14,2.3-.8,3.45,.89,2.97,3.94,5.79,4.11,5.95v.02s0,0,0,0c0,0,0,0,0,0v-.02c.17-.16,3.22-2.98,4.11-5.95,.35-1.16-.12-2.39-.82-3.48,1.1,.72,2.35,1.2,3.53,.85,2.97-.89,5.79-3.94,5.95-4.11h.02s0,0,0,0c0,0,0,0,0,0Z"/>
        <path class="cls-2" d="M949.98,294.9h-.02c-.21-.23-3.94-4.27-7.88-5.45-1.7-.51-3.52,.29-5.07,1.39,1-1.49,1.69-3.2,1.21-4.81-1.18-3.93-5.22-7.67-5.45-7.88v-.02s0,0-.01,.01c0,0-.01-.01-.01-.01v.02c-.23,.21-4.27,3.94-5.45,7.88-.5,1.67,.26,3.45,1.32,4.98-1.53-1.06-3.31-1.83-4.98-1.33-3.93,1.18-7.67,5.22-7.88,5.45h-.02s0,0,.01,.01c0,0-.01,.01-.01,.01h.02c.21,.23,3.94,4.27,7.88,5.45,1.67,.5,3.45-.26,4.98-1.32-.91,1.43-1.51,3.05-1.05,4.57,1.18,3.93,5.22,7.67,5.45,7.88v.02s0,0,.01-.01c0,0,.01,.01,.01,.01v-.02c.23-.21,4.27-3.94,5.45-7.88,.46-1.53-.15-3.17-1.08-4.61,1.46,.95,3.12,1.59,4.67,1.12,3.93-1.18,7.67-5.22,7.88-5.45h.02s0,0-.01-.01c0,0,.01-.01,.01-.01Z"/>
      </g>
      <g class="cls-1">
        <line class="cls-3" x1="1682.67" y1="106.52" x2="1682.67" y2="788.2"/>
        <path class="cls-2" d="M1681.34,769.1s-5.69,14.98-4.58,22.66,10.28,6.07,11.76,0c1.49-6.07-5.08-23.65-5.08-23.65,0,0-.96-3.9-2.1,.99Z"/>
        <path class="cls-2" d="M1681.51,495.56s-4.96,13.06-3.99,19.74,8.96,5.29,10.25,0c1.29-5.29-4.42-20.61-4.42-20.61,0,0-.84-3.4-1.83,.86Z"/>
        <path class="cls-2" d="M1691.56,614.79c-5.87,1.41-7.26,2.8-8.67,8.67-.05,.22-.37,.22-.42,0-1.41-5.87-2.8-7.26-8.67-8.67-.22-.05-.22-.37,0-.42,5.87-1.41,7.26-2.8,8.67-8.67,.05-.22,.37-.22,.42,0,1.41,5.87,2.8,7.26,8.67,8.67,.22,.05,.22,.37,0,.42Z"/>
        <path class="cls-2" d="M1691.56,359.47c-5.87,1.41-7.26,2.8-8.67,8.67-.05,.22-.37,.22-.42,0-1.41-5.87-2.8-7.26-8.67-8.67-.22-.05-.22-.37,0-.42,5.87-1.41,7.26-2.8,8.67-8.67,.05-.22,.37-.22,.42,0,1.41,5.87,2.8,7.26,8.67,8.67,.22,.05,.22,.37,0,.42Z"/>
        <circle class="cls-2" cx="1682.67" cy="429.45" r="4.93"/>
        <circle class="cls-2" cx="1682.67" cy="197.01" r="4.93"/>
        <circle class="cls-2" cx="1682.67" cy="225.73" r="2.82"/>
        <circle class="cls-2" cx="1682.67" cy="168.29" r="2.82"/>
        <circle class="cls-2" cx="1682.67" cy="469.56" r="2.82"/>
        <circle class="cls-2" cx="1682.67" cy="718.75" r="2.82"/>
        <circle class="cls-2" cx="1682.67" cy="451.18" r="2.82"/>
        <path class="cls-2" d="M1695.6,657.26h-.02c-.16-.17-2.98-3.22-5.95-4.11-1.28-.39-2.66,.22-3.83,1.05,.76-1.13,1.28-2.42,.92-3.63-.89-2.97-3.94-5.79-4.11-5.95v-.02s0,0,0,0c0,0,0,0,0,0v.02c-.17,.16-3.22,2.98-4.11,5.95-.38,1.26,.19,2.61,1,3.76-1.16-.8-2.5-1.38-3.76-1-2.97,.89-5.79,3.94-5.95,4.11h-.02s0,0,0,0c0,0,0,0,0,0h.02c.16,.17,2.98,3.22,5.95,4.11,1.26,.38,2.61-.19,3.76-1-.69,1.08-1.14,2.3-.8,3.45,.89,2.97,3.94,5.79,4.11,5.95v.02s0,0,0,0c0,0,0,0,0,0v-.02c.17-.16,3.22-2.98,4.11-5.95,.35-1.16-.12-2.39-.82-3.48,1.1,.72,2.35,1.2,3.53,.85,2.97-.89,5.79-3.94,5.95-4.11h.02s0,0,0,0c0,0,0,0,0,0Z"/>
        <path class="cls-2" d="M1699.79,294.9h-.02c-.21-.23-3.94-4.27-7.88-5.45-1.7-.51-3.52,.29-5.07,1.39,1-1.49,1.69-3.2,1.21-4.81-1.18-3.93-5.22-7.67-5.45-7.88v-.02s0,0-.01,.01c0,0-.01-.01-.01-.01v.02c-.23,.21-4.27,3.94-5.45,7.88-.5,1.67,.26,3.45,1.32,4.98-1.53-1.06-3.31-1.83-4.98-1.33-3.93,1.18-7.67,5.22-7.88,5.45h-.02s0,0,.01,.01c0,0-.01,.01-.01,.01h.02c.21,.23,3.94,4.27,7.88,5.45,1.67,.5,3.45-.26,4.98-1.32-.91,1.43-1.51,3.05-1.05,4.57,1.18,3.93,5.22,7.67,5.45,7.88v.02s0,0,.01-.01c0,0,.01,.01,.01,.01v-.02c.23-.21,4.27-3.94,5.45-7.88,.46-1.53-.15-3.17-1.08-4.61,1.46,.95,3.12,1.59,4.67,1.12,3.93-1.18,7.67-5.22,7.88-5.45h.02s0,0-.01-.01c0,0,.01-.01,.01-.01Z"/>
      </g>
      <g class="cls-1">
        <line class="cls-3" x1="99.05" y1="106.52" x2="99.05" y2="788.2"/>
        <path class="cls-2" d="M97.71,769.1s-5.69,14.98-4.58,22.66c1.11,7.68,10.28,6.07,11.76,0,1.49-6.07-5.08-23.65-5.08-23.65,0,0-.96-3.9-2.1,.99Z"/>
        <path class="cls-2" d="M97.89,495.56s-4.96,13.06-3.99,19.74c.97,6.69,8.96,5.29,10.25,0,1.29-5.29-4.42-20.61-4.42-20.61,0,0-.84-3.4-1.83,.86Z"/>
        <path class="cls-2" d="M107.93,614.79c-5.87,1.41-7.26,2.8-8.67,8.67-.05,.22-.37,.22-.42,0-1.41-5.87-2.8-7.26-8.67-8.67-.22-.05-.22-.37,0-.42,5.87-1.41,7.26-2.8,8.67-8.67,.05-.22,.37-.22,.42,0,1.41,5.87,2.8,7.26,8.67,8.67,.22,.05,.22,.37,0,.42Z"/>
        <path class="cls-2" d="M107.93,359.47c-5.87,1.41-7.26,2.8-8.67,8.67-.05,.22-.37,.22-.42,0-1.41-5.87-2.8-7.26-8.67-8.67-.22-.05-.22-.37,0-.42,5.87-1.41,7.26-2.8,8.67-8.67,.05-.22,.37-.22,.42,0,1.41,5.87,2.8,7.26,8.67,8.67,.22,.05,.22,.37,0,.42Z"/>
        <circle class="cls-2" cx="99.05" cy="429.45" r="4.93"/>
        <circle class="cls-2" cx="99.05" cy="197.01" r="4.93"/>
        <circle class="cls-2" cx="99.05" cy="225.73" r="2.82"/>
        <circle class="cls-2" cx="99.05" cy="168.29" r="2.82"/>
        <circle class="cls-2" cx="99.05" cy="469.56" r="2.82"/>
        <circle class="cls-2" cx="99.05" cy="718.75" r="2.82"/>
        <circle class="cls-2" cx="99.05" cy="451.18" r="2.82"/>
        <path class="cls-2" d="M111.98,657.26h-.02c-.16-.17-2.98-3.22-5.95-4.11-1.28-.39-2.66,.22-3.83,1.05,.76-1.13,1.28-2.42,.92-3.63-.89-2.97-3.94-5.79-4.11-5.95v-.02s0,0,0,0c0,0,0,0,0,0v.02c-.17,.16-3.22,2.98-4.11,5.95-.38,1.26,.19,2.61,1,3.76-1.16-.8-2.5-1.38-3.76-1-2.97,.89-5.79,3.94-5.95,4.11h-.02s0,0,0,0c0,0,0,0,0,0h.02c.16,.17,2.98,3.22,5.95,4.11,1.26,.38,2.61-.19,3.76-1-.69,1.08-1.14,2.3-.8,3.45,.89,2.97,3.94,5.79,4.11,5.95v.02s0,0,0,0c0,0,0,0,0,0v-.02c.17-.16,3.22-2.98,4.11-5.95,.35-1.16-.12-2.39-.82-3.48,1.1,.72,2.35,1.2,3.53,.85,2.97-.89,5.79-3.94,5.95-4.11h.02s0,0,0,0c0,0,0,0,0,0Z"/>
        <path class="cls-2" d="M116.16,294.9h-.02c-.21-.23-3.94-4.27-7.88-5.45-1.7-.51-3.52,.29-5.07,1.39,1-1.49,1.69-3.2,1.21-4.81-1.18-3.93-5.22-7.67-5.45-7.88v-.02s0,0-.01,.01c0,0-.01-.01-.01-.01v.02c-.23,.21-4.27,3.94-5.45,7.88-.5,1.67,.26,3.45,1.32,4.98-1.53-1.06-3.31-1.83-4.98-1.33-3.93,1.18-7.67,5.22-7.88,5.45h-.02s0,0,.01,.01c0,0-.01,.01-.01,.01h.02c.21,.23,3.94,4.27,7.88,5.45,1.67,.5,3.45-.26,4.98-1.32-.91,1.43-1.51,3.05-1.05,4.57,1.18,3.93,5.22,7.67,5.45,7.88v.02s0,0,.01-.01c0,0,.01,.01,.01,.01v-.02c.23-.21,4.27-3.94,5.45-7.88,.46-1.53-.15-3.17-1.08-4.61,1.46,.95,3.12,1.59,4.67,1.12,3.93-1.18,7.67-5.22,7.88-5.45h.02s0,0-.01-.01c0,0,.01-.01,.01-.01Z"/>
      </g>
      <g class="cls-1">
        <line class="cls-3" x1="1432.74" y1="106.52" x2="1432.74" y2="788.2"/>
        <path class="cls-2" d="M1431.4,769.1s-5.69,14.98-4.58,22.66c1.11,7.68,10.28,6.07,11.76,0,1.49-6.07-5.08-23.65-5.08-23.65,0,0-.96-3.9-2.1,.99Z"/>
        <path class="cls-2" d="M1431.57,495.56s-4.96,13.06-3.99,19.74,8.96,5.29,10.25,0c1.29-5.29-4.42-20.61-4.42-20.61,0,0-.84-3.4-1.83,.86Z"/>
        <path class="cls-2" d="M1441.62,614.79c-5.87,1.41-7.26,2.8-8.67,8.67-.05,.22-.37,.22-.42,0-1.41-5.87-2.8-7.26-8.67-8.67-.22-.05-.22-.37,0-.42,5.87-1.41,7.26-2.8,8.67-8.67,.05-.22,.37-.22,.42,0,1.41,5.87,2.8,7.26,8.67,8.67,.22,.05,.22,.37,0,.42Z"/>
        <path class="cls-2" d="M1441.62,359.47c-5.87,1.41-7.26,2.8-8.67,8.67-.05,.22-.37,.22-.42,0-1.41-5.87-2.8-7.26-8.67-8.67-.22-.05-.22-.37,0-.42,5.87-1.41,7.26-2.8,8.67-8.67,.05-.22,.37-.22,.42,0,1.41,5.87,2.8,7.26,8.67,8.67,.22,.05,.22,.37,0,.42Z"/>
        <circle class="cls-2" cx="1432.74" cy="429.45" r="4.93"/>
        <circle class="cls-2" cx="1432.74" cy="197.01" r="4.93"/>
        <circle class="cls-2" cx="1432.74" cy="225.73" r="2.82"/>
        <circle class="cls-2" cx="1432.74" cy="168.29" r="2.82"/>
        <circle class="cls-2" cx="1432.74" cy="469.56" r="2.82"/>
        <circle class="cls-2" cx="1432.74" cy="718.75" r="2.82"/>
        <circle class="cls-2" cx="1432.74" cy="451.18" r="2.82"/>
        <path class="cls-2" d="M1445.66,657.26h-.02c-.16-.17-2.98-3.22-5.95-4.11-1.28-.39-2.66,.22-3.83,1.05,.76-1.13,1.28-2.42,.92-3.63-.89-2.97-3.94-5.79-4.11-5.95v-.02s0,0,0,0c0,0,0,0,0,0v.02c-.17,.16-3.22,2.98-4.11,5.95-.38,1.26,.19,2.61,1,3.76-1.16-.8-2.5-1.38-3.76-1-2.97,.89-5.79,3.94-5.95,4.11h-.02s0,0,0,0c0,0,0,0,0,0h.02c.16,.17,2.98,3.22,5.95,4.11,1.26,.38,2.61-.19,3.76-1-.69,1.08-1.14,2.3-.8,3.45,.89,2.97,3.94,5.79,4.11,5.95v.02s0,0,0,0c0,0,0,0,0,0v-.02c.17-.16,3.22-2.98,4.11-5.95,.35-1.16-.12-2.39-.82-3.48,1.1,.72,2.35,1.2,3.53,.85,2.97-.89,5.79-3.94,5.95-4.11h.02s0,0,0,0c0,0,0,0,0,0Z"/>
        <path class="cls-2" d="M1449.85,294.9h-.02c-.21-.23-3.94-4.27-7.88-5.45-1.7-.51-3.52,.29-5.07,1.39,1-1.49,1.69-3.2,1.21-4.81-1.18-3.93-5.22-7.67-5.45-7.88v-.02s0,0-.01,.01c0,0-.01-.01-.01-.01v.02c-.23,.21-4.27,3.94-5.45,7.88-.5,1.67,.26,3.45,1.32,4.98-1.53-1.06-3.31-1.83-4.98-1.33-3.93,1.18-7.67,5.22-7.88,5.45h-.02s0,0,.01,.01c0,0-.01,.01-.01,.01h.02c.21,.23,3.94,4.27,7.88,5.45,1.67,.5,3.45-.26,4.98-1.32-.91,1.43-1.51,3.05-1.05,4.57,1.18,3.93,5.22,7.67,5.45,7.88v.02s0,0,.01-.01c0,0,.01,.01,.01,.01v-.02c.23-.21,4.27-3.94,5.45-7.88,.46-1.53-.15-3.17-1.08-4.61,1.46,.95,3.12,1.59,4.67,1.12,3.93-1.18,7.67-5.22,7.88-5.45h.02s0,0-.01-.01c0,0,.01-.01,.01-.01Z"/>
      </g>
      <g class="cls-1">
        <line class="cls-3" x1="766.92" y1="142.1" x2="766.92" y2="823.78"/>
        <path class="cls-2" d="M765.59,804.68s-5.69,14.98-4.58,22.66c1.11,7.68,10.28,6.07,11.76,0s-5.08-23.65-5.08-23.65c0,0-.96-3.9-2.1,.99Z"/>
        <path class="cls-2" d="M765.76,531.14s-4.96,13.06-3.99,19.74c.97,6.69,8.96,5.29,10.25,0,1.29-5.29-4.42-20.61-4.42-20.61,0,0-.84-3.4-1.83,.86Z"/>
        <path class="cls-2" d="M775.81,650.37c-5.87,1.41-7.26,2.8-8.67,8.67-.05,.22-.37,.22-.42,0-1.41-5.87-2.8-7.26-8.67-8.67-.22-.05-.22-.37,0-.42,5.87-1.41,7.26-2.8,8.67-8.67,.05-.22,.37-.22,.42,0,1.41,5.87,2.8,7.26,8.67,8.67,.22,.05,.22,.37,0,.42Z"/>
        <path class="cls-2" d="M775.81,395.05c-5.87,1.41-7.26,2.8-8.67,8.67-.05,.22-.37,.22-.42,0-1.41-5.87-2.8-7.26-8.67-8.67-.22-.05-.22-.37,0-.42,5.87-1.41,7.26-2.8,8.67-8.67,.05-.22,.37-.22,.42,0,1.41,5.87,2.8,7.26,8.67,8.67,.22,.05,.22,.37,0,.42Z"/>
        <circle class="cls-2" cx="766.92" cy="465.02" r="4.93"/>
        <circle class="cls-2" cx="766.92" cy="232.58" r="4.93"/>
        <circle class="cls-2" cx="766.92" cy="261.3" r="2.82"/>
        <circle class="cls-2" cx="766.92" cy="203.86" r="2.82"/>
        <circle class="cls-2" cx="766.92" cy="505.14" r="2.82"/>
        <circle class="cls-2" cx="766.92" cy="754.33" r="2.82"/>
        <circle class="cls-2" cx="766.92" cy="486.76" r="2.82"/>
        <path class="cls-2" d="M779.85,692.84h-.02c-.16-.17-2.98-3.22-5.95-4.11-1.28-.39-2.66,.22-3.83,1.05,.76-1.13,1.28-2.42,.92-3.63-.89-2.97-3.94-5.79-4.11-5.95v-.02s0,0,0,0c0,0,0,0,0,0v.02c-.17,.16-3.22,2.98-4.11,5.95-.38,1.26,.19,2.61,1,3.76-1.16-.8-2.5-1.38-3.76-1-2.97,.89-5.79,3.94-5.95,4.11h-.02s0,0,0,0c0,0,0,0,0,0h.02c.16,.17,2.98,3.22,5.95,4.11,1.26,.38,2.61-.19,3.76-1-.69,1.08-1.14,2.3-.8,3.45,.89,2.97,3.94,5.79,4.11,5.95v.02s0,0,0,0c0,0,0,0,0,0v-.02c.17-.16,3.22-2.98,4.11-5.95,.35-1.16-.12-2.39-.82-3.48,1.1,.72,2.35,1.2,3.53,.85,2.97-.89,5.79-3.94,5.95-4.11h.02s0,0,0,0c0,0,0,0,0,0Z"/>
        <path class="cls-2" d="M784.04,330.48h-.02c-.21-.23-3.94-4.27-7.88-5.45-1.7-.51-3.52,.29-5.07,1.39,1-1.49,1.69-3.2,1.21-4.81-1.18-3.93-5.22-7.67-5.45-7.88v-.02s0,0-.01,.01c0,0-.01-.01-.01-.01v.02c-.23,.21-4.27,3.94-5.45,7.88-.5,1.67,.26,3.45,1.32,4.98-1.53-1.06-3.31-1.83-4.98-1.33-3.93,1.18-7.67,5.22-7.88,5.45h-.02s0,0,.01,.01c0,0-.01,.01-.01,.01h.02c.21,.23,3.94,4.27,7.88,5.45,1.67,.5,3.45-.26,4.98-1.32-.91,1.43-1.51,3.05-1.05,4.57,1.18,3.93,5.22,7.67,5.45,7.88v.02s0,0,.01-.01c0,0,.01,.01,.01,.01v-.02c.23-.21,4.27-3.94,5.45-7.88,.46-1.53-.15-3.17-1.08-4.61,1.46,.95,3.12,1.59,4.67,1.12,3.93-1.18,7.67-5.22,7.88-5.45h.02s0,0-.01-.01c0,0,.01-.01,.01-.01Z"/>
      </g>
      <g class="cls-1">
        <line class="cls-3" x1="1016.86" y1="163.21" x2="1016.86" y2="844.89"/>
        <path class="cls-2" d="M1015.52,825.79s-5.69,14.98-4.58,22.66c1.11,7.68,10.28,6.07,11.76,0,1.49-6.07-5.08-23.65-5.08-23.65,0,0-.96-3.9-2.1,.99Z"/>
        <path class="cls-2" d="M1015.7,552.25s-4.96,13.06-3.99,19.74c.97,6.69,8.96,5.29,10.25,0,1.29-5.29-4.42-20.61-4.42-20.61,0,0-.84-3.4-1.83,.86Z"/>
        <path class="cls-2" d="M1025.74,671.48c-5.87,1.41-7.26,2.8-8.67,8.67-.05,.22-.37,.22-.42,0-1.41-5.87-2.8-7.26-8.67-8.67-.22-.05-.22-.37,0-.42,5.87-1.41,7.26-2.8,8.67-8.67,.05-.22,.37-.22,.42,0,1.41,5.87,2.8,7.26,8.67,8.67,.22,.05,.22,.37,0,.42Z"/>
        <path class="cls-2" d="M1025.74,416.16c-5.87,1.41-7.26,2.8-8.67,8.67-.05,.22-.37,.22-.42,0-1.41-5.87-2.8-7.26-8.67-8.67-.22-.05-.22-.37,0-.42,5.87-1.41,7.26-2.8,8.67-8.67,.05-.22,.37-.22,.42,0,1.41,5.87,2.8,7.26,8.67,8.67,.22,.05,.22,.37,0,.42Z"/>
        <circle class="cls-2" cx="1016.86" cy="486.13" r="4.93"/>
        <circle class="cls-2" cx="1016.86" cy="253.69" r="4.93"/>
        <circle class="cls-2" cx="1016.86" cy="282.41" r="2.82"/>
        <circle class="cls-2" cx="1016.86" cy="224.97" r="2.82"/>
        <circle class="cls-2" cx="1016.86" cy="526.25" r="2.82"/>
        <circle class="cls-2" cx="1016.86" cy="775.44" r="2.82"/>
        <circle class="cls-2" cx="1016.86" cy="507.87" r="2.82"/>
        <path class="cls-2" d="M1029.79,713.95h-.02c-.16-.17-2.98-3.22-5.95-4.11-1.28-.39-2.66,.22-3.83,1.05,.76-1.13,1.28-2.42,.92-3.63-.89-2.97-3.94-5.79-4.11-5.95v-.02s0,0,0,0c0,0,0,0,0,0v.02c-.17,.16-3.22,2.98-4.11,5.95-.38,1.26,.19,2.61,1,3.76-1.16-.8-2.5-1.38-3.76-1-2.97,.89-5.79,3.94-5.95,4.11h-.02s0,0,0,0c0,0,0,0,0,0h.02c.16,.17,2.98,3.22,5.95,4.11,1.26,.38,2.61-.19,3.76-1-.69,1.08-1.14,2.3-.8,3.45,.89,2.97,3.94,5.79,4.11,5.95v.02s0,0,0,0c0,0,0,0,0,0v-.02c.17-.16,3.22-2.98,4.11-5.95,.35-1.16-.12-2.39-.82-3.48,1.1,.72,2.35,1.2,3.53,.85,2.97-.89,5.79-3.94,5.95-4.11h.02s0,0,0,0c0,0,0,0,0,0Z"/>
        <path class="cls-2" d="M1033.98,351.59h-.02c-.21-.23-3.94-4.27-7.88-5.45-1.7-.51-3.52,.29-5.07,1.39,1-1.49,1.69-3.2,1.21-4.81-1.18-3.93-5.22-7.67-5.45-7.88v-.02s0,0-.01,.01c0,0-.01-.01-.01-.01v.02c-.23,.21-4.27,3.94-5.45,7.88-.5,1.67,.26,3.45,1.32,4.98-1.53-1.06-3.31-1.83-4.98-1.33-3.93,1.18-7.67,5.22-7.88,5.45h-.02s0,0,.01,.01c0,0-.01,.01-.01,.01h.02c.21,.23,3.94,4.27,7.88,5.45,1.67,.5,3.45-.26,4.98-1.32-.91,1.43-1.51,3.05-1.05,4.57,1.18,3.93,5.22,7.67,5.45,7.88v.02s0,0,.01-.01c0,0,.01,.01,.01,.01v-.02c.23-.21,4.27-3.94,5.45-7.88,.46-1.53-.15-3.17-1.08-4.61,1.46,.95,3.12,1.59,4.67,1.12,3.93-1.18,7.67-5.22,7.88-5.45h.02s0,0-.01-.01c0,0,.01-.01,.01-.01Z"/>
      </g>
    </g>
  </g>
</svg>