<?xml version="1.0" encoding="UTF-8"?>
<svg xmlns="http://www.w3.org/2000/svg" xmlns:xlink="http://www.w3.org/1999/xlink" viewBox="0 0 2602.2 1440.44">
  <defs>
    <style>
      .cls-1 {
        fill: url(#linear-gradient-2);
      }

      .cls-2 {
        isolation: isolate;
      }

      .cls-3 {
        mask: url(#mask);
      }

      .cls-4 {
        fill: url(#linear-gradient-3);
      }

      .cls-5 {
        fill: url(#linear-gradient);
      }

      .cls-6 {
        fill: url(#linear-gradient-4);
      }

      .cls-7 {
        mix-blend-mode: luminosity;
        opacity: .2;
      }
    </style>
    <linearGradient id="linear-gradient" x1="1092.77" y1="118.09" x2="1092.77" y2="1397.33" gradientUnits="userSpaceOnUse">
      <stop offset="0" stop-color="#000"/>
      <stop offset=".39" stop-color="#fff"/>
      <stop offset=".46" stop-color="#f9f9f9"/>
      <stop offset=".53" stop-color="#eaeaea"/>
      <stop offset=".61" stop-color="#d1d1d1"/>
      <stop offset=".7" stop-color="#afafaf"/>
      <stop offset=".79" stop-color="#828282"/>
      <stop offset=".89" stop-color="#4b4b4b"/>
      <stop offset=".98" stop-color="#0c0c0c"/>
      <stop offset="1" stop-color="#000"/>
    </linearGradient>
    <mask id="mask" x="-224.68" y="-33.88" width="2634.89" height="1519.66" maskUnits="userSpaceOnUse">
      <rect class="cls-5" x="-224.68" y="-33.88" width="2634.89" height="1519.66"/>
    </mask>
    <linearGradient id="linear-gradient-2" x1="-478.86" y1="798.34" x2="84.45" y2="464.42" gradientTransform="translate(1691.22) rotate(-180) scale(1 -1)" gradientUnits="userSpaceOnUse">
      <stop offset="0" stop-color="#fccad2"/>
      <stop offset=".51" stop-color="#fff8e9"/>
      <stop offset="1" stop-color="#ffe48d"/>
    </linearGradient>
    <linearGradient id="linear-gradient-3" x1="1677.4" y1="1006.91" x2="-660.21" y2="686.69" gradientTransform="translate(1691.22) rotate(-180) scale(1 -1)" gradientUnits="userSpaceOnUse">
      <stop offset="0" stop-color="#fff"/>
      <stop offset=".22" stop-color="#fbfcfe"/>
      <stop offset=".39" stop-color="#f2f6fa"/>
      <stop offset=".54" stop-color="#e1eaf5"/>
      <stop offset=".68" stop-color="#cadaee"/>
      <stop offset=".81" stop-color="#acc6e4"/>
      <stop offset=".94" stop-color="#88add9"/>
      <stop offset="1" stop-color="#75a0d3"/>
    </linearGradient>
    <linearGradient id="linear-gradient-4" x1="764.82" y1="1275.25" x2="1428.03" y2="882.11" xlink:href="#linear-gradient-2"/>
  </defs>
  <g class="cls-2">
    <g id="Layer_2" data-name="Layer 2">
      <g id="front_page" data-name="front page">
        <g class="cls-3">
          <g class="cls-7">
            <path class="cls-1" d="M1014.49,1157.82c9.59,2.62,19.01,5.92,28.25,9.96,33.38-31.87,92.44-109.03,155.85-90.86,68.08,19.51,29.85,102.06-56.37,140.39,128.94,18.6,235.23-209.7,370.14-221.16,154.8-13.15,299.13,24.42,330.5-107.06,31.38-131.49-112.96,65.74-106.68-33.81,6.27-99.56,161.07-120.22,167.35-146.52,6.27-26.29-4.19-379.43,269.83-516.55,274.03-137.12-81.57,26.3-96.22,227.29-1.99,27.29,1.88,46.71,9.96,60.27,10.15-69.6,31.39-106.31,119.74-107.23,179.9-1.88,171.52-349.38,395.35-362.53,0,0-225.91-69.5-464.39,157.79-238.46,227.28-232.19,0-303.31,41.32-71.12,41.32-56.48-58.22,148.49-189.7-3,1.28-309.99,132.51-397.41,343.73-87.87,212.25-6.28,296.78,71.12,276.11,0,0-4.19,182.21-259.39,191.6-255.2,9.39-299.12,137.12-297.03,195.35,0,0-83.68,35.69-85.77,129.6-.01,.69-.02,1.36-.02,2.01Z"/>
            <path class="cls-4" d="M0,906.01c64.85,129.61,165.25,330.57,432.99,398.19,182.56,46.1,228.97,5.76,299.04-3.14,15.22,89.68,86.06,192.03,288.75,108.33,20.45-8.44,40.12-17.33,59.09-26.56,185.47-90.14,303.1-211.7,406.14-251.84,82.7-111.45,185.63-64.28,321.22-43.3,57.32,8.88,120.48,13.08,190.42-1.38,263.58-54.47,280.3-401.97,324.24-546.6,37.96-124.99-183.43,26.39-234.79-59.94-8.07-13.56-11.95-32.98-9.96-60.27,14.64-200.99,370.25-364.41,96.22-227.29-274.02,137.12-263.56,490.26-269.83,516.55-6.28,26.3-161.08,46.96-167.35,146.52-6.28,99.55,138.06-97.68,106.68,33.81-31.37,131.48-175.71,93.91-330.5,107.06-134.91,11.46-241.2,239.76-370.14,221.16-19.01-2.73-38.52-10.85-58.68-25.81-13.19-9.78-26.79-17.61-40.8-23.72-9.24-4.04-18.66-7.34-28.25-9.96-17.78-4.88-36.14-7.47-55.04-8.23-68.14-2.77-143.21,18.09-223.11,40.3-83.43,23.19-172.11,47.84-263.61,48.57C237.28,1240.33,1.83,908.59,0,906.01Z"/>
            <path class="cls-6" d="M64.84,842.13c0,84.52,96.22,276.12,311.67,309.93,186.85,29.32,339.08,3.55,359.84,37.83,79.89-22.21,154.96-43.07,223.11-40.3,7.24-30.99-1.82-74.32-85.09-138.41,0,0-85.76-75.13-177.8,15.03-92.04,90.16-119.23,52.59-181.99,43.2-62.75-9.39-232.18,61.98-251.01-26.3-18.82-88.28-75.3-114.58-79.49-69.5-4.18,45.08-62.75,13.15-43.92-65.74,18.82-78.89-94.12-101.43,12.54-182.19-1.36,.49-87.84,32.58-87.84,116.45Z"/>
          </g>
        </g>
      </g>
    </g>
  </g>
</svg>