<?xml version="1.0" encoding="UTF-8"?>
<svg id="Layer_2" data-name="Layer 2" xmlns="http://www.w3.org/2000/svg" viewBox="0 0 1856.33 1186.82">
  <defs>
    <style>
      .cls-1 {
        opacity: .07;
      }

      .cls-2, .cls-3 {
        fill: #fff8e9;
      }

      .cls-3 {
        opacity: .58;
        stroke: #fff8e9;
        stroke-miterlimit: 10;
        stroke-width: 2px;
      }
    </style>
  </defs>
  <g id="sinking_thoughts" data-name="sinking thoughts">
    <g>
      <g class="cls-1">
        <line class="cls-3" x1="515.96" y1="960.22" x2="515.96" y2="84.25"/>
        <path class="cls-2" d="M499.87,528.9h.02c.2,.22,3.71,4.01,7.4,5.12,1.6,.48,3.31-.27,4.77-1.3-.94,1.4-1.59,3.01-1.14,4.52,1.11,3.7,4.9,7.21,5.12,7.4v.02s0,0,0,0c0,0,.01,0,.01,0v-.02c.22-.2,4.01-3.71,5.12-7.4,.47-1.57-.24-3.24-1.24-4.68,1.44,1,3.11,1.72,4.68,1.25,3.7-1.11,7.21-4.9,7.4-5.12h.02s0,0,0,0c0,0,0-.01,0-.01h-.02c-.2-.22-3.71-4.01-7.4-5.12-1.57-.47-3.24,.24-4.68,1.24,.86-1.35,1.42-2.87,.99-4.29-1.11-3.7-4.9-7.21-5.12-7.4v-.02s0,0,0,0c0,0-.01,0-.01,0v.02c-.22,.2-4.01,3.71-5.12,7.4-.43,1.44,.14,2.98,1.02,4.33-1.37-.89-2.93-1.49-4.39-1.06-3.7,1.11-7.21,4.9-7.4,5.12h-.02s0,0,0,0c0,0,0,.01,0,.01Z"/>
        <path class="cls-2" d="M499.87,257.35h.02c.2,.22,3.71,4.01,7.4,5.12,1.6,.48,3.31-.27,4.77-1.3-.94,1.4-1.59,3.01-1.14,4.52,1.11,3.7,4.9,7.21,5.12,7.4v.02s0,0,0,0c0,0,.01,0,.01,0v-.02c.22-.2,4.01-3.71,5.12-7.4,.47-1.57-.24-3.24-1.24-4.68,1.44,1,3.11,1.72,4.68,1.25,3.7-1.11,7.21-4.9,7.4-5.12h.02s0,0,0,0c0,0,0-.01,0-.01h-.02c-.2-.22-3.71-4.01-7.4-5.12-1.57-.47-3.24,.24-4.68,1.24,.86-1.35,1.42-2.87,.99-4.29-1.11-3.7-4.9-7.21-5.12-7.4v-.02s0,0,0,0c0,0-.01,0-.01,0v.02c-.22,.2-4.01,3.71-5.12,7.4-.43,1.44,.14,2.98,1.02,4.33-1.37-.89-2.93-1.49-4.39-1.06-3.7,1.11-7.21,4.9-7.4,5.12h-.02s0,0,0,0c0,0,0,.01,0,.01Z"/>
        <path class="cls-2" d="M499.91,843.73h.02c.2,.22,3.7,4,7.39,5.11,1.59,.48,3.3-.27,4.76-1.3-.94,1.4-1.59,3-1.14,4.51,1.11,3.69,4.89,7.19,5.11,7.39v.02s0,0,0,0c0,0,.01,0,.01,0v-.02c.22-.2,4-3.7,5.11-7.39,.47-1.56-.24-3.24-1.24-4.67,1.43,1,3.1,1.71,4.67,1.24,3.69-1.11,7.19-4.89,7.39-5.11h.02s0,0,0,0c0,0,0-.01,0-.01h-.02c-.2-.22-3.7-4-7.39-5.11-1.56-.47-3.24,.24-4.67,1.24,.86-1.34,1.42-2.86,.99-4.28-1.11-3.69-4.89-7.19-5.11-7.39v-.02s0,0,0,0c0,0-.01,0-.01,0v.02c-.22,.2-4,3.7-5.11,7.39-.43,1.44,.14,2.97,1.02,4.32-1.37-.89-2.92-1.49-4.38-1.05-3.69,1.11-7.19,4.89-7.39,5.11h-.02s0,0,0,0c0,0,0,.01,0,.01Z"/>
        <path class="cls-2" d="M518.05,109.83s8.92-23.48,7.18-35.5c-1.75-12.03-16.1-9.51-18.43,0-2.33,9.51,7.95,37.06,7.95,37.06,0,0,1.5,6.11,3.3-1.55Z"/>
        <circle class="cls-2" cx="515.96" cy="452.93" r="4.64"/>
        <circle class="cls-2" cx="515.96" cy="400.12" r="4.64"/>
        <circle class="cls-2" cx="515.96" cy="806.67" r="4.64"/>
        <circle class="cls-2" cx="515.96" cy="568.61" r="4.64"/>
        <circle class="cls-2" cx="515.96" cy="426.52" r="7.42"/>
        <circle class="cls-2" cx="515.96" cy="142.22" r="4.71"/>
        <circle class="cls-2" cx="515.96" cy="173.91" r="8.04"/>
        <path class="cls-2" d="M505.71,684.69c6.77-1.63,8.37-3.23,10-10,.06-.25,.42-.25,.48,0,1.63,6.77,3.23,8.37,10,10,.25,.06,.25,.42,0,.48-6.77,1.63-8.37,3.23-10,10-.06,.25-.42,.25-.48,0-1.63-6.77-3.23-8.37-10-10-.25-.06-.25-.42,0-.48Z"/>
        <path class="cls-2" d="M508.86,305.15c4.69-1.13,5.8-2.24,6.93-6.93,.04-.18,.29-.18,.33,0,1.13,4.69,2.24,5.8,6.93,6.93,.18,.04,.18,.29,0,.33-4.69,1.13-5.8,2.24-6.93,6.93-.04,.18-.29,.18-.33,0-1.13-4.69-2.24-5.8-6.93-6.93-.18-.04-.18-.29,0-.33Z"/>
      </g>
      <g class="cls-1">
        <line class="cls-3" x1="16.08" y1="903.77" x2="16.08" y2="27.8"/>
        <path class="cls-2" d="M0,472.44H.02c.2,.22,3.71,4.01,7.4,5.12,1.6,.48,3.31-.27,4.77-1.3-.94,1.4-1.59,3.01-1.14,4.52,1.11,3.7,4.9,7.21,5.12,7.4v.02s0,0,0,0c0,0,.01,0,.01,0v-.02c.22-.2,4.01-3.71,5.12-7.4,.47-1.57-.24-3.24-1.24-4.68,1.44,1,3.11,1.72,4.68,1.25,3.7-1.11,7.21-4.9,7.4-5.12h.02s0,0,0,0c0,0,0-.01,0-.01h-.02c-.2-.22-3.71-4.01-7.4-5.12-1.57-.47-3.24,.24-4.68,1.24,.86-1.35,1.42-2.87,.99-4.29-1.11-3.7-4.9-7.21-5.12-7.4v-.02s0,0,0,0c0,0-.01,0-.01,0v.02c-.22,.2-4.01,3.71-5.12,7.4-.43,1.44,.14,2.98,1.02,4.33-1.37-.89-2.93-1.49-4.39-1.06-3.7,1.11-7.21,4.9-7.4,5.12h-.02s0,0,0,0c0,0,0,.01,0,.01Z"/>
        <path class="cls-2" d="M0,200.89H.02c.2,.22,3.71,4.01,7.4,5.12,1.6,.48,3.31-.27,4.77-1.3-.94,1.4-1.59,3.01-1.14,4.52,1.11,3.7,4.9,7.21,5.12,7.4v.02s0,0,0,0c0,0,.01,0,.01,0v-.02c.22-.2,4.01-3.71,5.12-7.4,.47-1.57-.24-3.24-1.24-4.68,1.44,1,3.11,1.72,4.68,1.25,3.7-1.11,7.21-4.9,7.4-5.12h.02s0,0,0,0c0,0,0-.01,0-.01h-.02c-.2-.22-3.71-4.01-7.4-5.12-1.57-.47-3.24,.24-4.68,1.24,.86-1.35,1.42-2.87,.99-4.29-1.11-3.7-4.9-7.21-5.12-7.4v-.02s0,0,0,0c0,0-.01,0-.01,0v.02c-.22,.2-4.01,3.71-5.12,7.4-.43,1.44,.14,2.98,1.02,4.33-1.37-.89-2.93-1.49-4.39-1.06-3.7,1.11-7.21,4.9-7.4,5.12h-.02s0,0,0,0c0,0,0,.01,0,.01Z"/>
        <path class="cls-2" d="M.04,787.28h.02c.2,.22,3.7,4,7.39,5.11,1.59,.48,3.3-.27,4.76-1.3-.94,1.4-1.59,3-1.14,4.51,1.11,3.69,4.89,7.19,5.11,7.39v.02s0,0,0,0c0,0,.01,0,.01,0v-.02c.22-.2,4-3.7,5.11-7.39,.47-1.56-.24-3.24-1.24-4.67,1.43,1,3.1,1.71,4.67,1.24,3.69-1.11,7.19-4.89,7.39-5.11h.02s0,0,0,0c0,0,0-.01,0-.01h-.02c-.2-.22-3.7-4-7.39-5.11-1.56-.47-3.24,.24-4.67,1.24,.86-1.34,1.42-2.86,.99-4.28-1.11-3.69-4.89-7.19-5.11-7.39v-.02s0,0,0,0c0,0-.01,0-.01,0v.02c-.22,.2-4,3.7-5.11,7.39-.43,1.44,.14,2.97,1.02,4.32-1.37-.89-2.92-1.49-4.38-1.05-3.69,1.11-7.19,4.89-7.39,5.11h-.02s0,0,0,0c0,0,0,.01,0,.01Z"/>
        <path class="cls-2" d="M18.18,53.38s8.92-23.48,7.18-35.5c-1.75-12.03-16.1-9.51-18.43,0-2.33,9.51,7.95,37.06,7.95,37.06,0,0,1.5,6.11,3.3-1.55Z"/>
        <circle class="cls-2" cx="16.08" cy="396.48" r="4.64"/>
        <circle class="cls-2" cx="16.08" cy="343.66" r="4.64"/>
        <circle class="cls-2" cx="16.08" cy="750.21" r="4.64"/>
        <circle class="cls-2" cx="16.08" cy="512.16" r="4.64"/>
        <circle class="cls-2" cx="16.08" cy="370.07" r="7.42"/>
        <circle class="cls-2" cx="16.08" cy="85.77" r="4.71"/>
        <circle class="cls-2" cx="16.08" cy="117.46" r="8.04"/>
        <path class="cls-2" d="M5.84,628.24c6.77-1.63,8.37-3.23,10-10,.06-.25,.42-.25,.48,0,1.63,6.77,3.23,8.37,10,10,.25,.06,.25,.42,0,.48-6.77,1.63-8.37,3.23-10,10-.06,.25-.42,.25-.48,0-1.63-6.77-3.23-8.37-10-10-.25-.06-.25-.42,0-.48Z"/>
        <path class="cls-2" d="M8.98,248.7c4.69-1.13,5.8-2.24,6.93-6.93,.04-.18,.29-.18,.33,0,1.13,4.69,2.24,5.8,6.93,6.93,.18,.04,.18,.29,0,.33-4.69,1.13-5.8,2.24-6.93,6.93-.04,.18-.29,.18-.33,0-1.13-4.69-2.24-5.8-6.93-6.93-.18-.04-.18-.29,0-.33Z"/>
      </g>
      <g class="cls-1">
        <line class="cls-3" x1="266.02" y1="990.72" x2="266.02" y2="114.75"/>
        <path class="cls-2" d="M249.94,559.39h.02c.2,.22,3.71,4.01,7.4,5.12,1.6,.48,3.31-.27,4.77-1.3-.94,1.4-1.59,3.01-1.14,4.52,1.11,3.7,4.9,7.21,5.12,7.4v.02s0,0,0,0c0,0,.01,0,.01,0v-.02c.22-.2,4.01-3.71,5.12-7.4,.47-1.57-.24-3.24-1.24-4.68,1.44,1,3.11,1.72,4.68,1.25,3.7-1.11,7.21-4.9,7.4-5.12h.02s0,0,0,0c0,0,0-.01,0-.01h-.02c-.2-.22-3.71-4.01-7.4-5.12-1.57-.47-3.24,.24-4.68,1.24,.86-1.35,1.42-2.87,.99-4.29-1.11-3.7-4.9-7.21-5.12-7.4v-.02s0,0,0,0c0,0-.01,0-.01,0v.02c-.22,.2-4.01,3.71-5.12,7.4-.43,1.44,.14,2.98,1.02,4.33-1.37-.89-2.93-1.49-4.39-1.06-3.7,1.11-7.21,4.9-7.4,5.12h-.02s0,0,0,0c0,0,0,.01,0,.01Z"/>
        <path class="cls-2" d="M249.94,287.84h.02c.2,.22,3.71,4.01,7.4,5.12,1.6,.48,3.31-.27,4.77-1.3-.94,1.4-1.59,3.01-1.14,4.52,1.11,3.7,4.9,7.21,5.12,7.4v.02s0,0,0,0c0,0,.01,0,.01,0v-.02c.22-.2,4.01-3.71,5.12-7.4,.47-1.57-.24-3.24-1.24-4.68,1.44,1,3.11,1.72,4.68,1.25,3.7-1.11,7.21-4.9,7.4-5.12h.02s0,0,0,0c0,0,0-.01,0-.01h-.02c-.2-.22-3.71-4.01-7.4-5.12-1.57-.47-3.24,.24-4.68,1.24,.86-1.35,1.42-2.87,.99-4.29-1.11-3.7-4.9-7.21-5.12-7.4v-.02s0,0,0,0c0,0-.01,0-.01,0v.02c-.22,.2-4.01,3.71-5.12,7.4-.43,1.44,.14,2.98,1.02,4.33-1.37-.89-2.93-1.49-4.39-1.06-3.7,1.11-7.21,4.9-7.4,5.12h-.02s0,0,0,0c0,0,0,.01,0,.01Z"/>
        <path class="cls-2" d="M249.97,874.22h.02c.2,.22,3.7,4,7.39,5.11,1.59,.48,3.3-.27,4.76-1.3-.94,1.4-1.59,3-1.14,4.51,1.11,3.69,4.89,7.19,5.11,7.39v.02s0,0,0,0c0,0,.01,0,.01,0v-.02c.22-.2,4-3.7,5.11-7.39,.47-1.56-.24-3.24-1.24-4.67,1.43,1,3.1,1.71,4.67,1.24,3.69-1.11,7.19-4.89,7.39-5.11h.02s0,0,0,0c0,0,0-.01,0-.01h-.02c-.2-.22-3.7-4-7.39-5.11-1.56-.47-3.24,.24-4.67,1.24,.86-1.34,1.42-2.86,.99-4.28-1.11-3.69-4.89-7.19-5.11-7.39v-.02s0,0,0,0c0,0-.01,0-.01,0v.02c-.22,.2-4,3.7-5.11,7.39-.43,1.44,.14,2.97,1.02,4.32-1.37-.89-2.92-1.49-4.38-1.05-3.69,1.11-7.19,4.89-7.39,5.11h-.02s0,0,0,0c0,0,0,.01,0,.01Z"/>
        <path class="cls-2" d="M268.11,140.33s8.92-23.48,7.18-35.5c-1.75-12.03-16.1-9.51-18.43,0-2.33,9.51,7.95,37.06,7.95,37.06,0,0,1.5,6.11,3.3-1.55Z"/>
        <circle class="cls-2" cx="266.02" cy="483.43" r="4.64"/>
        <circle class="cls-2" cx="266.02" cy="430.61" r="4.64"/>
        <circle class="cls-2" cx="266.02" cy="837.16" r="4.64"/>
        <circle class="cls-2" cx="266.02" cy="599.11" r="4.64"/>
        <circle class="cls-2" cx="266.02" cy="457.02" r="7.42"/>
        <circle class="cls-2" cx="266.02" cy="172.72" r="4.71"/>
        <circle class="cls-2" cx="266.02" cy="204.41" r="8.04"/>
        <path class="cls-2" d="M255.78,715.19c6.77-1.63,8.37-3.23,10-10,.06-.25,.42-.25,.48,0,1.63,6.77,3.23,8.37,10,10,.25,.06,.25,.42,0,.48-6.77,1.63-8.37,3.23-10,10-.06,.25-.42,.25-.48,0-1.63-6.77-3.23-8.37-10-10-.25-.06-.25-.42,0-.48Z"/>
        <path class="cls-2" d="M258.92,335.65c4.69-1.13,5.8-2.24,6.93-6.93,.04-.18,.29-.18,.33,0,1.13,4.69,2.24,5.8,6.93,6.93,.18,.04,.18,.29,0,.33-4.69,1.13-5.8,2.24-6.93,6.93-.04,.18-.29,.18-.33,0-1.13-4.69-2.24-5.8-6.93-6.93-.18-.04-.18-.29,0-.33Z"/>
      </g>
      <g class="cls-1">
        <line class="cls-3" x1="849.89" y1="894" x2="849.89" y2="18.03"/>
        <path class="cls-2" d="M833.81,462.68h.02c.2,.22,3.71,4.01,7.4,5.12,1.6,.48,3.31-.27,4.77-1.3-.94,1.4-1.59,3.01-1.14,4.52,1.11,3.7,4.9,7.21,5.12,7.4v.02s0,0,0,0c0,0,.01,0,.01,0v-.02c.22-.2,4.01-3.71,5.12-7.4,.47-1.57-.24-3.24-1.24-4.68,1.44,1,3.11,1.72,4.68,1.25,3.7-1.11,7.21-4.9,7.4-5.12h.02s0,0,0,0c0,0,0-.01,0-.01h-.02c-.2-.22-3.71-4.01-7.4-5.12-1.57-.47-3.24,.24-4.68,1.24,.86-1.35,1.42-2.87,.99-4.29-1.11-3.7-4.9-7.21-5.12-7.4v-.02s0,0,0,0c0,0-.01,0-.01,0v.02c-.22,.2-4.01,3.71-5.12,7.4-.43,1.44,.14,2.98,1.02,4.33-1.37-.89-2.93-1.49-4.39-1.06-3.7,1.11-7.21,4.9-7.4,5.12h-.02s0,0,0,0c0,0,0,.01,0,.01Z"/>
        <path class="cls-2" d="M833.81,191.13h.02c.2,.22,3.71,4.01,7.4,5.12,1.6,.48,3.31-.27,4.77-1.3-.94,1.4-1.59,3.01-1.14,4.52,1.11,3.7,4.9,7.21,5.12,7.4v.02s0,0,0,0c0,0,.01,0,.01,0v-.02c.22-.2,4.01-3.71,5.12-7.4,.47-1.57-.24-3.24-1.24-4.68,1.44,1,3.11,1.72,4.68,1.25,3.7-1.11,7.21-4.9,7.4-5.12h.02s0,0,0,0c0,0,0-.01,0-.01h-.02c-.2-.22-3.71-4.01-7.4-5.12-1.57-.47-3.24,.24-4.68,1.24,.86-1.35,1.42-2.87,.99-4.29-1.11-3.7-4.9-7.21-5.12-7.4v-.02s0,0,0,0c0,0-.01,0-.01,0v.02c-.22,.2-4.01,3.71-5.12,7.4-.43,1.44,.14,2.98,1.02,4.33-1.37-.89-2.93-1.49-4.39-1.06-3.7,1.11-7.21,4.9-7.4,5.12h-.02s0,0,0,0c0,0,0,.01,0,.01Z"/>
        <path class="cls-2" d="M833.85,777.51h.02c.2,.22,3.7,4,7.39,5.11,1.59,.48,3.3-.27,4.76-1.3-.94,1.4-1.59,3-1.14,4.51,1.11,3.69,4.89,7.19,5.11,7.39v.02s0,0,0,0c0,0,.01,0,.01,0v-.02c.22-.2,4-3.7,5.11-7.39,.47-1.56-.24-3.24-1.24-4.67,1.43,1,3.1,1.71,4.67,1.24,3.69-1.11,7.19-4.89,7.39-5.11h.02s0,0,0,0c0,0,0-.01,0-.01h-.02c-.2-.22-3.7-4-7.39-5.11-1.56-.47-3.24,.24-4.67,1.24,.86-1.34,1.42-2.86,.99-4.28-1.11-3.69-4.89-7.19-5.11-7.39v-.02s0,0,0,0c0,0-.01,0-.01,0v.02c-.22,.2-4,3.7-5.11,7.39-.43,1.44,.14,2.97,1.02,4.32-1.37-.89-2.92-1.49-4.38-1.05-3.69,1.11-7.19,4.89-7.39,5.11h-.02s0,0,0,0c0,0,0,.01,0,.01Z"/>
        <path class="cls-2" d="M851.99,43.61s8.92-23.48,7.18-35.5c-1.75-12.03-16.1-9.51-18.43,0-2.33,9.51,7.95,37.06,7.95,37.06,0,0,1.5,6.11,3.3-1.55Z"/>
        <circle class="cls-2" cx="849.89" cy="386.71" r="4.64"/>
        <circle class="cls-2" cx="849.89" cy="333.9" r="4.64"/>
        <circle class="cls-2" cx="849.89" cy="740.45" r="4.64"/>
        <circle class="cls-2" cx="849.89" cy="502.39" r="4.64"/>
        <circle class="cls-2" cx="849.89" cy="360.3" r="7.42"/>
        <circle class="cls-2" cx="849.89" cy="76" r="4.71"/>
        <circle class="cls-2" cx="849.89" cy="107.69" r="8.04"/>
        <path class="cls-2" d="M839.65,618.47c6.77-1.63,8.37-3.23,10-10,.06-.25,.42-.25,.48,0,1.63,6.77,3.23,8.37,10,10,.25,.06,.25,.42,0,.48-6.77,1.63-8.37,3.23-10,10-.06,.25-.42,.25-.48,0-1.63-6.77-3.23-8.37-10-10-.25-.06-.25-.42,0-.48Z"/>
        <path class="cls-2" d="M842.8,238.94c4.69-1.13,5.8-2.24,6.93-6.93,.04-.18,.29-.18,.33,0,1.13,4.69,2.24,5.8,6.93,6.93,.18,.04,.18,.29,0,.33-4.69,1.13-5.8,2.24-6.93,6.93-.04,.18-.29,.18-.33,0-1.13-4.69-2.24-5.8-6.93-6.93-.18-.04-.18-.29,0-.33Z"/>
      </g>
      <g class="cls-1">
        <line class="cls-3" x1="432.99" y1="906.38" x2="432.99" y2="332.84"/>
        <path class="cls-2" d="M434.32,351.04s5.69-14.98,4.58-22.66c-1.11-7.68-10.28-6.07-11.76,0-1.49,6.07,5.08,23.65,5.08,23.65,0,0,.96,3.9,2.1-.99Z"/>
        <path class="cls-2" d="M434.15,723.64s4.96-13.06,3.99-19.74c-.97-6.69-8.96-5.29-10.25,0-1.29,5.29,4.42,20.61,4.42,20.61,0,0,.84,3.4,1.83-.86Z"/>
        <path class="cls-2" d="M424.11,431.46c5.87-1.41,7.26-2.8,8.67-8.67,.05-.22,.37-.22,.42,0,1.41,5.87,2.8,7.26,8.67,8.67,.22,.05,.22,.37,0,.42-5.87,1.41-7.26,2.8-8.67,8.67-.05,.22-.37,.22-.42,0-1.41-5.87-2.8-7.26-8.67-8.67-.22-.05-.22-.37,0-.42Z"/>
        <path class="cls-2" d="M424.11,772.93c5.87-1.41,7.26-2.8,8.67-8.67,.05-.22,.37-.22,.42,0,1.41,5.87,2.8,7.26,8.67,8.67,.22,.05,.22,.37,0,.42-5.87,1.41-7.26,2.8-8.67,8.67-.05,.22-.37,.22-.42,0-1.41-5.87-2.8-7.26-8.67-8.67-.22-.05-.22-.37,0-.42Z"/>
        <circle class="cls-2" cx="432.99" cy="576.57" r="4.93"/>
        <circle class="cls-2" cx="432.99" cy="839.35" r="4.93"/>
        <circle class="cls-2" cx="432.99" cy="818.38" r="2.82"/>
        <circle class="cls-2" cx="432.99" cy="593.29" r="2.82"/>
        <circle class="cls-2" cx="432.99" cy="561.46" r="2.82"/>
        <circle class="cls-2" cx="432.99" cy="390.96" r="2.82"/>
        <circle class="cls-2" cx="432.99" cy="382.19" r="2.82"/>
        <circle class="cls-2" cx="432.99" cy="373.41" r="2.82"/>
        <path class="cls-2" d="M420.06,484.02h.02c.16,.17,2.98,3.22,5.95,4.11,1.28,.39,2.66-.22,3.83-1.05-.76,1.13-1.28,2.42-.92,3.63,.89,2.97,3.94,5.79,4.11,5.95v.02s0,0,0,0c0,0,0,0,0,0v-.02c.17-.16,3.22-2.98,4.11-5.95,.38-1.26-.19-2.61-1-3.76,1.16,.8,2.5,1.38,3.76,1,2.97-.89,5.79-3.94,5.95-4.11h.02s0,0,0,0c0,0,0,0,0,0h-.02c-.16-.17-2.98-3.22-5.95-4.11-1.26-.38-2.61,.19-3.76,1,.69-1.08,1.14-2.3,.8-3.45-.89-2.97-3.94-5.79-4.11-5.95v-.02s0,0,0,0c0,0,0,0,0,0v.02c-.17,.16-3.22,2.98-4.11,5.95-.35,1.16,.12,2.39,.82,3.48-1.1-.72-2.35-1.2-3.53-.85-2.97,.89-5.79,3.94-5.95,4.11h-.02s0,0,0,0c0,0,0,0,0,0Z"/>
        <path class="cls-2" d="M415.87,663.88h.02c.21,.23,3.94,4.27,7.88,5.45,1.7,.51,3.52-.29,5.07-1.39-1,1.49-1.69,3.2-1.21,4.81,1.18,3.93,5.22,7.67,5.45,7.88v.02s0,0,.01-.01c0,0,.01,.01,.01,.01v-.02c.23-.21,4.27-3.94,5.45-7.88,.5-1.67-.26-3.45-1.32-4.98,1.53,1.06,3.31,1.83,4.98,1.33,3.93-1.18,7.67-5.22,7.88-5.45h.02s0,0-.01-.01c0,0,.01-.01,.01-.01h-.02c-.21-.23-3.94-4.27-7.88-5.45-1.67-.5-3.45,.26-4.98,1.32,.91-1.43,1.51-3.05,1.05-4.57-1.18-3.93-5.22-7.67-5.45-7.88v-.02s0,0-.01,.01c0,0-.01-.01-.01-.01v.02c-.23,.21-4.27,3.94-5.45,7.88-.46,1.53,.15,3.17,1.08,4.61-1.46-.95-3.12-1.59-4.67-1.12-3.93,1.18-7.67,5.22-7.88,5.45h-.02s0,0,.01,.01c0,0-.01,.01-.01,.01Z"/>
      </g>
      <g class="cls-1">
        <line class="cls-3" x1="183.05" y1="980.7" x2="183.05" y2="407.16"/>
        <path class="cls-2" d="M184.39,425.36s5.69-14.98,4.58-22.66c-1.11-7.68-10.28-6.07-11.76,0-1.49,6.07,5.08,23.65,5.08,23.65,0,0,.96,3.9,2.1-.99Z"/>
        <path class="cls-2" d="M184.22,797.96s4.96-13.06,3.99-19.74c-.97-6.69-8.96-5.29-10.25,0s4.42,20.61,4.42,20.61c0,0,.84,3.4,1.83-.86Z"/>
        <path class="cls-2" d="M174.17,505.78c5.87-1.41,7.26-2.8,8.67-8.67,.05-.22,.37-.22,.42,0,1.41,5.87,2.8,7.26,8.67,8.67,.22,.05,.22,.37,0,.42-5.87,1.41-7.26,2.8-8.67,8.67-.05,.22-.37,.22-.42,0-1.41-5.87-2.8-7.26-8.67-8.67-.22-.05-.22-.37,0-.42Z"/>
        <path class="cls-2" d="M174.17,847.25c5.87-1.41,7.26-2.8,8.67-8.67,.05-.22,.37-.22,.42,0,1.41,5.87,2.8,7.26,8.67,8.67,.22,.05,.22,.37,0,.42-5.87,1.41-7.26,2.8-8.67,8.67-.05,.22-.37,.22-.42,0-1.41-5.87-2.8-7.26-8.67-8.67-.22-.05-.22-.37,0-.42Z"/>
        <circle class="cls-2" cx="183.05" cy="650.89" r="4.93"/>
        <circle class="cls-2" cx="183.05" cy="913.67" r="4.93"/>
        <circle class="cls-2" cx="183.05" cy="892.7" r="2.82"/>
        <circle class="cls-2" cx="183.05" cy="667.61" r="2.82"/>
        <circle class="cls-2" cx="183.05" cy="635.77" r="2.82"/>
        <circle class="cls-2" cx="183.05" cy="465.28" r="2.82"/>
        <circle class="cls-2" cx="183.05" cy="456.51" r="2.82"/>
        <circle class="cls-2" cx="183.05" cy="447.73" r="2.82"/>
        <path class="cls-2" d="M170.12,558.34h.02c.16,.17,2.98,3.22,5.95,4.11,1.28,.39,2.66-.22,3.83-1.05-.76,1.13-1.28,2.42-.92,3.63,.89,2.97,3.94,5.79,4.11,5.95v.02s0,0,0,0c0,0,0,0,0,0v-.02c.17-.16,3.22-2.98,4.11-5.95,.38-1.26-.19-2.61-1-3.76,1.16,.8,2.5,1.38,3.76,1,2.97-.89,5.79-3.94,5.95-4.11h.02s0,0,0,0c0,0,0,0,0,0h-.02c-.16-.17-2.98-3.22-5.95-4.11-1.26-.38-2.61,.19-3.76,1,.69-1.08,1.14-2.3,.8-3.45-.89-2.97-3.94-5.79-4.11-5.95v-.02s0,0,0,0c0,0,0,0,0,0v.02c-.17,.16-3.22,2.98-4.11,5.95-.35,1.16,.12,2.39,.82,3.48-1.1-.72-2.35-1.2-3.53-.85-2.97,.89-5.79,3.94-5.95,4.11h-.02s0,0,0,0c0,0,0,0,0,0Z"/>
        <path class="cls-2" d="M165.94,738.2h.02c.21,.23,3.94,4.27,7.88,5.45,1.7,.51,3.52-.29,5.07-1.39-1,1.49-1.69,3.2-1.21,4.81,1.18,3.93,5.22,7.67,5.45,7.88v.02s0,0,.01-.01c0,0,.01,.01,.01,.01v-.02c.23-.21,4.27-3.94,5.45-7.88,.5-1.67-.26-3.45-1.32-4.98,1.53,1.06,3.31,1.83,4.98,1.33,3.93-1.18,7.67-5.22,7.88-5.45h.02s0,0-.01-.01c0,0,.01-.01,.01-.01h-.02c-.21-.23-3.94-4.27-7.88-5.45-1.67-.5-3.45,.26-4.98,1.32,.91-1.43,1.51-3.05,1.05-4.57-1.18-3.93-5.22-7.67-5.45-7.88v-.02s0,0-.01,.01c0,0-.01-.01-.01-.01v.02c-.23,.21-4.27,3.94-5.45,7.88-.46,1.53,.15,3.17,1.08,4.61-1.46-.95-3.12-1.59-4.67-1.12-3.93,1.18-7.67,5.22-7.88,5.45h-.02s0,0,.01,.01c0,0-.01,.01-.01,.01Z"/>
      </g>
      <g class="cls-1">
        <line class="cls-3" x1="682.92" y1="980.7" x2="682.92" y2="407.16"/>
        <path class="cls-2" d="M684.26,425.36s5.69-14.98,4.58-22.66c-1.11-7.68-10.28-6.07-11.76,0-1.49,6.07,5.08,23.65,5.08,23.65,0,0,.96,3.9,2.1-.99Z"/>
        <path class="cls-2" d="M684.09,797.96s4.96-13.06,3.99-19.74c-.97-6.69-8.96-5.29-10.25,0-1.29,5.29,4.42,20.61,4.42,20.61,0,0,.84,3.4,1.83-.86Z"/>
        <path class="cls-2" d="M674.04,505.78c5.87-1.41,7.26-2.8,8.67-8.67,.05-.22,.37-.22,.42,0,1.41,5.87,2.8,7.26,8.67,8.67,.22,.05,.22,.37,0,.42-5.87,1.41-7.26,2.8-8.67,8.67-.05,.22-.37,.22-.42,0-1.41-5.87-2.8-7.26-8.67-8.67-.22-.05-.22-.37,0-.42Z"/>
        <path class="cls-2" d="M674.04,847.25c5.87-1.41,7.26-2.8,8.67-8.67,.05-.22,.37-.22,.42,0,1.41,5.87,2.8,7.26,8.67,8.67,.22,.05,.22,.37,0,.42-5.87,1.41-7.26,2.8-8.67,8.67-.05,.22-.37,.22-.42,0-1.41-5.87-2.8-7.26-8.67-8.67-.22-.05-.22-.37,0-.42Z"/>
        <circle class="cls-2" cx="682.92" cy="650.89" r="4.93"/>
        <circle class="cls-2" cx="682.92" cy="913.67" r="4.93"/>
        <circle class="cls-2" cx="682.92" cy="892.7" r="2.82"/>
        <circle class="cls-2" cx="682.92" cy="667.61" r="2.82"/>
        <circle class="cls-2" cx="682.92" cy="635.77" r="2.82"/>
        <circle class="cls-2" cx="682.92" cy="465.28" r="2.82"/>
        <circle class="cls-2" cx="682.92" cy="456.51" r="2.82"/>
        <circle class="cls-2" cx="682.92" cy="447.73" r="2.82"/>
        <path class="cls-2" d="M670,558.34h.02c.16,.17,2.98,3.22,5.95,4.11,1.28,.39,2.66-.22,3.83-1.05-.76,1.13-1.28,2.42-.92,3.63,.89,2.97,3.94,5.79,4.11,5.95v.02s0,0,0,0c0,0,0,0,0,0v-.02c.17-.16,3.22-2.98,4.11-5.95,.38-1.26-.19-2.61-1-3.76,1.16,.8,2.5,1.38,3.76,1,2.97-.89,5.79-3.94,5.95-4.11h.02s0,0,0,0c0,0,0,0,0,0h-.02c-.16-.17-2.98-3.22-5.95-4.11-1.26-.38-2.61,.19-3.76,1,.69-1.08,1.14-2.3,.8-3.45-.89-2.97-3.94-5.79-4.11-5.95v-.02s0,0,0,0c0,0,0,0,0,0v.02c-.17,.16-3.22,2.98-4.11,5.95-.35,1.16,.12,2.39,.82,3.48-1.1-.72-2.35-1.2-3.53-.85-2.97,.89-5.79,3.94-5.95,4.11h-.02s0,0,0,0c0,0,0,0,0,0Z"/>
        <path class="cls-2" d="M665.81,738.2h.02c.21,.23,3.94,4.27,7.88,5.45,1.7,.51,3.52-.29,5.07-1.39-1,1.49-1.69,3.2-1.21,4.81,1.18,3.93,5.22,7.67,5.45,7.88v.02s0,0,.01-.01c0,0,.01,.01,.01,.01v-.02c.23-.21,4.27-3.94,5.45-7.88,.5-1.67-.26-3.45-1.32-4.98,1.53,1.06,3.31,1.83,4.98,1.33,3.93-1.18,7.67-5.22,7.88-5.45h.02s0,0-.01-.01c0,0,.01-.01,.01-.01h-.02c-.21-.23-3.94-4.27-7.88-5.45-1.67-.5-3.45,.26-4.98,1.32,.91-1.43,1.51-3.05,1.05-4.57-1.18-3.93-5.22-7.67-5.45-7.88v-.02s0,0-.01,.01c0,0-.01-.01-.01-.01v.02c-.23,.21-4.27,3.94-5.45,7.88-.46,1.53,.15,3.17,1.08,4.61-1.46-.95-3.12-1.59-4.67-1.12-3.93,1.18-7.67,5.22-7.88,5.45h-.02s0,0,.01,.01c0,0-.01,.01-.01,.01Z"/>
      </g>
      <g class="cls-1">
        <line class="cls-3" x1="348.99" y1="906.02" x2="348.99" y2="224.34"/>
        <path class="cls-2" d="M350.32,243.44s5.69-14.98,4.58-22.66-10.28-6.07-11.76,0c-1.49,6.07,5.08,23.65,5.08,23.65,0,0,.96,3.9,2.1-.99Z"/>
        <path class="cls-2" d="M350.15,516.98s4.96-13.06,3.99-19.74c-.97-6.69-8.96-5.29-10.25,0-1.29,5.29,4.42,20.61,4.42,20.61,0,0,.84,3.4,1.83-.86Z"/>
        <path class="cls-2" d="M340.11,397.75c5.87-1.41,7.26-2.8,8.67-8.67,.05-.22,.37-.22,.42,0,1.41,5.87,2.8,7.26,8.67,8.67,.22,.05,.22,.37,0,.42-5.87,1.41-7.26,2.8-8.67,8.67-.05,.22-.37,.22-.42,0-1.41-5.87-2.8-7.26-8.67-8.67-.22-.05-.22-.37,0-.42Z"/>
        <path class="cls-2" d="M340.11,653.07c5.87-1.41,7.26-2.8,8.67-8.67,.05-.22,.37-.22,.42,0,1.41,5.87,2.8,7.26,8.67,8.67,.22,.05,.22,.37,0,.42-5.87,1.41-7.26,2.8-8.67,8.67-.05,.22-.37,.22-.42,0-1.41-5.87-2.8-7.26-8.67-8.67-.22-.05-.22-.37,0-.42Z"/>
        <circle class="cls-2" cx="348.99" cy="583.09" r="4.93"/>
        <circle class="cls-2" cx="348.99" cy="815.54" r="4.93"/>
        <circle class="cls-2" cx="348.99" cy="786.82" r="2.82"/>
        <circle class="cls-2" cx="348.99" cy="844.26" r="2.82"/>
        <circle class="cls-2" cx="348.99" cy="542.98" r="2.82"/>
        <circle class="cls-2" cx="348.99" cy="293.79" r="2.82"/>
        <circle class="cls-2" cx="348.99" cy="561.36" r="2.82"/>
        <path class="cls-2" d="M336.06,355.28h.02c.16,.17,2.98,3.22,5.95,4.11,1.28,.39,2.66-.22,3.83-1.05-.76,1.13-1.28,2.42-.92,3.63,.89,2.97,3.94,5.79,4.11,5.95v.02s0,0,0,0c0,0,0,0,0,0v-.02c.17-.16,3.22-2.98,4.11-5.95,.38-1.26-.19-2.61-1-3.76,1.16,.8,2.5,1.38,3.76,1,2.97-.89,5.79-3.94,5.95-4.11h.02s0,0,0,0c0,0,0,0,0,0h-.02c-.16-.17-2.98-3.22-5.95-4.11-1.26-.38-2.61,.19-3.76,1,.69-1.08,1.14-2.3,.8-3.45-.89-2.97-3.94-5.79-4.11-5.95v-.02s0,0,0,0c0,0,0,0,0,0v.02c-.17,.16-3.22,2.98-4.11,5.95-.35,1.16,.12,2.39,.82,3.48-1.1-.72-2.35-1.2-3.53-.85-2.97,.89-5.79,3.94-5.95,4.11h-.02s0,0,0,0c0,0,0,0,0,0Z"/>
        <path class="cls-2" d="M331.87,717.64h.02c.21,.23,3.94,4.27,7.88,5.45,1.7,.51,3.52-.29,5.07-1.39-1,1.49-1.69,3.2-1.21,4.81,1.18,3.93,5.22,7.67,5.45,7.88v.02s0,0,.01-.01c0,0,.01,.01,.01,.01v-.02c.23-.21,4.27-3.94,5.45-7.88,.5-1.67-.26-3.45-1.32-4.98,1.53,1.06,3.31,1.83,4.98,1.33,3.93-1.18,7.67-5.22,7.88-5.45h.02s0,0-.01-.01c0,0,.01-.01,.01-.01h-.02c-.21-.23-3.94-4.27-7.88-5.45-1.67-.5-3.45,.26-4.98,1.32,.91-1.43,1.51-3.05,1.05-4.57-1.18-3.93-5.22-7.67-5.45-7.88v-.02s0,0-.01,.01c0,0-.01-.01-.01-.01v.02c-.23,.21-4.27,3.94-5.45,7.88-.46,1.53,.15,3.17,1.08,4.61-1.46-.95-3.12-1.59-4.67-1.12-3.93,1.18-7.67,5.22-7.88,5.45h-.02s0,0,.01,.01c0,0-.01,.01-.01,.01Z"/>
      </g>
      <g class="cls-1">
        <line class="cls-3" x1="598.92" y1="891.85" x2="598.92" y2="210.17"/>
        <path class="cls-2" d="M600.26,229.28s5.69-14.98,4.58-22.66c-1.11-7.68-10.28-6.07-11.76,0-1.49,6.07,5.08,23.65,5.08,23.65,0,0,.96,3.9,2.1-.99Z"/>
        <path class="cls-2" d="M600.09,502.81s4.96-13.06,3.99-19.74c-.97-6.69-8.96-5.29-10.25,0-1.29,5.29,4.42,20.61,4.42,20.61,0,0,.84,3.4,1.83-.86Z"/>
        <path class="cls-2" d="M590.04,383.58c5.87-1.41,7.26-2.8,8.67-8.67,.05-.22,.37-.22,.42,0,1.41,5.87,2.8,7.26,8.67,8.67,.22,.05,.22,.37,0,.42-5.87,1.41-7.26,2.8-8.67,8.67-.05,.22-.37,.22-.42,0-1.41-5.87-2.8-7.26-8.67-8.67-.22-.05-.22-.37,0-.42Z"/>
        <path class="cls-2" d="M590.04,638.9c5.87-1.41,7.26-2.8,8.67-8.67,.05-.22,.37-.22,.42,0,1.41,5.87,2.8,7.26,8.67,8.67,.22,.05,.22,.37,0,.42-5.87,1.41-7.26,2.8-8.67,8.67-.05,.22-.37,.22-.42,0-1.41-5.87-2.8-7.26-8.67-8.67-.22-.05-.22-.37,0-.42Z"/>
        <circle class="cls-2" cx="598.92" cy="568.93" r="4.93"/>
        <circle class="cls-2" cx="598.92" cy="801.37" r="4.93"/>
        <circle class="cls-2" cx="598.92" cy="772.65" r="2.82"/>
        <circle class="cls-2" cx="598.92" cy="830.09" r="2.82"/>
        <circle class="cls-2" cx="598.92" cy="528.81" r="2.82"/>
        <circle class="cls-2" cx="598.92" cy="279.62" r="2.82"/>
        <circle class="cls-2" cx="598.92" cy="547.2" r="2.82"/>
        <path class="cls-2" d="M586,341.12h.02c.16,.17,2.98,3.22,5.95,4.11,1.28,.39,2.66-.22,3.83-1.05-.76,1.13-1.28,2.42-.92,3.63,.89,2.97,3.94,5.79,4.11,5.95v.02s0,0,0,0c0,0,0,0,0,0v-.02c.17-.16,3.22-2.98,4.11-5.95,.38-1.26-.19-2.61-1-3.76,1.16,.8,2.5,1.38,3.76,1,2.97-.89,5.79-3.94,5.95-4.11h.02s0,0,0,0c0,0,0,0,0,0h-.02c-.16-.17-2.98-3.22-5.95-4.11-1.26-.38-2.61,.19-3.76,1,.69-1.08,1.14-2.3,.8-3.45-.89-2.97-3.94-5.79-4.11-5.95v-.02s0,0,0,0c0,0,0,0,0,0v.02c-.17,.16-3.22,2.98-4.11,5.95-.35,1.16,.12,2.39,.82,3.48-1.1-.72-2.35-1.2-3.53-.85-2.97,.89-5.79,3.94-5.95,4.11h-.02s0,0,0,0c0,0,0,0,0,0Z"/>
        <path class="cls-2" d="M581.81,703.48h.02c.21,.23,3.94,4.27,7.88,5.45,1.7,.51,3.52-.29,5.07-1.39-1,1.49-1.69,3.2-1.21,4.81,1.18,3.93,5.22,7.67,5.45,7.88v.02s0,0,.01-.01c0,0,.01,.01,.01,.01v-.02c.23-.21,4.27-3.94,5.45-7.88,.5-1.67-.26-3.45-1.32-4.98,1.53,1.06,3.31,1.83,4.98,1.33,3.93-1.18,7.67-5.22,7.88-5.45h.02s0,0-.01-.01c0,0,.01-.01,.01-.01h-.02c-.21-.23-3.94-4.27-7.88-5.45-1.67-.5-3.45,.26-4.98,1.32,.91-1.43,1.51-3.05,1.05-4.57-1.18-3.93-5.22-7.67-5.45-7.88v-.02s0,0-.01,.01c0,0-.01-.01-.01-.01v.02c-.23,.21-4.27,3.94-5.45,7.88-.46,1.53,.15,3.17,1.08,4.61-1.46-.95-3.12-1.59-4.67-1.12-3.93,1.18-7.67,5.22-7.88,5.45h-.02s0,0,.01,.01c0,0-.01,.01-.01,.01Z"/>
      </g>
      <g class="cls-1">
        <line class="cls-3" x1="766.92" y1="948.54" x2="766.92" y2="266.86"/>
        <path class="cls-2" d="M768.26,285.96s5.69-14.98,4.58-22.66c-1.11-7.68-10.28-6.07-11.76,0-1.49,6.07,5.08,23.65,5.08,23.65,0,0,.96,3.9,2.1-.99Z"/>
        <path class="cls-2" d="M768.09,559.5s4.96-13.06,3.99-19.74c-.97-6.69-8.96-5.29-10.25,0-1.29,5.29,4.42,20.61,4.42,20.61,0,0,.84,3.4,1.83-.86Z"/>
        <path class="cls-2" d="M758.04,440.27c5.87-1.41,7.26-2.8,8.67-8.67,.05-.22,.37-.22,.42,0,1.41,5.87,2.8,7.26,8.67,8.67,.22,.05,.22,.37,0,.42-5.87,1.41-7.26,2.8-8.67,8.67-.05,.22-.37,.22-.42,0-1.41-5.87-2.8-7.26-8.67-8.67-.22-.05-.22-.37,0-.42Z"/>
        <path class="cls-2" d="M758.04,695.59c5.87-1.41,7.26-2.8,8.67-8.67,.05-.22,.37-.22,.42,0,1.41,5.87,2.8,7.26,8.67,8.67,.22,.05,.22,.37,0,.42-5.87,1.41-7.26,2.8-8.67,8.67-.05,.22-.37,.22-.42,0-1.41-5.87-2.8-7.26-8.67-8.67-.22-.05-.22-.37,0-.42Z"/>
        <circle class="cls-2" cx="766.92" cy="625.62" r="4.93"/>
        <circle class="cls-2" cx="766.92" cy="858.06" r="4.93"/>
        <circle class="cls-2" cx="766.92" cy="829.34" r="2.82"/>
        <circle class="cls-2" cx="766.92" cy="886.78" r="2.82"/>
        <circle class="cls-2" cx="766.92" cy="585.5" r="2.82"/>
        <circle class="cls-2" cx="766.92" cy="336.31" r="2.82"/>
        <circle class="cls-2" cx="766.92" cy="603.88" r="2.82"/>
        <path class="cls-2" d="M754,397.8h.02c.16,.17,2.98,3.22,5.95,4.11,1.28,.39,2.66-.22,3.83-1.05-.76,1.13-1.28,2.42-.92,3.63,.89,2.97,3.94,5.79,4.11,5.95v.02s0,0,0,0c0,0,0,0,0,0v-.02c.17-.16,3.22-2.98,4.11-5.95,.38-1.26-.19-2.61-1-3.76,1.16,.8,2.5,1.38,3.76,1,2.97-.89,5.79-3.94,5.95-4.11h.02s0,0,0,0c0,0,0,0,0,0h-.02c-.16-.17-2.98-3.22-5.95-4.11-1.26-.38-2.61,.19-3.76,1,.69-1.08,1.14-2.3,.8-3.45-.89-2.97-3.94-5.79-4.11-5.95v-.02s0,0,0,0c0,0,0,0,0,0v.02c-.17,.16-3.22,2.98-4.11,5.95-.35,1.16,.12,2.39,.82,3.48-1.1-.72-2.35-1.2-3.53-.85-2.97,.89-5.79,3.94-5.95,4.11h-.02s0,0,0,0c0,0,0,0,0,0Z"/>
        <path class="cls-2" d="M749.81,760.16h.02c.21,.23,3.94,4.27,7.88,5.45,1.7,.51,3.52-.29,5.07-1.39-1,1.49-1.69,3.2-1.21,4.81,1.18,3.93,5.22,7.67,5.45,7.88v.02s0,0,.01-.01c0,0,.01,.01,.01,.01v-.02c.23-.21,4.27-3.94,5.45-7.88,.5-1.67-.26-3.45-1.32-4.98,1.53,1.06,3.31,1.83,4.98,1.33,3.93-1.18,7.67-5.22,7.88-5.45h.02s0,0-.01-.01c0,0,.01-.01,.01-.01h-.02c-.21-.23-3.94-4.27-7.88-5.45-1.67-.5-3.45,.26-4.98,1.32,.91-1.43,1.51-3.05,1.05-4.57-1.18-3.93-5.22-7.67-5.45-7.88v-.02s0,0-.01,.01c0,0-.01-.01-.01-.01v.02c-.23,.21-4.27,3.94-5.45,7.88-.46,1.53,.15,3.17,1.08,4.61-1.46-.95-3.12-1.59-4.67-1.12-3.93,1.18-7.67,5.22-7.88,5.45h-.02s0,0,.01,.01c0,0-.01,.01-.01,.01Z"/>
      </g>
      <g class="cls-1">
        <line class="cls-3" x1="99.05" y1="912.96" x2="99.05" y2="231.29"/>
        <path class="cls-2" d="M100.39,250.39s5.69-14.98,4.58-22.66c-1.11-7.68-10.28-6.07-11.76,0-1.49,6.07,5.08,23.65,5.08,23.65,0,0,.96,3.9,2.1-.99Z"/>
        <path class="cls-2" d="M100.22,523.92s4.96-13.06,3.99-19.74c-.97-6.69-8.96-5.29-10.25,0-1.29,5.29,4.42,20.61,4.42,20.61,0,0,.84,3.4,1.83-.86Z"/>
        <path class="cls-2" d="M90.17,404.69c5.87-1.41,7.26-2.8,8.67-8.67,.05-.22,.37-.22,.42,0,1.41,5.87,2.8,7.26,8.67,8.67,.22,.05,.22,.37,0,.42-5.87,1.41-7.26,2.8-8.67,8.67-.05,.22-.37,.22-.42,0-1.41-5.87-2.8-7.26-8.67-8.67-.22-.05-.22-.37,0-.42Z"/>
        <path class="cls-2" d="M90.17,660.01c5.87-1.41,7.26-2.8,8.67-8.67,.05-.22,.37-.22,.42,0,1.41,5.87,2.8,7.26,8.67,8.67,.22,.05,.22,.37,0,.42-5.87,1.41-7.26,2.8-8.67,8.67-.05,.22-.37,.22-.42,0-1.41-5.87-2.8-7.26-8.67-8.67-.22-.05-.22-.37,0-.42Z"/>
        <circle class="cls-2" cx="99.05" cy="590.04" r="4.93"/>
        <circle class="cls-2" cx="99.05" cy="822.48" r="4.93"/>
        <circle class="cls-2" cx="99.05" cy="793.76" r="2.82"/>
        <circle class="cls-2" cx="99.05" cy="851.2" r="2.82"/>
        <circle class="cls-2" cx="99.05" cy="549.92" r="2.82"/>
        <circle class="cls-2" cx="99.05" cy="300.73" r="2.82"/>
        <circle class="cls-2" cx="99.05" cy="568.31" r="2.82"/>
        <path class="cls-2" d="M86.12,362.23h.02c.16,.17,2.98,3.22,5.95,4.11,1.28,.39,2.66-.22,3.83-1.05-.76,1.13-1.28,2.42-.92,3.63,.89,2.97,3.94,5.79,4.11,5.95v.02s0,0,0,0c0,0,0,0,0,0v-.02c.17-.16,3.22-2.98,4.11-5.95,.38-1.26-.19-2.61-1-3.76,1.16,.8,2.5,1.38,3.76,1,2.97-.89,5.79-3.94,5.95-4.11h.02s0,0,0,0c0,0,0,0,0,0h-.02c-.16-.17-2.98-3.22-5.95-4.11-1.26-.38-2.61,.19-3.76,1,.69-1.08,1.14-2.3,.8-3.45-.89-2.97-3.94-5.79-4.11-5.95v-.02s0,0,0,0c0,0,0,0,0,0v.02c-.17,.16-3.22,2.98-4.11,5.95-.35,1.16,.12,2.39,.82,3.48-1.1-.72-2.35-1.2-3.53-.85-2.97,.89-5.79,3.94-5.95,4.11h-.02s0,0,0,0c0,0,0,0,0,0Z"/>
        <path class="cls-2" d="M81.94,724.59h.02c.21,.23,3.94,4.27,7.88,5.45,1.7,.51,3.52-.29,5.07-1.39-1,1.49-1.69,3.2-1.21,4.81,1.18,3.93,5.22,7.67,5.45,7.88v.02s0,0,.01-.01c0,0,.01,.01,.01,.01v-.02c.23-.21,4.27-3.94,5.45-7.88,.5-1.67-.26-3.45-1.32-4.98,1.53,1.06,3.31,1.83,4.98,1.33,3.93-1.18,7.67-5.22,7.88-5.45h.02s0,0-.01-.01c0,0,.01-.01,.01-.01h-.02c-.21-.23-3.94-4.27-7.88-5.45-1.67-.5-3.45,.26-4.98,1.32,.91-1.43,1.51-3.05,1.05-4.57-1.18-3.93-5.22-7.67-5.45-7.88v-.02s0,0-.01,.01c0,0-.01-.01-.01-.01v.02c-.23,.21-4.27,3.94-5.45,7.88-.46,1.53,.15,3.17,1.08,4.61-1.46-.95-3.12-1.59-4.67-1.12-3.93,1.18-7.67,5.22-7.88,5.45h-.02s0,0,.01,.01c0,0-.01,.01-.01,.01Z"/>
      </g>
    </g>
    <g>
      <g class="cls-1">
        <line class="cls-3" x1="1506.31" y1="1156.32" x2="1506.31" y2="280.36"/>
        <path class="cls-2" d="M1490.23,725h.02c.2,.22,3.71,4.01,7.4,5.12,1.6,.48,3.31-.27,4.77-1.3-.94,1.4-1.59,3.01-1.14,4.52,1.11,3.7,4.9,7.21,5.12,7.4v.02s0,0,0,0c0,0,.01,0,.01,0v-.02c.22-.2,4.01-3.71,5.12-7.4,.47-1.57-.24-3.24-1.24-4.68,1.44,1,3.11,1.72,4.68,1.25,3.7-1.11,7.21-4.9,7.4-5.12h.02s0,0,0,0c0,0,0-.01,0-.01h-.02c-.2-.22-3.71-4.01-7.4-5.12-1.57-.47-3.24,.24-4.68,1.24,.86-1.35,1.42-2.87,.99-4.29-1.11-3.7-4.9-7.21-5.12-7.4v-.02s0,0,0,0c0,0-.01,0-.01,0v.02c-.22,.2-4.01,3.71-5.12,7.4-.43,1.44,.14,2.98,1.02,4.33-1.37-.89-2.93-1.49-4.39-1.06-3.7,1.11-7.21,4.9-7.4,5.12h-.02s0,0,0,0c0,0,0,.01,0,.01Z"/>
        <path class="cls-2" d="M1490.23,453.45h.02c.2,.22,3.71,4.01,7.4,5.12,1.6,.48,3.31-.27,4.77-1.3-.94,1.4-1.59,3.01-1.14,4.52,1.11,3.7,4.9,7.21,5.12,7.4v.02s0,0,0,0c0,0,.01,0,.01,0v-.02c.22-.2,4.01-3.71,5.12-7.4,.47-1.57-.24-3.24-1.24-4.68,1.44,1,3.11,1.72,4.68,1.25,3.7-1.11,7.21-4.9,7.4-5.12h.02s0,0,0,0c0,0,0-.01,0-.01h-.02c-.2-.22-3.71-4.01-7.4-5.12-1.57-.47-3.24,.24-4.68,1.24,.86-1.35,1.42-2.87,.99-4.29-1.11-3.7-4.9-7.21-5.12-7.4v-.02s0,0,0,0c0,0-.01,0-.01,0v.02c-.22,.2-4.01,3.71-5.12,7.4-.43,1.44,.14,2.98,1.02,4.33-1.37-.89-2.93-1.49-4.39-1.06-3.7,1.11-7.21,4.9-7.4,5.12h-.02s0,0,0,0c0,0,0,.01,0,.01Z"/>
        <path class="cls-2" d="M1490.27,1039.83h.02c.2,.22,3.7,4,7.39,5.11,1.59,.48,3.3-.27,4.76-1.3-.94,1.4-1.59,3-1.14,4.51,1.11,3.69,4.89,7.19,5.11,7.39v.02s0,0,0,0c0,0,.01,0,.01,0v-.02c.22-.2,4-3.7,5.11-7.39,.47-1.56-.24-3.24-1.24-4.67,1.43,1,3.1,1.71,4.67,1.24,3.69-1.11,7.19-4.89,7.39-5.11h.02s0,0,0,0c0,0,0-.01,0-.01h-.02c-.2-.22-3.7-4-7.39-5.11-1.56-.47-3.24,.24-4.67,1.24,.86-1.34,1.42-2.86,.99-4.28-1.11-3.69-4.89-7.19-5.11-7.39v-.02s0,0,0,0c0,0-.01,0-.01,0v.02c-.22,.2-4,3.7-5.11,7.39-.43,1.44,.14,2.97,1.02,4.32-1.37-.89-2.92-1.49-4.38-1.05-3.69,1.11-7.19,4.89-7.39,5.11h-.02s0,0,0,0c0,0,0,.01,0,.01Z"/>
        <path class="cls-2" d="M1508.41,305.93s8.92-23.48,7.18-35.5c-1.75-12.03-16.1-9.51-18.43,0-2.33,9.51,7.95,37.06,7.95,37.06,0,0,1.5,6.11,3.3-1.55Z"/>
        <circle class="cls-2" cx="1506.31" cy="649.04" r="4.64"/>
        <circle class="cls-2" cx="1506.31" cy="596.22" r="4.64"/>
        <circle class="cls-2" cx="1506.31" cy="1002.77" r="4.64"/>
        <circle class="cls-2" cx="1506.31" cy="764.72" r="4.64"/>
        <circle class="cls-2" cx="1506.31" cy="622.63" r="7.42"/>
        <circle class="cls-2" cx="1506.31" cy="338.33" r="4.71"/>
        <circle class="cls-2" cx="1506.31" cy="370.02" r="8.04"/>
        <path class="cls-2" d="M1496.07,880.8c6.77-1.63,8.37-3.23,10-10,.06-.25,.42-.25,.48,0,1.63,6.77,3.23,8.37,10,10,.25,.06,.25,.42,0,.48-6.77,1.63-8.37,3.23-10,10-.06,.25-.42,.25-.48,0-1.63-6.77-3.23-8.37-10-10-.25-.06-.25-.42,0-.48Z"/>
        <path class="cls-2" d="M1499.22,501.26c4.69-1.13,5.8-2.24,6.93-6.93,.04-.18,.29-.18,.33,0,1.13,4.69,2.24,5.8,6.93,6.93,.18,.04,.18,.29,0,.33-4.69,1.13-5.8,2.24-6.93,6.93-.04,.18-.29,.18-.33,0-1.13-4.69-2.24-5.8-6.93-6.93-.18-.04-.18-.29,0-.33Z"/>
      </g>
      <g class="cls-1">
        <line class="cls-3" x1="1006.44" y1="1099.87" x2="1006.44" y2="223.91"/>
        <path class="cls-2" d="M990.36,668.55h.02c.2,.22,3.71,4.01,7.4,5.12,1.6,.48,3.31-.27,4.77-1.3-.94,1.4-1.59,3.01-1.14,4.52,1.11,3.7,4.9,7.21,5.12,7.4v.02s0,0,0,0c0,0,.01,0,.01,0v-.02c.22-.2,4.01-3.71,5.12-7.4,.47-1.57-.24-3.24-1.24-4.68,1.44,1,3.11,1.72,4.68,1.25,3.7-1.11,7.21-4.9,7.4-5.12h.02s0,0,0,0c0,0,0-.01,0-.01h-.02c-.2-.22-3.71-4.01-7.4-5.12-1.57-.47-3.24,.24-4.68,1.24,.86-1.35,1.42-2.87,.99-4.29-1.11-3.7-4.9-7.21-5.12-7.4v-.02s0,0,0,0c0,0-.01,0-.01,0v.02c-.22,.2-4.01,3.71-5.12,7.4-.43,1.44,.14,2.98,1.02,4.33-1.37-.89-2.93-1.49-4.39-1.06-3.7,1.11-7.21,4.9-7.4,5.12h-.02s0,0,0,0c0,0,0,.01,0,.01Z"/>
        <path class="cls-2" d="M990.36,397h.02c.2,.22,3.71,4.01,7.4,5.12,1.6,.48,3.31-.27,4.77-1.3-.94,1.4-1.59,3.01-1.14,4.52,1.11,3.7,4.9,7.21,5.12,7.4v.02s0,0,0,0c0,0,.01,0,.01,0v-.02c.22-.2,4.01-3.71,5.12-7.4,.47-1.57-.24-3.24-1.24-4.68,1.44,1,3.11,1.72,4.68,1.25,3.7-1.11,7.21-4.9,7.4-5.12h.02s0,0,0,0c0,0,0-.01,0-.01h-.02c-.2-.22-3.71-4.01-7.4-5.12-1.57-.47-3.24,.24-4.68,1.24,.86-1.35,1.42-2.87,.99-4.29-1.11-3.7-4.9-7.21-5.12-7.4v-.02s0,0,0,0c0,0-.01,0-.01,0v.02c-.22,.2-4.01,3.71-5.12,7.4-.43,1.44,.14,2.98,1.02,4.33-1.37-.89-2.93-1.49-4.39-1.06-3.7,1.11-7.21,4.9-7.4,5.12h-.02s0,0,0,0c0,0,0,.01,0,.01Z"/>
        <path class="cls-2" d="M990.39,983.38h.02c.2,.22,3.7,4,7.39,5.11,1.59,.48,3.3-.27,4.76-1.3-.94,1.4-1.59,3-1.14,4.51,1.11,3.69,4.89,7.19,5.11,7.39v.02s0,0,0,0c0,0,.01,0,.01,0v-.02c.22-.2,4-3.7,5.11-7.39,.47-1.56-.24-3.24-1.24-4.67,1.43,1,3.1,1.71,4.67,1.24,3.69-1.11,7.19-4.89,7.39-5.11h.02s0,0,0,0c0,0,0-.01,0-.01h-.02c-.2-.22-3.7-4-7.39-5.11-1.56-.47-3.24,.24-4.67,1.24,.86-1.34,1.42-2.86,.99-4.28-1.11-3.69-4.89-7.19-5.11-7.39v-.02s0,0,0,0c0,0-.01,0-.01,0v.02c-.22,.2-4,3.7-5.11,7.39-.43,1.44,.14,2.97,1.02,4.32-1.37-.89-2.92-1.49-4.38-1.05-3.69,1.11-7.19,4.89-7.39,5.11h-.02s0,0,0,0c0,0,0,.01,0,.01Z"/>
        <path class="cls-2" d="M1008.53,249.48s8.92-23.48,7.18-35.5c-1.75-12.03-16.1-9.51-18.43,0-2.33,9.51,7.95,37.06,7.95,37.06,0,0,1.5,6.11,3.3-1.55Z"/>
        <circle class="cls-2" cx="1006.44" cy="592.59" r="4.64"/>
        <circle class="cls-2" cx="1006.44" cy="539.77" r="4.64"/>
        <circle class="cls-2" cx="1006.44" cy="946.32" r="4.64"/>
        <circle class="cls-2" cx="1006.44" cy="708.26" r="4.64"/>
        <circle class="cls-2" cx="1006.44" cy="566.18" r="7.42"/>
        <circle class="cls-2" cx="1006.44" cy="281.88" r="4.71"/>
        <circle class="cls-2" cx="1006.44" cy="313.57" r="8.04"/>
        <path class="cls-2" d="M996.2,824.35c6.77-1.63,8.37-3.23,10-10,.06-.25,.42-.25,.48,0,1.63,6.77,3.23,8.37,10,10,.25,.06,.25,.42,0,.48-6.77,1.63-8.37,3.23-10,10-.06,.25-.42,.25-.48,0-1.63-6.77-3.23-8.37-10-10-.25-.06-.25-.42,0-.48Z"/>
        <path class="cls-2" d="M999.34,444.81c4.69-1.13,5.8-2.24,6.93-6.93,.04-.18,.29-.18,.33,0,1.13,4.69,2.24,5.8,6.93,6.93,.18,.04,.18,.29,0,.33-4.69,1.13-5.8,2.24-6.93,6.93-.04,.18-.29,.18-.33,0-1.13-4.69-2.24-5.8-6.93-6.93-.18-.04-.18-.29,0-.33Z"/>
      </g>
      <g class="cls-1">
        <line class="cls-3" x1="1256.38" y1="1186.82" x2="1256.38" y2="310.86"/>
        <path class="cls-2" d="M1240.29,755.5h.02c.2,.22,3.71,4.01,7.4,5.12,1.6,.48,3.31-.27,4.77-1.3-.94,1.4-1.59,3.01-1.14,4.52,1.11,3.7,4.9,7.21,5.12,7.4v.02s0,0,0,0c0,0,.01,0,.01,0v-.02c.22-.2,4.01-3.71,5.12-7.4,.47-1.57-.24-3.24-1.24-4.68,1.44,1,3.11,1.72,4.68,1.25,3.7-1.11,7.21-4.9,7.4-5.12h.02s0,0,0,0c0,0,0-.01,0-.01h-.02c-.2-.22-3.71-4.01-7.4-5.12-1.57-.47-3.24,.24-4.68,1.24,.86-1.35,1.42-2.87,.99-4.29-1.11-3.7-4.9-7.21-5.12-7.4v-.02s0,0,0,0c0,0-.01,0-.01,0v.02c-.22,.2-4.01,3.71-5.12,7.4-.43,1.44,.14,2.98,1.02,4.33-1.37-.89-2.93-1.49-4.39-1.06-3.7,1.11-7.21,4.9-7.4,5.12h-.02s0,0,0,0c0,0,0,.01,0,.01Z"/>
        <path class="cls-2" d="M1240.29,483.95h.02c.2,.22,3.71,4.01,7.4,5.12,1.6,.48,3.31-.27,4.77-1.3-.94,1.4-1.59,3.01-1.14,4.52,1.11,3.7,4.9,7.21,5.12,7.4v.02s0,0,0,0c0,0,.01,0,.01,0v-.02c.22-.2,4.01-3.71,5.12-7.4,.47-1.57-.24-3.24-1.24-4.68,1.44,1,3.11,1.72,4.68,1.25,3.7-1.11,7.21-4.9,7.4-5.12h.02s0,0,0,0c0,0,0-.01,0-.01h-.02c-.2-.22-3.71-4.01-7.4-5.12-1.57-.47-3.24,.24-4.68,1.24,.86-1.35,1.42-2.87,.99-4.29-1.11-3.7-4.9-7.21-5.12-7.4v-.02s0,0,0,0c0,0-.01,0-.01,0v.02c-.22,.2-4.01,3.71-5.12,7.4-.43,1.44,.14,2.98,1.02,4.33-1.37-.89-2.93-1.49-4.39-1.06-3.7,1.11-7.21,4.9-7.4,5.12h-.02s0,0,0,0c0,0,0,.01,0,.01Z"/>
        <path class="cls-2" d="M1240.33,1070.33h.02c.2,.22,3.7,4,7.39,5.11,1.59,.48,3.3-.27,4.76-1.3-.94,1.4-1.59,3-1.14,4.51,1.11,3.69,4.89,7.19,5.11,7.39v.02s0,0,0,0c0,0,.01,0,.01,0v-.02c.22-.2,4-3.7,5.11-7.39,.47-1.56-.24-3.24-1.24-4.67,1.43,1,3.1,1.71,4.67,1.24,3.69-1.11,7.19-4.89,7.39-5.11h.02s0,0,0,0c0,0,0-.01,0-.01h-.02c-.2-.22-3.7-4-7.39-5.11-1.56-.47-3.24,.24-4.67,1.24,.86-1.34,1.42-2.86,.99-4.28-1.11-3.69-4.89-7.19-5.11-7.39v-.02s0,0,0,0c0,0-.01,0-.01,0v.02c-.22,.2-4,3.7-5.11,7.39-.43,1.44,.14,2.97,1.02,4.32-1.37-.89-2.92-1.49-4.38-1.05-3.69,1.11-7.19,4.89-7.39,5.11h-.02s0,0,0,0c0,0,0,.01,0,.01Z"/>
        <path class="cls-2" d="M1258.47,336.43s8.92-23.48,7.18-35.5c-1.75-12.03-16.1-9.51-18.43,0-2.33,9.51,7.95,37.06,7.95,37.06,0,0,1.5,6.11,3.3-1.55Z"/>
        <circle class="cls-2" cx="1256.38" cy="679.54" r="4.64"/>
        <circle class="cls-2" cx="1256.38" cy="626.72" r="4.64"/>
        <circle class="cls-2" cx="1256.38" cy="1033.27" r="4.64"/>
        <circle class="cls-2" cx="1256.38" cy="795.21" r="4.64"/>
        <circle class="cls-2" cx="1256.38" cy="653.13" r="7.42"/>
        <circle class="cls-2" cx="1256.38" cy="368.83" r="4.71"/>
        <circle class="cls-2" cx="1256.38" cy="400.52" r="8.04"/>
        <path class="cls-2" d="M1246.13,911.3c6.77-1.63,8.37-3.23,10-10,.06-.25,.42-.25,.48,0,1.63,6.77,3.23,8.37,10,10,.25,.06,.25,.42,0,.48-6.77,1.63-8.37,3.23-10,10-.06,.25-.42,.25-.48,0-1.63-6.77-3.23-8.37-10-10-.25-.06-.25-.42,0-.48Z"/>
        <path class="cls-2" d="M1249.28,531.76c4.69-1.13,5.8-2.24,6.93-6.93,.04-.18,.29-.18,.33,0,1.13,4.69,2.24,5.8,6.93,6.93,.18,.04,.18,.29,0,.33-4.69,1.13-5.8,2.24-6.93,6.93-.04,.18-.29,.18-.33,0-1.13-4.69-2.24-5.8-6.93-6.93-.18-.04-.18-.29,0-.33Z"/>
      </g>
      <g class="cls-1">
        <line class="cls-3" x1="1840.25" y1="1090.1" x2="1840.25" y2="214.14"/>
        <path class="cls-2" d="M1824.17,658.78h.02c.2,.22,3.71,4.01,7.4,5.12,1.6,.48,3.31-.27,4.77-1.3-.94,1.4-1.59,3.01-1.14,4.52,1.11,3.7,4.9,7.21,5.12,7.4v.02s0,0,0,0c0,0,.01,0,.01,0v-.02c.22-.2,4.01-3.71,5.12-7.4,.47-1.57-.24-3.24-1.24-4.68,1.44,1,3.11,1.72,4.68,1.25,3.7-1.11,7.21-4.9,7.4-5.12h.02s0,0,0,0c0,0,0-.01,0-.01h-.02c-.2-.22-3.71-4.01-7.4-5.12-1.57-.47-3.24,.24-4.68,1.24,.86-1.35,1.42-2.87,.99-4.29-1.11-3.7-4.9-7.21-5.12-7.4v-.02s0,0,0,0c0,0-.01,0-.01,0v.02c-.22,.2-4.01,3.71-5.12,7.4-.43,1.44,.14,2.98,1.02,4.33-1.37-.89-2.93-1.49-4.39-1.06-3.7,1.11-7.21,4.9-7.4,5.12h-.02s0,0,0,0c0,0,0,.01,0,.01Z"/>
        <path class="cls-2" d="M1824.17,387.23h.02c.2,.22,3.71,4.01,7.4,5.12,1.6,.48,3.31-.27,4.77-1.3-.94,1.4-1.59,3.01-1.14,4.52,1.11,3.7,4.9,7.21,5.12,7.4v.02s0,0,0,0c0,0,.01,0,.01,0v-.02c.22-.2,4.01-3.71,5.12-7.4,.47-1.57-.24-3.24-1.24-4.68,1.44,1,3.11,1.72,4.68,1.25,3.7-1.11,7.21-4.9,7.4-5.12h.02s0,0,0,0c0,0,0-.01,0-.01h-.02c-.2-.22-3.71-4.01-7.4-5.12-1.57-.47-3.24,.24-4.68,1.24,.86-1.35,1.42-2.87,.99-4.29-1.11-3.7-4.9-7.21-5.12-7.4v-.02s0,0,0,0c0,0-.01,0-.01,0v.02c-.22,.2-4.01,3.71-5.12,7.4-.43,1.44,.14,2.98,1.02,4.33-1.37-.89-2.93-1.49-4.39-1.06-3.7,1.11-7.21,4.9-7.4,5.12h-.02s0,0,0,0c0,0,0,.01,0,.01Z"/>
        <path class="cls-2" d="M1824.2,973.61h.02c.2,.22,3.7,4,7.39,5.11,1.59,.48,3.3-.27,4.76-1.3-.94,1.4-1.59,3-1.14,4.51,1.11,3.69,4.89,7.19,5.11,7.39v.02s0,0,0,0c0,0,.01,0,.01,0v-.02c.22-.2,4-3.7,5.11-7.39,.47-1.56-.24-3.24-1.24-4.67,1.43,1,3.1,1.71,4.67,1.24,3.69-1.11,7.19-4.89,7.39-5.11h.02s0,0,0,0c0,0,0-.01,0-.01h-.02c-.2-.22-3.7-4-7.39-5.11-1.56-.47-3.24,.24-4.67,1.24,.86-1.34,1.42-2.86,.99-4.28-1.11-3.69-4.89-7.19-5.11-7.39v-.02s0,0,0,0c0,0-.01,0-.01,0v.02c-.22,.2-4,3.7-5.11,7.39-.43,1.44,.14,2.97,1.02,4.32-1.37-.89-2.92-1.49-4.38-1.05-3.69,1.11-7.19,4.89-7.39,5.11h-.02s0,0,0,0c0,0,0,.01,0,.01Z"/>
        <path class="cls-2" d="M1842.35,239.71s8.92-23.48,7.18-35.5c-1.75-12.03-16.1-9.51-18.43,0-2.33,9.51,7.95,37.06,7.95,37.06,0,0,1.5,6.11,3.3-1.55Z"/>
        <circle class="cls-2" cx="1840.25" cy="582.82" r="4.64"/>
        <circle class="cls-2" cx="1840.25" cy="530" r="4.64"/>
        <circle class="cls-2" cx="1840.25" cy="936.55" r="4.64"/>
        <circle class="cls-2" cx="1840.25" cy="698.5" r="4.64"/>
        <circle class="cls-2" cx="1840.25" cy="556.41" r="7.42"/>
        <circle class="cls-2" cx="1840.25" cy="272.11" r="4.71"/>
        <circle class="cls-2" cx="1840.25" cy="303.8" r="8.04"/>
        <path class="cls-2" d="M1830.01,814.58c6.77-1.63,8.37-3.23,10-10,.06-.25,.42-.25,.48,0,1.63,6.77,3.23,8.37,10,10,.25,.06,.25,.42,0,.48-6.77,1.63-8.37,3.23-10,10-.06,.25-.42,.25-.48,0-1.63-6.77-3.23-8.37-10-10-.25-.06-.25-.42,0-.48Z"/>
        <path class="cls-2" d="M1833.15,435.04c4.69-1.13,5.8-2.24,6.93-6.93,.04-.18,.29-.18,.33,0,1.13,4.69,2.24,5.8,6.93,6.93,.18,.04,.18,.29,0,.33-4.69,1.13-5.8,2.24-6.93,6.93-.04,.18-.29,.18-.33,0-1.13-4.69-2.24-5.8-6.93-6.93-.18-.04-.18-.29,0-.33Z"/>
      </g>
      <g class="cls-1">
        <line class="cls-3" x1="1423.34" y1="1102.49" x2="1423.34" y2="528.94"/>
        <path class="cls-2" d="M1424.68,547.15s5.69-14.98,4.58-22.66c-1.11-7.68-10.28-6.07-11.76,0-1.49,6.07,5.08,23.65,5.08,23.65,0,0,.96,3.9,2.1-.99Z"/>
        <path class="cls-2" d="M1424.51,919.75s4.96-13.06,3.99-19.74c-.97-6.69-8.96-5.29-10.25,0-1.29,5.29,4.42,20.61,4.42,20.61,0,0,.84,3.4,1.83-.86Z"/>
        <path class="cls-2" d="M1414.46,627.57c5.87-1.41,7.26-2.8,8.67-8.67,.05-.22,.37-.22,.42,0,1.41,5.87,2.8,7.26,8.67,8.67,.22,.05,.22,.37,0,.42-5.87,1.41-7.26,2.8-8.67,8.67-.05,.22-.37,.22-.42,0-1.41-5.87-2.8-7.26-8.67-8.67-.22-.05-.22-.37,0-.42Z"/>
        <path class="cls-2" d="M1414.46,969.04c5.87-1.41,7.26-2.8,8.67-8.67,.05-.22,.37-.22,.42,0,1.41,5.87,2.8,7.26,8.67,8.67,.22,.05,.22,.37,0,.42-5.87,1.41-7.26,2.8-8.67,8.67-.05,.22-.37,.22-.42,0-1.41-5.87-2.8-7.26-8.67-8.67-.22-.05-.22-.37,0-.42Z"/>
        <circle class="cls-2" cx="1423.34" cy="772.67" r="4.93"/>
        <circle class="cls-2" cx="1423.34" cy="1035.46" r="4.93"/>
        <circle class="cls-2" cx="1423.34" cy="1014.48" r="2.82"/>
        <circle class="cls-2" cx="1423.34" cy="789.4" r="2.82"/>
        <circle class="cls-2" cx="1423.34" cy="757.56" r="2.82"/>
        <circle class="cls-2" cx="1423.34" cy="587.07" r="2.82"/>
        <circle class="cls-2" cx="1423.34" cy="578.29" r="2.82"/>
        <circle class="cls-2" cx="1423.34" cy="569.52" r="2.82"/>
        <path class="cls-2" d="M1410.42,680.13h.02c.16,.17,2.98,3.22,5.95,4.11,1.28,.39,2.66-.22,3.83-1.05-.76,1.13-1.28,2.42-.92,3.63,.89,2.97,3.94,5.79,4.11,5.95v.02s0,0,0,0c0,0,0,0,0,0v-.02c.17-.16,3.22-2.98,4.11-5.95,.38-1.26-.19-2.61-1-3.76,1.16,.8,2.5,1.38,3.76,1,2.97-.89,5.79-3.94,5.95-4.11h.02s0,0,0,0c0,0,0,0,0,0h-.02c-.16-.17-2.98-3.22-5.95-4.11-1.26-.38-2.61,.19-3.76,1,.69-1.08,1.14-2.3,.8-3.45-.89-2.97-3.94-5.79-4.11-5.95v-.02s0,0,0,0c0,0,0,0,0,0v.02c-.17,.16-3.22,2.98-4.11,5.95-.35,1.16,.12,2.39,.82,3.48-1.1-.72-2.35-1.2-3.53-.85-2.97,.89-5.79,3.94-5.95,4.11h-.02s0,0,0,0c0,0,0,0,0,0Z"/>
        <path class="cls-2" d="M1406.23,859.99h.02c.21,.23,3.94,4.27,7.88,5.45,1.7,.51,3.52-.29,5.07-1.39-1,1.49-1.69,3.2-1.21,4.81,1.18,3.93,5.22,7.67,5.45,7.88v.02s0,0,.01-.01c0,0,.01,.01,.01,.01v-.02c.23-.21,4.27-3.94,5.45-7.88,.5-1.67-.26-3.45-1.32-4.98,1.53,1.06,3.31,1.83,4.98,1.33,3.93-1.18,7.67-5.22,7.88-5.45h.02s0,0-.01-.01c0,0,.01-.01,.01-.01h-.02c-.21-.23-3.94-4.27-7.88-5.45-1.67-.5-3.45,.26-4.98,1.32,.91-1.43,1.51-3.05,1.05-4.57-1.18-3.93-5.22-7.67-5.45-7.88v-.02s0,0-.01,.01c0,0-.01-.01-.01-.01v.02c-.23,.21-4.27,3.94-5.45,7.88-.46,1.53,.15,3.17,1.08,4.61-1.46-.95-3.12-1.59-4.67-1.12-3.93,1.18-7.67,5.22-7.88,5.45h-.02s0,0,.01,.01c0,0-.01,.01-.01,.01Z"/>
      </g>
      <g class="cls-1">
        <line class="cls-3" x1="1173.41" y1="1176.81" x2="1173.41" y2="603.26"/>
        <path class="cls-2" d="M1174.74,621.47s5.69-14.98,4.58-22.66-10.28-6.07-11.76,0c-1.49,6.07,5.08,23.65,5.08,23.65,0,0,.96,3.9,2.1-.99Z"/>
        <path class="cls-2" d="M1174.57,994.07s4.96-13.06,3.99-19.74c-.97-6.69-8.96-5.29-10.25,0s4.42,20.61,4.42,20.61c0,0,.84,3.4,1.83-.86Z"/>
        <path class="cls-2" d="M1164.53,701.89c5.87-1.41,7.26-2.8,8.67-8.67,.05-.22,.37-.22,.42,0,1.41,5.87,2.8,7.26,8.67,8.67,.22,.05,.22,.37,0,.42-5.87,1.41-7.26,2.8-8.67,8.67-.05,.22-.37,.22-.42,0-1.41-5.87-2.8-7.26-8.67-8.67-.22-.05-.22-.37,0-.42Z"/>
        <path class="cls-2" d="M1164.53,1043.36c5.87-1.41,7.26-2.8,8.67-8.67,.05-.22,.37-.22,.42,0,1.41,5.87,2.8,7.26,8.67,8.67,.22,.05,.22,.37,0,.42-5.87,1.41-7.26,2.8-8.67,8.67-.05,.22-.37,.22-.42,0-1.41-5.87-2.8-7.26-8.67-8.67-.22-.05-.22-.37,0-.42Z"/>
        <circle class="cls-2" cx="1173.41" cy="846.99" r="4.93"/>
        <circle class="cls-2" cx="1173.41" cy="1109.78" r="4.93"/>
        <circle class="cls-2" cx="1173.41" cy="1088.8" r="2.82"/>
        <circle class="cls-2" cx="1173.41" cy="863.72" r="2.82"/>
        <circle class="cls-2" cx="1173.41" cy="831.88" r="2.82"/>
        <circle class="cls-2" cx="1173.41" cy="661.38" r="2.82"/>
        <circle class="cls-2" cx="1173.41" cy="652.61" r="2.82"/>
        <circle class="cls-2" cx="1173.41" cy="643.84" r="2.82"/>
        <path class="cls-2" d="M1160.48,754.45h.02c.16,.17,2.98,3.22,5.95,4.11,1.28,.39,2.66-.22,3.83-1.05-.76,1.13-1.28,2.42-.92,3.63,.89,2.97,3.94,5.79,4.11,5.95v.02s0,0,0,0c0,0,0,0,0,0v-.02c.17-.16,3.22-2.98,4.11-5.95,.38-1.26-.19-2.61-1-3.76,1.16,.8,2.5,1.38,3.76,1,2.97-.89,5.79-3.94,5.95-4.11h.02s0,0,0,0c0,0,0,0,0,0h-.02c-.16-.17-2.98-3.22-5.95-4.11-1.26-.38-2.61,.19-3.76,1,.69-1.08,1.14-2.3,.8-3.45-.89-2.97-3.94-5.79-4.11-5.95v-.02s0,0,0,0c0,0,0,0,0,0v.02c-.17,.16-3.22,2.98-4.11,5.95-.35,1.16,.12,2.39,.82,3.48-1.1-.72-2.35-1.2-3.53-.85-2.97,.89-5.79,3.94-5.95,4.11h-.02s0,0,0,0c0,0,0,0,0,0Z"/>
        <path class="cls-2" d="M1156.29,934.31h.02c.21,.23,3.94,4.27,7.88,5.45,1.7,.51,3.52-.29,5.07-1.39-1,1.49-1.69,3.2-1.21,4.81,1.18,3.93,5.22,7.67,5.45,7.88v.02s0,0,.01-.01c0,0,.01,.01,.01,.01v-.02c.23-.21,4.27-3.94,5.45-7.88,.5-1.67-.26-3.45-1.32-4.98,1.53,1.06,3.31,1.83,4.98,1.33,3.93-1.18,7.67-5.22,7.88-5.45h.02s0,0-.01-.01c0,0,.01-.01,.01-.01h-.02c-.21-.23-3.94-4.27-7.88-5.45-1.67-.5-3.45,.26-4.98,1.32,.91-1.43,1.51-3.05,1.05-4.57-1.18-3.93-5.22-7.67-5.45-7.88v-.02s0,0-.01,.01c0,0-.01-.01-.01-.01v.02c-.23,.21-4.27,3.94-5.45,7.88-.46,1.53,.15,3.17,1.08,4.61-1.46-.95-3.12-1.59-4.67-1.12-3.93,1.18-7.67,5.22-7.88,5.45h-.02s0,0,.01,.01c0,0-.01,.01-.01,.01Z"/>
      </g>
      <g class="cls-1">
        <line class="cls-3" x1="1673.28" y1="1176.81" x2="1673.28" y2="603.26"/>
        <path class="cls-2" d="M1674.62,621.47s5.69-14.98,4.58-22.66c-1.11-7.68-10.28-6.07-11.76,0s5.08,23.65,5.08,23.65c0,0,.96,3.9,2.1-.99Z"/>
        <path class="cls-2" d="M1674.45,994.07s4.96-13.06,3.99-19.74c-.97-6.69-8.96-5.29-10.25,0-1.29,5.29,4.42,20.61,4.42,20.61,0,0,.84,3.4,1.83-.86Z"/>
        <path class="cls-2" d="M1664.4,701.89c5.87-1.41,7.26-2.8,8.67-8.67,.05-.22,.37-.22,.42,0,1.41,5.87,2.8,7.26,8.67,8.67,.22,.05,.22,.37,0,.42-5.87,1.41-7.26,2.8-8.67,8.67-.05,.22-.37,.22-.42,0-1.41-5.87-2.8-7.26-8.67-8.67-.22-.05-.22-.37,0-.42Z"/>
        <path class="cls-2" d="M1664.4,1043.36c5.87-1.41,7.26-2.8,8.67-8.67,.05-.22,.37-.22,.42,0,1.41,5.87,2.8,7.26,8.67,8.67,.22,.05,.22,.37,0,.42-5.87,1.41-7.26,2.8-8.67,8.67-.05,.22-.37,.22-.42,0-1.41-5.87-2.8-7.26-8.67-8.67-.22-.05-.22-.37,0-.42Z"/>
        <circle class="cls-2" cx="1673.28" cy="846.99" r="4.93"/>
        <circle class="cls-2" cx="1673.28" cy="1109.78" r="4.93"/>
        <circle class="cls-2" cx="1673.28" cy="1088.8" r="2.82"/>
        <circle class="cls-2" cx="1673.28" cy="863.72" r="2.82"/>
        <circle class="cls-2" cx="1673.28" cy="831.88" r="2.82"/>
        <circle class="cls-2" cx="1673.28" cy="661.38" r="2.82"/>
        <circle class="cls-2" cx="1673.28" cy="652.61" r="2.82"/>
        <circle class="cls-2" cx="1673.28" cy="643.84" r="2.82"/>
        <path class="cls-2" d="M1660.36,754.45h.02c.16,.17,2.98,3.22,5.95,4.11,1.28,.39,2.66-.22,3.83-1.05-.76,1.13-1.28,2.42-.92,3.63,.89,2.97,3.94,5.79,4.11,5.95v.02s0,0,0,0c0,0,0,0,0,0v-.02c.17-.16,3.22-2.98,4.11-5.95,.38-1.26-.19-2.61-1-3.76,1.16,.8,2.5,1.38,3.76,1,2.97-.89,5.79-3.94,5.95-4.11h.02s0,0,0,0c0,0,0,0,0,0h-.02c-.16-.17-2.98-3.22-5.95-4.11-1.26-.38-2.61,.19-3.76,1,.69-1.08,1.14-2.3,.8-3.45-.89-2.97-3.94-5.79-4.11-5.95v-.02s0,0,0,0c0,0,0,0,0,0v.02c-.17,.16-3.22,2.98-4.11,5.95-.35,1.16,.12,2.39,.82,3.48-1.1-.72-2.35-1.2-3.53-.85-2.97,.89-5.79,3.94-5.95,4.11h-.02s0,0,0,0c0,0,0,0,0,0Z"/>
        <path class="cls-2" d="M1656.17,934.31h.02c.21,.23,3.94,4.27,7.88,5.45,1.7,.51,3.52-.29,5.07-1.39-1,1.49-1.69,3.2-1.21,4.81,1.18,3.93,5.22,7.67,5.45,7.88v.02s0,0,.01-.01c0,0,.01,.01,.01,.01v-.02c.23-.21,4.27-3.94,5.45-7.88,.5-1.67-.26-3.45-1.32-4.98,1.53,1.06,3.31,1.83,4.98,1.33,3.93-1.18,7.67-5.22,7.88-5.45h.02s0,0-.01-.01c0,0,.01-.01,.01-.01h-.02c-.21-.23-3.94-4.27-7.88-5.45-1.67-.5-3.45,.26-4.98,1.32,.91-1.43,1.51-3.05,1.05-4.57-1.18-3.93-5.22-7.67-5.45-7.88v-.02s0,0-.01,.01c0,0-.01-.01-.01-.01v.02c-.23,.21-4.27,3.94-5.45,7.88-.46,1.53,.15,3.17,1.08,4.61-1.46-.95-3.12-1.59-4.67-1.12-3.93,1.18-7.67,5.22-7.88,5.45h-.02s0,0,.01,.01c0,0-.01,.01-.01,.01Z"/>
      </g>
      <g class="cls-1">
        <line class="cls-3" x1="1339.34" y1="1102.12" x2="1339.34" y2="420.45"/>
        <path class="cls-2" d="M1340.68,439.55s5.69-14.98,4.58-22.66c-1.11-7.68-10.28-6.07-11.76,0-1.49,6.07,5.08,23.65,5.08,23.65,0,0,.96,3.9,2.1-.99Z"/>
        <path class="cls-2" d="M1340.51,713.08s4.96-13.06,3.99-19.74c-.97-6.69-8.96-5.29-10.25,0-1.29,5.29,4.42,20.61,4.42,20.61,0,0,.84,3.4,1.83-.86Z"/>
        <path class="cls-2" d="M1330.46,593.85c5.87-1.41,7.26-2.8,8.67-8.67,.05-.22,.37-.22,.42,0,1.41,5.87,2.8,7.26,8.67,8.67,.22,.05,.22,.37,0,.42-5.87,1.41-7.26,2.8-8.67,8.67-.05,.22-.37,.22-.42,0-1.41-5.87-2.8-7.26-8.67-8.67-.22-.05-.22-.37,0-.42Z"/>
        <path class="cls-2" d="M1330.46,849.17c5.87-1.41,7.26-2.8,8.67-8.67,.05-.22,.37-.22,.42,0,1.41,5.87,2.8,7.26,8.67,8.67,.22,.05,.22,.37,0,.42-5.87,1.41-7.26,2.8-8.67,8.67-.05,.22-.37,.22-.42,0-1.41-5.87-2.8-7.26-8.67-8.67-.22-.05-.22-.37,0-.42Z"/>
        <circle class="cls-2" cx="1339.34" cy="779.2" r="4.93"/>
        <circle class="cls-2" cx="1339.34" cy="1011.64" r="4.93"/>
        <circle class="cls-2" cx="1339.34" cy="982.92" r="2.82"/>
        <circle class="cls-2" cx="1339.34" cy="1040.36" r="2.82"/>
        <circle class="cls-2" cx="1339.34" cy="739.08" r="2.82"/>
        <circle class="cls-2" cx="1339.34" cy="489.89" r="2.82"/>
        <circle class="cls-2" cx="1339.34" cy="757.47" r="2.82"/>
        <path class="cls-2" d="M1326.42,551.39h.02c.16,.17,2.98,3.22,5.95,4.11,1.28,.39,2.66-.22,3.83-1.05-.76,1.13-1.28,2.42-.92,3.63,.89,2.97,3.94,5.79,4.11,5.95v.02s0,0,0,0c0,0,0,0,0,0v-.02c.17-.16,3.22-2.98,4.11-5.95,.38-1.26-.19-2.61-1-3.76,1.16,.8,2.5,1.38,3.76,1,2.97-.89,5.79-3.94,5.95-4.11h.02s0,0,0,0c0,0,0,0,0,0h-.02c-.16-.17-2.98-3.22-5.95-4.11-1.26-.38-2.61,.19-3.76,1,.69-1.08,1.14-2.3,.8-3.45-.89-2.97-3.94-5.79-4.11-5.95v-.02s0,0,0,0c0,0,0,0,0,0v.02c-.17,.16-3.22,2.98-4.11,5.95-.35,1.16,.12,2.39,.82,3.48-1.1-.72-2.35-1.2-3.53-.85-2.97,.89-5.79,3.94-5.95,4.11h-.02s0,0,0,0c0,0,0,0,0,0Z"/>
        <path class="cls-2" d="M1322.23,913.75h.02c.21,.23,3.94,4.27,7.88,5.45,1.7,.51,3.52-.29,5.07-1.39-1,1.49-1.69,3.2-1.21,4.81,1.18,3.93,5.22,7.67,5.45,7.88v.02s0,0,.01-.01c0,0,.01,.01,.01,.01v-.02c.23-.21,4.27-3.94,5.45-7.88,.5-1.67-.26-3.45-1.32-4.98,1.53,1.06,3.31,1.83,4.98,1.33,3.93-1.18,7.67-5.22,7.88-5.45h.02s0,0-.01-.01c0,0,.01-.01,.01-.01h-.02c-.21-.23-3.94-4.27-7.88-5.45-1.67-.5-3.45,.26-4.98,1.32,.91-1.43,1.51-3.05,1.05-4.57-1.18-3.93-5.22-7.67-5.45-7.88v-.02s0,0-.01,.01c0,0-.01-.01-.01-.01v.02c-.23,.21-4.27,3.94-5.45,7.88-.46,1.53,.15,3.17,1.08,4.61-1.46-.95-3.12-1.59-4.67-1.12-3.93,1.18-7.67,5.22-7.88,5.45h-.02s0,0,.01,.01c0,0-.01,.01-.01,.01Z"/>
      </g>
      <g class="cls-1">
        <line class="cls-3" x1="1589.28" y1="1087.96" x2="1589.28" y2="406.28"/>
        <path class="cls-2" d="M1590.62,425.38s5.69-14.98,4.58-22.66c-1.11-7.68-10.28-6.07-11.76,0-1.49,6.07,5.08,23.65,5.08,23.65,0,0,.96,3.9,2.1-.99Z"/>
        <path class="cls-2" d="M1590.45,698.92s4.96-13.06,3.99-19.74-8.96-5.29-10.25,0c-1.29,5.29,4.42,20.61,4.42,20.61,0,0,.84,3.4,1.83-.86Z"/>
        <path class="cls-2" d="M1580.4,579.69c5.87-1.41,7.26-2.8,8.67-8.67,.05-.22,.37-.22,.42,0,1.41,5.87,2.8,7.26,8.67,8.67,.22,.05,.22,.37,0,.42-5.87,1.41-7.26,2.8-8.67,8.67-.05,.22-.37,.22-.42,0-1.41-5.87-2.8-7.26-8.67-8.67-.22-.05-.22-.37,0-.42Z"/>
        <path class="cls-2" d="M1580.4,835.01c5.87-1.41,7.26-2.8,8.67-8.67,.05-.22,.37-.22,.42,0,1.41,5.87,2.8,7.26,8.67,8.67,.22,.05,.22,.37,0,.42-5.87,1.41-7.26,2.8-8.67,8.67-.05,.22-.37,.22-.42,0-1.41-5.87-2.8-7.26-8.67-8.67-.22-.05-.22-.37,0-.42Z"/>
        <circle class="cls-2" cx="1589.28" cy="765.03" r="4.93"/>
        <circle class="cls-2" cx="1589.28" cy="997.48" r="4.93"/>
        <circle class="cls-2" cx="1589.28" cy="968.76" r="2.82"/>
        <circle class="cls-2" cx="1589.28" cy="1026.2" r="2.82"/>
        <circle class="cls-2" cx="1589.28" cy="724.92" r="2.82"/>
        <circle class="cls-2" cx="1589.28" cy="475.73" r="2.82"/>
        <circle class="cls-2" cx="1589.28" cy="743.3" r="2.82"/>
        <path class="cls-2" d="M1576.36,537.22h.02c.16,.17,2.98,3.22,5.95,4.11,1.28,.39,2.66-.22,3.83-1.05-.76,1.13-1.28,2.42-.92,3.63,.89,2.97,3.94,5.79,4.11,5.95v.02s0,0,0,0c0,0,0,0,0,0v-.02c.17-.16,3.22-2.98,4.11-5.95,.38-1.26-.19-2.61-1-3.76,1.16,.8,2.5,1.38,3.76,1,2.97-.89,5.79-3.94,5.95-4.11h.02s0,0,0,0c0,0,0,0,0,0h-.02c-.16-.17-2.98-3.22-5.95-4.11-1.26-.38-2.61,.19-3.76,1,.69-1.08,1.14-2.3,.8-3.45-.89-2.97-3.94-5.79-4.11-5.95v-.02s0,0,0,0c0,0,0,0,0,0v.02c-.17,.16-3.22,2.98-4.11,5.95-.35,1.16,.12,2.39,.82,3.48-1.1-.72-2.35-1.2-3.53-.85-2.97,.89-5.79,3.94-5.95,4.11h-.02s0,0,0,0c0,0,0,0,0,0Z"/>
        <path class="cls-2" d="M1572.17,899.58h.02c.21,.23,3.94,4.27,7.88,5.45,1.7,.51,3.52-.29,5.07-1.39-1,1.49-1.69,3.2-1.21,4.81,1.18,3.93,5.22,7.67,5.45,7.88v.02s0,0,.01-.01c0,0,.01,.01,.01,.01v-.02c.23-.21,4.27-3.94,5.45-7.88,.5-1.67-.26-3.45-1.32-4.98,1.53,1.06,3.31,1.83,4.98,1.33,3.93-1.18,7.67-5.22,7.88-5.45h.02s0,0-.01-.01c0,0,.01-.01,.01-.01h-.02c-.21-.23-3.94-4.27-7.88-5.45-1.67-.5-3.45,.26-4.98,1.32,.91-1.43,1.51-3.05,1.05-4.57-1.18-3.93-5.22-7.67-5.45-7.88v-.02s0,0-.01,.01c0,0-.01-.01-.01-.01v.02c-.23,.21-4.27,3.94-5.45,7.88-.46,1.53,.15,3.17,1.08,4.61-1.46-.95-3.12-1.59-4.67-1.12-3.93,1.18-7.67,5.22-7.88,5.45h-.02s0,0,.01,.01c0,0-.01,.01-.01,.01Z"/>
      </g>
      <g class="cls-1">
        <line class="cls-3" x1="1757.28" y1="1144.64" x2="1757.28" y2="462.97"/>
        <path class="cls-2" d="M1758.62,482.07s5.69-14.98,4.58-22.66c-1.11-7.68-10.28-6.07-11.76,0-1.49,6.07,5.08,23.65,5.08,23.65,0,0,.96,3.9,2.1-.99Z"/>
        <path class="cls-2" d="M1758.45,755.61s4.96-13.06,3.99-19.74c-.97-6.69-8.96-5.29-10.25,0-1.29,5.29,4.42,20.61,4.42,20.61,0,0,.84,3.4,1.83-.86Z"/>
        <path class="cls-2" d="M1748.4,636.38c5.87-1.41,7.26-2.8,8.67-8.67,.05-.22,.37-.22,.42,0,1.41,5.87,2.8,7.26,8.67,8.67,.22,.05,.22,.37,0,.42-5.87,1.41-7.26,2.8-8.67,8.67-.05,.22-.37,.22-.42,0-1.41-5.87-2.8-7.26-8.67-8.67-.22-.05-.22-.37,0-.42Z"/>
        <path class="cls-2" d="M1748.4,891.7c5.87-1.41,7.26-2.8,8.67-8.67,.05-.22,.37-.22,.42,0,1.41,5.87,2.8,7.26,8.67,8.67,.22,.05,.22,.37,0,.42-5.87,1.41-7.26,2.8-8.67,8.67-.05,.22-.37,.22-.42,0-1.41-5.87-2.8-7.26-8.67-8.67-.22-.05-.22-.37,0-.42Z"/>
        <circle class="cls-2" cx="1757.28" cy="821.72" r="4.93"/>
        <circle class="cls-2" cx="1757.28" cy="1054.16" r="4.93"/>
        <circle class="cls-2" cx="1757.28" cy="1025.44" r="2.82"/>
        <circle class="cls-2" cx="1757.28" cy="1082.88" r="2.82"/>
        <circle class="cls-2" cx="1757.28" cy="781.61" r="2.82"/>
        <circle class="cls-2" cx="1757.28" cy="532.42" r="2.82"/>
        <circle class="cls-2" cx="1757.28" cy="799.99" r="2.82"/>
        <path class="cls-2" d="M1744.36,593.91h.02c.16,.17,2.98,3.22,5.95,4.11,1.28,.39,2.66-.22,3.83-1.05-.76,1.13-1.28,2.42-.92,3.63,.89,2.97,3.94,5.79,4.11,5.95v.02s0,0,0,0c0,0,0,0,0,0v-.02c.17-.16,3.22-2.98,4.11-5.95,.38-1.26-.19-2.61-1-3.76,1.16,.8,2.5,1.38,3.76,1,2.97-.89,5.79-3.94,5.95-4.11h.02s0,0,0,0c0,0,0,0,0,0h-.02c-.16-.17-2.98-3.22-5.95-4.11-1.26-.38-2.61,.19-3.76,1,.69-1.08,1.14-2.3,.8-3.45-.89-2.97-3.94-5.79-4.11-5.95v-.02s0,0,0,0c0,0,0,0,0,0v.02c-.17,.16-3.22,2.98-4.11,5.95-.35,1.16,.12,2.39,.82,3.48-1.1-.72-2.35-1.2-3.53-.85-2.97,.89-5.79,3.94-5.95,4.11h-.02s0,0,0,0c0,0,0,0,0,0Z"/>
        <path class="cls-2" d="M1740.17,956.27h.02c.21,.23,3.94,4.27,7.88,5.45,1.7,.51,3.52-.29,5.07-1.39-1,1.49-1.69,3.2-1.21,4.81,1.18,3.93,5.22,7.67,5.45,7.88v.02s0,0,.01-.01c0,0,.01,.01,.01,.01v-.02c.23-.21,4.27-3.94,5.45-7.88,.5-1.67-.26-3.45-1.32-4.98,1.53,1.06,3.31,1.83,4.98,1.33,3.93-1.18,7.67-5.22,7.88-5.45h.02s0,0-.01-.01c0,0,.01-.01,.01-.01h-.02c-.21-.23-3.94-4.27-7.88-5.45-1.67-.5-3.45,.26-4.98,1.32,.91-1.43,1.51-3.05,1.05-4.57-1.18-3.93-5.22-7.67-5.45-7.88v-.02s0,0-.01,.01c0,0-.01-.01-.01-.01v.02c-.23,.21-4.27,3.94-5.45,7.88-.46,1.53,.15,3.17,1.08,4.61-1.46-.95-3.12-1.59-4.67-1.12-3.93,1.18-7.67,5.22-7.88,5.45h-.02s0,0,.01,.01c0,0-.01,.01-.01,.01Z"/>
      </g>
      <g class="cls-1">
        <line class="cls-3" x1="1089.41" y1="1109.07" x2="1089.41" y2="427.39"/>
        <path class="cls-2" d="M1090.74,446.49s5.69-14.98,4.58-22.66c-1.11-7.68-10.28-6.07-11.76,0-1.49,6.07,5.08,23.65,5.08,23.65,0,0,.96,3.9,2.1-.99Z"/>
        <path class="cls-2" d="M1090.57,720.03s4.96-13.06,3.99-19.74c-.97-6.69-8.96-5.29-10.25,0-1.29,5.29,4.42,20.61,4.42,20.61,0,0,.84,3.4,1.83-.86Z"/>
        <path class="cls-2" d="M1080.53,600.8c5.87-1.41,7.26-2.8,8.67-8.67,.05-.22,.37-.22,.42,0,1.41,5.87,2.8,7.26,8.67,8.67,.22,.05,.22,.37,0,.42-5.87,1.41-7.26,2.8-8.67,8.67-.05,.22-.37,.22-.42,0-1.41-5.87-2.8-7.26-8.67-8.67-.22-.05-.22-.37,0-.42Z"/>
        <path class="cls-2" d="M1080.53,856.12c5.87-1.41,7.26-2.8,8.67-8.67,.05-.22,.37-.22,.42,0,1.41,5.87,2.8,7.26,8.67,8.67,.22,.05,.22,.37,0,.42-5.87,1.41-7.26,2.8-8.67,8.67-.05,.22-.37,.22-.42,0-1.41-5.87-2.8-7.26-8.67-8.67-.22-.05-.22-.37,0-.42Z"/>
        <circle class="cls-2" cx="1089.41" cy="786.14" r="4.93"/>
        <circle class="cls-2" cx="1089.41" cy="1018.59" r="4.93"/>
        <circle class="cls-2" cx="1089.41" cy="989.87" r="2.82"/>
        <circle class="cls-2" cx="1089.41" cy="1047.31" r="2.82"/>
        <circle class="cls-2" cx="1089.41" cy="746.03" r="2.82"/>
        <circle class="cls-2" cx="1089.41" cy="496.84" r="2.82"/>
        <circle class="cls-2" cx="1089.41" cy="764.41" r="2.82"/>
        <path class="cls-2" d="M1076.48,558.33h.02c.16,.17,2.98,3.22,5.95,4.11,1.28,.39,2.66-.22,3.83-1.05-.76,1.13-1.28,2.42-.92,3.63,.89,2.97,3.94,5.79,4.11,5.95v.02s0,0,0,0c0,0,0,0,0,0v-.02c.17-.16,3.22-2.98,4.11-5.95,.38-1.26-.19-2.61-1-3.76,1.16,.8,2.5,1.38,3.76,1,2.97-.89,5.79-3.94,5.95-4.11h.02s0,0,0,0c0,0,0,0,0,0h-.02c-.16-.17-2.98-3.22-5.95-4.11-1.26-.38-2.61,.19-3.76,1,.69-1.08,1.14-2.3,.8-3.45-.89-2.97-3.94-5.79-4.11-5.95v-.02s0,0,0,0c0,0,0,0,0,0v.02c-.17,.16-3.22,2.98-4.11,5.95-.35,1.16,.12,2.39,.82,3.48-1.1-.72-2.35-1.2-3.53-.85-2.97,.89-5.79,3.94-5.95,4.11h-.02s0,0,0,0c0,0,0,0,0,0Z"/>
        <path class="cls-2" d="M1072.29,920.69h.02c.21,.23,3.94,4.27,7.88,5.45,1.7,.51,3.52-.29,5.07-1.39-1,1.49-1.69,3.2-1.21,4.81,1.18,3.93,5.22,7.67,5.45,7.88v.02s0,0,.01-.01c0,0,.01,.01,.01,.01v-.02c.23-.21,4.27-3.94,5.45-7.88,.5-1.67-.26-3.45-1.32-4.98,1.53,1.06,3.31,1.83,4.98,1.33,3.93-1.18,7.67-5.22,7.88-5.45h.02s0,0-.01-.01c0,0,.01-.01,.01-.01h-.02c-.21-.23-3.94-4.27-7.88-5.45-1.67-.5-3.45,.26-4.98,1.32,.91-1.43,1.51-3.05,1.05-4.57-1.18-3.93-5.22-7.67-5.45-7.88v-.02s0,0-.01,.01c0,0-.01-.01-.01-.01v.02c-.23,.21-4.27,3.94-5.45,7.88-.46,1.53,.15,3.17,1.08,4.61-1.46-.95-3.12-1.59-4.67-1.12-3.93,1.18-7.67,5.22-7.88,5.45h-.02s0,0,.01,.01c0,0-.01,.01-.01,.01Z"/>
      </g>
    </g>
  </g>
</svg>