<?xml version="1.0" encoding="UTF-8"?>
<svg id="Layer_2" data-name="Layer 2" xmlns="http://www.w3.org/2000/svg" xmlns:xlink="http://www.w3.org/1999/xlink" viewBox="0 0 1931.92 979.6">
  <defs>
    <style>
      .cls-1 {
        fill: #fff8e9;
        opacity: .12;
      }

      .cls-2 {
        mask: url(#mask);
      }

      .cls-3 {
        fill: url(#linear-gradient);
      }
    </style>
    <linearGradient id="linear-gradient" x1="578.74" y1="26.68" x2="1542.82" y2="1086.76" gradientTransform="translate(2369.09 1385.62) rotate(180)" gradientUnits="userSpaceOnUse">
      <stop offset=".12" stop-color="#000"/>
      <stop offset=".18" stop-color="#222"/>
      <stop offset=".31" stop-color="#797979"/>
      <stop offset=".49" stop-color="#fff"/>
      <stop offset=".71" stop-color="#555"/>
      <stop offset=".83" stop-color="#000"/>
    </linearGradient>
    <mask id="mask" x="-13.03" y="132.66" width="2395.15" height="1120.31" maskUnits="userSpaceOnUse">
      <rect class="cls-3" x="-13.03" y="132.66" width="2395.15" height="1120.31" transform="translate(2369.09 1385.62) rotate(-180)"/>
    </mask>
  </defs>
  <g id="sinking_thoughts" data-name="sinking thoughts">
    <g class="cls-2">
      <path class="cls-1" d="M332.45,6.6s364.98-18.72,317.44,105.87c-50.31,131.85-67.25,158.36,124.74,121.95,191.38-36.3,139.08,140.43,258.45,97.14,75.73-27.47,226.73,84.39,57.78,95.56-178.42,11.8-430.61,62.26-359.94,116.24,117.97,90.12,697.76,57.92,611.07,180.4-86.69,122.48,148.38,44.23,351.72,102.67,203.34,58.44,238.21,153.17,238.21,153.17,0,0-178.23-209-460.42-133.67-282.19,75.33-264.18,19.03-214.25-30.25,49.93-49.28-47.36-15.63-27.55-43.99,19.81-28.36,103.56-105-23.82-115.28-127.38-10.29-488.61,55.1-563.59-8.33-74.98-63.44,209.14-15.51-43.68-139.39-36.31-17.79,40.1-98.06,222.63-80.56,166.08,15.93,299.1-21.92,271.95-45.25-53.5-45.97-164.19,26.98-266.29,8.58-102.1-18.4,37.69-91.02-57.88-100.64-95.57-9.62-264.51,68.64-252.39-29.53,12.12-98.16,190.41-178.27,80.25-193.58-136.77-19.01-301.89,75.71-301.89,75.71,0,0,23.7-57.69,117.35-82.36,110.44-29.1-43.91-34.77-224.94,9.38C6.37,114.57,0,47.28,0,47.28c0,0,49.15,59.79,166.6-.63C244.65,6.49,260.58-10.47,332.45,6.6Z"/>
    </g>
  </g>
</svg>