<?xml version="1.0" encoding="UTF-8"?>
<svg id="Layer_2" data-name="Layer 2" xmlns="http://www.w3.org/2000/svg" xmlns:xlink="http://www.w3.org/1999/xlink" viewBox="0 0 1748.09 1736.34">
  <defs>
    <style>
      .cls-1 {
        fill: url(#linear-gradient-2);
      }

      .cls-2 {
        fill: url(#linear-gradient-14);
      }

      .cls-3 {
        fill: url(#linear-gradient-6);
      }

      .cls-4 {
        fill: url(#linear-gradient-11);
      }

      .cls-5 {
        opacity: .44;
      }

      .cls-6 {
        fill: url(#linear-gradient-10);
      }

      .cls-7 {
        fill: url(#linear-gradient-5);
      }

      .cls-8 {
        fill: url(#linear-gradient-7);
      }

      .cls-9 {
        fill: url(#linear-gradient-9);
      }

      .cls-10 {
        fill: url(#linear-gradient-3);
      }

      .cls-11 {
        fill: url(#linear-gradient);
      }

      .cls-12 {
        fill: url(#linear-gradient-4);
      }

      .cls-13 {
        fill: url(#linear-gradient-8);
      }

      .cls-14 {
        fill: url(#linear-gradient-12);
      }

      .cls-15 {
        fill: url(#linear-gradient-13);
      }
    </style>
    <linearGradient id="linear-gradient" x1="484.5" y1="1857.54" x2="932.78" y2="703.77" gradientUnits="userSpaceOnUse">
      <stop offset="0" stop-color="#fff8e9"/>
      <stop offset=".21" stop-color="#bdb7b5"/>
      <stop offset=".41" stop-color="#827d87"/>
      <stop offset=".59" stop-color="#585265"/>
      <stop offset=".73" stop-color="#3d3850"/>
      <stop offset=".81" stop-color="#342f49"/>
      <stop offset="1" stop-color="#5f3d6a"/>
    </linearGradient>
    <linearGradient id="linear-gradient-2" x1="949.52" y1="2038.22" x2="1397.8" y2="884.44" xlink:href="#linear-gradient"/>
    <linearGradient id="linear-gradient-3" x1="671.31" y1="1930.12" x2="1119.59" y2="776.35" xlink:href="#linear-gradient"/>
    <linearGradient id="linear-gradient-4" x1="-225.24" y1="1581.78" x2="223.04" y2="428.01" xlink:href="#linear-gradient"/>
    <linearGradient id="linear-gradient-5" x1="-184.11" y1="1597.76" x2="264.17" y2="443.99" xlink:href="#linear-gradient"/>
    <linearGradient id="linear-gradient-6" x1="436.24" y1="1838.79" x2="884.52" y2="685.01" xlink:href="#linear-gradient"/>
    <linearGradient id="linear-gradient-7" x1="460.77" y1="1848.32" x2="909.06" y2="694.55" xlink:href="#linear-gradient"/>
    <linearGradient id="linear-gradient-8" x1="673.93" y1="1931.14" x2="1122.21" y2="777.36" xlink:href="#linear-gradient"/>
    <linearGradient id="linear-gradient-9" x1="627.04" y1="1912.92" x2="1075.33" y2="759.15" xlink:href="#linear-gradient"/>
    <linearGradient id="linear-gradient-10" x1="46.98" y1="1687.55" x2="495.26" y2="533.77" xlink:href="#linear-gradient"/>
    <linearGradient id="linear-gradient-11" x1="1254.85" y1="2156.85" x2="1703.13" y2="1003.07" xlink:href="#linear-gradient"/>
    <linearGradient id="linear-gradient-12" x1="811.89" y1="1984.74" x2="1260.18" y2="830.97" xlink:href="#linear-gradient"/>
    <linearGradient id="linear-gradient-13" x1="1249.01" y1="2154.58" x2="1697.29" y2="1000.81" xlink:href="#linear-gradient"/>
    <linearGradient id="linear-gradient-14" x1="-299.02" y1="1553.11" x2="149.26" y2="399.34" xlink:href="#linear-gradient"/>
  </defs>
  <g id="front_page" data-name="front page">
    <g>
      <g class="cls-5">
        <path class="cls-11" d="M871.01,1673.28c-29.5,0-59.19-1.6-88.24-4.76-6.02-.65-12.35-1.4-18.82-2.25-361.17-47.66-647.43-333.09-696.14-694.11-1.66-12.26-3.07-24.88-4.17-37.51-2.09-23.63-3.15-47.82-3.15-71.9,0-97.09,16.99-192.05,50.49-282.24,32.37-87.14,79.26-167.56,139.36-239.04l.69,.58C128.74,487.5,61.39,672.42,61.39,862.76c0,24.05,1.06,48.21,3.15,71.82,1.1,12.61,2.51,25.22,4.17,37.47,48.65,360.62,334.6,645.73,695.37,693.34,6.46,.85,12.79,1.6,18.8,2.25,29.02,3.15,58.67,4.75,88.15,4.75,446.42,0,809.61-363.2,809.61-809.62,0-143.02-37.8-283.57-109.3-406.45-3.08-5.32-6.33-10.77-9.67-16.2-98.53-160.72-250.67-282.72-428.41-343.54-11.79-4.03-23.83-7.84-35.78-11.32-73.24-21.29-149.42-32.09-226.44-32.09-229.37,0-448.9,97.9-602.3,268.59l-.67-.6c37.07-41.25,78.49-78.81,123.13-111.65,45-33.11,93.51-61.6,144.2-84.69,105.67-48.14,218.59-72.54,335.64-72.54,77.1,0,153.37,10.81,226.69,32.12,11.97,3.48,24.02,7.3,35.82,11.34,177.93,60.89,330.25,183.02,428.89,343.92,3.35,5.43,6.61,10.89,9.69,16.22,35.2,60.49,62.39,125.32,80.81,192.68,18.99,69.45,28.62,141.53,28.62,214.23,0,109.42-21.43,215.57-63.69,315.49-40.82,96.52-99.26,183.2-173.7,257.63-74.44,74.44-161.11,132.88-257.63,173.7-99.92,42.26-206.07,63.69-315.48,63.69Z"/>
        <circle class="cls-1" cx="1567.54" cy="447.56" r="9.49"/>
        <circle class="cls-10" cx="773.36" cy="1667.47" r="9.49"/>
        <path class="cls-12" d="M260.25,346.19c-7.69,0-13.95-6.26-13.95-13.95s6.26-13.95,13.95-13.95,13.95,6.26,13.95,13.95-6.26,13.95-13.95,13.95Zm0-27.01c-7.2,0-13.05,5.86-13.05,13.05s5.86,13.05,13.05,13.05,13.05-5.86,13.05-13.05-5.86-13.05-13.05-13.05Z"/>
        <path class="cls-7" d="M84.79,951.85c-11.9,4.19-14.49,7.38-16.18,19.88-.06,.47-.71,.54-.87,.09-4.19-11.9-7.38-14.49-19.88-16.18-.47-.06-.54-.71-.09-.87,11.9-4.19,14.49-7.38,16.18-19.88,.06-.47,.71-.54,.87-.09,4.19,11.9,7.38,14.49,19.88,16.18,.47,.06,.54,.71,.09,.87Z"/>
        <path class="cls-3" d="M1133.21,96.16c-12.59-.84-16.22,1.07-22.7,11.89-.24,.41-.87,.21-.84-.26,.84-12.59-1.07-16.22-11.89-22.7-.41-.24-.21-.87,.26-.84,12.59,.84,16.22-1.07,22.7-11.89,.24-.41,.87-.21,.84,.26-.84,12.59,1.07,16.22,11.89,22.7,.41,.24,.21,.87-.26,.84Z"/>
      </g>
      <g class="cls-5">
        <path class="cls-8" d="M155.78,1359.01C53.87,1213.48,0,1042.31,0,863.99c0-116.64,22.84-229.79,67.9-336.3,43.52-102.88,105.81-195.28,185.16-274.63,79.35-79.35,171.75-141.64,274.64-185.16C634.22,22.84,747.37,0,864.01,0s229.79,22.84,336.3,67.9c102.88,43.52,195.28,105.81,274.63,185.16,79.35,79.35,141.64,171.75,185.16,274.63,45.05,106.52,67.9,219.67,67.9,336.3,0,20.32-.72,40.89-2.14,61.14l-1.79-.13c1.42-20.21,2.14-40.74,2.14-61.02C1726.2,388.58,1339.42,1.8,864.01,1.8S1.8,388.58,1.8,863.99c0,177.95,53.75,348.76,155.45,493.98l-1.47,1.03Z"/>
        <path class="cls-13" d="M864.01,1728c-68.22,0-136.14-7.98-201.87-23.71-63.88-15.29-126.08-37.99-184.86-67.46-57.74-28.95-112.36-64.52-162.36-105.72-49.71-40.97-94.91-87.56-134.35-138.47l1.42-1.1c164.73,212.68,413.31,334.66,682.01,334.66,435.2,0,803.1-325.26,855.78-756.59l1.78,.22c-25.38,207.79-125.83,399.32-282.85,539.31-77.47,69.07-165.58,123.06-261.87,160.48-99.68,38.74-204.94,58.38-312.85,58.38Z"/>
        <circle class="cls-9" cx="1319.66" cy="130.28" r="13.66"/>
        <path class="cls-6" d="M168.06,1397.71c-12.02,0-21.79-9.78-21.79-21.79s9.78-21.79,21.79-21.79,21.79,9.78,21.79,21.79-9.78,21.79-21.79,21.79Zm0-41.79c-11.03,0-19.99,8.97-19.99,19.99s8.97,19.99,19.99,19.99,19.99-8.97,19.99-19.99-8.97-19.99-19.99-19.99Z"/>
        <path class="cls-4" d="M1724.69,970.98c-12.9,0-23.4-10.5-23.4-23.4s10.5-23.4,23.4-23.4,23.4,10.5,23.4,23.4-10.5,23.4-23.4,23.4Zm0-45c-11.91,0-21.6,9.69-21.6,21.6s9.69,21.6,21.6,21.6,21.6-9.69,21.6-21.6-9.69-21.6-21.6-21.6Z"/>
        <circle class="cls-14" cx="912.62" cy="1725.49" r="10.85"/>
        <path class="cls-15" d="M1566.13,1410.99c-17.12-7.68-23.19-6.9-37.82,4.84-.55,.44-1.32-.15-1.03-.8,7.68-17.12,6.9-23.19-4.84-37.82-.44-.55,.15-1.32,.8-1.03,17.12,7.68,23.19,6.9,37.82-4.84,.55-.44,1.32,.15,1.03,.8-7.68,17.12-6.9,23.19,4.84,37.82,.44,.55-.15,1.32-.8,1.03Z"/>
        <path class="cls-2" d="M186.92,375.57c-17.31-7.24-23.35-6.32-37.69,5.79-.54,.45-1.32-.12-1.05-.77,7.24-17.31,6.32-23.35-5.79-37.69-.45-.54,.12-1.32,.77-1.05,17.31,7.24,23.35,6.32,37.69-5.79,.54-.45,1.32,.12,1.05,.77-7.24,17.31-6.32,23.35,5.79,37.69,.45,.54-.12,1.32-.77,1.05Z"/>
      </g>
    </g>
  </g>
</svg>