<?xml version="1.0" encoding="UTF-8"?>
<svg id="Layer_2" data-name="Layer 2" xmlns="http://www.w3.org/2000/svg" xmlns:xlink="http://www.w3.org/1999/xlink" viewBox="0 0 1797.57 1785.49">
  <defs>
    <style>
      .cls-1 {
        fill: #fff8e9;
      }

      .cls-2 {
        mask: url(#mask);
      }

      .cls-3 {
        fill: url(#linear-gradient);
      }

      .cls-4 {
        opacity: .56;
      }
    </style>
    <linearGradient id="linear-gradient" x1="900.51" y1="-52.56" x2="900.51" y2="1870.83" gradientUnits="userSpaceOnUse">
      <stop offset="0" stop-color="#000"/>
      <stop offset=".06" stop-color="#040404"/>
      <stop offset=".12" stop-color="#111"/>
      <stop offset=".18" stop-color="#272727"/>
      <stop offset=".25" stop-color="#454545"/>
      <stop offset=".31" stop-color="#6c6c6c"/>
      <stop offset=".38" stop-color="#9c9c9c"/>
      <stop offset=".45" stop-color="#d3d3d3"/>
      <stop offset=".49" stop-color="#fff"/>
      <stop offset=".92" stop-color="#000"/>
    </linearGradient>
    <mask id="mask" x="-391.55" y="-52.56" width="2584.12" height="1879.36" maskUnits="userSpaceOnUse">
      <rect class="cls-3" x="-391.55" y="-52.56" width="2584.12" height="1879.36"/>
    </mask>
  </defs>
  <g id="sinking_thoughts" data-name="sinking thoughts">
    <g class="cls-2">
      <g class="cls-4">
        <g>
          <path class="cls-1" d="M895.67,1720.64c-30.34,0-60.87-1.64-90.74-4.89-6.19-.67-12.7-1.44-19.35-2.32-371.39-49.01-665.76-342.51-715.84-713.76-1.71-12.61-3.15-25.59-4.29-38.57-2.15-24.3-3.24-49.18-3.24-73.93,0-99.84,17.47-197.49,51.92-290.23,33.29-89.61,81.51-172.31,143.31-245.8l.71,.6C132.38,501.3,63.13,691.45,63.13,887.18c0,24.73,1.09,49.58,3.24,73.85,1.14,12.97,2.58,25.93,4.29,38.53,50.03,370.83,344.07,664.01,715.05,712.96,6.65,.87,13.15,1.65,19.33,2.31,29.84,3.24,60.34,4.88,90.64,4.88,459.05,0,832.52-373.48,832.52-832.54,0-147.07-38.87-291.6-112.4-417.96-3.16-5.47-6.51-11.08-9.95-16.66-101.32-165.27-257.77-290.72-440.54-353.26-12.12-4.15-24.5-8.07-36.8-11.64-75.31-21.89-153.65-33-232.85-33-235.86,0-461.6,100.67-619.35,276.19l-.69-.62c38.12-42.41,80.72-81.04,126.61-114.81,46.27-34.04,96.16-63.35,148.28-87.09,108.66-49.5,224.78-74.6,345.14-74.6,79.28,0,157.71,11.11,233.1,33.03,12.31,3.58,24.7,7.51,36.84,11.66,182.97,62.61,339.6,188.21,441.03,353.65,3.44,5.59,6.79,11.2,9.96,16.68,36.2,62.21,64.16,128.87,83.09,198.13,19.53,71.42,29.43,145.53,29.43,220.29,0,112.52-22.04,221.67-65.5,324.42-41.98,99.25-102.07,188.38-178.62,264.93-76.54,76.54-165.67,136.64-264.92,178.62-102.75,43.46-211.9,65.5-324.41,65.5Z"/>
          <circle class="cls-1" cx="1611.91" cy="460.23" r="9.75"/>
          <circle class="cls-1" cx="795.25" cy="1714.67" r="9.75"/>
          <path class="cls-1" d="M267.62,355.99c-7.91,0-14.35-6.44-14.35-14.35s6.44-14.35,14.35-14.35,14.35,6.44,14.35,14.35-6.44,14.35-14.35,14.35Zm0-27.77c-7.4,0-13.42,6.02-13.42,13.42s6.02,13.42,13.42,13.42,13.42-6.02,13.42-13.42-6.02-13.42-13.42-13.42Z"/>
          <path class="cls-1" d="M87.19,978.79c-12.23,4.31-14.9,7.59-16.64,20.44-.07,.48-.73,.55-.9,.09-4.31-12.23-7.59-14.9-20.44-16.64-.48-.07-.55-.73-.09-.9,12.23-4.31,14.9-7.59,16.64-20.44,.07-.48,.73-.55,.9-.09,4.31,12.23,7.59,14.9,20.44,16.64,.48,.07,.55,.73,.09,.9Z"/>
          <path class="cls-1" d="M1165.28,98.88c-12.94-.86-16.68,1.1-23.34,12.23-.25,.42-.89,.22-.86-.27,.86-12.94-1.1-16.68-12.23-23.34-.42-.25-.22-.89,.27-.86,12.94,.86,16.68-1.1,23.34-12.23,.25-.42,.89-.22,.86,.27-.86,12.94,1.1,16.68,12.23,23.34,.42,.25,.22,.89-.27,.86Z"/>
        </g>
        <g>
          <path class="cls-1" d="M160.19,1397.47C55.39,1247.83,0,1071.81,0,888.45c0-119.94,23.49-236.29,69.82-345.82,44.75-105.8,108.81-200.81,190.4-282.4,81.6-81.59,176.61-145.65,282.41-190.4C652.17,23.49,768.52,0,888.46,0s236.29,23.49,345.82,69.82c105.8,44.75,200.81,108.81,282.4,190.4,81.59,81.59,145.65,176.61,190.4,282.4,46.33,109.53,69.82,225.88,69.82,345.82,0,20.89-.74,42.05-2.2,62.87l-1.84-.13c1.46-20.78,2.2-41.89,2.2-62.74C1775.06,399.58,1377.34,1.85,888.46,1.85S1.85,399.58,1.85,888.45c0,182.98,55.28,358.63,159.85,507.96l-1.52,1.06Z"/>
          <path class="cls-1" d="M888.46,1776.91c-70.15,0-139.99-8.2-207.58-24.38-65.69-15.72-129.65-39.06-190.1-69.37-59.37-29.77-115.54-66.34-166.95-108.71-51.12-42.13-97.6-90.03-138.15-142.39l1.46-1.13c169.39,218.7,425.01,344.13,701.31,344.13,447.52,0,825.84-334.47,880-778.01l1.84,.22c-26.09,213.67-129.39,410.62-290.85,554.57-79.67,71.02-170.26,126.55-269.28,165.03-102.51,39.84-210.74,60.03-321.7,60.03Z"/>
          <circle class="cls-1" cx="1357.02" cy="133.97" r="14.05"/>
          <path class="cls-1" d="M172.81,1437.27c-12.36,0-22.41-10.05-22.41-22.41s10.05-22.41,22.41-22.41,22.41,10.05,22.41,22.41-10.05,22.41-22.41,22.41Zm0-42.97c-11.34,0-20.56,9.22-20.56,20.56s9.22,20.56,20.56,20.56,20.56-9.22,20.56-20.56-9.22-20.56-20.56-20.56Z"/>
          <path class="cls-1" d="M1773.51,998.46c-13.27,0-24.06-10.79-24.06-24.06s10.79-24.06,24.06-24.06,24.06,10.79,24.06,24.06-10.79,24.06-24.06,24.06Zm0-46.28c-12.25,0-22.21,9.96-22.21,22.21s9.96,22.21,22.21,22.21,22.21-9.96,22.21-22.21-9.96-22.21-22.21-22.21Z"/>
          <circle class="cls-1" cx="938.45" cy="1774.33" r="11.16"/>
          <path class="cls-1" d="M1610.46,1450.93c-17.61-7.89-23.84-7.1-38.89,4.98-.56,.45-1.36-.16-1.06-.82,7.89-17.61,7.1-23.84-4.98-38.89-.45-.56,.16-1.36,.82-1.06,17.61,7.89,23.84,7.1,38.89-4.98,.56-.45,1.36,.16,1.06,.82-7.89,17.61-7.1,23.84,4.98,38.89,.45,.56-.16,1.36-.82,1.06Z"/>
          <path class="cls-1" d="M192.21,386.2c-17.8-7.45-24.01-6.5-38.75,5.96-.55,.47-1.36-.12-1.08-.79,7.45-17.8,6.5-24.01-5.96-38.75-.47-.55,.12-1.36,.79-1.08,17.8,7.45,24.01,6.5,38.75-5.96,.55-.47,1.36,.12,1.08,.79-7.45,17.8-6.5,24.01,5.96,38.75,.47,.55-.12,1.36-.79,1.08Z"/>
        </g>
      </g>
    </g>
  </g>
</svg>