<?xml version="1.0" encoding="UTF-8"?>
<svg id="Layer_2" data-name="Layer 2" xmlns="http://www.w3.org/2000/svg" xmlns:xlink="http://www.w3.org/1999/xlink" viewBox="0 0 999.02 506.56">
  <defs>
    <style>
      .cls-1 {
        fill: #fff8e9;
      }

      .cls-2 {
        mask: url(#mask);
      }

      .cls-3 {
        fill: url(#linear-gradient);
      }
    </style>
    <linearGradient id="linear-gradient" x1="-141.97" y1="239.96" x2="1096.59" y2="239.96" gradientUnits="userSpaceOnUse">
      <stop offset=".11" stop-color="#000"/>
      <stop offset=".16" stop-color="#040404"/>
      <stop offset=".2" stop-color="#121212"/>
      <stop offset=".25" stop-color="#292929"/>
      <stop offset=".3" stop-color="#4a4a4a"/>
      <stop offset=".36" stop-color="#737373"/>
      <stop offset=".41" stop-color="#a6a6a6"/>
      <stop offset=".47" stop-color="#e1e1e1"/>
      <stop offset=".49" stop-color="#fff"/>
      <stop offset=".71" stop-color="#555"/>
      <stop offset=".83" stop-color="#000"/>
    </linearGradient>
    <mask id="mask" x="-141.97" y="-49.7" width="1238.55" height="579.32" maskUnits="userSpaceOnUse">
      <rect class="cls-3" x="-141.97" y="-49.7" width="1238.55" height="579.32"/>
    </mask>
  </defs>
  <g id="front_page" data-name="front page">
    <g class="cls-2">
      <path class="cls-1" d="M827.1,3.42s-188.74-9.68-164.15,54.75c26.02,68.18,34.78,81.89-64.51,63.06-98.96-18.77-71.92,72.62-133.65,50.23-39.16-14.2-117.24,43.64-29.88,49.41,92.26,6.1,222.67,32.2,186.13,60.11-61,46.6-360.82,29.95-315.99,93.29,44.83,63.34-76.73,22.87-181.88,53.09C18.03,457.58,0,506.56,0,506.56c0,0,92.16-108.08,238.09-69.12,145.92,38.96,136.61,9.84,110.79-15.65-25.82-25.48,24.49-8.08,14.25-22.75-10.24-14.66-53.55-54.29,12.32-59.61,65.87-5.32,252.67,28.49,291.44-4.31,38.77-32.8-108.15-8.02,22.58-72.08,18.78-9.2-20.74-50.71-115.12-41.66-85.88,8.24-154.67-11.33-140.63-23.4,27.67-23.77,84.9,13.95,137.7,4.43,52.8-9.52-19.49-47.07,29.93-52.04,49.42-4.98,136.78,35.49,130.51-15.27-6.27-50.76-98.46-92.18-41.5-100.1,70.72-9.83,156.11,39.15,156.11,39.15,0,0-12.26-29.83-60.68-42.59-57.11-15.05,22.7-17.98,116.32,4.85,93.61,22.83,96.91-11.96,96.91-11.96,0,0-25.42,30.92-86.15-.33-40.36-20.77-48.6-29.54-85.76-20.71Z"/>
    </g>
  </g>
</svg>