<?xml version="1.0" encoding="UTF-8"?>
<svg id="Layer_2" data-name="Layer 2" xmlns="http://www.w3.org/2000/svg" viewBox="0 0 1417.34 720.09">
  <defs>
    <style>
      .cls-1 {
        fill: #ffe48d;
      }

      .cls-2 {
        fill: #ffc647;
      }
    </style>
  </defs>
  <g id="sinking_thoughts" data-name="sinking thoughts">
    <g>
      <path class="cls-1" d="M98.28,120.37v10.28s-29.98,12.85-29.7,20.27c.29,7.42,12.85-6.28,17.7,2.28,4.85,8.57,12.28,4,12.28,4v8.28s-11.99-2.28-14.56-6.85c-2.57-4.57-3.14-6.85-11.14-4-8,2.86-9.42-8.85-2.57-12.28,6.85-3.43,14.56-6.85,17.99-11.42,3.43-4.57,9.99-10.57,9.99-10.57Z"/>
      <path class="cls-1" d="M172.64,146.63c.67-.77,.59-1.95-.18-2.62l-4.2-3.66,1.87-2.15,4.2,3.66c.77,.67,1.95,.59,2.62-.18l15-17.23c.67-.77,1.85-.85,2.62-.18h0c.77,.67,.85,1.85,.18,2.62l-15,17.23c-.67,.77-.59,1.95,.18,2.62l4.2,3.66-1.87,2.15-4.2-3.66c-.77-.67-1.95-.59-2.62,.18,0,0-60.33,68.06-61.11,67.39h0c-.77-.67,58.31-69.82,58.31-69.82Z"/>
      <path class="cls-1" d="M156.52,110.15c.52-1.16,.1-2.13-.95-2.15l-5.67-.13,1.45-3.24,5.67,.13c1.04,.02,2.31-.9,2.84-2.07l11.64-25.96c.52-1.16,1.79-2.09,2.84-2.07h0c1.04,.02,1.47,.99,.95,2.15l-11.64,25.96c-.52,1.16-.1,2.13,.95,2.15l5.67,.13-1.46,3.25-5.67-.13c-1.04-.02-2.31,.9-2.84,2.07,0,0-47.19,103.33-48.23,103.3h0c-1.04-.02,44.45-103.39,44.45-103.39Z"/>
      <path class="cls-1" d="M116.65,15.57l.57,11.14s12.56-3.43,18.56,7.14,24.56,16.28,24.56,16.28c0,0-17.99-8-17.99-16.28s-25.7-18.28-25.7-18.28Z"/>
      <path class="cls-1" d="M99.95,13.52l.43,12.33s-42.55,15.56-40.26,30.7c2.28,15.13,33.84,16.85,33.84,16.85l1.71,7.85s-43.55-.86-44.4-6.85,8.85-14.28,4-22.56c-4.85-8.28,33.84-23.18,44.69-38.31Z"/>
      <path class="cls-1" d="M121.51,74.97l-1.71,10.57s13.14,13.42,6,19.13-10.57,8.28-10.57,8.28l-.29,9.71s10.57-11.42,19.7-14.56c9.14-3.14,13.71-9.42,9.14-13.42-4.57-4-17.99-5.71-16.85-11.14s-5.43-8.57-5.43-8.57Z"/>
      <path class="cls-1" d="M114.08,155.78v9.71s7.42-5.14,8.28-2.57c.86,2.57-27.7,23.7-21.7,47.12l3.71,6.85s-6.57-15.71,3.71-23.99c10.28-8.28,20.56-26.84,19.42-29.13-1.14-2.28,1.43-13.71-13.42-8Z"/>
      <path class="cls-2" d="M125.59,43.42h-7.16c-.2,0-.4-.04-.58-.13-2.24-1.14-3.94-2.44-5.35-4.14-.18-.22-.29-.51-.29-.81V1.25c0-.69-.56-1.25-1.23-1.25h-7.09c-.67,0-1.23,.56-1.23,1.25V38.34c0,.29-.11,.58-.29,.81-1.41,1.7-3.11,3-5.35,4.14-.18,.09-.38,.13-.58,.13h-7.63c-.67,0-1.23,.56-1.23,1.23v2.95c0,.67,.56,1.23,1.23,1.23h7.45c.2,0,.4,.04,.58,.13,2.53,1.25,4.36,2.71,5.86,4.65,.13,.18,.22,.4,.27,.6,1.05,5.99-1.07,11.12-6.35,15.72-.42,.36-.56,.92-.34,1.43,7.87,18.74,5.37,98,4.56,114.12v.11c.02,.36,.16,1.45,.36,3.11,2.86-6.4,7.07-12.06,10.85-16.53-.47-28.3-.25-85.29,6.53-100.7,.22-.49,.09-1.05-.31-1.41-5.3-4.83-7.36-10.16-6.04-16.31,.04-.2,.13-.43,.27-.58,1.45-1.74,3.2-3.06,5.52-4.23,.18-.09,.38-.13,.58-.13h6.98c.69,0,1.25-.56,1.25-1.23v-2.95c0-.67-.56-1.23-1.25-1.23Zm-17.92,9.24c-1.28-4.21-2.28-5.23-6.49-6.49,4.21-1.25,5.21-2.26,6.49-6.46,1.25,4.21,2.26,5.21,6.46,6.46-4.21,1.25-5.21,2.28-6.46,6.49Zm-1.05,163.38c.31,.74,.2,1.57-.27,2.17l.4,2.17s.09-.02,.13-.02l4.47-27.02s.02-.11,.02-.16c-.56,.54-1.14,1.03-1.7,1.48-8.84,7.11-3.11,21.23-3.06,21.38Z"/>
      <path class="cls-1" d="M98.57,210.08c-12.75-9.26-69.23-54.24-69.23-54.24-.81-.65-1.97-.51-2.62,.27l-3.51,4.32-2.21-1.79,3.51-4.32c.65-.81,.54-1.97-.27-2.62l-17.74-14.41c-.45-.38-.67-.92-.67-1.45,0-.4,.13-.83,.4-1.16,.65-.78,1.81-.92,2.62-.27l17.74,14.41c.78,.65,1.97,.54,2.59-.27l3.51-4.32,2.21,1.79-3.49,4.32c-.65,.81-.54,1.97,.27,2.62,0,0,53.66,44.4,66.64,56.01,.07,.38,.13,.74,.25,1.12Z"/>
      <path class="cls-1" d="M77.63,137.24c-.92,.49-1.86,.96-2.82,1.45-5.5-13.53-9.73-23.45-9.73-23.45-.36-.96-1.45-1.43-2.39-1.05l-5.19,2.04-1.05-2.66,5.19-2.04c.96-.36,1.43-1.45,1.05-2.39l-8.34-21.27c-.09-.22-.13-.47-.13-.69,0-.74,.45-1.43,1.19-1.72,.96-.36,2.04,.11,2.42,1.05l8.34,21.27c.36,.96,1.43,1.43,2.39,1.05l5.19-2.04,1.03,2.66-5.17,2.04c-.96,.38-1.43,1.45-1.05,2.42,0,0,3.96,9.83,9.08,23.34Z"/>
      <path class="cls-1" d="M82.04,149.47c-.96-.07-1.97,.04-2.95,.29-.89-2.21-1.79-4.38-2.64-6.51,.83-.58,1.68-1.14,2.6-1.72,.96,2.57,1.97,5.23,3,7.94Z"/>
      <path class="cls-1" d="M100.05,199.17s0,.07-.02,.07c-.11,0-.63-.98-1.43-2.75-2.98-6.51-10.02-22.51-16.89-39.31,.38,.56,3.6,5.12,5.1,6.04,5.17,13.78,9.95,25.75,12.08,32.06,.74,2.19,1.16,3.58,1.16,3.89Z"/>
      <path class="cls-1" d="M97.83,205.01c-15.12-16.04-72.85-81.11-72.85-81.11-.83-.96-2.33-1.48-3.31-1.14l-5.39,1.79-2.35-2.68,5.39-1.79c1.01-.34,1.12-1.36,.27-2.33L.86,96.32c-.38-.43-.56-.87-.56-1.25,0-.49,.29-.89,.83-1.07,1.01-.34,2.48,.18,3.33,1.14l18.72,21.41c.85,.96,2.33,1.48,3.31,1.16l5.39-1.79,2.35,2.66-5.39,1.79c-.98,.34-1.12,1.39-.27,2.35,0,0,54.6,63.3,69.21,81.17,0,.38,.02,.74,.04,1.12Z"/>
    </g>
    <g>
      <g>
        <path class="cls-2" d="M664.49,41.24c4.56,1.19,8.91,3.16,13.46,4.39,8.48,2.3,16.37,4.74,21.11,13.5,3.55,6.58,8.92,12.18,13.35,18.31,3.88,5.35,7.6,10.82,11.37,16.25,.22,.31,.29,.73,.65,1.66-.95-.11-1.67,.03-1.98-.26-5.36-5.24-10.59-10.65-16.04-15.8-4.26-4.01-8.49-8.25-13.4-11.28-1.79-1.1-5.64,.77-8.41,1.68-3.93,1.29-7.64,3.75-11.64,4.3-7.27,.97-11.49-6.68-8.38-14.55,.58-1.47,1.41-2.85,2.59-5.15-1.68,.47-2.59,.59-3.39,.97-4.24,1.97-8.32,4.35-12.71,5.78-1.35,.43-4.25-1.25-5.09-2.73-.84-1.49-.01-3.93,.16-5.95,.04-.6,.37-1.16,1.01-2.98-2.95,1.72-4.81,3.11-6.9,3.93-1.83,.73-3.9,.82-5.87,1.19,1.84-2.1,3.29-4.95,5.59-6.17,5.46-2.89,11.24-5.27,17.09-7.29,2.2-.77,5.07-.41,7.43,.2Z"/>
        <path class="cls-2" d="M660.18,61.21c4.09,9.66-.24,17.58-4.47,25.53-1.76,3.3-4.66,6.51-4.92,9.92-.23,3.03,2.3,6.38,3.96,9.39,.95,1.73,2.69,3.01,3.9,4.63,.44,.59,.34,1.57,.49,2.37-1.32-.14-2.85,.1-3.92-.49-4.45-2.42-8.57-5.5-13.17-7.56-7.32-3.28-10.75-8.56-8.05-16.06,1.42-3.95,5.21-7.02,7.82-10.57,3.39-4.6,6.28-9.66,10.19-13.76,1.98-2.07,5.73-2.45,8.17-3.4Z"/>
        <path class="cls-2" d="M641.15,55.81c2.23,2.94,4.21,5.57,6.67,8.82-2.33,3.21-5.21,7.18-8.08,11.16-3.95,5.48-10.79,9.38-9.75,17.68,.03,.22-2.42,1.27-2.8,.93-3.86-3.53-8-6.92-11-11.11-1.16-1.62-.55-5.93,.88-7.74,4.76-6.03,9.94-11.83,15.61-17,2.17-1.98,6.11-2.03,8.47-2.73Z"/>
        <path class="cls-2" d="M612.13,80.8c-4.32-4.48-5.92-10.7,1.56-16.43,5.11-3.91,10.56-7.36,15.9-10.97,.34-.23,1.01,.02,1.53,.05-.21,1.23,.02,2.85-.69,3.62-5.17,5.64-10.61,11.03-15.77,16.69-1,1.1-1.1,3.01-1.63,4.54-.26,.75-.53,1.48-.9,2.49Z"/>
        <path class="cls-2" d="M752.83,145.63c-2.64,5.79-6.13,10.93-10.62,15.61-6.43,6.72-13.89,11.8-23.09,12.6-5.07,.42-10.59-1.06-15.44-2.9-4.4-1.69-9.45-4.17-11.86-7.85-2.56-3.95-3.19-9.13-4.4-13.98-1.54-3.17-5.5-9.58-13-12.41-2.58,.11-4.97-.42-7.27-1.59-1.82-.44-2.83-1.18-3.24-2.11-.4-.34-.82-.68-1.23-1.06-2.88-2.62-6.64-4.27-10.21-6.15-6.75-2.96-16.54-5.24-16.54-5.24l-.09-.13c-8.12-2.03-16.13-4.63-24-7.51-3.76-1.35-6.01-4.76-4.88-9.39,.95-3.07,1.75-6.22,2.86-9.24,1.37-3.66,7.11-4.29,10.95-1.56,8.48,6.07,17.09,11.99,25.52,18.19h.02c5.81,3.43,12.58,4.53,15.01,4.82,.04,0,.08-.02,.11-.02,2.86-1.04,6.36-.46,9.56-.4,2.12,.04,4.29,.21,6.36,.7,.53,.11,1.14,.44,1.65,.83l4.48-3.21c.25-1.21,.65-2.37,1.25-3.32,2.03-3.23,4.57-6.3,7.42-8.84,3.4-3.04,1.06-5.08-.53-7.46-.21-.28-.44-.55-.55-.68,.06-.08,.09-.15,.17-.23-1.12-.83-2.33-1.67-3.43-2.37-3.45,2.39-6.11,6.15-9.11,9.26-.28,.27-.15,.91-.34,2.62,1.8-1.63,2.85-2.54,3.85-3.51,1.48-1.42,2.83-3.04,4.44-4.29,.51-.4,2.24-.27,2.47,.15,.72,1.35,1.88,3.6,1.33,4.29-3.59,4.53-7.53,8.78-11.5,13.02-.59,.63-1.95,1.2-2.67,.95-5.81-1.97-11.91-3.45-17.17-6.43-5.58-3.15-6.07-9.77-2.81-15.22,2.86-4.76,5.22-9.81,7.87-14.7,.36-.65,1.42-1.56,1.78-1.4,3.38,1.37,6.49,1.42,9.43,.78,2.6-.55,5.08-1.63,7.53-2.85,2.73-1.08,5.2-2.12,6.7-2.94,.06-.04,.11-.08,.17-.11,4.4-2.47,11.38,7.02,12.5,8.61,0,0,.02,0,.02,.02,.59,.46,1.27,1.16,2.11,2.07,4.93,5.39,10.78,10.15,15.6,15.58,.19,.04,.4,.08,.59,.11,2.47,2.26,5.65,5.12,8.33,7.3,3.79,3.07,17.08,28.29,23.92,41.59Z"/>
      </g>
      <path class="cls-1" d="M750.41,166.21c7.89-15.73,7.72-37.62,7.72-37.62-1.04,2.77-4.8,4.21-9.2,4.93-1.25-2.35-2.43-4.59-3.55-6.68,11.02-10.81,19.01-32.39,11.46-50.88-8.9-21.86-22.75,8.33-27.07,18.88,2.39-7.76,4.78-27.81-22.65-50.22-23.66-19.31-53.73-13.24-70.9-7.19-9.45,3.32-17.25,10.09-21.88,18.97-.91,1.75-1.75,3.47-2.49,5.18v.02c-.25,.15-.47,.34-.7,.51-3.89,2.98-6.01,6.37-6.3,10.09-.17,2.35,.4,4.71,1.69,6.96-.93,5.5-1.08,10.7-.72,15.56-.55,1.67-1.04,3.34-1.52,4.97-.28,.99-.57,1.99-.93,3.13-1.4,5.69,1.29,10.81,6.66,12.75,.32,.11,.65,.23,.95,.34,2.35,5.73,5.1,10.43,7.32,13.96,17.23,27.43,38.12,33.26,38.12,33.26-17.44,8.73-63.94-39.71-26.81,2.58,37.13,42.31,57.81,12.6,57.81,12.6,2.58,4.86-6.15,11.31-6.15,11.31,11.95,4.19,24.23-14.21,24.23-14.21l-3.87,13.89c5.81,5.48,27.11-3.87,27.11-3.87l-.02,.66c-14.27,9.37-31.34,14.84-49.71,14.84-50.11,0-90.75-40.64-90.75-90.75s40.64-90.75,90.75-90.75,90.75,40.62,90.75,90.75c0,21.15-7.23,40.58-19.35,56.03Z"/>
    </g>
    <g>
      <g>
        <path class="cls-2" d="M1391.98,71.75c.09-.1,.16-.17,.23-.25h0c7.91-7.95,15.84-15.86,23.74-23.8,1.7-1.7,1.83-3.82,.41-5.36-1.25-1.34-2.6-2.58-3.86-3.9-.61-.63-1.07-.55-1.77,.17-4.22,4.26-8.49,8.51-12.73,12.75-4.29,4.29-8.54,8.58-12.85,12.83-.13,.13-.24,.24-.33,.37-.11,.09-.23,.2-.35,.33l-36.81,36.81c-8.76,8.76-17.51,17.53-26.3,26.27-.9,.87-1.29,1.73-.94,2.94,.13,.49,.13,1.02,.24,1.53,.22,1.11,1.26,1.66,2.32,1.24,.73-.31,1.43-.73,2.08-1.2,2.31-1.66,4.79-2.23,7.56-1.49,3.11,.85,5.27,2.92,6.87,5.55,3.95,6.52,6.92,13.5,8.76,20.9,1.27,5.07,2.1,10.26,3.41,15.33,1.31,5.17,3.63,9.91,6.83,14.18,.94,1.24,2.16,1.81,3.72,1.74,1.61-.07,2.91-.77,4.04-1.77l21.98-21.97c.87-1.13,.92-2.68,.25-3.98t0-.02l-3.25-6.59-2.03-4.1h0s-12.42-25.16-12.42-25.16c-1.01-2.04-.64-4.4,.77-6.02h0c.33-.65,.82-1.25,1.5-1.77,1.22-.98,2.79-1.48,4.16-2.26,1.61-.91,3.44-1.61,4.76-2.86,4.74-4.51,9.34-9.18,13.93-13.85,2.11-2.16,1.97-5.45-.12-7.61-2.66-2.73-5.3-5.48-7.95-8.23-1.84-1.92-1.93-4.17-.16-6.18,1.39-1.57,2.83-3.11,4.31-4.59Zm-1.49,21.33c1.53,1.63,1.38,3.71-.23,5.46l-4.96,4.96c-1.52,1.52-3.03,3.05-4.55,4.56-3.68,3.64-8.91,3.64-12.55,0l-.76-.77c-2.72-2.71-2.76-5.56,0-8.31,3.49-3.47,7.03-6.9,10.54-10.34,.53-.54,1.03-1.12,1.54-1.66,1.36-1.44,3.24-1.6,4.66-.24,2.15,2.05,4.28,4.15,6.32,6.32Z"/>
        <path class="cls-2" d="M1384,49.06l2.18,8.11-1.77,1.77-1.98-7.34c-.07-.3-.37-.48-.65-.4l-.28,.09c-.3,.07-.47,.38-.38,.66l2.18,8.11-1.48,1.48-1.98-7.34c-.07-.3-.37-.48-.65-.4l-.28,.09c-.3,.07-.47,.38-.38,.66l2.18,8.11-63.18,63.18c-2.8-2.83-5.63-5.63-8.44-8.49-1.02-1.02-.99-1.47,.02-2.48l.95-.95c-.7-1.09-1.61-2.36-1.46-2.71,.54-1.25,1.51-2.17,2.73-2.76,.34-.17,1.7,.8,2.75,1.45,6.55-6.55,13.12-13.09,19.65-19.65,.04-.05,.1-.11,.15-.13,.03-.06,.06-.09,.11-.11,3.98-4.07,7.99-8.05,12.01-12.06l25.63-25.63c.28-.28,.51-.51,.7-.68l21.46-21.46c-.09-.06-.15-.13-.24-.21-.42-.43-.85-.86-1.2-1.32-.51-.71-.5-1.46,.18-2.02,.64-.53,1.34-.43,1.94,.12,.29,.25,.57,.57,.95,.95,.1,.15,.27,.29,.42,.42l1.74-1.74c1.4-1.4,1.45-1.4,2.83-.02l8.29,8.28-21.41,21.41-1.96-7.35c-.09-.29-.38-.47-.67-.38l-.29,.08c-.29,.07-.45,.37-.38,.67Z"/>
      </g>
      <g>
        <path class="cls-2" d="M1264.48,128.83c-.17-.29-.41-.58-.7-.86-8.8-8.74-17.55-17.51-26.31-26.27l-36.81-36.81c-.13-.13-.24-.24-.36-.33-.08-.12-.2-.24-.33-.37-4.3-4.25-8.56-8.54-12.85-12.83-4.24-4.24-8.5-8.49-12.72-12.75-.25-.26-.47-.43-.68-.52-.37-.17-.71-.06-1.1,.35-1.26,1.32-2.6,2.57-3.85,3.9-1.43,1.54-1.3,3.66,.4,5.36,7.9,7.93,15.84,15.85,23.74,23.79h0c.07,.09,.14,.16,.24,.26,1.48,1.48,2.92,3.02,4.3,4.59,1.77,2.01,1.68,4.26-.16,6.18-2.65,2.75-5.29,5.49-7.95,8.23-2.09,2.17-2.23,5.45-.12,7.61,4.59,4.67,9.19,9.34,13.94,13.85,1.31,1.25,3.14,1.95,4.75,2.86,1.37,.77,2.93,1.28,4.16,2.26,.68,.52,1.17,1.12,1.5,1.76h0c1.42,1.62,1.79,3.99,.77,6.02l-12.42,25.16h0s-2.03,4.11-2.03,4.11l-3.25,6.59s0,0,0,.02c-.66,1.3-.62,2.84,.26,3.98l21.97,21.97c1.14,.99,2.43,1.7,4.04,1.77,1.56,.07,2.78-.51,3.72-1.74,3.2-4.27,5.52-9.02,6.84-14.18,1.3-5.06,2.13-10.26,3.41-15.33,1.83-7.4,4.8-14.38,8.76-20.9,1.6-2.63,3.77-4.7,6.87-5.55,2.76-.73,5.24-.17,7.55,1.49,.65,.47,1.35,.89,2.08,1.2,1.05,.42,2.1-.13,2.32-1.24,.11-.51,.11-1.04,.24-1.53,.23-.82,.13-1.48-.24-2.08Zm-46.77-21.54l-.76,.77c-3.64,3.63-8.87,3.63-12.55,0-1.52-1.51-3.03-3.03-4.56-4.56l-4.96-4.96c-1.61-1.75-1.76-3.83-.23-5.46,2.04-2.17,4.17-4.26,6.33-6.32,1.42-1.36,3.29-1.21,4.66,.24,.51,.55,1,1.12,1.53,1.66,3.51,3.44,7.05,6.86,10.54,10.34,2.75,2.75,2.71,5.59,0,8.31Z"/>
        <path class="cls-2" d="M1276.07,117.34c-2.87,2.92-5.76,5.79-8.62,8.68l-63.07-63.06,2.26-8.42c.09-.29-.08-.6-.38-.66l-.28-.09c-.29-.08-.59,.1-.65,.4l-2.06,7.65-1.48-1.48,2.26-8.42c.09-.28-.08-.6-.37-.66l-.29-.09c-.29-.08-.58,.1-.65,.4l-2.06,7.65-1.77-1.77,2.26-8.42c.07-.3-.08-.6-.38-.67l-.29-.08c-.28-.09-.58,.1-.66,.38l-2.05,7.66-21.53-21.52,8.49-8.48c1.38-1.38,1.43-1.38,2.84,.02l1.74,1.74c.16-.13,.33-.27,.43-.42,.38-.38,.66-.7,.95-.95,.61-.55,1.3-.65,1.94-.12,.68,.56,.69,1.31,.19,2.02-.36,.46-.78,.89-1.21,1.32-.09,.08-.15,.15-.24,.21l21.46,21.46c.2,.17,.42,.4,.71,.68l25.62,25.63c4.02,4.02,8.03,8,12.01,12.06,.06,.02,.09,.06,.11,.11,.06,.02,.11,.08,.16,.13,6.53,6.55,13.1,13.1,19.65,19.65,1.05-.65,2.41-1.62,2.75-1.45,1.22,.6,2.2,1.52,2.74,2.76,.14,.34-.77,1.61-1.46,2.71l.95,.95c1,1.01,1.04,1.46,.02,2.48Z"/>
      </g>
      <path class="cls-1" d="M1268.87,65.5l2.07,3.62c5.52-3.32,11.84-5.45,18.6-6v-4.16c-7.53,.57-14.55,2.9-20.68,6.55Zm2.24,86.63l-2.04,3.58c5.96,3.5,12.79,5.69,20.06,6.24v-4.13c-6.53-.55-12.65-2.55-18.02-5.69Zm-16.48-14.71c-.11,.04-.19,.06-.3,.09-1.28,.21-2.29,1.11-3.1,2.38,2.98,4.3,6.64,8.07,10.83,11.2l2.1-3.66c-3.66-2.8-6.89-6.19-9.53-10Zm44.43,20.43v4.25c7.48-.56,14.5-2.82,20.63-6.41l-2.1-3.68c-5.53,3.23-11.81,5.29-18.53,5.85Zm25.59-10.73l1.99,3.47c3.98-2.96,7.45-6.53,10.27-10.61-.77-1.2-1.72-2.05-2.94-2.25-.1-.02-.18-.04-.28-.08-2.5,3.61-5.56,6.82-9.03,9.48Zm-61.03-72.88l-2.3-4.03c-4.31,3.28-8.1,7.24-11.17,11.68l3.26,3.37c2.79-4.21,6.24-7.94,10.22-11.03Zm34.89-14.89v4.01c6.51,.53,12.59,2.58,17.9,5.78l1.99-3.48c-5.9-3.52-12.65-5.76-19.89-6.3Zm35.6,25.7l3.26-3.37c-3.07-4.45-6.87-8.4-11.17-11.68l-2.3,4.03c3.98,3.1,7.42,6.82,10.22,11.03Z"/>
      <rect class="cls-1" x="1292.01" y="20.66" width="4.28" height="61.88" rx=".75" ry=".75"/>
      <path class="cls-1" d="M1252.69,48.83l18.72,32.62c.13,.22,.47,.27,.76,.1l1.97-1.13c.29-.17,.43-.49,.3-.71l-18.72-32.62c-.13-.22-.47-.27-.76-.1l-1.97,1.13c-.29,.17-.43,.49-.3,.71Z"/>
      <path class="cls-1" d="M1332.96,53.09l-18.72,32.62c-.13,.22-.47,.27-.76,.1l-1.97-1.13c-.29-.17-.43-.49-.3-.71l18.72-32.62c.13-.22,.47-.27,.76-.1l1.97,1.13c.29,.17,.43,.49,.3,.71Z"/>
      <path class="cls-1" d="M1334.88,170.73l-18.72-32.62c-.13-.22-.47-.27-.76-.1l-1.97,1.13c-.29,.17-.43,.49-.3,.71l18.72,32.62c.13,.22,.47,.27,.76,.1l1.97-1.13c.29-.17,.43-.49,.3-.71Z"/>
      <path class="cls-1" d="M1252.69,172.91l18.72-32.62c.13-.22,.47-.27,.76-.1l1.97,1.13c.29,.17,.43,.49,.3,.71l-18.72,32.62c-.13,.22-.47,.27-.76,.1l-1.97-1.13c-.29-.17-.43-.49-.3-.71Z"/>
      <rect class="cls-1" x="1292.01" y="138.58" width="4.28" height="61.14" rx=".75" ry=".75"/>
      <circle class="cls-1" cx="1294.15" cy="108.28" r="6.34"/>
      <path class="cls-2" d="M1264.48,128.83l-90.74-90.75c.2,.09,.42,.26,.68,.52,4.21,4.26,8.48,8.51,12.72,12.75,4.29,4.29,8.55,8.58,12.85,12.83,.13,.13,.24,.24,.33,.37,.11,.09,.23,.2,.36,.33l36.81,36.81c8.76,8.76,17.51,17.53,26.31,26.27,.29,.29,.53,.57,.7,.86Z"/>
    </g>
    <g>
      <path class="cls-1" d="M105.9,629.35c-3.65,.09-7.27,.28-10.79,.56-.58,1.03-1.18,2.09-1.79,3.18-.43,.77-1.13,1.3-1.99,1.54-.83,.21-1.73,.09-2.48-.38l-1.43-.88c-.92-.58-1.45-1.54-1.52-2.56-8.85,1.05-17.18,2.61-24.79,4.62,1.2,1.41,2.46,2.78,3.78,4.15,12.18-3.03,26.37-4.94,41.61-5.32-.19-1.71-.41-3.36-.6-4.89Zm89.13,19.1c-1.75,1.09-3.55,2.12-5.34,3.08,7.5,5.09,11.8,10.98,11.8,17.27,0,19.15-39.81,34.66-88.94,34.66s-88.92-15.51-88.92-34.66c0-7.14,5.53-13.76,15.02-19.25-1.86-.94-3.72-1.92-5.56-2.97-10.79,6.45-17.12,14.32-17.12,22.78,0,22.14,43.25,40.11,96.57,40.11s96.59-17.97,96.59-40.11c0-7.65-5.15-14.79-14.1-20.9Zm-28.44-12.33c-13.68-3.87-29.85-6.28-47.33-6.77-.21,1.56-.41,3.18-.6,4.89,16.41,.45,31.61,2.61,44.36,6.05,1.24-1.37,2.44-2.76,3.57-4.17Z"/>
      <path class="cls-1" d="M132.93,666.09c0,4.66-9.12,8.44-20.37,8.44s-20.37-3.78-20.37-8.44c0-4.15,7.18-7.61,16.67-8.31,.53,1.05,1.62,1.77,2.88,1.77h1.6c1.26,0,2.35-.73,2.89-1.77,9.49,.71,16.69,4.15,16.69,8.31Z"/>
      <path class="cls-2" d="M177.72,579.13c-27.99-2.99-42.82-5.53-51.29-15.51,.92-7.86,7.71-32.33,8.14-33.87-5.62,9.96-10.02,17.5-14.13,22.99-3.7-10.41-8.7-47.89-8.7-47.89-2.59,32.31-4.79,49.41-13.42,59.17-7.07-1.07-29.43-9.4-29.43-9.4,8.63,6.45,15.22,11.6,19.96,16.33-9.02,4.25-41.48,10.02-41.48,10.02,28.02,2.99,42.82,5.53,51.29,15.51-.92,7.89-7.69,32.33-8.12,33.87,5.6-9.94,10.02-17.5,14.13-22.97,3.68,10.41,8.68,47.87,8.68,47.87,2.59-32.31,4.79-49.41,13.42-59.17,7.07,1.07,29.43,9.4,29.43,9.4-8.63-6.45-15.21-11.6-19.96-16.33,9.02-4.25,41.48-10.02,41.48-10.02Zm-65.35,34.83c-1.5-27.27-2.69-29.3-18.83-31.82,16.13-2.5,17.33-4.55,18.83-31.82,1.47,27.27,2.69,29.32,18.83,31.82-16.13,2.52-17.35,4.55-18.83,31.82Z"/>
      <path class="cls-1" d="M88.45,661.93s-72.27-7.09-88.45-56.16c0,0,6.16-15.64,10.2-24.77,1.64,26.46,22.67,38.44,23.69,38.98-16.75-12.33-15.73-38.21-12.01-57.53,7.99-11.26,18.78-24.06,33.27-37.55,0,0-58.6,74.64,33.29,137.02Z"/>
      <path class="cls-1" d="M136.77,665.56s72.27-7.09,88.45-56.16c0,0-6.16-15.64-10.2-24.77-1.64,26.46-22.67,38.44-23.69,38.98,16.75-12.33,15.73-38.21,12.01-57.53-7.99-11.26-18.78-24.06-33.27-37.55,0,0,58.6,74.64-33.29,137.02Z"/>
    </g>
    <g>
      <path class="cls-1" d="M659.98,674.15l-19.76,23.74c-35.19-15.06-59.87-50.02-59.87-90.73,0-22.68,7.66-43.61,20.54-60.26-6.46,12.26-10.12,26.24-10.12,41.08,0,42.2,29.62,77.48,69.2,86.18Z"/>
      <path class="cls-1" d="M777.67,607.16c0,50.05-37.26,91.38-85.56,97.79l17.34-34.13c33.74-12.37,57.82-44.8,57.82-82.84,0-14.81-3.63-28.75-10.07-40.98,12.83,16.65,20.47,37.51,20.47,60.17Z"/>
      <g>
        <path class="cls-1" d="M640.07,526.54s0,12.46,4.19,25.96c-.51-.25-1.08-.42-1.64-.57l-3.38-.85-.7,16.29c-1.51-2.68-3.57-5.36-6.27-7.49-.53-1.28-1-2.57-1.4-3.83,1.34-8.87,4.08-18.99,9.19-29.51Z"/>
        <path class="cls-1" d="M737.05,544.43s-30.73-16.59-54.33-6.95c-14.16,5.8-21.05,16.14-20.99,26.24l-2.44,5.32c-1.02-2.23-1.98-4.83-2.78-7.85-4.96-18.8,9.67-47.7,31.58-53.39,0,0,6.42,1.76,15.38,6.74-13.46,3.7-25.56,17.18-26.81,18.61,13.59-11.97,27.98-12.84,38.77-10.85,7.15,5.4,14.78,12.61,21.6,22.12Z"/>
        <path class="cls-1" d="M693.08,589.46c-5.85,5.49-14.8,8.83-24.35,9.72,1.38-4.42,2.72-9.42,3.59-14.35,15.38,5.25,29.24-2.74,32.32-18.1,0,0,1.79,10.19-11.55,22.73Z"/>
        <path class="cls-2" d="M684.74,621.11l-4.59,4.61-10.89-9.95s11.25,.74,19.73,.53c-2.45,3-4.19,4.76-4.25,4.81Z"/>
        <path class="cls-2" d="M703.75,591.16c-2.04,5.83-4.98,11.25-7.93,15.82-.85-4.95-1.26-11.38-1.17-16.39,1.87-1.77,3.44-3.51,4.78-5.19,1.28,1.49,2.79,3.53,4.32,5.76Z"/>
        <path class="cls-2" d="M714.43,642.43l-12.4,33.98-4.4-34.75-16.86-15.39,5.93-2.04c9.7-3.34,18.86-8.1,27.18-14.14l.55,32.34Z"/>
        <path class="cls-2" d="M683.17,706.51l15.55-26.35-4.35-38.01-33.19-30.28s17.95-43.12,3.93-48.74l-25.72,56.02,40.72,34.18-35.91,48.29s21.62,4.64,38.96,4.88Z"/>
        <path class="cls-1" d="M693.09,540.48c19.44,.62,42.92,22.92,42.09,45.55,0,0-3.52,5.66-10.86,12.82,.32-14.41-9.76-30.41-10.23-31.13,7.65,16.5,4.36,30.58-.65,40.37-7.23,5.32-16.32,10.55-27.37,14.36,0,0,24.69-24.69,22.21-50.07s-22.89-35.03-39.44-24c0,0,5.93-8.48,24.24-7.89Z"/>
        <path class="cls-2" d="M653.16,584.65s1.19-26.82-11.24-29.97l-2.4,55.26,13.63-25.29Z"/>
        <path class="cls-2" d="M638.91,576.32s-3.02-16.58-17.91-18.14l15.35,46.29,2.56-28.15Z"/>
        <path class="cls-1" d="M673.14,558.36c4.27,21.24,20.88,14.01,20.88,14.01-2.72-21.71-20.88-14.01-20.88-14.01Zm10.59,11.23c-2.53,0-4.59-2.06-4.59-4.59s2.06-4.57,4.59-4.57,4.57,2.04,4.57,4.57-2.04,4.59-4.57,4.59Z"/>
      </g>
    </g>
    <g>
      <path class="cls-2" d="M1290.01,561.18c-16.71,0-30.29,12.89-30.29,28.76s13.57,28.74,30.29,28.74,30.27-12.87,30.27-28.74-13.55-28.76-30.27-28.76Zm0,46.48c-1.48-15.19-2.68-16.33-18.68-17.72,16-1.41,17.2-2.55,18.68-17.74,1.46,15.19,2.66,16.33,18.66,17.74-15.99,1.39-17.19,2.53-18.66,17.72Z"/>
      <path class="cls-2" d="M1320.43,622.39h-60.85c-1.83,0-3.31,1.56-3.31,3.49v1.02c0,1.93,1.48,3.49,3.31,3.49,0,0,24.92,2.68,24.92,28.11,0,2.52,.04,4.23,.12,5.32v50.59c0,3.14,2.41,5.69,5.39,5.69s5.39-2.55,5.39-5.69v-52.17c.03-.96,.04-2.12,.04-3.58,0-25.43,24.92-28.11,24.92-28.11,.04-.06,.06-.11,.09-.16,1.82,0,3.29-1.57,3.29-3.49v-1.02c0-1.93-1.48-3.49-3.31-3.49Z"/>
      <path class="cls-1" d="M1324.51,594.36c-.17,1.28-.44,2.55-.76,3.79,12.05,9.3,19.75,23.5,19.75,39.41,0,25.76-20.23,47.06-46.41,50.34v3.46c28.19-3.27,50.04-26.13,50.04-53.8,0-17.66-8.88-33.32-22.61-43.21Zm-87.98,43.21c0-15.89,7.68-30.09,19.73-39.41-.33-1.24-.59-2.51-.76-3.79-13.73,9.91-22.59,25.57-22.59,43.21,0,27.66,21.82,50.5,50.01,53.8v-3.46c-26.19-3.29-46.39-24.58-46.39-50.34Z"/>
      <path class="cls-1" d="M1400.41,627.51c-17.83,1.06-24.09,2.24-27.3,11.17-.74,2.11-1.33,4.64-1.86,7.71l-1.48,4.48c-10.71,29.34-38.89,50.94-72.69,53.61v-2.45c34.54-3.38,61.47-31.06,61.47-64.74,0-2.9-.2-5.76-.59-8.58-.22-1.51-.48-3-.81-4.5-3.03-14.22-10.98-26.75-22.04-35.93h-.02c-1.44-1.22-2.95-2.36-4.5-3.44-2.31-1.62-4.74-3.11-7.27-4.43-2.36-7.46-7.42-13.82-14.12-18.05-5.5-3.46-12.09-5.49-19.2-5.49s-13.62,1.99-19.09,5.41c-6.76,4.23-11.89,10.63-14.27,18.15-2.6,1.37-5.06,2.9-7.44,4.58-.63,.44-1.24,.89-1.85,1.35-.26,.21-.52,.41-.79,.62-.61,.46-1.22,.95-1.79,1.45-.02,0-.04,.02-.07,.04h-.02c-10.98,9.22-18.81,21.66-21.82,35.79-.31,1.43-.57,2.9-.76,4.39-.42,2.82-.61,5.7-.61,8.64,0,33.65,26.93,61.36,61.43,64.74v2.42c-33.95-2.67-62.21-24.45-72.82-53.98v-.02c-.04-.1-.09-.23-.11-.33l-1.72-5.45c0-.06-.02-.1-.02-.17-.31-1.57-.63-2.98-1.03-4.27,0-.02-.02-.04-.02-.06-3.05-10.3-8.99-11.54-27.78-12.66,19.27-2.22,24.9-3.81,27.19-15.17,0-.04,.02-.1,.02-.15,.13-.64,.26-1.33,.35-2.05,.02-.04,.04-.08,.02-.12l.04-.17,1.59-6.63,.04-.12v-.02c.65-2.22,1.4-4.39,2.25-6.53,1.2-3.11,2.62-6.11,4.21-9.01,.87-1.33,1.62-2.57,2.23-3.77,.13-.23,.26-.48,.37-.7,5.72-11.67,.61-18.67-15.89-36.12,20.42,14.9,27.98,18.92,40.65,11.38,1.22-.77,2.44-1.53,3.71-2.26,4.15-2.4,8.51-4.46,13.07-6.15,2.95-1.1,5.98-2.03,9.08-2.8l.02-.02c15.78-6.61,18.57-20.02,21.76-52.86,3.23,33.2,6.04,46.52,22.28,53.07,2.64,.68,5.26,1.49,7.79,2.42,1.75,.64,3.47,1.33,5.15,2.09l.04,.02,10.69,5.6c.07,.04,.15,.1,.24,.14,13.27,8.29,20.69,4.46,41.61-10.82-16.5,17.45-21.6,24.45-15.89,36.12,.85,1.7,1.92,3.5,3.23,5.47,1.42,2.63,2.68,5.37,3.78,8.16,.81,1.99,1.51,4.04,2.14,6.11l1.27,4.79c.33,2.82,.72,5.2,1.29,7.21,2.64,9.3,8.75,10.84,26.64,12.89Z"/>
    </g>
  </g>
</svg>